<?xml version="1.0" standalone="no"?>
<!DOCTYPE svg PUBLIC "-//W3C//DTD SVG 1.1//EN" "http://www.w3.org/Graphics/SVG/1.1/DTD/svg11.dtd" >
<svg xmlns="http://www.w3.org/2000/svg" xmlns:xlink="http://www.w3.org/1999/xlink" version="1.1">
<metadata>
Created by FontForge 20170731 at Tue Nov 16 11:11:58 2021
 By Aleksey,,,
Copyright (c) 2014 by Rene' Bieder. All rights reserved.
</metadata>
<defs>
<font id="GalanoGrotesque-Heavy" horiz-adv-x="1249" >
  <font-face 
    font-family="Galano Grotesque Heavy"
    font-weight="850"
    font-stretch="normal"
    units-per-em="2048"
    panose-1="0 0 9 0 0 0 0 0 0 0"
    ascent="1638"
    descent="-410"
    x-height="1036"
    cap-height="1372"
    bbox="-334 -463 2640 1991"
    underline-thickness="102"
    underline-position="-307"
    unicode-range="U+0020-FB02"
  />
<missing-glyph horiz-adv-x="1589" 
d="M795 1401q192 0 355 -91.5t260 -257t97 -368.5q0 -153 -57 -287.5t-153.5 -227.5t-227 -146.5t-274.5 -53.5q-193 0 -356.5 91t-261 256t-97.5 368q0 202 97.5 367.5t261 257.5t356.5 92zM795 1288q-120 0 -229 -45.5t-189 -124.5t-127 -192.5t-47 -241.5t47 -240.5
t127 -191.5t189 -124.5t229 -45.5q119 0 227.5 45.5t188 124.5t126.5 191.5t47 240.5t-47 241.5t-126.5 192.5t-188 124.5t-227.5 45.5zM1087 823q0 -80 -51.5 -135.5t-142.5 -77.5v-51h-225v193h98q40 0 64 15.5t24 41.5t-17.5 41.5t-48.5 15.5t-50.5 -18t-24.5 -49
l-230 45q22 98 104 161.5t220 63.5q124 0 202 -71t78 -175zM776 522q54 0 89.5 -36.5t35.5 -84.5q0 -52 -35 -87t-90 -35q-54 0 -89.5 35.5t-35.5 86.5q0 47 36.5 84t88.5 37z" />
    <glyph glyph-name="fi" unicode="fi" horiz-adv-x="1378" 
d="M1067 1118q-99 0 -163 62.5t-64 158.5q0 91 64.5 156.5t162.5 65.5t163.5 -65.5t65.5 -156.5q0 -95 -64.5 -158t-164.5 -63zM1274 1038v-1038h-412v719h-301v-719h-411v719h-134v319h134v60q0 184 118 295.5t312 111.5q102 0 194 -32l-59 -316q-5 1 -15 2.5t-18 2.5
t-14 1q-48 0 -77.5 -27t-29.5 -71v-27h713z" />
    <glyph glyph-name="fl" unicode="fl" horiz-adv-x="1376" 
d="M666 1163q-46 0 -75.5 -27t-29.5 -71v-27h240v-319h-240v-719h-411v719h-134v319h134v60q0 184 118 295.5t310 111.5q121 0 233 -47l-80 -305q-38 10 -65 10zM1292 1475v-1475h-411v1475h411z" />
    <glyph glyph-name=".notdef" horiz-adv-x="1589" 
d="M795 1401q192 0 355 -91.5t260 -257t97 -368.5q0 -153 -57 -287.5t-153.5 -227.5t-227 -146.5t-274.5 -53.5q-193 0 -356.5 91t-261 256t-97.5 368q0 202 97.5 367.5t261 257.5t356.5 92zM795 1288q-120 0 -229 -45.5t-189 -124.5t-127 -192.5t-47 -241.5t47 -240.5
t127 -191.5t189 -124.5t229 -45.5q119 0 227.5 45.5t188 124.5t126.5 191.5t47 240.5t-47 241.5t-126.5 192.5t-188 124.5t-227.5 45.5zM1087 823q0 -80 -51.5 -135.5t-142.5 -77.5v-51h-225v193h98q40 0 64 15.5t24 41.5t-17.5 41.5t-48.5 15.5t-50.5 -18t-24.5 -49
l-230 45q22 98 104 161.5t220 63.5q124 0 202 -71t78 -175zM776 522q54 0 89.5 -36.5t35.5 -84.5q0 -52 -35 -87t-90 -35q-54 0 -89.5 35.5t-35.5 86.5q0 47 36.5 84t88.5 37z" />
    <glyph glyph-name=".null" horiz-adv-x="0" 
 />
    <glyph glyph-name="nonmarkingreturn" horiz-adv-x="682" 
 />
    <glyph glyph-name="space" unicode=" " horiz-adv-x="442" 
 />
    <glyph glyph-name="exclam" unicode="!" horiz-adv-x="636" 
d="M553 1372v-63l-37 -809h-395l-37 809v63h469zM330 420q96 0 160.5 -63.5t64.5 -151.5q0 -93 -63.5 -154t-161.5 -61q-99 0 -162.5 61t-63.5 154q0 88 64 151.5t162 63.5z" />
    <glyph glyph-name="quotedbl" unicode="&#x22;" horiz-adv-x="989" 
d="M86 676v696h360v-696h-360zM543 676v696h362v-696h-362z" />
    <glyph glyph-name="numbersign" unicode="#" horiz-adv-x="1513" 
d="M1202 780l-51 -211h199l-78 -290h-193l-69 -279h-320l70 279h-203l-68 -279h-319l68 279h-197l78 290h190l53 211h-198l78 291h192l74 301h319l-73 -301h202l74 301h320l-74 -301h197l-78 -291h-193zM883 780h-203l-51 -211h200z" />
    <glyph glyph-name="dollar" unicode="$" horiz-adv-x="1259" 
d="M1208 449q0 -91 -32.5 -165t-89 -123.5t-125.5 -81.5t-150 -48v-236h-338v240q-167 42 -280.5 147.5t-139.5 247.5l389 74q45 -172 209 -172q57 0 95 22t38 58q0 29 -15.5 47.5t-55.5 29.5l-264 66q-179 46 -270 136.5t-91 238.5q0 168 105 273.5t280 139.5v234h338v-240
q161 -36 263 -134.5t122 -244.5l-373 -63q-37 162 -192 162q-52 0 -84.5 -23t-32.5 -65q0 -57 61 -72l256 -63q189 -47 283 -139t94 -246z" />
    <glyph glyph-name="percent" unicode="%" horiz-adv-x="1867" 
d="M457 1403q155 0 262.5 -100.5t107.5 -260.5q0 -159 -107.5 -258.5t-262.5 -99.5t-265 100t-110 258q0 160 109.5 260.5t265.5 100.5zM340 0l971 1372h213l-973 -1372h-211zM457 1174q-52 0 -89.5 -36t-37.5 -96q0 -58 37.5 -94.5t89.5 -36.5q49 0 87 37t38 94
q0 60 -38 96t-87 36zM1415 690q155 0 263 -100.5t108 -261.5q0 -159 -108 -259t-263 -100t-265 100t-110 259q0 161 109.5 261.5t265.5 100.5zM1415 461q-52 0 -89.5 -36t-37.5 -95t37.5 -95t89.5 -36q49 0 87 36t38 95t-38 95t-87 36z" />
    <glyph glyph-name="ampersand" unicode="&#x26;" horiz-adv-x="1423" 
d="M1182 -55l-164 141q-180 -117 -420 -117t-393.5 117t-153.5 307q0 116 61 206.5t171 150.5q-95 127 -95 262q0 174 133.5 282.5t346.5 108.5q218 0 337 -106.5t146 -278.5l-373 -68q-7 76 -33 108t-75 32q-39 0 -62.5 -23.5t-23.5 -62.5q0 -41 27 -84.5t91 -104.5
l236 -203q6 37 6 82v70h383v-70q0 -195 -76 -350l166 -143zM629 291q56 0 116 31l-233 200q-51 -45 -51 -98q0 -59 43.5 -96t124.5 -37z" />
    <glyph glyph-name="quotesingle" unicode="'" horiz-adv-x="532" 
d="M86 676v696h360v-696h-360z" />
    <glyph glyph-name="parenleft" unicode="(" horiz-adv-x="819" 
d="M483 690q0 -80 15 -152.5t38 -127.5t63 -115.5t75 -103t90 -103.5l-291 -256q-93 91 -161.5 175t-129.5 190t-93 230.5t-32 262.5t32 261.5t93 229.5t129.5 190t161.5 175l277 -258q-53 -64 -83 -102t-70.5 -101t-61.5 -116t-36.5 -126.5t-15.5 -152.5z" />
    <glyph glyph-name="parenright" unicode=")" horiz-adv-x="819" 
d="M70 1288l276 258q94 -90 162.5 -174.5t130 -190.5t93.5 -229.5t32 -261.5t-32 -262.5t-93.5 -230.5t-130 -190.5t-162.5 -174.5l-289 256q55 61 89.5 103t74.5 103t62 116t37.5 127.5t15.5 152.5q0 79 -15.5 152.5t-36.5 127t-61 116t-70 101t-83 101.5z" />
    <glyph glyph-name="asterisk" unicode="*" horiz-adv-x="915" 
d="M664 1100l188 -109l-102 -178l-183 105v-197h-219v199l-182 -105l-103 176l189 109l-189 106l103 178l182 -104v195h219v-195l183 104l102 -176z" />
    <glyph glyph-name="plus" unicode="+" horiz-adv-x="1153" 
d="M1081 461h-348v-350h-313v350h-348v311h348v350h313v-350h348v-311z" />
    <glyph glyph-name="comma" unicode="," horiz-adv-x="579" 
d="M301 -270h-315l118 651h439v-10z" />
    <glyph glyph-name="hyphen" unicode="-" horiz-adv-x="933" 
d="M811 391h-688v340h688v-340z" />
    <glyph glyph-name="period" unicode="." horiz-adv-x="530" 
d="M264 438q96 0 162 -67t66 -158q0 -96 -65 -160.5t-163 -64.5t-161.5 64.5t-63.5 160.5q0 91 64.5 158t160.5 67z" />
    <glyph glyph-name="slash" unicode="/" horiz-adv-x="942" 
d="M895 1518l-590 -1665h-260l590 1665h260z" />
    <glyph glyph-name="zero" unicode="0" horiz-adv-x="1355" 
d="M678 1403q283 0 456 -197.5t173 -519.5t-173 -519.5t-456 -197.5t-456 197.5t-173 519.5t173 519.5t456 197.5zM678 326q94 0 148.5 93t54.5 267q0 172 -54.5 265t-148.5 93t-148.5 -93t-54.5 -265q0 -174 54.5 -267t148.5 -93z" />
    <glyph glyph-name="one" unicode="1" horiz-adv-x="856" 
d="M743 1372v-1372h-413v887l-314 -160v389l453 256h274z" />
    <glyph glyph-name="two" unicode="2" horiz-adv-x="1200" 
d="M1137 360v-360h-1092l4 8v273l492 426q60 52 88.5 80.5t53 69.5t24.5 81q0 54 -33 86.5t-86 32.5q-65 0 -106 -43.5t-48 -134.5l-401 71q12 212 160 332.5t385 120.5q239 0 386.5 -124t147.5 -343q0 -56 -14 -107t-34 -89t-59 -83t-72 -76t-91 -81l-166 -140h461z" />
    <glyph glyph-name="three" unicode="3" horiz-adv-x="1202" 
d="M989 702q164 -99 164 -282q0 -194 -155.5 -322.5t-395.5 -128.5q-222 0 -377.5 117t-187.5 320l407 71q13 -82 56.5 -126t107.5 -44q65 0 105.5 34t40.5 89q0 53 -42.5 81t-117.5 28h-162v311h154q74 0 115.5 26t41.5 76q0 55 -39 88t-104 33q-64 0 -105.5 -45
t-50.5 -137l-395 74q34 210 183 324t366 114q232 0 382 -124.5t150 -313.5q0 -173 -141 -263z" />
    <glyph glyph-name="four" unicode="4" horiz-adv-x="1312" 
d="M1270 213h-160v-213h-389v213h-688v377l585 784h492v-821h160v-340zM721 553v408l-289 -408h289z" />
    <glyph glyph-name="five" unicode="5" horiz-adv-x="1196" 
d="M483 897h162q246 0 375 -119t129 -325q0 -217 -148.5 -350.5t-392.5 -133.5q-151 0 -273.5 52.5t-201 160t-88.5 254.5l397 76q4 -105 52.5 -152t117.5 -47q65 0 104.5 37.5t39.5 98.5q0 59 -43 94t-115 35h-492l31 796h957v-356h-605z" />
    <glyph glyph-name="six" unicode="6" 
d="M725 893q214 0 344.5 -126t130.5 -329q0 -206 -152.5 -337.5t-385.5 -131.5q-282 0 -447.5 181t-165.5 507q0 379 201 580q166 166 416 166q198 0 334 -91.5t178 -258.5l-394 -80q-17 53 -48.5 73.5t-86.5 20.5q-74 0 -131 -63q-71 -80 -74 -220q51 51 124.5 80t156.5 29
zM647 291q67 0 117.5 48t50.5 116q0 69 -50 116t-118 47t-117 -47t-49 -118q0 -67 49.5 -114.5t116.5 -47.5z" />
    <glyph glyph-name="seven" unicode="7" horiz-adv-x="1081" 
d="M1040 1374v-311l-415 -1063h-447l406 1014h-566v360h1022z" />
    <glyph glyph-name="eight" unicode="8" horiz-adv-x="1193" 
d="M934 713q111 -45 171 -129t60 -203q0 -179 -157.5 -295.5t-411.5 -116.5q-253 0 -411 117t-158 297q0 118 60 201.5t171 130.5q-180 91 -180 293q0 167 148.5 281t371.5 114q146 0 265 -52.5t186 -143t67 -199.5q0 -202 -182 -295zM596 1102q-61 0 -104 -36t-43 -95
q0 -58 43 -94.5t104 -36.5q62 0 105.5 36.5t43.5 94.5q0 60 -43.5 95.5t-105.5 35.5zM596 287q64 0 109 38t45 99t-45 98t-109 37t-108 -37.5t-44 -99.5q0 -60 44.5 -97.5t107.5 -37.5z" />
    <glyph glyph-name="nine" unicode="9" 
d="M590 1403q282 0 446 -181t164 -507q0 -378 -199 -580q-169 -166 -415 -166q-199 0 -335.5 92t-178.5 261l395 77q14 -53 46.5 -73.5t86.5 -20.5q74 0 131 64q71 80 74 219q-51 -51 -124.5 -80t-154.5 -29q-215 0 -346 126t-131 329q0 137 70 244.5t193.5 166t277.5 58.5z
M602 754q68 0 118 48t50 118q0 68 -50.5 114.5t-117.5 46.5t-117.5 -47.5t-50.5 -115.5q0 -69 50.5 -116.5t117.5 -47.5z" />
    <glyph glyph-name="colon" unicode=":" horiz-adv-x="530" 
d="M264 1051q97 0 162.5 -67.5t65.5 -160.5q0 -95 -65 -159t-163 -64t-161.5 63.5t-63.5 159.5q0 93 64.5 160.5t160.5 67.5zM264 438q96 0 162 -67t66 -158q0 -96 -65 -160.5t-163 -64.5t-161.5 64.5t-63.5 160.5q0 91 64.5 158t160.5 67z" />
    <glyph glyph-name="semicolon" unicode=";" horiz-adv-x="604" 
d="M338 1051q98 0 162.5 -67.5t64.5 -160.5q0 -96 -64 -159.5t-163 -63.5q-98 0 -161.5 63.5t-63.5 159.5q0 93 64.5 160.5t160.5 67.5zM301 -270h-315l118 651h439v-10z" />
    <glyph glyph-name="less" unicode="&#x3c;" horiz-adv-x="1013" 
d="M932 193l-869 290v365l869 293v-359l-473 -114l473 -119v-356z" />
    <glyph glyph-name="equal" unicode="=" horiz-adv-x="1153" 
d="M1081 684h-1009v295h1009v-295zM1081 279h-1009v294h1009v-294z" />
    <glyph glyph-name="greater" unicode="&#x3e;" horiz-adv-x="1013" 
d="M557 668l-475 114v359l870 -293v-365l-870 -290v356z" />
    <glyph glyph-name="question" unicode="?" horiz-adv-x="1138" 
d="M610 1403q219 0 356.5 -126t137.5 -312q0 -141 -89 -240t-247 -141v-92h-410l2 346h177q69 0 110 28t41 74q0 47 -29.5 77t-76.5 30q-51 0 -84 -35t-41 -94l-412 83q19 86 61.5 156.5t110.5 126.5t168.5 87.5t224.5 31.5zM557 420q96 0 160.5 -63.5t64.5 -151.5
q0 -93 -63.5 -154t-161.5 -61q-99 0 -162 61t-63 154q0 88 63.5 151.5t161.5 63.5z" />
    <glyph glyph-name="at" unicode="@" horiz-adv-x="1894" 
d="M1397 950v-557q0 -37 22.5 -55.5t59.5 -18.5q65 0 103 93.5t38 220.5q0 178 -87.5 315t-234 209t-325.5 72q-195 0 -354.5 -86t-251 -241t-91.5 -347q0 -191 89 -341t247 -233t357 -83q136 0 250 42t231 132l94 -152q-235 -199 -573 -199q-193 0 -358 62t-280.5 171
t-181 262t-65.5 331q0 183 68.5 342.5t187 272t282.5 177t349 64.5q172 0 325.5 -56.5t266 -155.5t178 -243.5t65.5 -312.5q0 -69 -11.5 -134t-41 -132t-75 -116.5t-120.5 -80.5t-171 -31q-198 0 -263 127q-91 -123 -268 -123q-166 0 -276.5 112t-110.5 302q0 189 111 300.5
t278 111.5q146 0 234 -88v67h303zM954 414q58 0 99 41t41 106q0 66 -40.5 106t-99.5 40q-58 0 -98.5 -40.5t-40.5 -105.5q0 -64 41 -105.5t98 -41.5z" />
    <glyph glyph-name="A" unicode="A" horiz-adv-x="1562" 
d="M1563 0h-453l-66 186h-526l-65 -186h-453l543 1372h477zM920 537l-138 391l-139 -391h277z" />
    <glyph glyph-name="B" unicode="B" horiz-adv-x="1366" 
d="M1014 709v-9q59 -1 111 -18t96.5 -52t70 -97t25.5 -144q0 -176 -127.5 -282.5t-341.5 -106.5h-764v1372h762q194 0 312 -100t118 -264q0 -75 -25 -134.5t-65.5 -94t-84.5 -52t-87 -18.5zM508 1049v-234h217q61 0 99 33t38 86t-37 84t-98 31h-219zM508 324h237
q63 0 100.5 34.5t37.5 94.5q0 52 -37.5 83t-100.5 31h-237v-243z" />
    <glyph glyph-name="C" unicode="C" horiz-adv-x="1568" 
d="M1090 588l423 -82q-43 -248 -234 -392.5t-480 -144.5q-205 0 -375.5 95t-268.5 260t-98 362t98 362t268.5 260t375.5 95q175 0 325.5 -63t253.5 -183t133 -276l-424 -82q-27 107 -101 166t-187 59q-133 0 -225.5 -97t-92.5 -241t92.5 -241t225.5 -97q112 0 187 62.5
t104 177.5z" />
    <glyph glyph-name="D" unicode="D" horiz-adv-x="1484" 
d="M84 1372h598q222 0 392 -86.5t263 -242.5t93 -357t-93 -357t-263 -242.5t-392 -86.5h-598v1372zM508 352h139q159 0 256.5 93t97.5 241t-97.5 241t-256.5 93h-139v-668z" />
    <glyph glyph-name="E" unicode="E" horiz-adv-x="1253" 
d="M1190 350v-350h-1106v1372h1096v-350h-672v-178h616v-316h-616v-178h682z" />
    <glyph glyph-name="F" unicode="F" horiz-adv-x="1232" 
d="M508 1010v-219h610v-363h-610v-428h-424v1372h1114v-362h-690z" />
    <glyph glyph-name="G" unicode="G" horiz-adv-x="1599" 
d="M768 823h766q10 -92 10 -137q0 -210 -93.5 -373.5t-261 -253.5t-380.5 -90q-208 0 -380.5 95t-272 259.5t-99.5 362.5t99 362.5t271.5 259.5t381.5 95q248 0 431.5 -109.5t252.5 -300.5l-438 -104q-67 135 -246 135q-144 0 -235 -96t-91 -242t92 -242t236 -96
q189 0 272 135h-315v340z" />
    <glyph glyph-name="H" unicode="H" horiz-adv-x="1476" 
d="M1393 1372v-1372h-422v512h-463v-512h-424v1372h424v-500h463v500h422z" />
    <glyph glyph-name="I" unicode="I" horiz-adv-x="591" 
d="M508 0h-424v1372h424v-1372z" />
    <glyph glyph-name="J" unicode="J" horiz-adv-x="1282" 
d="M1192 1372v-866q0 -242 -161 -389.5t-425 -147.5q-245 0 -397 130t-182 352l419 81q9 -97 48.5 -141.5t111.5 -44.5t116 43.5t44 116.5v866h426z" />
    <glyph glyph-name="K" unicode="K" horiz-adv-x="1447" 
d="M1466 0h-542l-353 467h-63v-467h-424v1372h424v-504h47l377 504h495l-512 -690z" />
    <glyph glyph-name="L" unicode="L" horiz-adv-x="1185" 
d="M1137 360v-360h-1053v1372h424v-1012h629z" />
    <glyph glyph-name="M" unicode="M" horiz-adv-x="1830" 
d="M1749 1372v-1372h-414v647l-317 -647h-203l-317 647v-647h-414v1372h461l370 -751l373 751h461z" />
    <glyph glyph-name="N" unicode="N" horiz-adv-x="1536" 
d="M1452 1372v-1372h-346l-598 662v-662h-424v1372h348l598 -688v688h422z" />
    <glyph glyph-name="O" unicode="O" horiz-adv-x="1599" 
d="M801 1403q205 0 375.5 -95t269 -260t98.5 -362t-98.5 -362t-269 -260t-375.5 -95q-154 0 -292 56t-237 151.5t-157 228.5t-58 281t58 281t157 228.5t237 151.5t292 56zM801 348q139 0 228 96t89 242t-89 242t-228 96t-229.5 -96.5t-90.5 -241.5t90.5 -241.5t229.5 -96.5z
" />
    <glyph glyph-name="P" unicode="P" horiz-adv-x="1357" 
d="M84 1372h729q225 0 362.5 -135t137.5 -354q0 -229 -146.5 -367.5t-388.5 -138.5h-270v-377h-424v1372zM508 705h209q77 0 128.5 45.5t51.5 119.5q0 68 -52 113t-128 45h-209v-323z" />
    <glyph glyph-name="Q" unicode="Q" horiz-adv-x="1599" 
d="M1544 686q0 -156 -62.5 -293t-174.5 -235l200 -248l-311 -266l-274 333q-78 -8 -121 -8q-154 0 -292 56t-237 151.5t-157 228.5t-58 281t58 281t157 228.5t237 151.5t292 56q205 0 375.5 -95t269 -260t98.5 -362zM481 686q0 -145 90.5 -241.5t229.5 -96.5t228 96t89 242
t-89 242t-228 96t-229.5 -96.5t-90.5 -241.5z" />
    <glyph glyph-name="R" unicode="R" horiz-adv-x="1404" 
d="M1401 0h-508l-356 422h-29v-422h-424v1372h750q223 0 359 -129t136 -340q0 -162 -84 -279.5t-233 -168.5zM508 1028v-278h233q79 0 125.5 38.5t46.5 104.5q0 61 -46.5 98t-125.5 37h-233z" />
    <glyph glyph-name="S" unicode="S" horiz-adv-x="1339" 
d="M674 1403q250 0 409 -103.5t195 -295.5l-412 -84q-21 88 -75.5 124.5t-116.5 36.5q-57 0 -92 -25t-35 -69q0 -61 67 -76l273 -69q201 -51 301 -149t100 -261q0 -97 -36 -176t-95 -131.5t-137 -88.5t-160.5 -51.5t-167.5 -15.5q-258 0 -434 117.5t-205 310.5l430 80
q44 -172 215 -172q62 0 102 24.5t40 69.5q0 58 -78 78l-283 70q-189 45 -285 142.5t-96 258.5q0 145 77.5 249.5t206 155t292.5 50.5z" />
    <glyph glyph-name="T" unicode="T" horiz-adv-x="1353" 
d="M1313 1014h-424v-1014h-424v1014h-424v358h1272v-358z" />
    <glyph glyph-name="U" unicode="U" horiz-adv-x="1466" 
d="M1376 1372v-749q0 -300 -173.5 -477t-461.5 -177q-295 0 -473 177t-178 477v749h426v-749q0 -130 61 -202.5t164 -72.5q95 0 152 72.5t57 202.5v749h426z" />
    <glyph glyph-name="V" unicode="V" horiz-adv-x="1564" 
d="M1561 1372l-572 -1372h-414l-571 1372h471l307 -774l308 774h471z" />
    <glyph glyph-name="W" unicode="W" horiz-adv-x="2027" 
d="M2025 1372l-378 -1372h-457l-176 731l-176 -731h-455l-379 1372h430l205 -741l176 741h399l177 -741l202 741h432z" />
    <glyph glyph-name="X" unicode="X" horiz-adv-x="1464" 
d="M971 0l-240 410l-239 -410h-488l408 686l-396 686h490l225 -401l227 401h488l-395 -686l409 -686h-489z" />
    <glyph glyph-name="Y" unicode="Y" horiz-adv-x="1492" 
d="M1489 1372l-531 -956v-416h-442v416l-512 956h463l281 -534l276 534h465z" />
    <glyph glyph-name="Z" unicode="Z" horiz-adv-x="1329" 
d="M1268 356v-356h-1200v274l630 744h-614v354h1161v-328l-565 -688h588z" />
    <glyph glyph-name="bracketleft" unicode="[" horiz-adv-x="856" 
d="M453 1194v-1040h338v-322h-707v1686h707v-324h-338z" />
    <glyph glyph-name="backslash" unicode="\" horiz-adv-x="942" 
d="M895 -147h-258l-590 1665h258z" />
    <glyph glyph-name="bracketright" unicode="]" horiz-adv-x="856" 
d="M772 1518v-1686h-706v322h335v1040h-335v324h706z" />
    <glyph glyph-name="asciicircum" unicode="^" horiz-adv-x="1011" 
d="M371 831h-346l325 541h312l325 -541h-346l-135 238z" />
    <glyph glyph-name="underscore" unicode="_" horiz-adv-x="1105" 
d="M1065 -389h-1024v274h1024v-274z" />
    <glyph glyph-name="grave" unicode="`" horiz-adv-x="1228" 
d="M721 1497l160 -336h-385l-271 336h496z" />
    <glyph glyph-name="a" unicode="a" horiz-adv-x="1325" 
d="M1241 1038v-1038h-412v84q-112 -115 -292 -115q-220 0 -360 152t-140 397q0 246 140 398.5t360 152.5q180 0 292 -115v84h412zM637 311q84 0 138 60t54 147q0 88 -54.5 148.5t-137.5 60.5q-84 0 -136 -60t-52 -149q0 -88 52 -147.5t136 -59.5z" />
    <glyph glyph-name="b" unicode="b" horiz-adv-x="1325" 
d="M788 1069q220 0 361 -152.5t141 -398.5q0 -244 -141 -396.5t-361 -152.5q-178 0 -292 117v-86h-412v1475h412v-523q114 117 292 117zM688 311q85 0 137 59.5t52 147.5t-52.5 148.5t-136.5 60.5q-83 0 -137.5 -60.5t-54.5 -148.5q0 -87 54 -147t138 -60z" />
    <glyph glyph-name="c" unicode="c" horiz-adv-x="1198" 
d="M784 467l377 -68q-20 -128 -97.5 -226.5t-194 -151t-253.5 -52.5q-158 0 -290 68t-210.5 194.5t-78.5 286.5q0 161 78.5 288t210.5 195t290 68q136 0 252 -51.5t193.5 -149t97.5 -223.5l-375 -74q-13 73 -58.5 113.5t-109.5 40.5q-81 0 -132.5 -60t-51.5 -147t51 -146
t133 -59q64 0 109.5 40t58.5 114z" />
    <glyph glyph-name="d" unicode="d" horiz-adv-x="1325" 
d="M1241 1475v-1475h-412v84q-112 -115 -292 -115q-220 0 -360 152t-140 397q0 246 140 398.5t360 152.5q180 0 292 -115v521h412zM637 311q84 0 138 60t54 147q0 88 -54.5 148.5t-137.5 60.5q-84 0 -136 -60t-52 -149q0 -88 52 -147.5t136 -59.5z" />
    <glyph glyph-name="e" unicode="e" horiz-adv-x="1187" 
d="M1153 487v-67h-715q18 -66 61 -103.5t109 -37.5q54 0 98.5 24t67.5 70l365 -72q-62 -164 -200.5 -248t-330.5 -84q-156 0 -286 68t-207.5 194.5t-77.5 286.5q0 161 77.5 288t207 195t284.5 68q246 0 396.5 -153t150.5 -429zM606 754q-59 0 -102.5 -31.5t-63.5 -87.5h320
q-18 57 -60 88t-94 31z" />
    <glyph glyph-name="f" unicode="f" horiz-adv-x="796" 
d="M561 1038h240v-319h-240v-719h-411v719h-134v319h134v60q0 184 118 295.5t310 111.5q121 0 233 -47l-80 -305q-38 10 -65 10q-46 0 -75.5 -27t-29.5 -71v-27z" />
    <glyph glyph-name="g" unicode="g" horiz-adv-x="1318" 
d="M1235 1038v-932q0 -116 -49.5 -211t-135 -156.5t-198 -94.5t-240.5 -33q-374 0 -540 283l352 118q50 -57 90.5 -75.5t95.5 -18.5q92 0 152.5 49.5t60.5 147.5v49q-110 -107 -291 -107q-218 0 -356.5 142t-138.5 368q0 222 139 362t356 140q184 0 291 -104v73h412z
M635 381q82 0 135 54.5t53 131.5q0 79 -53 134t-135 55q-84 0 -136.5 -54.5t-52.5 -134.5q0 -77 52.5 -131.5t136.5 -54.5z" />
    <glyph glyph-name="h" unicode="h" horiz-adv-x="1271" 
d="M805 1069q173 0 278 -114t105 -310v-645h-412v557q0 65 -36.5 105t-96.5 40q-67 0 -107 -49.5t-40 -138.5v-514h-412v1475h412v-545q126 139 309 139z" />
    <glyph glyph-name="i" unicode="i" horiz-adv-x="618" 
d="M309 1561q98 0 163 -65.5t65 -156.5q0 -96 -64.5 -158.5t-163.5 -62.5q-100 0 -163.5 62.5t-63.5 158.5q0 92 64 157t163 65zM516 0h-414v1038h414v-1038z" />
    <glyph glyph-name="j" unicode="j" horiz-adv-x="641" 
d="M332 1561q98 0 162.5 -65.5t64.5 -156.5q0 -96 -64 -158.5t-163 -62.5q-101 0 -164.5 62.5t-63.5 158.5q0 91 64.5 156.5t163.5 65.5zM-59 -317l51 288q52 -10 65 -10q32 0 51 23.5t19 60.5v993h412v-1028q0 -170 -102 -274.5t-269 -104.5q-121 0 -227 52z" />
    <glyph glyph-name="k" unicode="k" horiz-adv-x="1298" 
d="M1315 0h-508l-248 330h-63v-330h-412v1475h412v-777h41l262 340h479l-389 -493z" />
    <glyph glyph-name="l" unicode="l" horiz-adv-x="579" 
d="M496 0h-412v1475h412v-1475z" />
    <glyph glyph-name="m" unicode="m" horiz-adv-x="1955" 
d="M1485 1069q171 0 279 -116.5t108 -305.5v-647h-412v559q0 63 -37 103t-92 40q-66 0 -106.5 -49.5t-40.5 -132.5v-520h-412v559q0 64 -37.5 103.5t-95.5 39.5q-65 0 -104 -49.5t-39 -132.5v-520h-412v1038h412v-108q110 139 301 139q113 0 199.5 -47.5t133.5 -136.5
q127 184 355 184z" />
    <glyph glyph-name="n" unicode="n" horiz-adv-x="1271" 
d="M803 1069q175 0 280 -114t105 -310v-645h-412v557q0 65 -36.5 105t-94.5 40q-69 0 -109 -49.5t-40 -138.5v-514h-412v1038h412v-108q126 139 307 139z" />
    <glyph glyph-name="o" unicode="o" horiz-adv-x="1243" 
d="M623 1067q118 0 224.5 -40t186 -110.5t126 -174t46.5 -224.5q0 -160 -79.5 -286.5t-212.5 -194.5t-291 -68q-159 0 -292.5 68t-213.5 194.5t-80 286.5q0 161 80 287.5t213 194t293 67.5zM623 311q79 0 133.5 60t54.5 147q0 88 -54.5 148.5t-133.5 60.5q-81 0 -136 -60.5
t-55 -148.5q0 -87 55 -147t136 -60z" />
    <glyph glyph-name="p" unicode="p" horiz-adv-x="1325" 
d="M788 1069q220 0 361 -152.5t141 -398.5q0 -244 -141 -396.5t-361 -152.5q-178 0 -292 117v-434h-412v1386h412v-86q114 117 292 117zM688 311q85 0 137 59.5t52 147.5t-52.5 148.5t-136.5 60.5q-83 0 -137.5 -60.5t-54.5 -148.5q0 -87 54 -147t138 -60z" />
    <glyph glyph-name="q" unicode="q" horiz-adv-x="1325" 
d="M1241 1038v-1386h-412v432q-112 -115 -292 -115q-220 0 -360 152t-140 397q0 246 140 398.5t360 152.5q180 0 292 -115v84h412zM637 311q84 0 138 60t54 147q0 88 -54.5 148.5t-137.5 60.5q-84 0 -136 -60t-52 -149q0 -88 52 -147.5t136 -59.5z" />
    <glyph glyph-name="r" unicode="r" horiz-adv-x="917" 
d="M834 1051q28 0 75 -7l-14 -430h-61q-79 0 -137.5 -14.5t-105.5 -48t-71 -94t-24 -148.5v-309h-412v1038h412v-213q107 226 338 226z" />
    <glyph glyph-name="s" unicode="s" horiz-adv-x="1089" 
d="M35 266l391 78q11 -43 50.5 -66.5t88.5 -23.5q45 0 69.5 14.5t24.5 36.5q0 23 -20 34t-68 17l-206 35q-314 52 -314 311q0 114 65 199t171.5 126.5t238.5 41.5q208 0 336.5 -74t167.5 -211l-362 -71q-7 33 -44.5 62.5t-93.5 29.5q-41 0 -62.5 -15t-21.5 -36q0 -36 60 -49
l235 -46q158 -30 235 -116.5t77 -220.5q0 -166 -139.5 -259.5t-354.5 -93.5q-209 0 -349 74t-175 223z" />
    <glyph glyph-name="t" unicode="t" horiz-adv-x="882" 
d="M799 350l73 -305q-148 -76 -301 -76q-206 0 -313.5 110t-107.5 304v336h-142v319h142v293h411v-293h258v-319h-258v-285q0 -60 29 -86t88 -26q70 0 121 28z" />
    <glyph glyph-name="u" unicode="u" horiz-adv-x="1271" 
d="M1188 1036v-1038h-412v108q-126 -139 -307 -139q-175 0 -280 114t-105 310v645h412v-557q0 -65 36.5 -105t94.5 -40q69 0 109 49.5t40 138.5v514h412z" />
    <glyph glyph-name="v" unicode="v" horiz-adv-x="1267" 
d="M1264 1038l-426 -1038h-408l-426 1038h428l201 -540l201 540h430z" />
    <glyph glyph-name="w" unicode="w" horiz-adv-x="1652" 
d="M1649 1038l-318 -1038h-346l-158 487l-159 -487h-346l-318 1038h404l122 -438l166 438h262l166 -438l123 438h402z" />
    <glyph glyph-name="x" unicode="x" horiz-adv-x="1275" 
d="M924 498l333 -498h-458l-160 252l-162 -252h-459l332 498l-332 540h459l162 -274l160 274h458z" />
    <glyph glyph-name="y" unicode="y" horiz-adv-x="1298" 
d="M1294 1038l-596 -1386h-432l168 387l-430 999h430l207 -520l223 520h430z" />
    <glyph glyph-name="z" unicode="z" horiz-adv-x="1148" 
d="M1083 319v-319h-1017v264l454 455h-444v319h997v-270l-452 -449h462z" />
    <glyph glyph-name="braceleft" unicode="{" horiz-adv-x="851" 
d="M580 1145v-258q0 -74 -28.5 -130t-84.5 -83q56 -27 84.5 -83t28.5 -130v-258q0 -23 12 -36t33 -13h161v-322h-305q-121 0 -195.5 74t-74.5 196v304q0 40 -24 61t-68 33l-78 20v307l78 21q45 12 68.5 33.5t23.5 62.5v301q0 122 74.5 197.5t195.5 75.5h305v-324h-161
q-21 0 -33 -13t-12 -36z" />
    <glyph glyph-name="bar" unicode="|" horiz-adv-x="536" 
d="M453 -147h-369v1665h369v-1665z" />
    <glyph glyph-name="braceright" unicode="}" horiz-adv-x="851" 
d="M811 827v-307l-78 -20q-44 -12 -68 -33t-24 -61v-304q0 -122 -74.5 -196t-195.5 -74h-305v322h161q43 0 43 49v258q0 74 28.5 130t84.5 83q-56 27 -84.5 83t-28.5 130v258q0 49 -43 49h-161v324h305q121 0 195.5 -75.5t74.5 -197.5v-301q0 -41 23.5 -62.5t68.5 -33.5z
" />
    <glyph glyph-name="asciitilde" unicode="~" horiz-adv-x="1058" 
d="M356 461h-290q0 102 27 180.5t70 121.5t90 64t95 21q64 0 121 -21t97.5 -42t64.5 -21q32 0 50.5 18t16.5 49h295q0 -84 -18.5 -152t-48.5 -111t-68.5 -72.5t-76.5 -41.5t-76 -12q-63 0 -118.5 19.5t-95.5 39t-65 19.5q-24 0 -43 -16t-27 -43z" />
    <glyph glyph-name="exclamdown" unicode="&#xa1;" horiz-adv-x="636" 
d="M330 635q-98 0 -162 64.5t-64 152.5q0 93 63.5 154t162.5 61q98 0 161.5 -61t63.5 -154q0 -88 -64.5 -152.5t-160.5 -64.5zM84 -254l37 811h395l37 -811v-63h-469v63z" />
    <glyph glyph-name="cent" unicode="&#xa2;" horiz-adv-x="1198" 
d="M784 467l377 -68q-24 -151 -125 -258t-250 -149v-258h-337v258q-183 47 -297.5 188t-114.5 338t114.5 339.5t297.5 189.5v243h337v-243q148 -41 248.5 -146.5t124.5 -255.5l-375 -74q-13 73 -58.5 113.5t-109.5 40.5q-81 0 -132.5 -60t-51.5 -147t51 -146t133 -59
q64 0 109.5 40t58.5 114z" />
    <glyph glyph-name="sterling" unicode="&#xa3;" horiz-adv-x="1204" 
d="M1169 352v-352h-1103v270l116 39v152h-116v325h116v166q0 203 135.5 327t356.5 124q206 0 340.5 -119.5t152.5 -308.5l-397 -70q-8 76 -32.5 105.5t-63.5 29.5q-37 0 -59.5 -23.5t-22.5 -64.5v-166h326v-325h-326v-109h577z" />
    <glyph glyph-name="yen" unicode="&#xa5;" horiz-adv-x="1449" 
d="M1034 657h240v-221h-346v-67h346v-224h-346v-145h-424v145h-326v224h326v67h-326v221h223l-376 715h436l256 -518l252 518h456z" />
    <glyph glyph-name="section" unicode="&#xa7;" horiz-adv-x="1165" 
d="M1120 547q0 -193 -166 -299q52 -80 52 -185q0 -90 -34 -159.5t-94.5 -112t-137 -63.5t-167.5 -21q-214 0 -333.5 99.5t-133.5 269.5l338 63q5 -80 34 -108.5t75 -28.5q33 0 55.5 19t22.5 53q0 24 -17.5 43.5t-66.5 38.5l-240 86q-137 51 -201.5 130t-64.5 193
q0 193 166 299q-51 79 -51 185q0 90 34 159.5t94 111t137 62.5t169 21q204 0 322 -97t130 -257l-340 -62q-7 123 -94 123q-33 0 -55.5 -19t-22.5 -53q0 -24 17.5 -43.5t66.5 -38.5l240 -86q138 -50 202 -129.5t64 -193.5zM713 426l16 -6q41 30 41 74q0 30 -16.5 49.5
t-57.5 38.5l-247 104l-17 6q-41 -30 -41 -74q0 -30 16.5 -49.5t57.5 -38.5z" />
    <glyph glyph-name="dieresis" unicode="&#xa8;" horiz-adv-x="1228" 
d="M365 1536q92 0 153.5 -61.5t61.5 -147.5q0 -91 -60.5 -150t-154.5 -59q-93 0 -153 59t-60 150q0 86 60.5 147.5t152.5 61.5zM864 1536q92 0 153.5 -61.5t61.5 -147.5q0 -91 -60.5 -150t-154.5 -59q-93 0 -153 59t-60 150q0 86 60.5 147.5t152.5 61.5z" />
    <glyph glyph-name="copyright" unicode="&#xa9;" horiz-adv-x="1550" 
d="M774 1403q194 0 358 -91.5t261.5 -257.5t97.5 -370q0 -154 -57.5 -288.5t-154.5 -227.5t-228.5 -146t-276.5 -53q-146 0 -278 53.5t-229 146.5t-154.5 227.5t-57.5 287.5q0 203 97.5 369t262 258t359.5 92zM774 1288q-120 0 -229 -45.5t-189 -124.5t-127 -192.5
t-47 -241.5t47 -240t127 -190t189 -123t229 -45t228 45t188 123t127 190t47 240t-47 241.5t-127 192.5t-188.5 124.5t-227.5 45.5zM788 1069q152 0 254 -86.5t107 -212.5l-223 -39q-10 52 -49.5 81.5t-94.5 29.5q-63 0 -107 -45t-44 -113t44 -112t107 -44q57 0 96 31t48 90
l227 -39q-8 -134 -110 -222.5t-255 -88.5q-164 0 -280.5 108t-116.5 277t116.5 277t280.5 108z" />
    <glyph glyph-name="ordfeminine" unicode="&#xaa;" horiz-adv-x="800" 
d="M414 1384q159 0 256.5 -75t97.5 -224v-417h-287v41q-75 -62 -188 -62q-115 0 -186.5 63.5t-71.5 166.5q0 105 84.5 164t238.5 59h123v20q2 27 -15.5 43.5t-47.5 16.5q-51 0 -70 -47l-266 45q28 99 112 152.5t220 53.5zM395 831q38 0 62 23.5t24 65.5v30h-80
q-35 0 -54 -15t-19 -42q0 -28 18 -45t49 -17z" />
    <glyph glyph-name="guillemotleft" unicode="&#xab;" horiz-adv-x="1136" 
d="M51 537l195 364h368l-194 -364l194 -365h-368zM522 537l195 364h368l-194 -364l194 -365h-368z" />
    <glyph glyph-name="registered" unicode="&#xae;" horiz-adv-x="956" 
d="M477 1403q171 0 290.5 -117t119.5 -295q0 -176 -119.5 -292.5t-290.5 -116.5t-290 116.5t-119 292.5q0 178 119 295t290 117zM477 678q131 0 222.5 89.5t91.5 223.5q0 137 -91.5 228.5t-222.5 91.5q-128 0 -218.5 -92t-90.5 -228q0 -133 90.5 -223t218.5 -90zM657 1061
q0 -83 -73 -119l92 -121h-129l-78 105h-35v-105h-110v367h188q70 0 107.5 -35.5t37.5 -91.5zM434 1016h70q24 0 37.5 12t13.5 31q0 18 -13.5 28.5t-37.5 10.5h-70v-82z" />
    <glyph glyph-name="macron" unicode="&#xaf;" horiz-adv-x="1228" 
d="M975 1163h-721v303h721v-303z" />
    <glyph glyph-name="degree" unicode="&#xb0;" horiz-adv-x="911" 
d="M457 1403q141 0 240.5 -91.5t99.5 -236.5t-99.5 -236t-240.5 -91t-240.5 91t-99.5 236t99.5 236.5t240.5 91.5zM457 956q45 0 79.5 33t34.5 86q0 54 -34 86.5t-80 32.5t-80.5 -32.5t-34.5 -86.5q0 -53 35 -86t80 -33z" />
    <glyph glyph-name="plusminus" unicode="&#xb1;" horiz-adv-x="1153" 
d="M1081 1006v-312h-348v-272h-313v272h-348v312h348v313h313v-313h348zM72 313h1009v-313h-1009v313z" />
    <glyph glyph-name="acute" unicode="&#xb4;" horiz-adv-x="1228" 
d="M713 1161h-385l159 336h496z" />
    <glyph glyph-name="paragraph" unicode="&#xb6;" horiz-adv-x="1269" 
d="M831 0h-260v612h-102q-186 0 -307 105.5t-121 281.5q0 181 107.5 277t291.5 96h391v-1372zM1186 0h-258v1372h258v-1372z" />
    <glyph glyph-name="periodcentered" unicode="&#xb7;" horiz-adv-x="530" 
d="M264 768q96 0 162 -67t66 -158q0 -96 -65 -161t-163 -65q-97 0 -161 65t-64 161q0 91 64.5 158t160.5 67z" />
    <glyph glyph-name="cedilla" unicode="&#xb8;" horiz-adv-x="1228" 
d="M530 0h291l-84 -328h-422z" />
    <glyph glyph-name="ordmasculine" unicode="&#xba;" horiz-adv-x="854" 
d="M426 1384q165 0 280 -104t115 -266q0 -161 -115 -264t-280 -103q-164 0 -278.5 103t-114.5 264q0 162 114.5 266t278.5 104zM426 895q49 0 81 34.5t32 84.5q0 51 -32 86t-81 35t-80 -34.5t-31 -86.5q0 -50 31 -84.5t80 -34.5z" />
    <glyph glyph-name="guillemotright" unicode="&#xbb;" horiz-adv-x="1136" 
d="M51 172l195 365l-195 364h369l194 -364l-194 -365h-369zM522 172l195 365l-195 364h369l194 -364l-194 -365h-369z" />
    <glyph glyph-name="onequarter" unicode="&#xbc;" horiz-adv-x="1570" 
d="M201 1053l-176 -92v253l264 158h176v-794h-264v475zM1366 1372l-971 -1372h-213l971 1372h213zM1544 115h-94v-115h-246v115h-403v237l342 443h307v-467h94v-213zM1204 328v207l-155 -207h155z" />
    <glyph glyph-name="onehalf" unicode="&#xbd;" horiz-adv-x="1636" 
d="M201 1053l-176 -92v253l264 158h176v-794h-264v475zM1341 1372l-970 -1372h-213l972 1372h211zM1321 219h231v-221h-620v160l280 260q62 57 74 76q14 21 14 43q0 25 -15.5 40t-41.5 15q-30 0 -49.5 -23.5t-19.5 -74.5l-246 45q0 123 85.5 198.5t229.5 75.5
q140 0 226.5 -73.5t86.5 -202.5q0 -76 -37 -129.5t-116 -118.5z" />
    <glyph glyph-name="threequarters" unicode="&#xbe;" horiz-adv-x="1701" 
d="M686 825q0 -112 -92.5 -188t-235.5 -76q-135 0 -223 70.5t-102 187.5l239 45q10 -44 33.5 -67t56.5 -23q32 0 52 17t20 43t-22.5 41.5t-59.5 15.5h-92v180h86q37 0 59.5 15.5t22.5 41.5t-20 42t-52 16q-33 0 -54.5 -22.5t-25.5 -63.5l-239 45q12 102 100.5 175t216.5 73
q140 0 230 -73t90 -183q0 -94 -92 -150q104 -56 104 -162zM1495 1372l-973 -1372h-211l971 1372h213zM1677 115h-94v-115h-246v115h-403v237l342 443h307v-467h94v-213zM1337 328v207l-155 -207h155z" />
    <glyph glyph-name="questiondown" unicode="&#xbf;" horiz-adv-x="1138" 
d="M582 637q-97 0 -162.5 64.5t-65.5 152.5q0 91 65 153t163 62q97 0 161 -62t64 -153q0 -88 -64.5 -152.5t-160.5 -64.5zM680 139l414 -82q-40 -180 -181.5 -291.5t-384.5 -111.5q-219 0 -356 125.5t-137 312.5q0 143 88.5 242t247.5 141v90h407v-344h-176q-69 0 -110 -28
t-41 -74q0 -49 29.5 -79t76.5 -30q51 0 84 35t39 94z" />
    <glyph glyph-name="Agrave" unicode="&#xc0;" horiz-adv-x="1562" 
d="M606 1497l-270 336h495l160 -336h-385zM1563 0h-453l-66 186h-526l-65 -186h-453l543 1372h477zM920 537l-138 391l-139 -391h277z" />
    <glyph glyph-name="Aacute" unicode="&#xc1;" horiz-adv-x="1562" 
d="M971 1497h-385l159 336h496zM1563 0h-453l-66 186h-526l-65 -186h-453l543 1372h477zM920 537l-138 391l-139 -391h277z" />
    <glyph glyph-name="Acircumflex" unicode="&#xc2;" horiz-adv-x="1562" 
d="M717 1495h-389l241 338h428l242 -338h-387l-68 96zM1563 0h-453l-66 186h-526l-65 -186h-453l543 1372h477zM920 537l-138 391l-139 -391h277z" />
    <glyph glyph-name="Atilde" unicode="&#xc3;" horiz-adv-x="1562" 
d="M696 1563q-31 0 -45 -12.5t-28 -47.5h-226q0 173 73.5 275t186.5 102q53 0 98 -18t80.5 -36t65.5 -18q31 0 46.5 14t27.5 50h225q0 -173 -73.5 -275t-188.5 -102q-52 0 -96 17t-79 34t-67 17zM1563 0h-453l-66 186h-526l-65 -186h-453l543 1372h477zM920 537l-138 391
l-139 -391h277z" />
    <glyph glyph-name="Adieresis" unicode="&#xc4;" horiz-adv-x="1562" 
d="M532 1454q-93 0 -153 59t-60 150q0 86 60.5 147.5t152.5 61.5t154 -61.5t62 -147.5q0 -91 -61 -150t-155 -59zM1032 1454q-93 0 -153 59t-60 150q0 86 60.5 147.5t152.5 61.5t153.5 -61.5t61.5 -147.5q0 -91 -60.5 -150t-154.5 -59zM1563 0h-453l-66 186h-526l-65 -186
h-453l543 1372h477zM920 537l-138 391l-139 -391h277z" />
    <glyph glyph-name="Aring" unicode="&#xc5;" horiz-adv-x="1562" 
d="M782 1446q-118 0 -199 79t-81 193q0 116 81 194.5t199 78.5q119 0 200 -79t81 -194q0 -114 -81.5 -193t-199.5 -79zM782 1798q-34 0 -58 -24t-24 -56q0 -31 24.5 -54.5t57.5 -23.5t57.5 23.5t24.5 54.5q0 32 -24 56t-58 24zM1563 0h-453l-66 186h-526l-65 -186h-453
l543 1372h477zM920 537l-138 391l-139 -391h277z" />
    <glyph glyph-name="AE" unicode="&#xc6;" horiz-adv-x="2158" 
d="M2097 350v-350h-1106v180h-397l-94 -180h-500l815 1372h1272v-350h-672v-178h617v-316h-617v-178h682zM991 528v412l-215 -412h215z" />
    <glyph glyph-name="Ccedilla" unicode="&#xc7;" horiz-adv-x="1568" 
d="M1090 588l423 -82q-38 -220 -194 -360t-395 -169l-78 -305h-422l207 316q-252 55 -413 248t-161 450q0 197 98 362t268.5 260t375.5 95q175 0 325.5 -63t253.5 -183t133 -276l-424 -82q-27 107 -101 166t-187 59q-133 0 -225.5 -97t-92.5 -241t92.5 -241t225.5 -97
q112 0 187 62.5t104 177.5z" />
    <glyph glyph-name="Egrave" unicode="&#xc8;" horiz-adv-x="1253" 
d="M457 1497l-271 336h496l160 -336h-385zM1190 350v-350h-1106v1372h1096v-350h-672v-178h616v-316h-616v-178h682z" />
    <glyph glyph-name="Eacute" unicode="&#xc9;" horiz-adv-x="1253" 
d="M823 1497h-385l160 336h496zM1190 350v-350h-1106v1372h1096v-350h-672v-178h616v-316h-616v-178h682z" />
    <glyph glyph-name="Ecircumflex" unicode="&#xca;" horiz-adv-x="1253" 
d="M567 1495h-389l242 338h428l242 -338h-388l-67 96zM1190 350v-350h-1106v1372h1096v-350h-672v-178h616v-316h-616v-178h682z" />
    <glyph glyph-name="Edieresis" unicode="&#xcb;" horiz-adv-x="1253" 
d="M385 1454q-93 0 -153 59t-60 150q0 86 60.5 147.5t152.5 61.5t153.5 -61.5t61.5 -147.5q0 -91 -60.5 -150t-154.5 -59zM885 1454q-93 0 -153 59t-60 150q0 86 60.5 147.5t152.5 61.5t153.5 -61.5t61.5 -147.5q0 -91 -60.5 -150t-154.5 -59zM1190 350v-350h-1106v1372
h1096v-350h-672v-178h616v-316h-616v-178h682z" />
    <glyph glyph-name="Igrave" unicode="&#xcc;" horiz-adv-x="591" 
d="M344 1833l160 -336h-385l-271 336h496zM508 0h-424v1372h424v-1372z" />
    <glyph glyph-name="Iacute" unicode="&#xcd;" horiz-adv-x="591" 
d="M485 1497h-385l160 336h496zM508 0h-424v1372h424v-1372z" />
    <glyph glyph-name="Icircumflex" unicode="&#xce;" horiz-adv-x="591" 
d="M229 1495h-389l242 338h428l242 -338h-387l-68 96zM84 1372h424v-1372h-424v1372z" />
    <glyph glyph-name="Idieresis" unicode="&#xcf;" horiz-adv-x="591" 
d="M47 1872q92 0 153.5 -61.5t61.5 -147.5q0 -91 -60.5 -150t-154.5 -59q-93 0 -153 59t-60 150q0 86 60.5 147.5t152.5 61.5zM547 1872q92 0 153.5 -61.5t61.5 -147.5q0 -91 -60.5 -150t-154.5 -59q-93 0 -153 59t-60 150q0 86 60.5 147.5t152.5 61.5zM508 0h-424v1372h424
v-1372z" />
    <glyph glyph-name="Eth" unicode="&#xd0;" horiz-adv-x="1497" 
d="M117 1372h598q335 0 540 -190t205 -496t-205 -496t-540 -190h-598v504h-90v358h90v510zM541 352h139q159 0 256.5 93t97.5 241t-97.5 241t-256.5 93h-139v-158h170v-358h-170v-152z" />
    <glyph glyph-name="Ntilde" unicode="&#xd1;" horiz-adv-x="1536" 
d="M684 1563q-31 0 -45.5 -12.5t-28.5 -47.5h-225q0 173 73.5 275t186.5 102q53 0 98 -18t80.5 -36t65.5 -18q31 0 46.5 14t27.5 50h225q0 -173 -73.5 -275t-188.5 -102q-52 0 -96 17t-79 34t-67 17zM1452 1372v-1372h-346l-598 662v-662h-424v1372h348l598 -688v688h422z
" />
    <glyph glyph-name="Ograve" unicode="&#xd2;" horiz-adv-x="1599" 
d="M623 1497l-271 336h496l160 -336h-385zM801 1403q205 0 375.5 -95t269 -260t98.5 -362t-98.5 -362t-269 -260t-375.5 -95q-154 0 -292 56t-237 151.5t-157 228.5t-58 281t58 281t157 228.5t237 151.5t292 56zM801 348q139 0 228 96t89 242t-89 242t-228 96t-229.5 -96.5
t-90.5 -241.5t90.5 -241.5t229.5 -96.5z" />
    <glyph glyph-name="Oacute" unicode="&#xd3;" horiz-adv-x="1599" 
d="M987 1497h-385l160 336h495zM801 1403q205 0 375.5 -95t269 -260t98.5 -362t-98.5 -362t-269 -260t-375.5 -95q-154 0 -292 56t-237 151.5t-157 228.5t-58 281t58 281t157 228.5t237 151.5t292 56zM801 348q139 0 228 96t89 242t-89 242t-228 96t-229.5 -96.5
t-90.5 -241.5t90.5 -241.5t229.5 -96.5z" />
    <glyph glyph-name="Ocircumflex" unicode="&#xd4;" horiz-adv-x="1599" 
d="M733 1495h-389l242 338h428l241 -338h-387l-67 96zM801 1403q205 0 375.5 -95t269 -260t98.5 -362t-98.5 -362t-269 -260t-375.5 -95q-154 0 -292 56t-237 151.5t-157 228.5t-58 281t58 281t157 228.5t237 151.5t292 56zM801 348q139 0 228 96t89 242t-89 242t-228 96
t-229.5 -96.5t-90.5 -241.5t90.5 -241.5t229.5 -96.5z" />
    <glyph glyph-name="Otilde" unicode="&#xd5;" horiz-adv-x="1599" 
d="M713 1563q-31 0 -45.5 -12.5t-28.5 -47.5h-225q0 173 73.5 275t186.5 102q53 0 98 -18t80.5 -36t65.5 -18q31 0 46 13.5t27 50.5h226q0 -173 -74 -275t-189 -102q-52 0 -95.5 17t-78.5 34t-67 17zM801 1403q205 0 375.5 -95t269 -260t98.5 -362t-98.5 -362t-269 -260
t-375.5 -95q-154 0 -292 56t-237 151.5t-157 228.5t-58 281t58 281t157 228.5t237 151.5t292 56zM801 348q139 0 228 96t89 242t-89 242t-228 96t-229.5 -96.5t-90.5 -241.5t90.5 -241.5t229.5 -96.5z" />
    <glyph glyph-name="Odieresis" unicode="&#xd6;" horiz-adv-x="1599" 
d="M551 1454q-93 0 -153 59t-60 150q0 86 60.5 147.5t152.5 61.5t153.5 -61.5t61.5 -147.5q0 -91 -60.5 -150t-154.5 -59zM1051 1454q-93 0 -153 59t-60 150q0 86 60.5 147.5t152.5 61.5t153.5 -61.5t61.5 -147.5q0 -91 -60.5 -150t-154.5 -59zM801 1403q205 0 375.5 -95
t269 -260t98.5 -362t-98.5 -362t-269 -260t-375.5 -95q-154 0 -292 56t-237 151.5t-157 228.5t-58 281t58 281t157 228.5t237 151.5t292 56zM801 348q139 0 228 96t89 242t-89 242t-228 96t-229.5 -96.5t-90.5 -241.5t90.5 -241.5t229.5 -96.5z" />
    <glyph glyph-name="multiply" unicode="&#xd7;" horiz-adv-x="1097" 
d="M768 616l264 -262l-219 -219l-264 262l-264 -262l-217 219l262 262l-262 263l217 219l264 -262l264 262l219 -219z" />
    <glyph glyph-name="Oslash" unicode="&#xd8;" horiz-adv-x="1599" 
d="M1518 1212l-109 -108q135 -184 135 -418q0 -197 -98.5 -362t-269 -260t-375.5 -95q-225 0 -410 117l-137 -137l-172 172l127 127q-152 192 -152 438q0 148 58 281t157 228.5t237 151.5t292 56q237 0 434 -131l111 110zM481 686q0 -68 27 -141l442 442q-64 37 -149 37
q-139 0 -229.5 -96.5t-90.5 -241.5zM801 348q139 0 228 96t89 242q0 62 -14 111l-426 -424q58 -25 123 -25z" />
    <glyph glyph-name="Ugrave" unicode="&#xd9;" horiz-adv-x="1466" 
d="M555 1497l-270 336h495l160 -336h-385zM1376 1372v-749q0 -300 -173.5 -477t-461.5 -177q-295 0 -473 177t-178 477v749h426v-749q0 -130 61 -202.5t164 -72.5q95 0 152 72.5t57 202.5v749h426z" />
    <glyph glyph-name="Uacute" unicode="&#xda;" horiz-adv-x="1466" 
d="M920 1497h-385l159 336h496zM1376 1372v-749q0 -300 -173.5 -477t-461.5 -177q-295 0 -473 177t-178 477v749h426v-749q0 -130 61 -202.5t164 -72.5q95 0 152 72.5t57 202.5v749h426z" />
    <glyph glyph-name="Ucircumflex" unicode="&#xdb;" horiz-adv-x="1466" 
d="M666 1495h-390l242 338h428l242 -338h-387l-68 96zM1376 1372v-749q0 -300 -173.5 -477t-461.5 -177q-295 0 -473 177t-178 477v749h426v-749q0 -130 61 -202.5t164 -72.5q95 0 152 72.5t57 202.5v749h426z" />
    <glyph glyph-name="Udieresis" unicode="&#xdc;" horiz-adv-x="1466" 
d="M483 1454q-93 0 -153 59t-60 150q0 86 60.5 147.5t152.5 61.5t153.5 -61.5t61.5 -147.5q0 -91 -60.5 -150t-154.5 -59zM983 1454q-93 0 -153 59t-60 150q0 86 60.5 147.5t152.5 61.5t153.5 -61.5t61.5 -147.5q0 -91 -60.5 -150t-154.5 -59zM1376 1372v-749
q0 -300 -173.5 -477t-461.5 -177q-295 0 -473 177t-178 477v749h426v-749q0 -130 61 -202.5t164 -72.5q95 0 152 72.5t57 202.5v749h426z" />
    <glyph glyph-name="Yacute" unicode="&#xdd;" horiz-adv-x="1492" 
d="M934 1497h-385l160 336h495zM1489 1372l-531 -956v-416h-442v416l-512 956h463l281 -534l276 534h465z" />
    <glyph glyph-name="Thorn" unicode="&#xde;" horiz-adv-x="1337" 
d="M508 1167h266q232 0 373 -130.5t141 -344.5q0 -220 -150.5 -353.5t-396.5 -133.5h-233v-205h-424v1372h424v-205zM508 532h205q73 0 117 41t44 109q0 63 -44 102t-117 39h-205v-291z" />
    <glyph glyph-name="germandbls" unicode="&#xdf;" horiz-adv-x="1376" 
d="M1040 780q133 -32 215 -128t82 -240q0 -192 -129 -316.5t-338 -124.5q-135 0 -282 25l39 336q104 -17 147 -17q66 0 109 38.5t43 95.5q0 62 -49.5 101.5t-131.5 39.5h-96v328h53q62 0 101 35.5t39 90.5q0 61 -42 97.5t-110 36.5q-87 0 -140.5 -57t-53.5 -152v-969h-412
v938q0 257 167 414t439 157q246 0 404.5 -116.5t158.5 -302.5q0 -117 -59 -201t-154 -109z" />
    <glyph glyph-name="agrave" unicode="&#xe0;" horiz-adv-x="1325" 
d="M512 1161l-270 336h495l160 -336h-385zM1241 1038v-1038h-412v84q-112 -115 -292 -115q-220 0 -360 152t-140 397q0 246 140 398.5t360 152.5q180 0 292 -115v84h412zM637 311q84 0 138 60t54 147q0 88 -54.5 148.5t-137.5 60.5q-84 0 -136 -60t-52 -149q0 -88 52 -147.5
t136 -59.5z" />
    <glyph glyph-name="aacute" unicode="&#xe1;" horiz-adv-x="1325" 
d="M879 1161h-385l159 336h496zM1241 1038v-1038h-412v84q-112 -115 -292 -115q-220 0 -360 152t-140 397q0 246 140 398.5t360 152.5q180 0 292 -115v84h412zM637 311q84 0 138 60t54 147q0 88 -54.5 148.5t-137.5 60.5q-84 0 -136 -60t-52 -149q0 -88 52 -147.5t136 -59.5
z" />
    <glyph glyph-name="acircumflex" unicode="&#xe2;" horiz-adv-x="1325" 
d="M623 1159h-390l242 338h428l242 -338h-387l-68 96zM1241 1038v-1038h-412v84q-112 -115 -292 -115q-220 0 -360 152t-140 397q0 246 140 398.5t360 152.5q180 0 292 -115v84h412zM637 311q84 0 138 60t54 147q0 88 -54.5 148.5t-137.5 60.5q-84 0 -136 -60t-52 -149
q0 -88 52 -147.5t136 -59.5z" />
    <glyph glyph-name="atilde" unicode="&#xe3;" horiz-adv-x="1325" 
d="M604 1227q-31 0 -45.5 -12.5t-28.5 -47.5h-225q0 173 73.5 275t186.5 102q53 0 98 -18t80.5 -35.5t65.5 -17.5q31 0 46.5 13.5t27.5 49.5h225q0 -173 -73.5 -275t-188.5 -102q-52 0 -96 17t-79 34t-67 17zM1241 1038v-1038h-412v84q-112 -115 -292 -115q-220 0 -360 152
t-140 397q0 246 140 398.5t360 152.5q180 0 292 -115v84h412zM637 311q84 0 138 60t54 147q0 88 -54.5 148.5t-137.5 60.5q-84 0 -136 -60t-52 -149q0 -88 52 -147.5t136 -59.5z" />
    <glyph glyph-name="adieresis" unicode="&#xe4;" horiz-adv-x="1325" 
d="M440 1118q-93 0 -153 59t-60 150q0 86 60.5 147.5t152.5 61.5t153.5 -61.5t61.5 -147.5q0 -91 -60.5 -150t-154.5 -59zM940 1118q-93 0 -153 59t-60 150q0 86 60.5 147.5t152.5 61.5t153.5 -61.5t61.5 -147.5q0 -91 -60.5 -150t-154.5 -59zM1241 1038v-1038h-412v84
q-112 -115 -292 -115q-220 0 -360 152t-140 397q0 246 140 398.5t360 152.5q180 0 292 -115v84h412zM637 311q84 0 138 60t54 147q0 88 -54.5 148.5t-137.5 60.5q-84 0 -136 -60t-52 -149q0 -88 52 -147.5t136 -59.5z" />
    <glyph glyph-name="aring" unicode="&#xe5;" horiz-adv-x="1325" 
d="M690 1110q-118 0 -199 79t-81 193q0 116 81 194.5t199 78.5q119 0 200 -79t81 -194q0 -114 -81.5 -193t-199.5 -79zM690 1462q-34 0 -58 -24t-24 -56q0 -31 24 -54t58 -23t58 23t24 54q0 32 -24 56t-58 24zM1241 1038v-1038h-412v84q-112 -115 -292 -115q-220 0 -360 152
t-140 397q0 246 140 398.5t360 152.5q180 0 292 -115v84h412zM637 311q84 0 138 60t54 147q0 88 -54.5 148.5t-137.5 60.5q-84 0 -136 -60t-52 -149q0 -88 52 -147.5t136 -59.5z" />
    <glyph glyph-name="ae" unicode="&#xe6;" horiz-adv-x="1818" 
d="M1782 416h-713q38 -137 172 -137q53 0 92 20t64 76l354 -74q-38 -148 -180.5 -240t-331.5 -92q-206 0 -358 115q-150 -115 -402 -115q-217 0 -334.5 87t-117.5 247q0 153 115 232t337 79h221v60q0 44 -29 72t-75 28q-96 0 -111 -96l-383 78q28 138 155 225.5t339 87.5
q203 0 330 -86q141 86 311 86q245 0 395 -153.5t150 -430.5v-69zM1067 614h319q-29 140 -151 140q-132 0 -168 -140zM698 410h-131q-118 0 -118 -78q0 -38 29.5 -61t76.5 -23q58 0 100.5 33t42.5 88v41z" />
    <glyph glyph-name="ccedilla" unicode="&#xe7;" horiz-adv-x="1198" 
d="M784 467l377 -68q-26 -161 -138 -272t-275 -145l-80 -310h-422l209 318q-185 47 -301.5 188.5t-116.5 339.5q0 161 78.5 288t210.5 195t290 68q136 0 252 -51.5t193.5 -149t97.5 -223.5l-375 -74q-13 73 -58.5 113.5t-109.5 40.5q-81 0 -132.5 -60t-51.5 -147t51 -146
t133 -59q64 0 109.5 40t58.5 114z" />
    <glyph glyph-name="egrave" unicode="&#xe8;" horiz-adv-x="1187" 
d="M432 1161l-270 336h495l160 -336h-385zM1153 487v-67h-715q18 -66 61 -103.5t109 -37.5q54 0 98.5 24t67.5 70l365 -72q-62 -164 -200.5 -248t-330.5 -84q-156 0 -286 68t-207.5 194.5t-77.5 286.5q0 161 77.5 288t207 195t284.5 68q246 0 396.5 -153t150.5 -429z
M606 754q-59 0 -102.5 -31.5t-63.5 -87.5h320q-18 57 -60 88t-94 31z" />
    <glyph glyph-name="eacute" unicode="&#xe9;" horiz-adv-x="1187" 
d="M797 1161h-385l159 336h496zM1153 487v-67h-715q18 -66 61 -103.5t109 -37.5q54 0 98.5 24t67.5 70l365 -72q-62 -164 -200.5 -248t-330.5 -84q-156 0 -286 68t-207.5 194.5t-77.5 286.5q0 161 77.5 288t207 195t284.5 68q246 0 396.5 -153t150.5 -429zM606 754
q-59 0 -102.5 -31.5t-63.5 -87.5h320q-18 57 -60 88t-94 31z" />
    <glyph glyph-name="ecircumflex" unicode="&#xea;" horiz-adv-x="1187" 
d="M543 1159h-389l241 338h428l242 -338h-387l-68 96zM1153 487v-67h-715q18 -66 61 -103.5t109 -37.5q54 0 98.5 24t67.5 70l365 -72q-62 -164 -200.5 -248t-330.5 -84q-156 0 -286 68t-207.5 194.5t-77.5 286.5q0 161 77.5 288t207 195t284.5 68q246 0 396.5 -153
t150.5 -429zM606 754q-59 0 -102.5 -31.5t-63.5 -87.5h320q-18 57 -60 88t-94 31z" />
    <glyph glyph-name="edieresis" unicode="&#xeb;" horiz-adv-x="1187" 
d="M358 1118q-93 0 -153 59t-60 150q0 86 60.5 147.5t152.5 61.5t153.5 -61.5t61.5 -147.5q0 -91 -60.5 -150t-154.5 -59zM858 1118q-93 0 -153 59t-60 150q0 86 60.5 147.5t152.5 61.5t153.5 -61.5t61.5 -147.5q0 -91 -60.5 -150t-154.5 -59zM1153 487v-67h-715
q18 -66 61 -103.5t109 -37.5q54 0 98.5 24t67.5 70l365 -72q-62 -164 -200.5 -248t-330.5 -84q-156 0 -286 68t-207.5 194.5t-77.5 286.5q0 161 77.5 288t207 195t284.5 68q246 0 396.5 -153t150.5 -429zM606 754q-59 0 -102.5 -31.5t-63.5 -87.5h320q-18 57 -60 88t-94 31z
" />
    <glyph glyph-name="igrave" unicode="&#xec;" horiz-adv-x="612" 
d="M354 1497l160 -336h-385l-270 336h495zM512 0h-412v1038h412v-1038z" />
    <glyph glyph-name="iacute" unicode="&#xed;" horiz-adv-x="612" 
d="M496 1161h-385l159 336h496zM512 0h-412v1038h412v-1038z" />
    <glyph glyph-name="icircumflex" unicode="&#xee;" horiz-adv-x="612" 
d="M240 1159h-390l242 338h428l242 -338h-387l-68 96zM100 1038h412v-1038h-412v1038z" />
    <glyph glyph-name="idieresis" unicode="&#xef;" horiz-adv-x="612" 
d="M57 1536q92 0 153.5 -61.5t61.5 -147.5q0 -91 -60.5 -150t-154.5 -59q-93 0 -153 59t-60 150q0 86 60.5 147.5t152.5 61.5zM557 1536q92 0 153.5 -61.5t61.5 -147.5q0 -91 -60.5 -150t-154.5 -59q-93 0 -153 59t-60 150q0 86 60.5 147.5t152.5 61.5zM512 0h-412v1038h412
v-1038z" />
    <glyph glyph-name="eth" unicode="&#xf0;" horiz-adv-x="1243" 
d="M1010 1329l-129 -49q63 -71 116 -149t102.5 -174.5t78 -209t28.5 -225.5q0 -115 -34.5 -210t-92 -157.5t-133.5 -105.5t-156 -61.5t-163 -18.5q-160 0 -294 67t-215 194t-81 288q0 244 147.5 397.5t372.5 153.5q49 0 96 -14q-60 57 -110 96l-267 -102l-71 168l141 55
q-117 58 -276 125v78h606q12 -8 63 -52l199 76zM623 311q83 0 135.5 63t52.5 148q0 86 -53.5 145.5t-134.5 59.5q-83 0 -137 -60.5t-54 -148.5q0 -86 54.5 -146.5t136.5 -60.5z" />
    <glyph glyph-name="ntilde" unicode="&#xf1;" horiz-adv-x="1271" 
d="M551 1227q-31 0 -45.5 -12.5t-28.5 -47.5h-225q0 173 73.5 275t186.5 102q53 0 98 -18t80.5 -35.5t65.5 -17.5q31 0 46 13.5t27 49.5h226q0 -173 -73.5 -275t-188.5 -102q-52 0 -96 17t-79 34t-67 17zM803 1069q175 0 280 -114t105 -310v-645h-412v557q0 65 -36.5 105
t-94.5 40q-69 0 -109 -49.5t-40 -138.5v-514h-412v1038h412v-108q126 139 307 139z" />
    <glyph glyph-name="ograve" unicode="&#xf2;" horiz-adv-x="1243" 
d="M444 1161l-270 336h496l159 -336h-385zM623 1067q118 0 224.5 -40t186 -110.5t126 -174t46.5 -224.5q0 -160 -79.5 -286.5t-212.5 -194.5t-291 -68q-159 0 -292.5 68t-213.5 194.5t-80 286.5q0 161 80 287.5t213 194t293 67.5zM623 311q79 0 133.5 60t54.5 147
q0 88 -54.5 148.5t-133.5 60.5q-81 0 -136 -60.5t-55 -148.5q0 -87 55 -147t136 -60z" />
    <glyph glyph-name="oacute" unicode="&#xf3;" horiz-adv-x="1243" 
d="M811 1161h-385l160 336h495zM623 1067q118 0 224.5 -40t186 -110.5t126 -174t46.5 -224.5q0 -160 -79.5 -286.5t-212.5 -194.5t-291 -68q-159 0 -292.5 68t-213.5 194.5t-80 286.5q0 161 80 287.5t213 194t293 67.5zM623 311q79 0 133.5 60t54.5 147q0 88 -54.5 148.5
t-133.5 60.5q-81 0 -136 -60.5t-55 -148.5q0 -87 55 -147t136 -60z" />
    <glyph glyph-name="ocircumflex" unicode="&#xf4;" horiz-adv-x="1243" 
d="M555 1159h-389l242 338h428l241 -338h-387l-67 96zM623 1067q118 0 224.5 -40t186 -110.5t126 -174t46.5 -224.5q0 -160 -79.5 -286.5t-212.5 -194.5t-291 -68q-159 0 -292.5 68t-213.5 194.5t-80 286.5q0 161 80 287.5t213 194t293 67.5zM623 311q79 0 133.5 60
t54.5 147q0 88 -54.5 148.5t-133.5 60.5q-81 0 -136 -60.5t-55 -148.5q0 -87 55 -147t136 -60z" />
    <glyph glyph-name="otilde" unicode="&#xf5;" horiz-adv-x="1243" 
d="M537 1227q-31 0 -45.5 -12.5t-28.5 -47.5h-225q0 173 73.5 275t186.5 102q53 0 98 -18t80 -35.5t65 -17.5q31 0 46.5 13.5t27.5 49.5h225q0 -173 -73.5 -275t-188.5 -102q-52 0 -95.5 17t-78.5 34t-67 17zM623 1067q118 0 224.5 -40t186 -110.5t126 -174t46.5 -224.5
q0 -160 -79.5 -286.5t-212.5 -194.5t-291 -68q-159 0 -292.5 68t-213.5 194.5t-80 286.5q0 161 80 287.5t213 194t293 67.5zM623 311q79 0 133.5 60t54.5 147q0 88 -54.5 148.5t-133.5 60.5q-81 0 -136 -60.5t-55 -148.5q0 -87 55 -147t136 -60z" />
    <glyph glyph-name="odieresis" unicode="&#xf6;" horiz-adv-x="1243" 
d="M373 1118q-93 0 -153 59t-60 150q0 86 60.5 147.5t152.5 61.5t153.5 -61.5t61.5 -147.5q0 -91 -60.5 -150t-154.5 -59zM872 1118q-93 0 -153 59t-60 150q0 86 60.5 147.5t152.5 61.5t153.5 -61.5t61.5 -147.5q0 -91 -60.5 -150t-154.5 -59zM623 1067q118 0 224.5 -40
t186 -110.5t126 -174t46.5 -224.5q0 -160 -79.5 -286.5t-212.5 -194.5t-291 -68q-159 0 -292.5 68t-213.5 194.5t-80 286.5q0 161 80 287.5t213 194t293 67.5zM623 311q79 0 133.5 60t54.5 147q0 88 -54.5 148.5t-133.5 60.5q-81 0 -136 -60.5t-55 -148.5q0 -87 55 -147
t136 -60z" />
    <glyph glyph-name="divide" unicode="&#xf7;" horiz-adv-x="1153" 
d="M575 1262q81 0 136 -57t55 -134q0 -80 -54 -133t-137 -53t-135.5 53t-52.5 133q0 77 53.5 134t134.5 57zM1081 512h-1009v311h1009v-311zM575 453q81 0 136 -57t55 -134q0 -80 -54 -133t-137 -53t-135.5 53t-52.5 133q0 77 53.5 134t134.5 57z" />
    <glyph glyph-name="oslash" unicode="&#xf8;" horiz-adv-x="1243" 
d="M1188 952l-96 -96q114 -142 114 -338q0 -160 -79.5 -286.5t-212.5 -194.5t-291 -68q-180 0 -330 88l-117 -116l-131 131l109 108q-117 142 -117 338q0 161 80 287.5t213 194t293 67.5q179 0 327 -90l107 106zM432 518q0 -29 6 -53l250 250q-30 12 -65 12
q-81 0 -136 -60.5t-55 -148.5zM623 311q79 0 133.5 60t54.5 147q0 19 -4 51l-248 -245q33 -13 64 -13z" />
    <glyph glyph-name="ugrave" unicode="&#xf9;" horiz-adv-x="1271" 
d="M459 1161l-271 336h496l160 -336h-385zM1188 1036v-1038h-412v108q-126 -139 -307 -139q-175 0 -280 114t-105 310v645h412v-557q0 -65 36.5 -105t94.5 -40q69 0 109 49.5t40 138.5v514h412z" />
    <glyph glyph-name="uacute" unicode="&#xfa;" horiz-adv-x="1271" 
d="M825 1161h-385l160 336h496zM1188 1036v-1038h-412v108q-126 -139 -307 -139q-175 0 -280 114t-105 310v645h412v-557q0 -65 36.5 -105t94.5 -40q69 0 109 49.5t40 138.5v514h412z" />
    <glyph glyph-name="ucircumflex" unicode="&#xfb;" horiz-adv-x="1271" 
d="M569 1159h-389l242 338h428l242 -338h-387l-68 96zM1188 1036v-1038h-412v108q-126 -139 -307 -139q-175 0 -280 114t-105 310v645h412v-557q0 -65 36.5 -105t94.5 -40q69 0 109 49.5t40 138.5v514h412z" />
    <glyph glyph-name="udieresis" unicode="&#xfc;" horiz-adv-x="1271" 
d="M387 1118q-93 0 -153 59t-60 150q0 86 60.5 147.5t152.5 61.5t153.5 -61.5t61.5 -147.5q0 -91 -60.5 -150t-154.5 -59zM887 1118q-93 0 -153 59t-60 150q0 86 60.5 147.5t152.5 61.5t153.5 -61.5t61.5 -147.5q0 -91 -60.5 -150t-154.5 -59zM1188 1036v-1038h-412v108
q-126 -139 -307 -139q-175 0 -280 114t-105 310v645h412v-557q0 -65 36.5 -105t94.5 -40q69 0 109 49.5t40 138.5v514h412z" />
    <glyph glyph-name="yacute" unicode="&#xfd;" horiz-adv-x="1298" 
d="M838 1161h-385l159 336h496zM1294 1038l-596 -1386h-432l168 387l-430 999h430l207 -520l223 520h430z" />
    <glyph glyph-name="thorn" unicode="&#xfe;" horiz-adv-x="1325" 
d="M788 1069q220 0 361 -152.5t141 -398.5q0 -244 -141 -396.5t-361 -152.5q-178 0 -292 117v-434h-412v1823h412v-523q114 117 292 117zM688 311q85 0 137 59.5t52 147.5t-52.5 148.5t-136.5 60.5q-83 0 -137.5 -60.5t-54.5 -148.5q0 -87 54 -147t138 -60z" />
    <glyph glyph-name="ydieresis" unicode="&#xff;" horiz-adv-x="1298" 
d="M399 1118q-93 0 -153 59t-60 150q0 86 60.5 147.5t152.5 61.5t153.5 -61.5t61.5 -147.5q0 -91 -60.5 -150t-154.5 -59zM899 1118q-93 0 -153 59t-60 150q0 86 60.5 147.5t152.5 61.5t153.5 -61.5t61.5 -147.5q0 -91 -60.5 -150t-154.5 -59zM1294 1038l-596 -1386h-432
l168 387l-430 999h430l207 -520l223 520h430z" />
    <glyph glyph-name="Amacron" unicode="&#x100;" horiz-adv-x="1562" 
d="M1143 1499h-721v303h721v-303zM1563 0h-453l-66 186h-526l-65 -186h-453l543 1372h477zM920 537l-138 391l-139 -391h277z" />
    <glyph glyph-name="amacron" unicode="&#x101;" horiz-adv-x="1325" 
d="M1051 1163h-721v303h721v-303zM1241 1038v-1038h-412v84q-112 -115 -292 -115q-220 0 -360 152t-140 397q0 246 140 398.5t360 152.5q180 0 292 -115v84h412zM637 311q84 0 138 60t54 147q0 88 -54.5 148.5t-137.5 60.5q-84 0 -136 -60t-52 -149q0 -88 52 -147.5
t136 -59.5z" />
    <glyph glyph-name="Abreve" unicode="&#x102;" horiz-adv-x="1562" 
d="M782 1464q-177 0 -287 97.5t-110 255.5h309q0 -32 24 -56t64 -24q42 0 66 24t24 56h308q0 -158 -110.5 -255.5t-287.5 -97.5zM1563 0h-453l-66 186h-526l-65 -186h-453l543 1372h477zM920 537l-138 391l-139 -391h277z" />
    <glyph glyph-name="abreve" unicode="&#x103;" horiz-adv-x="1325" 
d="M690 1128q-177 0 -287 97.5t-110 255.5h309q0 -32 24 -56t64 -24q42 0 66 24t24 56h307q0 -158 -110 -255.5t-287 -97.5zM1241 1038v-1038h-412v84q-112 -115 -292 -115q-220 0 -360 152t-140 397q0 246 140 398.5t360 152.5q180 0 292 -115v84h412zM637 311q84 0 138 60
t54 147q0 88 -54.5 148.5t-137.5 60.5q-84 0 -136 -60t-52 -149q0 -88 52 -147.5t136 -59.5z" />
    <glyph glyph-name="Aogonek" unicode="&#x104;" horiz-adv-x="1562" 
d="M1616 -176l12 -219q-97 -51 -215 -51q-104 0 -169.5 55t-65.5 147q0 63 33.5 128t93.5 116h-195l-66 186h-526l-65 -186h-453l543 1372h477l543 -1372h-2q-11 -11 -27 -28t-23.5 -25t-18.5 -19.5t-16 -18t-11 -15t-8.5 -14.5t-4.5 -13t-2 -14q0 -48 57 -48q40 0 109 19z
M920 537l-138 391l-139 -391h277z" />
    <glyph glyph-name="aogonek" unicode="&#x105;" horiz-adv-x="1325" 
d="M1296 -176l13 -219q-97 -51 -215 -51q-104 0 -170 55t-66 147q0 63 33.5 128t93.5 116h-156v84q-112 -115 -292 -115q-220 0 -360 152t-140 397q0 246 140 398.5t360 152.5q180 0 292 -115v84h412v-1038q-11 -11 -27 -28t-23.5 -25t-18.5 -19.5t-16 -18t-11 -15
t-8.5 -14.5t-4.5 -13t-2 -14q0 -48 58 -48q39 0 108 19zM637 311q84 0 138 60t54 147q0 88 -54.5 148.5t-137.5 60.5q-84 0 -136 -60t-52 -149q0 -88 52 -147.5t136 -59.5z" />
    <glyph glyph-name="Cacute" unicode="&#x106;" horiz-adv-x="1568" 
d="M987 1497h-385l160 336h495zM1090 588l423 -82q-43 -248 -234 -392.5t-480 -144.5q-205 0 -375.5 95t-268.5 260t-98 362t98 362t268.5 260t375.5 95q175 0 325.5 -63t253.5 -183t133 -276l-424 -82q-27 107 -101 166t-187 59q-133 0 -225.5 -97t-92.5 -241t92.5 -241
t225.5 -97q112 0 187 62.5t104 177.5z" />
    <glyph glyph-name="cacute" unicode="&#x107;" horiz-adv-x="1198" 
d="M805 1161h-385l160 336h495zM784 467l377 -68q-20 -128 -97.5 -226.5t-194 -151t-253.5 -52.5q-158 0 -290 68t-210.5 194.5t-78.5 286.5q0 161 78.5 288t210.5 195t290 68q136 0 252 -51.5t193.5 -149t97.5 -223.5l-375 -74q-13 73 -58.5 113.5t-109.5 40.5
q-81 0 -132.5 -60t-51.5 -147t51 -146t133 -59q64 0 109.5 40t58.5 114z" />
    <glyph glyph-name="Cdotaccent" unicode="&#x10a;" horiz-adv-x="1568" 
d="M797 1466q-97 0 -159.5 61.5t-62.5 155.5q0 89 63.5 153.5t158.5 64.5t159 -64.5t64 -153.5q0 -94 -63 -155.5t-160 -61.5zM1090 588l423 -82q-43 -248 -234 -392.5t-480 -144.5q-205 0 -375.5 95t-268.5 260t-98 362t98 362t268.5 260t375.5 95q175 0 325.5 -63
t253.5 -183t133 -276l-424 -82q-27 107 -101 166t-187 59q-133 0 -225.5 -97t-92.5 -241t92.5 -241t225.5 -97q112 0 187 62.5t104 177.5z" />
    <glyph glyph-name="cdotaccent" unicode="&#x10b;" horiz-adv-x="1198" 
d="M614 1130q-96 0 -158.5 62t-62.5 156q0 89 63 153t158 64t159.5 -64t64.5 -153q0 -94 -63.5 -156t-160.5 -62zM784 467l377 -68q-20 -128 -97.5 -226.5t-194 -151t-253.5 -52.5q-158 0 -290 68t-210.5 194.5t-78.5 286.5q0 161 78.5 288t210.5 195t290 68
q136 0 252 -51.5t193.5 -149t97.5 -223.5l-375 -74q-13 73 -58.5 113.5t-109.5 40.5q-81 0 -132.5 -60t-51.5 -147t51 -146t133 -59q64 0 109.5 40t58.5 114z" />
    <glyph glyph-name="Ccaron" unicode="&#x10c;" horiz-adv-x="1568" 
d="M584 1495l-242 336h389l68 -96l67 96h387l-241 -336h-428zM1090 588l423 -82q-43 -248 -234 -392.5t-480 -144.5q-205 0 -375.5 95t-268.5 260t-98 362t98 362t268.5 260t375.5 95q175 0 325.5 -63t253.5 -183t133 -276l-424 -82q-27 107 -101 166t-187 59
q-133 0 -225.5 -97t-92.5 -241t92.5 -241t225.5 -97q112 0 187 62.5t104 177.5z" />
    <glyph glyph-name="ccaron" unicode="&#x10d;" horiz-adv-x="1198" 
d="M401 1159l-241 336h389l67 -96l68 96h387l-242 -336h-428zM784 467l377 -68q-20 -128 -97.5 -226.5t-194 -151t-253.5 -52.5q-158 0 -290 68t-210.5 194.5t-78.5 286.5q0 161 78.5 288t210.5 195t290 68q136 0 252 -51.5t193.5 -149t97.5 -223.5l-375 -74
q-13 73 -58.5 113.5t-109.5 40.5q-81 0 -132.5 -60t-51.5 -147t51 -146t133 -59q64 0 109.5 40t58.5 114z" />
    <glyph glyph-name="Dcaron" unicode="&#x10e;" horiz-adv-x="1484" 
d="M506 1495l-242 336h389l68 -96l67 96h388l-242 -336h-428zM84 1372h598q222 0 392 -86.5t263 -242.5t93 -357t-93 -357t-263 -242.5t-392 -86.5h-598v1372zM508 352h139q159 0 256.5 93t97.5 241t-97.5 241t-256.5 93h-139v-668z" />
    <glyph glyph-name="dcaron" unicode="&#x10f;" horiz-adv-x="1325" 
d="M829 1475h412v-1475h-412v84q-112 -115 -292 -115q-220 0 -360 152t-140 397q0 246 140 398.5t360 152.5q180 0 292 -115v521zM1698 1475l-90 -410h-273v410h363zM637 311q84 0 138 60t54 147q0 88 -54.5 148.5t-137.5 60.5q-84 0 -136 -60t-52 -149q0 -88 52 -147.5
t136 -59.5z" />
    <glyph glyph-name="Dcroat" unicode="&#x110;" horiz-adv-x="1497" 
d="M117 1372h598q335 0 540 -190t205 -496t-205 -496t-540 -190h-598v504h-90v358h90v510zM541 352h139q159 0 256.5 93t97.5 241t-97.5 241t-256.5 93h-139v-158h170v-358h-170v-152z" />
    <glyph glyph-name="dcroat" unicode="&#x111;" horiz-adv-x="1341" 
d="M1313 1098h-72v-1098h-412v84q-112 -115 -292 -115q-220 0 -360 152t-140 397q0 246 140 398.5t360 152.5q180 0 292 -115v144h-241v286h241v91h412v-91h72v-286zM637 311q84 0 138 60t54 147q0 88 -54.5 148.5t-137.5 60.5q-84 0 -136 -60t-52 -149q0 -88 52 -147.5
t136 -59.5z" />
    <glyph glyph-name="Emacron" unicode="&#x112;" horiz-adv-x="1253" 
d="M995 1499h-721v303h721v-303zM1190 350v-350h-1106v1372h1096v-350h-672v-178h616v-316h-616v-178h682z" />
    <glyph glyph-name="emacron" unicode="&#x113;" horiz-adv-x="1187" 
d="M969 1163h-721v303h721v-303zM1153 487v-67h-715q18 -66 61 -103.5t109 -37.5q54 0 98.5 24t67.5 70l365 -72q-62 -164 -200.5 -248t-330.5 -84q-156 0 -286 68t-207.5 194.5t-77.5 286.5q0 161 77.5 288t207 195t284.5 68q246 0 396.5 -153t150.5 -429zM606 754
q-59 0 -102.5 -31.5t-63.5 -87.5h320q-18 57 -60 88t-94 31z" />
    <glyph glyph-name="Edotaccent" unicode="&#x116;" horiz-adv-x="1253" 
d="M633 1466q-96 0 -158.5 61.5t-62.5 155.5q0 90 63 154t158 64t159 -64.5t64 -153.5q0 -94 -63 -155.5t-160 -61.5zM1190 350v-350h-1106v1372h1096v-350h-672v-178h616v-316h-616v-178h682z" />
    <glyph glyph-name="edotaccent" unicode="&#x117;" horiz-adv-x="1187" 
d="M606 1130q-96 0 -158.5 62t-62.5 156q0 89 63 153t158 64t159 -64t64 -153q0 -94 -63 -156t-160 -62zM1153 487v-67h-715q18 -66 61 -103.5t109 -37.5q54 0 98.5 24t67.5 70l365 -72q-62 -164 -200.5 -248t-330.5 -84q-156 0 -286 68t-207.5 194.5t-77.5 286.5
q0 161 77.5 288t207 195t284.5 68q246 0 396.5 -153t150.5 -429zM606 754q-59 0 -102.5 -31.5t-63.5 -87.5h320q-18 57 -60 88t-94 31z" />
    <glyph glyph-name="Eogonek" unicode="&#x118;" horiz-adv-x="1253" 
d="M1190 0h-80q-11 -11 -27 -28t-23.5 -25t-18.5 -19.5t-16 -18t-11 -15t-8.5 -14.5t-4.5 -13t-2 -14q0 -48 58 -48q39 0 108 19l13 -219q-97 -51 -215 -51q-104 0 -170 55t-66 147q0 63 33.5 128t93.5 116h-770v1372h1096v-350h-672v-178h616v-316h-616v-178h682v-350z" />
    <glyph glyph-name="eogonek" unicode="&#x119;" horiz-adv-x="1187" 
d="M1153 420h-719q37 -141 174 -141q56 0 96 20t70 74l365 -72q-38 -83 -150 -201l-44 -44t-36 -40.5t-34.5 -47.5t-19 -45t-9.5 -54q0 -64 61 -64q38 0 105 19l14 -217q-100 -53 -217 -53q-108 0 -176 53.5t-68 146.5q0 106 94 217l-51 -2q-156 0 -286 68t-207.5 194.5
t-77.5 286.5q0 161 77.5 288t207.5 195t286 68q245 0 395 -153.5t150 -430.5v-65zM434 635h322q-15 63 -53 91t-103 28q-53 0 -99.5 -33t-66.5 -86z" />
    <glyph glyph-name="Ecaron" unicode="&#x11a;" horiz-adv-x="1253" 
d="M420 1495l-242 336h389l68 -96l67 96h388l-242 -336h-428zM1190 350v-350h-1106v1372h1096v-350h-672v-178h616v-316h-616v-178h682z" />
    <glyph glyph-name="ecaron" unicode="&#x11b;" horiz-adv-x="1187" 
d="M395 1159l-241 336h389l67 -96l68 96h387l-242 -336h-428zM1153 487v-67h-715q18 -66 61 -103.5t109 -37.5q54 0 98.5 24t67.5 70l365 -72q-62 -164 -200.5 -248t-330.5 -84q-156 0 -286 68t-207.5 194.5t-77.5 286.5q0 161 77.5 288t207 195t284.5 68q246 0 396.5 -153
t150.5 -429zM606 754q-59 0 -102.5 -31.5t-63.5 -87.5h320q-18 57 -60 88t-94 31z" />
    <glyph glyph-name="Gbreve" unicode="&#x11e;" horiz-adv-x="1599" 
d="M811 1464q-177 0 -287 97.5t-110 255.5h309q0 -32 24 -56t64 -24q42 0 66 24t24 56h307q0 -158 -110 -255.5t-287 -97.5zM768 823h766q10 -92 10 -137q0 -210 -93.5 -373.5t-261 -253.5t-380.5 -90q-208 0 -380.5 95t-272 259.5t-99.5 362.5t99 362.5t271.5 259.5
t381.5 95q248 0 431.5 -109.5t252.5 -300.5l-438 -104q-67 135 -246 135q-144 0 -235 -96t-91 -242t92 -242t236 -96q189 0 272 135h-315v340z" />
    <glyph glyph-name="gbreve" unicode="&#x11f;" horiz-adv-x="1318" 
d="M676 1128q-177 0 -287 97.5t-110 255.5h309q0 -32 24 -56t64 -24q42 0 66 24t24 56h307q0 -158 -110 -255.5t-287 -97.5zM1235 1038v-932q0 -116 -49.5 -211t-135 -156.5t-198 -94.5t-240.5 -33q-374 0 -540 283l352 118q50 -57 90.5 -75.5t95.5 -18.5q92 0 152.5 49.5
t60.5 147.5v49q-110 -107 -291 -107q-218 0 -356.5 142t-138.5 368q0 222 139 362t356 140q184 0 291 -104v73h412zM635 381q82 0 135 54.5t53 131.5q0 79 -53 134t-135 55q-84 0 -136.5 -54.5t-52.5 -134.5q0 -77 52.5 -131.5t136.5 -54.5z" />
    <glyph glyph-name="Gdotaccent" unicode="&#x120;" horiz-adv-x="1599" 
d="M809 1466q-96 0 -158.5 61.5t-62.5 155.5q0 90 63 154t158 64t159 -64.5t64 -153.5q0 -94 -63 -155.5t-160 -61.5zM768 823h766q10 -92 10 -137q0 -210 -93.5 -373.5t-261 -253.5t-380.5 -90q-208 0 -380.5 95t-272 259.5t-99.5 362.5t99 362.5t271.5 259.5t381.5 95
q248 0 431.5 -109.5t252.5 -300.5l-438 -104q-67 135 -246 135q-144 0 -235 -96t-91 -242t92 -242t236 -96q189 0 272 135h-315v340z" />
    <glyph glyph-name="gdotaccent" unicode="&#x121;" horiz-adv-x="1318" 
d="M674 1130q-96 0 -158.5 62t-62.5 156q0 89 63 153t158 64t159 -64t64 -153q0 -94 -63 -156t-160 -62zM1235 1038v-932q0 -116 -49.5 -211t-135 -156.5t-198 -94.5t-240.5 -33q-374 0 -540 283l352 118q50 -57 90.5 -75.5t95.5 -18.5q92 0 152.5 49.5t60.5 147.5v49
q-110 -107 -291 -107q-218 0 -356.5 142t-138.5 368q0 222 139 362t356 140q184 0 291 -104v73h412zM635 381q82 0 135 54.5t53 131.5q0 79 -53 134t-135 55q-84 0 -136.5 -54.5t-52.5 -134.5q0 -77 52.5 -131.5t136.5 -54.5z" />
    <glyph glyph-name="Gcommaaccent" unicode="&#x122;" horiz-adv-x="1599" 
d="M768 823h766q10 -92 10 -137q0 -210 -93.5 -373.5t-261 -253.5t-380.5 -90q-208 0 -380.5 95t-272 259.5t-99.5 362.5t99 362.5t271.5 259.5t381.5 95q248 0 431.5 -109.5t252.5 -300.5l-438 -104q-67 135 -246 135q-144 0 -235 -96t-91 -242t92 -242t236 -96
q189 0 272 135h-315v340zM606 -92h391l-209 -342h-280z" />
    <glyph glyph-name="gcommaaccent" unicode="&#x123;" horiz-adv-x="1300" 
d="M856 1155h-391l209 342h280zM1235 1038v-932q0 -116 -49.5 -211t-135 -156.5t-198 -94.5t-240.5 -33q-374 0 -540 283l352 118q50 -57 90.5 -75.5t95.5 -18.5q92 0 152.5 49.5t60.5 147.5v49q-110 -107 -291 -107q-218 0 -356.5 142t-138.5 368q0 222 139 362t356 140
q184 0 291 -104v73h412zM635 381q82 0 135 54.5t53 131.5q0 79 -53 134t-135 55q-84 0 -136.5 -54.5t-52.5 -134.5q0 -77 52.5 -131.5t136.5 -54.5z" />
    <glyph glyph-name="Hbar" unicode="&#x126;" horiz-adv-x="1542" 
d="M1513 881h-90v-881h-424v408h-458v-408h-424v881h-90v305h90v186h424v-186h458v186h424v-186h90v-305zM999 881h-458v-148h458v148z" />
    <glyph glyph-name="hbar" unicode="&#x127;" horiz-adv-x="1304" 
d="M838 1069q173 0 278 -114t105 -310v-645h-414v557q0 65 -35.5 105t-95.5 40q-67 0 -107.5 -49.5t-40.5 -138.5v-514h-411v1118h-90v266h90v91h411v-91h226v-266h-226v-188q126 139 310 139z" />
    <glyph glyph-name="Imacron" unicode="&#x12a;" horiz-adv-x="591" 
d="M657 1499h-720v303h720v-303zM508 0h-424v1372h424v-1372z" />
    <glyph glyph-name="imacron" unicode="&#x12b;" horiz-adv-x="612" 
d="M668 1163h-721v303h721v-303zM512 0h-412v1038h412v-1038z" />
    <glyph glyph-name="Iogonek" unicode="&#x12e;" horiz-adv-x="591" 
d="M561 -176l12 -219q-97 -51 -215 -51q-104 0 -169.5 55t-65.5 147q0 63 33.5 128t93.5 116h-166v1372h424v-1372h-2q-11 -11 -27 -28t-23.5 -25t-18.5 -19.5t-16 -18t-11 -15t-8.5 -14.5t-4.5 -13t-2 -14q0 -48 58 -48q39 0 108 19z" />
    <glyph glyph-name="iogonek" unicode="&#x12f;" horiz-adv-x="612" 
d="M305 1130q-96 0 -158.5 62t-62.5 156q0 89 63 153t158 64t159 -64t64 -153q0 -94 -63 -156t-160 -62zM567 -176l13 -219q-97 -51 -215 -51q-104 0 -170 55t-66 147q0 63 33.5 128t93.5 116h-156v1038h412v-1038q-11 -11 -27 -28t-23.5 -25t-18.5 -19.5t-16 -18t-11 -15
t-8.5 -14.5t-4.5 -13t-2 -14q0 -48 58 -48q39 0 108 19z" />
    <glyph glyph-name="Idotaccent" unicode="&#x130;" horiz-adv-x="591" 
d="M295 1901q95 0 159 -64.5t64 -153.5q0 -94 -63 -155.5t-160 -61.5q-96 0 -158.5 61.5t-62.5 155.5q0 90 63 154t158 64zM508 0h-424v1372h424v-1372z" />
    <glyph glyph-name="dotlessi" unicode="&#x131;" horiz-adv-x="612" 
d="M512 0h-412v1038h412v-1038z" />
    <glyph glyph-name="IJ" unicode="&#x132;" horiz-adv-x="1873" 
d="M84 1372h424v-1372h-424v1372zM1784 1372v-866q0 -242 -161 -389.5t-425 -147.5q-245 0 -397.5 130t-182.5 352l420 81q9 -97 48.5 -141.5t111.5 -44.5t116 43.5t44 116.5v866h426z" />
    <glyph glyph-name="ij" unicode="&#x133;" horiz-adv-x="1259" 
d="M309 1561q98 0 163 -65.5t65 -156.5q0 -96 -64.5 -158.5t-163.5 -62.5q-100 0 -163.5 62.5t-63.5 158.5q0 92 64 157t163 65zM950 1561q98 0 163 -65.5t65 -156.5q0 -96 -64.5 -158.5t-163.5 -62.5q-100 0 -163.5 62.5t-63.5 158.5q0 92 64 157t163 65zM516 0h-414v1038
h414v-1038zM559 -317l51 288q52 -10 66 -10q32 0 50.5 23.5t18.5 60.5v993h412v-1028q0 -170 -102 -274.5t-269 -104.5q-121 0 -227 52z" />
    <glyph glyph-name="Kcommaaccent" unicode="&#x136;" horiz-adv-x="1447" 
d="M1466 0h-542l-353 467h-63v-467h-424v1372h424v-504h47l377 504h495l-512 -690zM514 -92h391l-209 -342h-280z" />
    <glyph glyph-name="kcommaaccent" unicode="&#x137;" horiz-adv-x="1298" 
d="M1315 0h-508l-248 330h-63v-330h-412v1475h412v-777h41l262 340h479l-389 -493zM469 -92h391l-209 -342h-280z" />
    <glyph glyph-name="Lacute" unicode="&#x139;" horiz-adv-x="1185" 
d="M496 1497h-385l159 336h496zM1137 360v-360h-1053v1372h424v-1012h629z" />
    <glyph glyph-name="lacute" unicode="&#x13a;" horiz-adv-x="579" 
d="M487 1599h-385l160 336h496zM496 0h-412v1475h412v-1475z" />
    <glyph glyph-name="Lcommaaccent" unicode="&#x13b;" horiz-adv-x="1185" 
d="M1137 360v-360h-1053v1372h424v-1012h629zM434 -92h391l-209 -342h-280z" />
    <glyph glyph-name="lcommaaccent" unicode="&#x13c;" horiz-adv-x="579" 
d="M496 0h-412v1475h412v-1475zM2 -434l98 342h392l-209 -342h-281z" />
    <glyph glyph-name="Lcaron" unicode="&#x13d;" horiz-adv-x="1185" 
d="M1137 360v-360h-1053v1372h424v-1012h629zM928 963h-271v409h361z" />
    <glyph glyph-name="lcaron" unicode="&#x13e;" horiz-adv-x="579" 
d="M496 0h-412v1475h412v-1475zM870 1065h-270v410h361z" />
    <glyph glyph-name="Ldot" unicode="&#x13f;" horiz-adv-x="1232" 
d="M1137 360v-360h-1053v1372h424v-1012h629zM870 541q-98 0 -159.5 61.5t-61.5 155.5q0 90 62.5 153.5t158.5 63.5q95 0 159.5 -64t64.5 -153q0 -94 -63.5 -155.5t-160.5 -61.5z" />
    <glyph glyph-name="ldot" unicode="&#x140;" horiz-adv-x="1003" 
d="M496 0h-412v1475h412v-1475zM770 975q96 0 159.5 -63.5t63.5 -153.5q0 -94 -62.5 -155.5t-160.5 -61.5q-96 0 -157.5 61.5t-61.5 155.5q0 90 62 153.5t157 63.5z" />
    <glyph glyph-name="Lslash" unicode="&#x141;" 
d="M1178 360v-360h-1053v459l-98 -43v344l98 43v569h424v-383l176 78v-344l-176 -78v-285h629z" />
    <glyph glyph-name="lslash" unicode="&#x142;" horiz-adv-x="663" 
d="M637 729l-98 -49v-680h-412v473l-100 -51v379l100 51v623h412v-416l98 49v-379z" />
    <glyph glyph-name="Nacute" unicode="&#x143;" horiz-adv-x="1536" 
d="M958 1497h-385l160 336h496zM1452 1372v-1372h-346l-598 662v-662h-424v1372h348l598 -688v688h422z" />
    <glyph glyph-name="nacute" unicode="&#x144;" horiz-adv-x="1271" 
d="M825 1161h-385l160 336h496zM803 1069q175 0 280 -114t105 -310v-645h-412v557q0 65 -36.5 105t-94.5 40q-69 0 -109 -49.5t-40 -138.5v-514h-412v1038h412v-108q126 139 307 139z" />
    <glyph glyph-name="Ncommaaccent" unicode="&#x145;" horiz-adv-x="1536" 
d="M1452 1372v-1372h-346l-598 662v-662h-424v1372h348l598 -688v688h422zM608 -92h391l-208 -342h-281z" />
    <glyph glyph-name="ncommaaccent" unicode="&#x146;" horiz-adv-x="1271" 
d="M803 1069q175 0 280 -114t105 -310v-645h-412v557q0 65 -36.5 105t-94.5 40q-69 0 -109 -49.5t-40 -138.5v-514h-412v1038h412v-108q126 139 307 139zM436 -92h391l-209 -342h-280z" />
    <glyph glyph-name="Ncaron" unicode="&#x147;" horiz-adv-x="1536" 
d="M555 1495l-242 336h389l68 -96l68 96h387l-242 -336h-428zM1452 1372v-1372h-346l-598 662v-662h-424v1372h348l598 -688v688h422z" />
    <glyph glyph-name="ncaron" unicode="&#x148;" horiz-adv-x="1271" 
d="M424 1159l-242 336h389l68 -96l68 96h387l-242 -336h-428zM803 1069q175 0 280 -114t105 -310v-645h-412v557q0 65 -36.5 105t-94.5 40q-69 0 -109 -49.5t-40 -138.5v-514h-412v1038h412v-108q126 139 307 139z" />
    <glyph glyph-name="Eng" unicode="&#x14a;" horiz-adv-x="1529" 
d="M1452 1372v-1415q0 -156 -100.5 -241t-270.5 -85q-25 0 -49 1.5t-42 2.5t-39.5 5t-33 6t-31.5 7t-26.5 6.5t-27 7.5t-23.5 7l41 267q116 -17 123 -17q67 0 67 68v80l-532 590v-662h-424v1372h348l598 -688v688h422z" />
    <glyph glyph-name="eng" unicode="&#x14b;" horiz-adv-x="1271" 
d="M803 1069q175 0 280 -114t105 -310v-688q0 -156 -100.5 -241t-270.5 -85q-25 0 -49.5 1.5t-42.5 2.5t-40 5t-33 5.5t-32 7t-27 7t-26.5 7.5t-23.5 7l43 267q112 -17 121 -17q69 0 69 68v565q0 65 -36.5 105t-94.5 40q-69 0 -109 -49.5t-40 -138.5v-514h-412v1038h412
v-108q126 139 307 139z" />
    <glyph glyph-name="Omacron" unicode="&#x14c;" horiz-adv-x="1599" 
d="M1161 1499h-721v303h721v-303zM801 1403q205 0 375.5 -95t269 -260t98.5 -362t-98.5 -362t-269 -260t-375.5 -95q-154 0 -292 56t-237 151.5t-157 228.5t-58 281t58 281t157 228.5t237 151.5t292 56zM801 348q139 0 228 96t89 242t-89 242t-228 96t-229.5 -96.5
t-90.5 -241.5t90.5 -241.5t229.5 -96.5z" />
    <glyph glyph-name="omacron" unicode="&#x14d;" horiz-adv-x="1243" 
d="M983 1163h-721v303h721v-303zM623 1067q118 0 224.5 -40t186 -110.5t126 -174t46.5 -224.5q0 -160 -79.5 -286.5t-212.5 -194.5t-291 -68q-159 0 -292.5 68t-213.5 194.5t-80 286.5q0 161 80 287.5t213 194t293 67.5zM623 311q79 0 133.5 60t54.5 147q0 88 -54.5 148.5
t-133.5 60.5q-81 0 -136 -60.5t-55 -148.5q0 -87 55 -147t136 -60z" />
    <glyph glyph-name="Ohungarumlaut" unicode="&#x150;" horiz-adv-x="1599" 
d="M729 1497h-336l176 336h420zM850 1497l176 336h436l-278 -336h-334zM801 1403q205 0 375.5 -95t269 -260t98.5 -362t-98.5 -362t-269 -260t-375.5 -95q-154 0 -292 56t-237 151.5t-157 228.5t-58 281t58 281t157 228.5t237 151.5t292 56zM801 348q139 0 228 96t89 242
t-89 242t-228 96t-229.5 -96.5t-90.5 -241.5t90.5 -241.5t229.5 -96.5z" />
    <glyph glyph-name="ohungarumlaut" unicode="&#x151;" horiz-adv-x="1243" 
d="M551 1161h-336l176 336h420zM672 1161l176 336h436l-278 -336h-334zM623 1067q118 0 224.5 -40t186 -110.5t126 -174t46.5 -224.5q0 -160 -79.5 -286.5t-212.5 -194.5t-291 -68q-159 0 -292.5 68t-213.5 194.5t-80 286.5q0 161 80 287.5t213 194t293 67.5zM623 311
q79 0 133.5 60t54.5 147q0 88 -54.5 148.5t-133.5 60.5q-81 0 -136 -60.5t-55 -148.5q0 -87 55 -147t136 -60z" />
    <glyph glyph-name="OE" unicode="&#x152;" horiz-adv-x="2105" 
d="M2042 350v-350h-1182q-239 0 -422 87.5t-282 243.5t-99 355t99 355t282 243.5t422 87.5h1172v-350h-672v-178h616v-316h-616v-178h682zM936 350v672h-76q-184 0 -281.5 -92.5t-97.5 -243.5t97.5 -243.5t281.5 -92.5h76z" />
    <glyph glyph-name="oe" unicode="&#x153;" horiz-adv-x="1964" 
d="M1929 487v-67h-715q18 -66 61 -103.5t109 -37.5q55 0 99 24t65 70l367 -72q-62 -164 -200.5 -248t-330.5 -84q-218 0 -378 129q-160 -129 -383 -129q-159 0 -292.5 68t-213.5 194.5t-80 286.5q0 161 80 287.5t213 194t293 67.5q225 0 383 -127q157 129 376 129
q119 0 219 -38.5t173 -111t114 -183t41 -249.5zM1382 754q-60 0 -104 -31.5t-64 -87.5h320q-18 57 -59 88t-93 31zM623 311q79 0 133.5 60t54.5 147q0 88 -54.5 148.5t-133.5 60.5q-81 0 -136 -60.5t-55 -148.5q0 -87 55 -147t136 -60z" />
    <glyph glyph-name="Racute" unicode="&#x154;" horiz-adv-x="1404" 
d="M854 1497h-385l160 336h495zM1401 0h-508l-356 422h-29v-422h-424v1372h750q223 0 359 -129t136 -340q0 -162 -84 -279.5t-233 -168.5zM508 1028v-278h233q79 0 125.5 38.5t46.5 104.5q0 61 -46.5 98t-125.5 37h-233z" />
    <glyph glyph-name="racute" unicode="&#x155;" horiz-adv-x="917" 
d="M686 1161h-385l160 336h495zM496 1038v-213q107 226 338 226q28 0 75 -7l-14 -430h-61q-79 0 -137.5 -14.5t-105.5 -48t-71 -94t-24 -148.5v-309h-412v1038h412z" />
    <glyph glyph-name="Rcommaaccent" unicode="&#x156;" horiz-adv-x="1404" 
d="M1401 0h-508l-356 422h-29v-422h-424v1372h750q223 0 359 -129t136 -340q0 -162 -84 -279.5t-233 -168.5zM508 1028v-278h233q79 0 125.5 38.5t46.5 104.5q0 61 -46.5 98t-125.5 37h-233zM512 -92h391l-209 -342h-280z" />
    <glyph glyph-name="rcommaaccent" unicode="&#x157;" horiz-adv-x="917" 
d="M834 1051q28 0 75 -7l-14 -430h-61q-79 0 -137.5 -14.5t-105.5 -48t-71 -94t-24 -148.5v-309h-412v1038h412v-213q107 226 338 226zM100 -92h392l-209 -342h-281z" />
    <glyph glyph-name="Rcaron" unicode="&#x158;" horiz-adv-x="1404" 
d="M451 1495l-242 336h389l68 -96l67 96h387l-241 -336h-428zM1401 0h-508l-356 422h-29v-422h-424v1372h750q223 0 359 -129t136 -340q0 -162 -84 -279.5t-233 -168.5zM508 1028v-278h233q79 0 125.5 38.5t46.5 104.5q0 61 -46.5 98t-125.5 37h-233z" />
    <glyph glyph-name="rcaron" unicode="&#x159;" horiz-adv-x="917" 
d="M283 1159l-242 336h389l68 -96l67 96h387l-241 -336h-428zM496 1038v-213q107 226 338 226q28 0 75 -7l-14 -430h-61q-79 0 -137.5 -14.5t-105.5 -48t-71 -94t-24 -148.5v-309h-412v1038h412z" />
    <glyph glyph-name="Sacute" unicode="&#x15a;" horiz-adv-x="1339" 
d="M862 1497h-385l160 336h496zM674 1403q250 0 409 -103.5t195 -295.5l-412 -84q-21 88 -75.5 124.5t-116.5 36.5q-57 0 -92 -25t-35 -69q0 -61 67 -76l273 -69q201 -51 301 -149t100 -261q0 -97 -36 -176t-95 -131.5t-137 -88.5t-160.5 -51.5t-167.5 -15.5
q-258 0 -434 117.5t-205 310.5l430 80q44 -172 215 -172q62 0 102 24.5t40 69.5q0 58 -78 78l-283 70q-189 45 -285 142.5t-96 258.5q0 145 77.5 249.5t206 155t292.5 50.5z" />
    <glyph glyph-name="sacute" unicode="&#x15b;" horiz-adv-x="1089" 
d="M739 1161h-385l160 336h496zM35 266l391 78q11 -43 50.5 -66.5t88.5 -23.5q45 0 69.5 14.5t24.5 36.5q0 23 -20 34t-68 17l-206 35q-314 52 -314 311q0 114 65 199t171.5 126.5t238.5 41.5q208 0 336.5 -74t167.5 -211l-362 -71q-7 33 -44.5 62.5t-93.5 29.5
q-41 0 -62.5 -15t-21.5 -36q0 -36 60 -49l235 -46q158 -30 235 -116.5t77 -220.5q0 -166 -139.5 -259.5t-354.5 -93.5q-209 0 -349 74t-175 223z" />
    <glyph glyph-name="Scedilla" unicode="&#x15e;" horiz-adv-x="1339" 
d="M1288 432q0 -101 -38.5 -183.5t-105.5 -135.5t-147.5 -86t-173.5 -47l-78 -308h-421l204 312q-196 34 -323 143.5t-152 269.5l430 80q44 -172 215 -172q62 0 102 24.5t40 69.5q0 58 -78 78l-283 70q-189 45 -285 142.5t-96 258.5q0 145 77.5 249.5t206 155t292.5 50.5
q250 0 409 -103.5t195 -295.5l-412 -84q-21 88 -75.5 124.5t-116.5 36.5q-57 0 -92 -25t-35 -69q0 -61 67 -76l273 -69q201 -51 301 -149t100 -261z" />
    <glyph glyph-name="scedilla" unicode="&#x15f;" horiz-adv-x="1089" 
d="M1053 322q0 -135 -94 -223t-250 -117l-80 -310h-422l203 308q-151 24 -249 95t-126 191l391 78q11 -43 50.5 -66.5t88.5 -23.5q45 0 69.5 14.5t24.5 36.5q0 23 -20 34t-68 17l-206 35q-314 52 -314 311q0 114 65 199t171.5 126.5t238.5 41.5q208 0 336.5 -74t167.5 -211
l-362 -71q-7 33 -44.5 62.5t-93.5 29.5q-41 0 -62.5 -15t-21.5 -36q0 -36 60 -49l235 -46q158 -30 235 -116.5t77 -220.5z" />
    <glyph glyph-name="Scaron" unicode="&#x160;" horiz-adv-x="1339" 
d="M459 1495l-242 336h389l68 -96l67 96h387l-241 -336h-428zM614 911l273 -69q201 -51 301 -149t100 -261q0 -97 -36 -176t-95 -131.5t-137 -88.5t-160.5 -51.5t-167.5 -15.5q-258 0 -434 117.5t-205 310.5l430 80q44 -172 215 -172q62 0 102 24.5t40 69.5q0 58 -78 78
l-283 70q-189 45 -285 142.5t-96 258.5q0 145 77.5 249.5t206 155t292.5 50.5q250 0 409 -103.5t195 -295.5l-412 -84q-21 88 -75.5 124.5t-116.5 36.5q-57 0 -92 -25t-35 -69q0 -61 67 -76z" />
    <glyph glyph-name="scaron" unicode="&#x161;" horiz-adv-x="1089" 
d="M336 1159l-242 336h389l68 -96l67 96h388l-242 -336h-428zM506 705l235 -46q158 -30 235 -116.5t77 -220.5q0 -166 -139.5 -259.5t-354.5 -93.5q-209 0 -349 74t-175 223l391 78q11 -43 50.5 -66.5t88.5 -23.5q45 0 69.5 14.5t24.5 36.5q0 23 -20 34t-68 17l-206 35
q-314 52 -314 311q0 114 65 199t171.5 126.5t238.5 41.5q208 0 336.5 -74t167.5 -211l-362 -71q-7 33 -44.5 62.5t-93.5 29.5q-41 0 -62.5 -15t-21.5 -36q0 -36 60 -49z" />
    <glyph glyph-name="tcedilla" unicode="&#x163;" horiz-adv-x="882" 
d="M799 350l73 -305q-102 -53 -198 -68l-78 -301h-422l211 324q-116 41 -175.5 140t-59.5 243v336h-142v319h142v293h411v-293h258v-319h-258v-285q0 -60 29 -86t88 -26q70 0 121 28z" />
    <glyph glyph-name="Tcaron" unicode="&#x164;" horiz-adv-x="1353" 
d="M463 1495l-242 336h389l68 -96l67 96h388l-242 -336h-428zM1313 1014h-424v-1014h-424v1014h-424v358h1272v-358z" />
    <glyph glyph-name="tcaron" unicode="&#x165;" horiz-adv-x="882" 
d="M981 1495l-90 -410h-270v410h360zM678 322q70 0 121 28l73 -305q-148 -76 -301 -76q-206 0 -313.5 110t-107.5 304v336h-142v319h142v293h411v-293h258v-319h-258v-285q0 -60 29 -86t88 -26z" />
    <glyph glyph-name="Tbar" unicode="&#x166;" horiz-adv-x="1353" 
d="M889 1014v-215h211v-322h-211v-477h-424v477h-209v322h209v215h-424v358h1272v-358h-424z" />
    <glyph glyph-name="tbar" unicode="&#x167;" horiz-adv-x="882" 
d="M823 371l43 -328q-144 -74 -297 -74q-206 0 -314 110t-108 304v61h-94v248h94v78h-139v268h139v293h412v-293h258v-268h-258v-78h152v-248h-152v-10q0 -60 29 -86t88 -26q63 0 147 49z" />
    <glyph glyph-name="Umacron" unicode="&#x16a;" horiz-adv-x="1466" 
d="M1094 1499h-721v303h721v-303zM1376 1372v-749q0 -300 -173.5 -477t-461.5 -177q-295 0 -473 177t-178 477v749h426v-749q0 -130 61 -202.5t164 -72.5q95 0 152 72.5t57 202.5v749h426z" />
    <glyph glyph-name="umacron" unicode="&#x16b;" horiz-adv-x="1271" 
d="M997 1163h-721v303h721v-303zM1188 1036v-1038h-412v108q-126 -139 -307 -139q-175 0 -280 114t-105 310v645h412v-557q0 -65 36.5 -105t94.5 -40q69 0 109 49.5t40 138.5v514h412z" />
    <glyph glyph-name="Uring" unicode="&#x16e;" horiz-adv-x="1466" 
d="M733 1446q-118 0 -199 79t-81 193q0 116 81 194.5t199 78.5q119 0 200 -79t81 -194q0 -114 -81.5 -193t-199.5 -79zM733 1798q-34 0 -58 -24t-24 -56q0 -31 24.5 -54.5t57.5 -23.5t57.5 23.5t24.5 54.5q0 32 -24 56t-58 24zM1376 1372v-749q0 -300 -173.5 -477
t-461.5 -177q-295 0 -473 177t-178 477v749h426v-749q0 -130 61 -202.5t164 -72.5q95 0 152 72.5t57 202.5v749h426z" />
    <glyph glyph-name="uring" unicode="&#x16f;" horiz-adv-x="1271" 
d="M637 1110q-118 0 -199.5 79t-81.5 193q0 115 81 194t200 79t200 -79t81 -194q0 -114 -81.5 -193t-199.5 -79zM637 1462q-34 0 -58 -24t-24 -56q0 -31 24 -54t58 -23t58 23t24 54q0 32 -24 56t-58 24zM1188 1036v-1038h-412v108q-126 -139 -307 -139q-175 0 -280 114
t-105 310v645h412v-557q0 -65 36.5 -105t94.5 -40q69 0 109 49.5t40 138.5v514h412z" />
    <glyph glyph-name="Uhungarumlaut" unicode="&#x170;" horiz-adv-x="1466" 
d="M662 1497h-336l176 336h420zM782 1497l176 336h437l-279 -336h-334zM950 1372h426v-749q0 -300 -173.5 -477t-461.5 -177q-295 0 -473 177t-178 477v749h426v-749q0 -130 61 -202.5t164 -72.5q95 0 152 72.5t57 202.5v749z" />
    <glyph glyph-name="uhungarumlaut" unicode="&#x171;" horiz-adv-x="1271" 
d="M565 1161h-336l177 336h419zM686 1161l176 336h436l-278 -336h-334zM776 1036h412v-1038h-412v108q-126 -139 -307 -139q-175 0 -280 114t-105 310v645h412v-557q0 -65 36.5 -105t94.5 -40q69 0 109 49.5t40 138.5v514z" />
    <glyph glyph-name="Uogonek" unicode="&#x172;" horiz-adv-x="1466" 
d="M1169 111q-69 -59 -109 -115t-40 -125q0 -64 61 -64q23 0 109 25l51 -225q-147 -70 -272 -70q-107 0 -176.5 61t-69.5 156q0 112 94 219q-50 -4 -76 -4q-295 0 -473 171.5t-178 463.5v768h426v-768q0 -121 61 -188.5t164 -67.5q95 0 152 67.5t57 188.5v768h426v-768
q0 -317 -207 -493z" />
    <glyph glyph-name="uogonek" unicode="&#x173;" horiz-adv-x="1271" 
d="M1243 -176l12 -219q-97 -51 -215 -51q-104 0 -169.5 55t-65.5 147q0 62 33.5 126.5t91.5 115.5h-154v108q-126 -139 -307 -139q-175 0 -280 114t-105 310v645h412v-557q0 -65 36.5 -105t94.5 -40q69 0 109 49.5t40 138.5v514h412l-2 -1038q-11 -11 -26.5 -27.5t-23 -24
t-18 -19.5t-15.5 -18t-11 -14.5t-8.5 -14.5t-4.5 -13t-2 -14q0 -48 58 -48q39 0 108 19z" />
    <glyph glyph-name="Wcircumflex" unicode="&#x174;" horiz-adv-x="2027" 
d="M946 1495h-389l242 338h428l241 -338h-387l-67 96zM2025 1372l-378 -1372h-457l-176 731l-176 -731h-455l-379 1372h430l205 -741l176 741h399l177 -741l202 741h432z" />
    <glyph glyph-name="wcircumflex" unicode="&#x175;" horiz-adv-x="1652" 
d="M760 1159h-389l241 338h428l242 -338h-387l-68 96zM1649 1038l-318 -1038h-346l-158 487l-159 -487h-346l-318 1038h404l122 -438l166 438h262l166 -438l123 438h402z" />
    <glyph glyph-name="Ycircumflex" unicode="&#x176;" horiz-adv-x="1492" 
d="M678 1495h-389l241 338h428l242 -338h-387l-68 96zM1489 1372l-531 -956v-416h-442v416l-512 956h463l281 -534l276 534h465z" />
    <glyph glyph-name="ycircumflex" unicode="&#x177;" horiz-adv-x="1298" 
d="M582 1159h-389l241 338h428l242 -338h-387l-68 96zM1294 1038l-596 -1386h-432l168 387l-430 999h430l207 -520l223 520h430z" />
    <glyph glyph-name="Ydieresis" unicode="&#x178;" horiz-adv-x="1492" 
d="M496 1454q-93 0 -153 59t-60 150q0 86 60.5 147.5t152.5 61.5t153.5 -61.5t61.5 -147.5q0 -91 -60.5 -150t-154.5 -59zM995 1454q-93 0 -153 59t-60 150q0 86 60.5 147.5t152.5 61.5t153.5 -61.5t61.5 -147.5q0 -91 -60.5 -150t-154.5 -59zM1489 1372l-531 -956v-416
h-442v416l-512 956h463l281 -534l276 534h465z" />
    <glyph glyph-name="Zacute" unicode="&#x179;" horiz-adv-x="1329" 
d="M854 1497h-385l160 336h495zM1268 356v-356h-1200v274l630 744h-614v354h1161v-328l-565 -688h588z" />
    <glyph glyph-name="zacute" unicode="&#x17a;" horiz-adv-x="1148" 
d="M764 1161h-385l160 336h495zM1083 319v-319h-1017v264l454 455h-444v319h997v-270l-452 -449h462z" />
    <glyph glyph-name="Zdotaccent" unicode="&#x17b;" horiz-adv-x="1329" 
d="M666 1466q-97 0 -159.5 61.5t-62.5 155.5q0 89 63.5 153.5t158.5 64.5t159 -64.5t64 -153.5q0 -94 -63 -155.5t-160 -61.5zM1268 356v-356h-1200v274l630 744h-614v354h1161v-328l-565 -688h588z" />
    <glyph glyph-name="zdotaccent" unicode="&#x17c;" horiz-adv-x="1148" 
d="M573 1130q-96 0 -158.5 62t-62.5 156q0 89 63 153t158 64t159.5 -64t64.5 -153q0 -94 -63.5 -156t-160.5 -62zM1083 319v-319h-1017v264l454 455h-444v319h997v-270l-452 -449h462z" />
    <glyph glyph-name="Zcaron" unicode="&#x17d;" horiz-adv-x="1329" 
d="M453 1495l-242 336h389l68 -96l67 96h387l-241 -336h-428zM1268 356v-356h-1200v274l630 744h-614v354h1161v-328l-565 -688h588z" />
    <glyph glyph-name="zcaron" unicode="&#x17e;" horiz-adv-x="1148" 
d="M360 1159l-241 336h389l67 -96l68 96h387l-242 -336h-428zM1083 319v-319h-1017v264l454 455h-444v319h997v-270l-452 -449h462z" />
    <glyph glyph-name="florin" unicode="&#x192;" horiz-adv-x="1212" 
d="M948 1061q-50 0 -84 -29t-43 -80l-22 -125h229v-317h-287l-84 -455q-32 -181 -152.5 -287t-297.5 -106q-23 0 -43.5 1.5t-39.5 5.5t-34 7.5t-31.5 10t-26.5 10.5t-24 12.5t-19.5 11.5t-18.5 11.5t-15 9.5l113 293q70 -25 100 -25q33 0 55.5 21t28.5 57l76 422h-170v317
h227l29 158q35 190 172 304t327 114q156 0 277 -70l-123 -307q-66 35 -119 35z" />
    <glyph glyph-name="AEacute" unicode="&#x1fc;" horiz-adv-x="2158" 
d="M1546 1497h-385l160 336h496zM2097 350v-350h-1106v180h-397l-94 -180h-500l815 1372h1272v-350h-672v-178h617v-316h-617v-178h682zM991 528v412l-215 -412h215z" />
    <glyph glyph-name="aeacute" unicode="&#x1fd;" horiz-adv-x="1818" 
d="M1096 1161h-385l159 336h496zM1782 416h-713q38 -137 172 -137q53 0 92 20t64 76l354 -74q-38 -148 -180.5 -240t-331.5 -92q-206 0 -358 115q-150 -115 -402 -115q-217 0 -334.5 87t-117.5 247q0 153 115 232t337 79h221v60q0 44 -29 72t-75 28q-96 0 -111 -96l-383 78
q28 138 155 225.5t339 87.5q203 0 330 -86q141 86 311 86q245 0 395 -153.5t150 -430.5v-69zM1067 614h319q-29 140 -151 140q-132 0 -168 -140zM698 410h-131q-118 0 -118 -78q0 -38 29.5 -61t76.5 -23q58 0 100.5 33t42.5 88v41z" />
    <glyph glyph-name="Scommaaccent" unicode="&#x218;" horiz-adv-x="1339" 
d="M674 1403q250 0 409 -103.5t195 -295.5l-412 -84q-21 88 -75.5 124.5t-116.5 36.5q-57 0 -92 -25t-35 -69q0 -61 67 -76l273 -69q201 -51 301 -149t100 -261q0 -97 -36 -176t-95 -131.5t-137 -88.5t-160.5 -51.5t-167.5 -15.5q-258 0 -434 117.5t-205 310.5l430 80
q44 -172 215 -172q62 0 102 24.5t40 69.5q0 58 -78 78l-283 70q-189 45 -285 142.5t-96 258.5q0 145 77.5 249.5t206 155t292.5 50.5zM391 -434l98 342h392l-209 -342h-281z" />
    <glyph glyph-name="scommaaccent" unicode="&#x219;" horiz-adv-x="1089" 
d="M35 266l391 78q11 -43 50.5 -66.5t88.5 -23.5q45 0 69.5 14.5t24.5 36.5q0 23 -20 34t-68 17l-206 35q-314 52 -314 311q0 114 65 199t171.5 126.5t238.5 41.5q208 0 336.5 -74t167.5 -211l-362 -71q-7 33 -44.5 62.5t-93.5 29.5q-41 0 -62.5 -15t-21.5 -36q0 -36 60 -49
l235 -46q158 -30 235 -116.5t77 -220.5q0 -166 -139.5 -259.5t-354.5 -93.5q-209 0 -349 74t-175 223zM274 -434l99 342h391l-209 -342h-281z" />
    <glyph glyph-name="uni021A" unicode="&#x21a;" horiz-adv-x="1353" 
d="M1313 1014h-424v-1014h-424v1014h-424v358h1272v-358zM489 -92h392l-209 -342h-281z" />
    <glyph glyph-name="uni021B" unicode="&#x21b;" horiz-adv-x="882" 
d="M571 -31q-206 0 -313.5 110t-107.5 304v336h-142v319h142v293h411v-293h258v-319h-258v-285q0 -60 29 -86t88 -26q70 0 121 28l73 -305q-148 -76 -301 -76zM340 -88h391l-209 -342h-280z" />
    <glyph glyph-name="circumflex" unicode="&#x2c6;" horiz-adv-x="1228" 
d="M684 1159l-68 96l-67 -96h-389l241 336h428l242 -336h-387z" />
    <glyph glyph-name="caron" unicode="&#x2c7;" horiz-adv-x="1228" 
d="M1071 1495l-242 -336h-428l-241 336h389l67 -96l68 96h387z" />
    <glyph glyph-name="breve" unicode="&#x2d8;" horiz-adv-x="1228" 
d="M614 1128q-177 0 -287 97.5t-110 255.5h309q0 -32 24 -56t64 -24q42 0 66.5 24t24.5 56h307q0 -158 -110.5 -255.5t-287.5 -97.5z" />
    <glyph glyph-name="dotaccent" unicode="&#x2d9;" horiz-adv-x="1228" 
d="M614 1565q95 0 159.5 -64t64.5 -153q0 -94 -63.5 -156t-160.5 -62q-96 0 -158.5 62t-62.5 156q0 89 63 153t158 64z" />
    <glyph glyph-name="ring" unicode="&#x2da;" horiz-adv-x="1228" 
d="M895 1382q0 -114 -81.5 -193t-199.5 -79t-199 79t-81 193q0 116 81 194.5t199 78.5q119 0 200 -79t81 -194zM696 1382q0 32 -24 56t-58 24t-58 -24t-24 -56q0 -31 24 -54t58 -23t58 23t24 54z" />
    <glyph glyph-name="ogonek" unicode="&#x2db;" horiz-adv-x="1228" 
d="M430 16l236 -16q-11 -11 -27 -28t-23.5 -25t-18.5 -19.5t-16 -18t-11 -15t-8.5 -14.5t-4.5 -13t-2 -14q0 -48 57 -48q40 0 109 19l12 -219q-97 -51 -215 -51q-104 0 -169.5 55t-65.5 147q0 68 39 138t108 122z" />
    <glyph glyph-name="tilde" unicode="&#x2dc;" horiz-adv-x="1228" 
d="M455 1167h-226q0 173 73.5 275t186.5 102q53 0 98 -18t80.5 -35.5t65.5 -17.5q31 0 46.5 13.5t27.5 49.5h225q0 -173 -73.5 -275t-188.5 -102q-52 0 -96 17t-79 34t-67 17q-31 0 -45 -12.5t-28 -47.5z" />
    <glyph glyph-name="hungarumlaut" unicode="&#x2dd;" horiz-adv-x="1228" 
d="M410 1161h-336l176 336h420zM864 1161h-334l177 336h436z" />
    <glyph glyph-name="uni0326" unicode="&#x326;" horiz-adv-x="0" 
d="M334 -434l98 342h391l-209 -342h-280z" />
    <glyph glyph-name="Wgrave" unicode="&#x1e80;" horiz-adv-x="2027" 
d="M838 1497l-271 336h496l160 -336h-385zM2025 1372l-378 -1372h-457l-176 731l-176 -731h-455l-379 1372h430l205 -741l176 741h399l177 -741l202 741h432z" />
    <glyph glyph-name="wgrave" unicode="&#x1e81;" horiz-adv-x="1652" 
d="M651 1161l-270 336h496l159 -336h-385zM1649 1038l-318 -1038h-346l-158 487l-159 -487h-346l-318 1038h404l122 -438l166 438h262l166 -438l123 438h402z" />
    <glyph glyph-name="Wacute" unicode="&#x1e82;" horiz-adv-x="2027" 
d="M1202 1497h-385l160 336h496zM2025 1372l-378 -1372h-457l-176 731l-176 -731h-455l-379 1372h430l205 -741l176 741h399l177 -741l202 741h432z" />
    <glyph glyph-name="wacute" unicode="&#x1e83;" horiz-adv-x="1652" 
d="M1016 1161h-385l160 336h495zM1649 1038l-318 -1038h-346l-158 487l-159 -487h-346l-318 1038h404l122 -438l166 438h262l166 -438l123 438h402z" />
    <glyph glyph-name="Wdieresis" unicode="&#x1e84;" horiz-adv-x="2027" 
d="M764 1454q-93 0 -153 59t-60 150q0 86 60.5 147.5t152.5 61.5t153.5 -61.5t61.5 -147.5q0 -91 -60.5 -150t-154.5 -59zM1264 1454q-93 0 -153 59t-60 150q0 86 60.5 147.5t152.5 61.5t153.5 -61.5t61.5 -147.5q0 -91 -60.5 -150t-154.5 -59zM2025 1372l-378 -1372h-457
l-176 731l-176 -731h-455l-379 1372h430l205 -741l176 741h399l177 -741l202 741h432z" />
    <glyph glyph-name="wdieresis" unicode="&#x1e85;" horiz-adv-x="1652" 
d="M578 1118q-93 0 -153 59t-60 150q0 86 60.5 147.5t152.5 61.5t153.5 -61.5t61.5 -147.5q0 -91 -60.5 -150t-154.5 -59zM1077 1118q-93 0 -153 59t-60 150q0 86 60.5 147.5t152.5 61.5t153.5 -61.5t61.5 -147.5q0 -91 -60.5 -150t-154.5 -59zM1649 1038l-318 -1038h-346
l-158 487l-159 -487h-346l-318 1038h404l122 -438l166 438h262l166 -438l123 438h402z" />
    <glyph glyph-name="Ygrave" unicode="&#x1ef2;" horiz-adv-x="1492" 
d="M569 1497l-270 336h496l159 -336h-385zM1489 1372l-531 -956v-416h-442v416l-512 956h463l281 -534l276 534h465z" />
    <glyph glyph-name="ygrave" unicode="&#x1ef3;" horiz-adv-x="1298" 
d="M471 1161l-270 336h495l160 -336h-385zM1294 1038l-596 -1386h-432l168 387l-430 999h430l207 -520l223 520h430z" />
    <glyph glyph-name="endash" unicode="&#x2013;" horiz-adv-x="1269" 
d="M1147 399h-1024v324h1024v-324z" />
    <glyph glyph-name="emdash" unicode="&#x2014;" horiz-adv-x="2129" 
d="M2007 399h-1884v324h1884v-324z" />
    <glyph glyph-name="quoteleft" unicode="&#x2018;" horiz-adv-x="665" 
d="M297 1372h315l-118 -651h-439v10z" />
    <glyph glyph-name="quoteright" unicode="&#x2019;" horiz-adv-x="665" 
d="M371 721h-316l117 651h440v-10z" />
    <glyph glyph-name="quotesinglbase" unicode="&#x201a;" horiz-adv-x="665" 
d="M371 -270h-316l117 651h440v-10z" />
    <glyph glyph-name="quotedblleft" unicode="&#x201c;" horiz-adv-x="1175" 
d="M297 1372h315l-118 -651h-439v10zM805 1372h315l-116 -651h-441v10z" />
    <glyph glyph-name="quotedblright" unicode="&#x201d;" horiz-adv-x="1175" 
d="M371 721h-316l117 651h440v-10zM879 721h-316l119 651h438v-10z" />
    <glyph glyph-name="quotedblbase" unicode="&#x201e;" horiz-adv-x="1175" 
d="M371 -270h-316l117 651h440v-10zM879 -270h-316l119 651h438v-10z" />
    <glyph glyph-name="dagger" unicode="&#x2020;" horiz-adv-x="804" 
d="M745 1331v-217h-225v-512h-235v512h-228v217h228v185h235v-185h225z" />
    <glyph glyph-name="daggerdbl" unicode="&#x2021;" horiz-adv-x="804" 
d="M520 1114v-108h225v-220h-225v-184h-235v184h-228v220h228v108h-228v217h228v185h235v-185h225v-217h-225z" />
    <glyph glyph-name="bullet" unicode="&#x2022;" horiz-adv-x="827" 
d="M414 915q159 0 266.5 -111.5t107.5 -262.5q0 -158 -106 -264.5t-268 -106.5q-163 0 -268 106.5t-105 264.5q0 152 106.5 263t266.5 111z" />
    <glyph glyph-name="ellipsis" unicode="&#x2026;" horiz-adv-x="1703" 
d="M264 438q96 0 162 -67t66 -158q0 -96 -65 -160.5t-163 -64.5t-161.5 64.5t-63.5 160.5q0 91 64.5 158t160.5 67zM852 438q96 0 160.5 -67t64.5 -158q0 -96 -63.5 -160.5t-161.5 -64.5q-99 0 -162 64.5t-63 160.5q0 92 64 158.5t161 66.5zM1438 438q98 0 162.5 -66.5
t64.5 -158.5q0 -96 -64 -160.5t-163 -64.5q-97 0 -160.5 64.5t-63.5 160.5q0 91 64 158t160 67z" />
    <glyph glyph-name="perthousand" unicode="&#x2030;" horiz-adv-x="2721" 
d="M457 1403q155 0 262.5 -100.5t107.5 -260.5q0 -159 -107.5 -258.5t-262.5 -99.5t-265 100t-110 258q0 160 109.5 260.5t265.5 100.5zM346 0l973 1372h211l-971 -1372h-213zM457 1174q-52 0 -89.5 -36t-37.5 -96q0 -58 37.5 -94.5t89.5 -36.5q49 0 87 37t38 94
q0 60 -38 96t-87 36zM1415 690q155 0 263 -100.5t108 -261.5q0 -159 -108 -259t-263 -100t-265 100t-110 259q0 161 109.5 261.5t265.5 100.5zM2269 690q154 0 262.5 -100.5t108.5 -261.5q0 -159 -108.5 -259t-262.5 -100q-156 0 -265.5 100t-109.5 259q0 161 109 261.5
t266 100.5zM1415 461q-52 0 -89.5 -36t-37.5 -95t37.5 -95t89.5 -36q49 0 87 36t38 95t-38 95t-87 36zM2269 461q-52 0 -90.5 -36t-38.5 -95t38.5 -95t90.5 -36q49 0 86 36t37 95t-37 95t-86 36z" />
    <glyph glyph-name="guilsinglleft" unicode="&#x2039;" horiz-adv-x="665" 
d="M51 537l195 364h368l-194 -364l194 -365h-368z" />
    <glyph glyph-name="guilsinglright" unicode="&#x203a;" horiz-adv-x="665" 
d="M51 172l195 365l-195 364h369l194 -364l-194 -365h-369z" />
    <glyph glyph-name="fraction" unicode="&#x2044;" horiz-adv-x="522" 
d="M-334 0l971 1372h213l-973 -1372h-211z" />
    <glyph glyph-name="Euro" unicode="&#x20ac;" horiz-adv-x="1503" 
d="M1040 604l408 -78q-30 -248 -197.5 -402.5t-419.5 -154.5q-226 0 -384.5 127t-215.5 348h-163v197h133v45v45h-133v195h161q59 222 218 349.5t384 127.5q249 0 413 -152t202 -395l-406 -76q-23 138 -77 205.5t-132 67.5q-116 0 -172 -127h269l-37 -195h-273l-2 -45
q0 -31 2 -45h261l-37 -197h-183q56 -125 172 -125q165 0 209 285z" />
    <glyph glyph-name="uni2116" unicode="&#x2116;" horiz-adv-x="2449" 
d="M1970 657q-165 0 -279 103t-114 264q0 162 114 265.5t279 103.5t280 -103.5t115 -265.5q0 -161 -115 -264t-280 -103zM1030 1372h422v-1372h-346l-598 662v-662h-424v1372h348l598 -688v688zM1970 1141q-49 0 -78.5 -33.5t-29.5 -83.5q0 -49 30 -83t78 -34t79.5 34.5
t31.5 82.5q0 50 -31 83.5t-80 33.5zM1587 580h770v-287h-770v287z" />
    <glyph glyph-name="uni2117" unicode="&#x2117;" horiz-adv-x="1550" 
d="M774 1403q194 0 358 -91.5t261.5 -257.5t97.5 -370q0 -154 -57.5 -288.5t-154.5 -227.5t-228.5 -146t-276.5 -53q-146 0 -278 53.5t-229 146.5t-154.5 227.5t-57.5 287.5q0 203 97.5 369t262 258t359.5 92zM774 86q120 0 228 45t188 123t127 190t47 240t-47 241.5
t-127 192.5t-188.5 124.5t-227.5 45.5q-120 0 -229 -45.5t-189 -124.5t-127 -192.5t-47 -241.5t47 -240t127 -190t189 -123t229 -45zM496 1059h366q140 0 216.5 -72.5t76.5 -187.5q0 -124 -85.5 -197.5t-227.5 -73.5h-109v-213h-237v744zM733 713h98q46 0 70.5 22.5
t24.5 57.5q0 33 -24.5 53t-70.5 20h-98v-153z" />
    <glyph glyph-name="trademark" unicode="&#x2122;" horiz-adv-x="1476" 
d="M633 1192h-174v-404h-213v404h-172v180h559v-180zM1382 788h-204v256l-99 -251h-88l-100 251v-256h-205v584h223l125 -303l125 303h223v-584z" />
    <glyph glyph-name="oneeighth" unicode="&#x215b;" horiz-adv-x="1683" 
d="M201 1053l-176 -92v253l264 158h176v-794h-264v475zM1382 1372l-970 -1372h-213l972 1372h211zM1522 414q131 -56 131 -193q0 -104 -97 -172.5t-253 -68.5q-154 0 -250.5 68.5t-96.5 172.5q0 137 131 193q-100 54 -100 166q0 96 92 163.5t226 67.5t225.5 -67.5
t91.5 -163.5q0 -112 -100 -166zM1305 623q-35 0 -58.5 -18.5t-23.5 -49.5q0 -30 23.5 -49t58.5 -19q33 0 57 19.5t24 48.5q0 31 -23 49.5t-58 18.5zM1307 180q35 0 59.5 19.5t24.5 50.5t-25 49t-61 18q-37 0 -61.5 -18t-24.5 -49q0 -32 24.5 -51t63.5 -19z" />
    <glyph glyph-name="threeeighths" unicode="&#x215c;" horiz-adv-x="1757" 
d="M686 825q0 -112 -92.5 -188t-235.5 -76q-135 0 -223 70.5t-102 187.5l239 45q10 -44 33.5 -67t56.5 -23q32 0 52 17t20 43t-22.5 41.5t-59.5 15.5h-92v180h86q37 0 59.5 15.5t22.5 41.5t-20 42t-52 16q-33 0 -54.5 -22.5t-25.5 -63.5l-239 45q12 102 100.5 175t216.5 73
q140 0 230 -73t90 -183q0 -94 -92 -150q104 -56 104 -162zM1458 1372l-973 -1372h-213l973 1372h213zM1579 414q131 -56 131 -193q0 -104 -97 -172.5t-253 -68.5q-153 0 -249.5 68.5t-96.5 172.5q0 137 131 193q-101 55 -101 166q0 96 92 163.5t226 67.5t225.5 -67.5
t91.5 -163.5q0 -112 -100 -166zM1362 623q-35 0 -58.5 -18.5t-23.5 -49.5q0 -30 23.5 -49t58.5 -19q33 0 57.5 19.5t24.5 48.5q0 31 -23.5 49.5t-58.5 18.5zM1364 180q35 0 59.5 19.5t24.5 50.5t-25 49t-61 18q-37 0 -61.5 -18t-24.5 -49q0 -32 24.5 -51t63.5 -19z" />
    <glyph glyph-name="fiveeighths" unicode="&#x215d;" horiz-adv-x="1746" 
d="M705 844q0 -129 -89.5 -207t-236.5 -78q-144 0 -237 74t-105 190l246 39q7 -43 32.5 -64.5t59.5 -21.5q36 0 58 18t22 48q0 27 -22 45t-62 18h-308l21 467h578v-225h-355l-2 -47h103q144 0 220.5 -69t76.5 -187zM1470 1372l-970 -1372h-213l970 1372h213zM1587 414
q131 -56 131 -193q0 -104 -97 -172.5t-253 -68.5q-153 0 -249.5 68.5t-96.5 172.5q0 137 131 193q-100 54 -100 166q0 96 91.5 163.5t225.5 67.5t226 -67.5t92 -163.5q0 -111 -101 -166zM1370 623q-35 0 -58.5 -18.5t-23.5 -49.5q0 -30 23.5 -49t58.5 -19q33 0 57.5 19.5
t24.5 48.5q0 31 -23.5 49.5t-58.5 18.5zM1372 180q35 0 59.5 19.5t24.5 50.5t-25 49t-61 18q-37 0 -61.5 -18t-24.5 -49q0 -32 24.5 -51t63.5 -19z" />
    <glyph glyph-name="seveneighths" unicode="&#x215e;" horiz-adv-x="1613" 
d="M88 578l266 569h-338v225h617v-198l-264 -596h-281zM1321 1372l-971 -1372h-213l971 1372h213zM1454 414q131 -56 131 -193q0 -104 -97 -172.5t-253 -68.5q-153 0 -249.5 68.5t-96.5 172.5q0 137 131 193q-100 54 -100 166q0 96 91.5 163.5t225.5 67.5t225.5 -67.5
t91.5 -163.5q0 -112 -100 -166zM1237 623q-35 0 -58.5 -18.5t-23.5 -49.5q0 -30 23.5 -49t58.5 -19q33 0 57.5 19.5t24.5 48.5q0 31 -23.5 49.5t-58.5 18.5zM1239 180q35 0 59.5 19.5t24.5 50.5t-25 49t-61 18q-37 0 -61.5 -18t-24.5 -49q0 -32 24.5 -51t63.5 -19z" />
    <glyph glyph-name="arrowleft" unicode="&#x2190;" horiz-adv-x="1488" 
d="M1407 496h-741l276 -279l-237 -237l-685 684l685 684l237 -238l-276 -279h741v-335z" />
    <glyph glyph-name="arrowup" unicode="&#x2191;" horiz-adv-x="1531" 
d="M1212 465l-278 276v-741h-336v741l-279 -276l-237 237l684 684l684 -684z" />
    <glyph glyph-name="arrowright" unicode="&#x2192;" horiz-adv-x="1488" 
d="M1468 664l-684 -684l-237 237l276 279h-741v335h741l-276 279l237 238z" />
    <glyph glyph-name="arrowdown" unicode="&#x2193;" horiz-adv-x="1531" 
d="M1450 670l-684 -684l-684 684l237 237l279 -276v741h336v-741l278 276z" />
    <glyph glyph-name="uni2196" unicode="&#x2196;" horiz-adv-x="1536" 
d="M1192 -23l-789 793v-405h-342v1007h1008l-2 -340h-405l792 -792z" />
    <glyph glyph-name="uni2197" unicode="&#x2197;" horiz-adv-x="1531" 
d="M1470 1372v-1007h-342v405l-788 -793l-262 263l792 792h-405l-2 340h1007z" />
    <glyph glyph-name="uni2198" unicode="&#x2198;" horiz-adv-x="1536" 
d="M1475 1008v-1008h-1006l2 340h406l-793 795l262 260l789 -791v404h340z" />
    <glyph glyph-name="uni2199" unicode="&#x2199;" horiz-adv-x="1536" 
d="M1067 340l2 -340h-1008v1008h342v-404l789 791l262 -260l-792 -795h405z" />
    <glyph glyph-name="minus" unicode="&#x2212;" horiz-adv-x="1153" 
d="M1081 461h-1009v311h1009v-311z" />
    <glyph glyph-name="approxequal" unicode="&#x2248;" horiz-adv-x="1146" 
d="M1075 954v-284q-99 -47 -227 -47q-76 0 -147 17t-117.5 37t-114 37t-139.5 17q-69 0 -141.5 -15.5t-116.5 -43.5v276q43 32 114.5 50t143.5 18t142.5 -17t118.5 -37.5t118.5 -37.5t142.5 -17q134 0 223 47zM1075 598v-285q-103 -49 -227 -49q-76 0 -147 17.5t-117.5 38
t-114 38t-139.5 17.5q-67 0 -140.5 -16.5t-117.5 -43.5v275q43 32 114.5 50.5t143.5 18.5t142.5 -17t118.5 -37t118.5 -37t142.5 -17q134 0 223 47z" />
    <glyph glyph-name="notequal" unicode="&#x2260;" horiz-adv-x="1153" 
d="M752 684l-60 -111h389v-294h-549l-100 -187h-272l100 187h-188v294h348l61 111h-409v295h569l84 156h270l-84 -156h170v-295h-329z" />
    <glyph glyph-name="lessequal" unicode="&#x2264;" horiz-adv-x="1024" 
d="M942 459l-879 209v374l879 213v-319l-520 -80l520 -86v-311zM942 418v-314h-879v314h879z" />
    <glyph glyph-name="greaterequal" unicode="&#x2265;" horiz-adv-x="1024" 
d="M602 856l-520 80v319l879 -213v-374l-879 -209v311zM963 104h-881v314h881v-314z" />
    <glyph glyph-name="K.ss03" horiz-adv-x="1476" 
d="M1493 0h-508l-297 446l-180 -221v-225h-424v1372h424v-547l461 547h479l-485 -592z" />
    <glyph glyph-name="Kcommaaccent.ss03" horiz-adv-x="1476" 
d="M1493 0h-508l-297 446l-180 -221v-225h-424v1372h424v-547l461 547h479l-485 -592zM551 -92h391l-209 -342h-280z" />
    <glyph glyph-name="Q.ss04" horiz-adv-x="1599" 
d="M1106 -348l-236 319q-11 0 -33.5 -1t-35.5 -1q-154 0 -292 56t-237 151.5t-157 228.5t-58 281t58 281t157 228.5t237 151.5t292 56q205 0 375.5 -95t269 -260t98.5 -362q0 -167 -71.5 -312t-198.5 -245l360 -477h-528zM481 686q0 -145 90.5 -241.5t229.5 -96.5t228 96
t89 242t-89 242t-228 96t-229.5 -96.5t-90.5 -241.5z" />
    <glyph glyph-name="I.ss05" horiz-adv-x="942" 
d="M684 1014v-654h217v-360h-860v360h219v654h-219v358h860v-358h-217z" />
    <glyph glyph-name="IJ.ss05" horiz-adv-x="2224" 
d="M901 1372v-358h-217v-654h217v-360h-860v360h219v654h-219v358h860zM2134 1372v-866q0 -242 -161 -389.5t-425 -147.5q-245 0 -397 130t-182 352l420 81q9 -97 48 -141.5t111 -44.5t116 43.5t44 116.5v508h-428v358h854z" />
    <glyph glyph-name="Iacute.ss05" horiz-adv-x="942" 
d="M659 1497h-385l160 336h496zM901 1372v-358h-217v-654h217v-360h-860v360h219v654h-219v358h860z" />
    <glyph glyph-name="Icircumflex.ss05" horiz-adv-x="942" 
d="M406 1495h-390l242 338h428l242 -338h-387l-68 96zM901 1372v-358h-217v-654h217v-360h-860v360h219v654h-219v358h860z" />
    <glyph glyph-name="Idieresis.ss05" horiz-adv-x="942" 
d="M221 1454q-93 0 -153 59t-60 150q0 86 60.5 147.5t152.5 61.5t153.5 -61.5t61.5 -147.5q0 -91 -60.5 -150t-154.5 -59zM721 1454q-93 0 -153 59t-60 150q0 86 60.5 147.5t152.5 61.5t153.5 -61.5t61.5 -147.5q0 -91 -60.5 -150t-154.5 -59zM901 1372v-358h-217v-654h217
v-360h-860v360h219v654h-219v358h860z" />
    <glyph glyph-name="Idotaccent.ss05" horiz-adv-x="942" 
d="M469 1466q-96 0 -158.5 61.5t-62.5 155.5q0 90 63 154t158 64t159 -64.5t64 -153.5q0 -94 -63 -155.5t-160 -61.5zM684 1014v-654h217v-360h-860v360h219v654h-219v358h860v-358h-217z" />
    <glyph glyph-name="Igrave.ss05" horiz-adv-x="942" 
d="M295 1497l-270 336h495l160 -336h-385zM684 1014v-654h217v-360h-860v360h219v654h-219v358h860v-358h-217z" />
    <glyph glyph-name="Imacron.ss05" horiz-adv-x="942" 
d="M831 1499h-720v303h720v-303zM684 1014v-654h217v-360h-860v360h219v654h-219v358h860v-358h-217z" />
    <glyph glyph-name="Iogonek.ss05" horiz-adv-x="942" 
d="M684 1014v-654h217v-360h-219q-11 -11 -27 -28t-23.5 -25t-18.5 -19.5t-16 -18t-11 -15t-8.5 -14.5t-4.5 -13t-2 -14q0 -48 58 -48q39 0 108 19l13 -219q-97 -51 -215 -51q-104 0 -170 55t-66 147q0 63 33.5 128t93.5 116h-385v360h219v654h-219v358h860v-358h-217z" />
    <glyph glyph-name="J.ss05" horiz-adv-x="1282" 
d="M1192 1372v-866q0 -242 -161 -389.5t-425 -147.5q-245 0 -397 130t-182 352l419 81q9 -97 48.5 -141.5t111.5 -44.5t116 43.5t44 116.5v508h-428v358h854z" />
    <glyph glyph-name="i.loclTRK" horiz-adv-x="612" 
d="M305 1565q95 0 159 -64t64 -153q0 -94 -63 -156t-160 -62q-96 0 -158.5 62t-62.5 156q0 89 63 153t158 64zM512 0h-412v1038h412v-1038z" />
    <glyph glyph-name="germandbls.case" horiz-adv-x="2654" 
d="M674 1403q250 0 409 -103.5t195 -295.5l-412 -84q-21 88 -75.5 124.5t-116.5 36.5q-57 0 -92 -25t-35 -69q0 -61 67 -76l273 -69q201 -51 301 -149t100 -261q0 -97 -36 -176t-95 -131.5t-137 -88.5t-160.5 -51.5t-167.5 -15.5q-258 0 -434 117.5t-205 310.5l430 80
q44 -172 215 -172q62 0 102 24.5t40 69.5q0 58 -78 78l-283 70q-189 45 -285 142.5t-96 258.5q0 145 77.5 249.5t206 155t292.5 50.5zM1991 1403q250 0 409 -103.5t195 -295.5l-412 -84q-21 88 -75.5 124.5t-116.5 36.5q-57 0 -92 -25t-35 -69q0 -61 67 -76l273 -69
q201 -51 301 -149t100 -261q0 -97 -36 -176t-95 -131.5t-137 -88.5t-160.5 -51.5t-167.5 -15.5q-258 0 -434 117.5t-205 310.5l430 80q44 -172 215 -172q62 0 102 24.5t40 69.5q0 58 -78 78l-283 70q-189 45 -285 142.5t-96 258.5q0 145 77.5 249.5t206 155t292.5 50.5z" />
    <glyph glyph-name="a.ss01" horiz-adv-x="1167" 
d="M598 1069q238 0 370 -114.5t132 -325.5v-629h-400v68q-122 -99 -299 -99q-169 0 -271.5 93t-102.5 247q0 157 120 246.5t342 89.5h211v29q0 44 -28.5 72t-71.5 28q-96 0 -113 -98l-387 82q40 149 169.5 230t328.5 81zM563 260q57 0 97 33.5t40 97.5v39h-116
q-54 0 -85.5 -24t-31.5 -64q0 -38 27 -60t69 -22z" />
    <glyph glyph-name="aacute.ss01" horiz-adv-x="1167" 
d="M782 1161h-385l160 336h496zM598 1069q238 0 370 -114.5t132 -325.5v-629h-400v68q-122 -99 -299 -99q-169 0 -271.5 93t-102.5 247q0 157 120 246.5t342 89.5h211v29q0 44 -28.5 72t-71.5 28q-96 0 -113 -98l-387 82q40 149 169.5 230t328.5 81zM563 260q57 0 97 33.5
t40 97.5v39h-116q-54 0 -85.5 -24t-31.5 -64q0 -38 27 -60t69 -22z" />
    <glyph glyph-name="abreve.ss01" horiz-adv-x="1167" 
d="M594 1128q-177 0 -287 97.5t-110 255.5h309q0 -32 24 -56t64 -24q42 0 66 24t24 56h307q0 -158 -110 -255.5t-287 -97.5zM598 1069q238 0 370 -114.5t132 -325.5v-629h-400v68q-122 -99 -299 -99q-169 0 -271.5 93t-102.5 247q0 157 120 246.5t342 89.5h211v29
q0 44 -28.5 72t-71.5 28q-96 0 -113 -98l-387 82q40 149 169.5 230t328.5 81zM563 260q57 0 97 33.5t40 97.5v39h-116q-54 0 -85.5 -24t-31.5 -64q0 -38 27 -60t69 -22z" />
    <glyph glyph-name="acircumflex.ss01" horiz-adv-x="1167" 
d="M528 1159h-389l242 338h428l242 -338h-387l-68 96zM598 1069q238 0 370 -114.5t132 -325.5v-629h-400v68q-122 -99 -299 -99q-169 0 -271.5 93t-102.5 247q0 157 120 246.5t342 89.5h211v29q0 44 -28.5 72t-71.5 28q-96 0 -113 -98l-387 82q40 149 169.5 230t328.5 81z
M563 260q57 0 97 33.5t40 97.5v39h-116q-54 0 -85.5 -24t-31.5 -64q0 -38 27 -60t69 -22z" />
    <glyph glyph-name="adieresis.ss01" horiz-adv-x="1167" 
d="M344 1118q-93 0 -153 59t-60 150q0 86 60.5 147.5t152.5 61.5t153.5 -61.5t61.5 -147.5q0 -91 -60.5 -150t-154.5 -59zM844 1118q-93 0 -153 59t-60 150q0 86 60.5 147.5t152.5 61.5t153.5 -61.5t61.5 -147.5q0 -91 -60.5 -150t-154.5 -59zM598 1069q238 0 370 -114.5
t132 -325.5v-629h-400v68q-122 -99 -299 -99q-169 0 -271.5 93t-102.5 247q0 157 120 246.5t342 89.5h211v29q0 44 -28.5 72t-71.5 28q-96 0 -113 -98l-387 82q40 149 169.5 230t328.5 81zM563 260q57 0 97 33.5t40 97.5v39h-116q-54 0 -85.5 -24t-31.5 -64q0 -38 27 -60
t69 -22z" />
    <glyph glyph-name="agrave.ss01" horiz-adv-x="1167" 
d="M418 1161l-271 336h496l160 -336h-385zM598 1069q238 0 370 -114.5t132 -325.5v-629h-400v68q-122 -99 -299 -99q-169 0 -271.5 93t-102.5 247q0 157 120 246.5t342 89.5h211v29q0 44 -28.5 72t-71.5 28q-96 0 -113 -98l-387 82q40 149 169.5 230t328.5 81zM563 260
q57 0 97 33.5t40 97.5v39h-116q-54 0 -85.5 -24t-31.5 -64q0 -38 27 -60t69 -22z" />
    <glyph glyph-name="amacron.ss01" horiz-adv-x="1167" 
d="M954 1163h-721v303h721v-303zM598 1069q238 0 370 -114.5t132 -325.5v-629h-400v68q-122 -99 -299 -99q-169 0 -271.5 93t-102.5 247q0 157 120 246.5t342 89.5h211v29q0 44 -28.5 72t-71.5 28q-96 0 -113 -98l-387 82q40 149 169.5 230t328.5 81zM563 260q57 0 97 33.5
t40 97.5v39h-116q-54 0 -85.5 -24t-31.5 -64q0 -38 27 -60t69 -22z" />
    <glyph glyph-name="aogonek.ss01" horiz-adv-x="1167" 
d="M1155 -176l12 -219q-97 -51 -215 -51q-104 0 -169.5 55t-65.5 147q0 63 33.5 128t93.5 116h-144v68q-122 -99 -299 -99q-169 0 -271.5 93t-102.5 247q0 157 120 246.5t342 89.5h211v29q0 44 -28.5 72t-71.5 28q-96 0 -113 -98l-387 82q40 149 169.5 230t328.5 81
q238 0 370 -114.5t132 -325.5v-629q-11 -11 -27 -28t-23.5 -25t-18.5 -19.5t-16 -18t-11 -15t-8.5 -14.5t-4.5 -13t-2 -14q0 -48 58 -48q39 0 108 19zM563 260q57 0 97 33.5t40 97.5v39h-116q-54 0 -85.5 -24t-31.5 -64q0 -38 27 -60t69 -22z" />
    <glyph glyph-name="aring.ss01" horiz-adv-x="1167" 
d="M594 1110q-118 0 -199.5 79t-81.5 193q0 115 81 194t200 79q118 0 199 -78.5t81 -194.5q0 -114 -81 -193t-199 -79zM594 1462q-34 0 -58 -24t-24 -56q0 -31 24 -54t58 -23t58 23t24 54q0 32 -24 56t-58 24zM598 1069q238 0 370 -114.5t132 -325.5v-629h-400v68
q-122 -99 -299 -99q-169 0 -271.5 93t-102.5 247q0 157 120 246.5t342 89.5h211v29q0 44 -28.5 72t-71.5 28q-96 0 -113 -98l-387 82q40 149 169.5 230t328.5 81zM563 260q57 0 97 33.5t40 97.5v39h-116q-54 0 -85.5 -24t-31.5 -64q0 -38 27 -60t69 -22z" />
    <glyph glyph-name="atilde.ss01" horiz-adv-x="1167" 
d="M508 1227q-31 0 -45.5 -12.5t-28.5 -47.5h-225q0 173 73.5 275t186.5 102q53 0 98 -18t80.5 -35.5t65.5 -17.5q31 0 46 13.5t27 49.5h226q0 -173 -73.5 -275t-188.5 -102q-52 0 -96 17t-79 34t-67 17zM598 1069q238 0 370 -114.5t132 -325.5v-629h-400v68
q-122 -99 -299 -99q-169 0 -271.5 93t-102.5 247q0 157 120 246.5t342 89.5h211v29q0 44 -28.5 72t-71.5 28q-96 0 -113 -98l-387 82q40 149 169.5 230t328.5 81zM563 260q57 0 97 33.5t40 97.5v39h-116q-54 0 -85.5 -24t-31.5 -64q0 -38 27 -60t69 -22z" />
    <glyph glyph-name="l.ss02" horiz-adv-x="722" 
d="M489 1475v-1084q0 -34 20 -54t52 -20q28 0 105 25l59 -295q-49 -27 -70.5 -38t-78.5 -25.5t-121 -14.5q-170 0 -273.5 106t-103.5 279v1121h411z" />
    <glyph glyph-name="lacute.ss02" horiz-adv-x="722" 
d="M485 1599h-385l160 336h496zM489 1475v-1084q0 -34 20 -54t52 -20q28 0 105 25l59 -295q-49 -27 -70.5 -38t-78.5 -25.5t-121 -14.5q-170 0 -273.5 106t-103.5 279v1121h411z" />
    <glyph glyph-name="lcaron.ss02" horiz-adv-x="722" 
d="M489 1475v-1084q0 -34 20 -54t52 -20q28 0 105 25l59 -295q-49 -27 -70.5 -38t-78.5 -25.5t-121 -14.5q-170 0 -273.5 106t-103.5 279v1121h411zM852 1065h-270v410h360z" />
    <glyph glyph-name="lcommaaccent.ss02" horiz-adv-x="722" 
d="M489 1475v-1084q0 -34 20 -54t52 -20q28 0 105 25l59 -295q-49 -27 -70.5 -38t-78.5 -25.5t-121 -14.5q-170 0 -273.5 106t-103.5 279v1121h411zM106 -434l99 342h391l-209 -342h-281z" />
    <glyph glyph-name="ldot.ss02" horiz-adv-x="999" 
d="M492 1475v-1084q0 -34 19.5 -54t53.5 -20q28 0 105 25l59 -295q-4 -2 -21.5 -11.5t-23.5 -12.5l-23 -11.5t-27 -11.5t-27.5 -9.5t-32 -9t-33.5 -6t-39.5 -5t-42.5 -1.5q-170 0 -274.5 106t-104.5 279v1121h412zM774 975q95 0 159 -64t64 -153q0 -94 -63 -155.5
t-160 -61.5q-96 0 -158.5 61.5t-62.5 155.5q0 89 63 153t158 64z" />
    <glyph glyph-name="lslash.ss02" horiz-adv-x="761" 
d="M705 342l59 -295q-49 -27 -70.5 -38t-78.5 -25.5t-121 -14.5q-170 0 -273.5 106t-103.5 279v113l-90 -45v379l90 45v629h411v-422l109 55v-379l-109 -55v-283q0 -34 20 -54t52 -20q28 0 105 25z" />
    <glyph glyph-name="k.ss03" horiz-adv-x="1288" 
d="M1305 0h-500l-182 283l-127 -152v-131h-412v1475h412v-764l280 327h484l-357 -422z" />
    <glyph glyph-name="kcommaaccent.ss03" horiz-adv-x="1288" 
d="M1305 0h-500l-182 283l-127 -152v-131h-412v1475h412v-764l280 327h484l-357 -422zM467 -92h391l-209 -342h-280z" />
    <glyph glyph-name="f_j" horiz-adv-x="1423" 
d="M1114 1118q-99 0 -163 62.5t-64 158.5q0 91 64.5 156.5t162.5 65.5t163.5 -65.5t65.5 -156.5q0 -95 -64.5 -158t-164.5 -63zM1321 1038v-1028q0 -170 -102 -274.5t-269 -104.5q-121 0 -227 52l53 288q48 -10 66 -10q30 0 48.5 23.5t18.5 60.5v674h-348v-719h-411v719
h-134v319h134v60q0 184 118 295.5t312 111.5q102 0 194 -32l-59 -316q-5 1 -15 2.5t-18 2.5t-14 1q-48 0 -77.5 -27t-29.5 -71v-27h760z" />
    <glyph glyph-name="f_t" horiz-adv-x="1640" 
d="M1559 350l73 -305q-148 -76 -301 -76q-206 0 -314 110t-108 304v336h-348v-719h-411v719h-134v319h134v60q0 184 118 295.5t312 111.5q102 0 194 -32l-59 -316q-5 1 -15 2.5t-18 2.5t-14 1q-48 0 -77.5 -27t-29.5 -71v-27h348v293h412v-293h258v-319h-258v-285
q0 -60 29 -86t88 -26q67 0 121 28z" />
    <glyph glyph-name="fl.ss02" horiz-adv-x="1519" 
d="M666 1163q-46 0 -75.5 -27t-29.5 -71v-27h240v-319h-240v-719h-411v719h-134v319h134v60q0 184 118 295.5t310 111.5q121 0 233 -47l-80 -305q-38 10 -65 10zM1462 342l60 -295q-49 -27 -71 -38t-79 -25.5t-121 -14.5q-170 0 -273.5 106t-103.5 279v1121h412v-1084
q0 -34 20 -54t52 -20q27 0 104 25z" />
    <glyph glyph-name="zero.tf" 
d="M625 1403q264 0 425.5 -197.5t161.5 -519.5t-161.5 -519.5t-425.5 -197.5q-265 0 -427.5 197t-162.5 520t162.5 520t427.5 197zM625 326q76 0 118.5 88.5t42.5 271.5q0 182 -42.5 270t-118.5 88q-78 0 -121 -88t-43 -270q0 -183 43 -271.5t121 -88.5z" />
    <glyph glyph-name="one.tf" 
d="M1149 371v-371h-1043v371h353v506l-320 -136v389l461 242h274v-1001h275z" />
    <glyph glyph-name="two.tf" 
d="M1182 360v-360h-1092l4 8v273l492 426q60 52 88.5 80.5t53 69.5t24.5 81q0 54 -33.5 86.5t-87.5 32.5q-138 0 -152 -178l-401 71q10 211 158.5 332t386.5 121q239 0 386.5 -124t147.5 -343q0 -56 -14 -107t-34 -89t-59 -83t-72 -76t-91 -81l-166 -140h461z" />
    <glyph glyph-name="three.tf" 
d="M1010 702q164 -99 164 -282q0 -194 -155.5 -322.5t-395.5 -128.5q-221 0 -377.5 117t-188.5 320l410 71q13 -82 55.5 -126t106.5 -44q65 0 105 34t40 89q0 53 -42.5 81t-117.5 28h-161v311h153q74 0 116 26t42 76q0 56 -38.5 88.5t-104.5 32.5q-64 0 -105.5 -45
t-50.5 -137l-393 74q33 210 181 324t365 114q233 0 383 -124.5t150 -313.5q0 -173 -141 -263z" />
    <glyph glyph-name="four.tf" 
d="M1221 213h-148v-213h-389v213h-651v377l549 782h491v-819h148v-340zM684 553v401l-260 -401h260z" />
    <glyph glyph-name="five.tf" 
d="M518 897h162q248 0 377 -119t129 -325q0 -217 -149 -350.5t-394 -133.5q-230 0 -388 123.5t-173 343.5l397 76q3 -105 52 -152t118 -47q65 0 104.5 37.5t39.5 98.5q0 59 -43 94t-115 35h-492l31 796h956v-356h-606z" />
    <glyph glyph-name="six.tf" 
d="M737 893q214 0 344.5 -126t130.5 -329q0 -206 -153 -337.5t-387 -131.5q-281 0 -446 181t-165 507q0 379 201 580q166 166 414 166q199 0 335.5 -91.5t178.5 -258.5l-395 -80q-14 53 -45.5 73.5t-87.5 20.5q-75 0 -132 -63q-70 -79 -73 -218q53 50 126 78.5t154 28.5z
M659 291q67 0 117.5 48t50.5 116q0 69 -50 116t-118 47q-67 0 -116 -47t-49 -118q0 -67 49 -114.5t116 -47.5z" />
    <glyph glyph-name="seven.tf" 
d="M1159 1372v-311l-500 -1061h-444l492 1014h-637v358h1089z" />
    <glyph glyph-name="eight.tf" 
d="M954 713q113 -45 173.5 -129t60.5 -203q0 -179 -158.5 -295.5t-413.5 -116.5q-253 0 -410 117t-157 297q0 236 232 332q-183 92 -183 293q0 167 148.5 281t371.5 114t372 -114t149 -281q0 -203 -185 -295zM618 1102q-62 0 -104.5 -35.5t-42.5 -95.5q0 -59 42.5 -95
t104.5 -36q61 0 104.5 36.5t43.5 94.5q0 59 -43.5 95t-104.5 36zM618 287q63 0 108.5 38t45.5 99t-45.5 98t-108.5 37q-64 0 -108.5 -37.5t-44.5 -99.5q0 -60 45 -97.5t108 -37.5z" />
    <glyph glyph-name="nine.tf" 
d="M573 1401q282 0 446.5 -181t164.5 -507q0 -381 -199 -580q-166 -166 -416 -166q-199 0 -334.5 91.5t-177.5 260.5l394 78q14 -53 46.5 -73.5t88.5 -20.5q70 0 131 64q71 80 74 219q-112 -109 -281 -109q-214 0 -344.5 126t-130.5 329q0 208 151.5 338.5t386.5 130.5z
M586 752q68 0 118 48t50 118q0 68 -50.5 114.5t-117.5 46.5t-117.5 -48t-50.5 -116q0 -69 50 -116t118 -47z" />
    <glyph glyph-name="zero.zero.tf" 
d="M625 1403q264 0 425.5 -197.5t161.5 -519.5t-161.5 -519.5t-425.5 -197.5q-265 0 -427.5 197t-162.5 520t162.5 520t427.5 197zM625 1044q-78 0 -121 -88t-43 -270q0 -50 2 -70l266 367q-40 61 -104 61zM625 326q76 0 118.5 88.5t42.5 271.5l-2 64l-264 -365
q39 -59 105 -59z" />
    <glyph glyph-name="zero.zero" horiz-adv-x="1347" 
d="M678 1403q283 0 456 -197.5t173 -519.5t-173 -519.5t-456 -197.5t-456 197.5t-173 519.5t173 519.5t456 197.5zM678 1044q-94 0 -148.5 -93t-54.5 -265q0 -70 8 -119l312 428q-49 49 -117 49zM678 326q94 0 148.5 93t54.5 267q0 37 -9 111l-309 -424q47 -47 115 -47z" />
    <glyph glyph-name="zero.dnom" horiz-adv-x="845" 
d="M426 811q169 0 272 -113.5t103 -302.5q0 -187 -103 -301t-272 -114q-170 0 -274.5 114t-104.5 301q0 188 104 302t275 114zM426 205q47 0 74.5 48t27.5 142q0 93 -27.5 142t-74.5 49q-50 0 -78.5 -48.5t-28.5 -142.5q0 -95 28 -142.5t79 -47.5z" />
    <glyph glyph-name="one.dnom" horiz-adv-x="544" 
d="M465 0h-264v475l-176 -92v254l264 158h176v-795z" />
    <glyph glyph-name="two.dnom" horiz-adv-x="747" 
d="M453 219h231v-221h-621v160l281 260q62 57 74 76q14 21 14 43q0 25 -15.5 40t-41.5 15q-30 0 -50 -23.5t-20 -74.5l-246 45q0 122 86 198t230 76q140 0 226.5 -73.5t86.5 -202.5q0 -76 -37 -129.5t-116 -118.5z" />
    <glyph glyph-name="three.dnom" horiz-adv-x="729" 
d="M582 406q104 -56 104 -162q0 -112 -92.5 -188t-235.5 -76q-135 0 -223 70.5t-102 187.5l239 45q10 -44 33.5 -67t56.5 -23q32 0 52 16.5t20 42.5t-22.5 41.5t-59.5 15.5h-92v180h86q37 0 59.5 16t22.5 42t-20 41.5t-52 15.5q-33 0 -54.5 -22.5t-25.5 -63.5l-239 45
q12 102 100.5 175t216.5 73q140 0 230 -73t90 -183q0 -93 -92 -149z" />
    <glyph glyph-name="four.dnom" horiz-adv-x="800" 
d="M776 115h-94v-115h-246v115h-403v237l342 443h307v-467h94v-213zM436 328v207l-155 -207h155z" />
    <glyph glyph-name="five.dnom" horiz-adv-x="737" 
d="M305 520h103q144 0 220.5 -69t76.5 -187q0 -129 -89.5 -206.5t-236.5 -77.5q-144 0 -237 74t-105 190l246 39q7 -43 32.5 -64.5t59.5 -21.5q37 0 58.5 18t21.5 47q0 28 -22 46t-62 18h-308l21 467h578v-226h-355z" />
    <glyph glyph-name="six.dnom" horiz-adv-x="763" 
d="M446 516q125 0 201 -72t76 -190q0 -122 -90 -198t-227 -76q-168 0 -266.5 105.5t-98.5 293.5q0 217 119 336q96 96 246 96q127 0 207 -59.5t100 -167.5l-244 -39q-12 55 -72 55q-35 0 -65 -33q-31 -36 -37 -94q68 43 151 43zM397 180q37 0 61.5 23.5t24.5 60.5
t-24.5 60.5t-61.5 23.5q-38 0 -63 -23.5t-25 -60.5q0 -38 24.5 -61t63.5 -23z" />
    <glyph glyph-name="seven.dnom" horiz-adv-x="649" 
d="M633 793v-199l-264 -596h-281l266 569h-338v226h617z" />
    <glyph glyph-name="eight.dnom" horiz-adv-x="784" 
d="M610 414q131 -56 131 -193q0 -104 -97 -172.5t-253 -68.5q-153 0 -249.5 68.5t-96.5 172.5q0 137 131 193q-100 54 -100 166q0 96 91.5 163.5t225.5 67.5t226 -67.5t92 -163.5q0 -111 -101 -166zM393 623q-35 0 -58.5 -18.5t-23.5 -49.5q0 -30 23.5 -49t58.5 -19
q33 0 57.5 19.5t24.5 48.5q0 31 -23.5 49.5t-58.5 18.5zM395 180q35 0 59.5 19.5t24.5 50.5t-25 49t-61 18q-37 0 -61.5 -18t-24.5 -49q0 -32 24.5 -51t63.5 -19z" />
    <glyph glyph-name="nine.dnom" horiz-adv-x="763" 
d="M360 811q168 0 265.5 -104.5t97.5 -292.5q0 -221 -117 -338q-99 -96 -248 -96q-125 0 -205.5 60.5t-99.5 166.5l242 39q12 -56 74 -56q35 0 65 33q31 39 37 101q-66 -50 -154 -50q-124 0 -200 72t-76 191q0 122 90.5 198t228.5 76zM369 444q38 0 62 23t24 59
q0 38 -24.5 61t-61.5 23q-39 0 -63.5 -23t-24.5 -61q0 -35 25 -58.5t63 -23.5z" />
    <glyph glyph-name="zero.numr" horiz-adv-x="845" 
d="M426 1393q169 0 272 -113.5t103 -302.5q0 -187 -103 -301.5t-272 -114.5q-170 0 -274.5 114.5t-104.5 301.5q0 188 104 302t275 114zM426 786q47 0 74.5 48.5t27.5 142.5q0 93 -27.5 141.5t-74.5 48.5q-51 0 -79 -48.5t-28 -141.5q0 -95 28 -143t79 -48z" />
    <glyph glyph-name="one.numr" horiz-adv-x="544" 
d="M465 578h-264v475l-176 -92v253l264 158h176v-794z" />
    <glyph glyph-name="two.numr" horiz-adv-x="747" 
d="M451 799h233v-219h-621v157l281 260q62 57 74 76q14 21 14 43q0 25 -15.5 40t-41.5 15q-30 0 -50 -23.5t-20 -74.5l-246 45q0 123 86 199t230 76q140 0 226.5 -74t86.5 -203q0 -76 -37 -129.5t-116 -118.5z" />
    <glyph glyph-name="three.numr" horiz-adv-x="729" 
d="M582 987q104 -56 104 -162q0 -112 -92.5 -188t-235.5 -76q-135 0 -223 70.5t-102 187.5l239 45q10 -44 33.5 -67t56.5 -23q32 0 52 17t20 43t-22.5 41.5t-59.5 15.5h-92v180h86q37 0 59.5 15.5t22.5 41.5t-20 42t-52 16q-33 0 -54.5 -22.5t-25.5 -63.5l-239 45
q12 102 100.5 175t216.5 73q140 0 230 -73t90 -183q0 -94 -92 -150z" />
    <glyph glyph-name="four.numr" horiz-adv-x="800" 
d="M776 692h-94v-114h-246v114h-403v238l342 442h307v-467h94v-213zM436 905v207l-155 -207h155z" />
    <glyph glyph-name="five.numr" horiz-adv-x="737" 
d="M305 1100h103q144 0 220.5 -69t76.5 -187q0 -129 -89.5 -207t-236.5 -78q-144 0 -237 74t-105 190l246 39q7 -43 32.5 -64.5t59.5 -21.5q36 0 58 18t22 48q0 27 -22 45t-62 18h-308l21 467h578v-225h-355z" />
    <glyph glyph-name="six.numr" horiz-adv-x="763" 
d="M446 1098q125 0 201 -72t76 -190q0 -122 -90 -198.5t-227 -76.5q-168 0 -266.5 106t-98.5 294q0 216 119 335q97 97 246 97q127 0 207 -60t100 -168l-244 -39q-12 56 -72 56q-35 0 -65 -33q-31 -36 -37 -94q68 43 151 43zM397 762q37 0 61.5 23.5t24.5 60.5t-24.5 60.5
t-61.5 23.5q-38 0 -63 -23.5t-25 -60.5q0 -38 24.5 -61t63.5 -23z" />
    <glyph glyph-name="seven.numr" horiz-adv-x="649" 
d="M633 1372v-198l-264 -596h-281l266 569h-338v225h617z" />
    <glyph glyph-name="eight.numr" horiz-adv-x="784" 
d="M610 995q131 -56 131 -192q0 -104 -97 -173t-253 -69q-153 0 -249.5 69t-96.5 173q0 136 131 192q-100 54 -100 166q0 96 91.5 164t225.5 68t226 -68t92 -164q0 -111 -101 -166zM393 1204q-35 0 -58.5 -18t-23.5 -49q0 -30 23.5 -49t58.5 -19q33 0 57.5 19.5t24.5 48.5
q0 31 -23.5 49t-58.5 18zM395 762q35 0 59.5 19t24.5 50t-25.5 49.5t-60.5 18.5q-37 0 -61.5 -18.5t-24.5 -49.5q0 -32 24.5 -50.5t63.5 -18.5z" />
    <glyph glyph-name="nine.numr" horiz-adv-x="763" 
d="M360 1393q168 0 265.5 -105t97.5 -293q0 -221 -117 -338q-99 -96 -248 -96q-125 0 -205.5 60.5t-99.5 166.5l242 39q7 -32 25 -43.5t49 -11.5q35 0 65 33q31 39 37 100q-65 -49 -154 -49q-125 0 -200.5 72t-75.5 190q0 122 90.5 198.5t228.5 76.5zM369 1026q38 0 62 23
t24 59q0 38 -24.5 61t-61.5 23q-39 0 -63.5 -23t-24.5 -61q0 -35 25 -58.5t63 -23.5z" />
    <glyph glyph-name="backslash.case" horiz-adv-x="942" 
d="M899 0h-369l-485 1372h369z" />
    <glyph glyph-name="periodcentered.case" horiz-adv-x="530" 
d="M264 901q96 0 162 -67t66 -158q0 -96 -65 -160.5t-163 -64.5t-161.5 64.5t-63.5 160.5q0 91 64.5 158t160.5 67z" />
    <glyph glyph-name="bullet.case" horiz-adv-x="827" 
d="M414 1032q106 0 192.5 -52t134 -138t47.5 -185q0 -158 -106 -263t-268 -105q-163 0 -268 105t-105 263q0 153 106 264t267 111z" />
    <glyph glyph-name="colon.case" horiz-adv-x="530" 
d="M264 1176q96 0 162 -67.5t66 -158.5q0 -96 -65 -160.5t-163 -64.5t-161.5 64.5t-63.5 160.5q0 91 64.5 158.5t160.5 67.5zM264 571q96 0 162 -67t66 -158q0 -96 -65 -160.5t-163 -64.5t-161.5 64.5t-63.5 160.5q0 91 64.5 158t160.5 67z" />
    <glyph glyph-name="exclamdown.case" horiz-adv-x="636" 
d="M330 952q-98 0 -162 63.5t-64 151.5q0 93 63.5 154t162.5 61q98 0 161.5 -61t63.5 -154q0 -88 -64.5 -151.5t-160.5 -63.5zM84 63l37 809h395l37 -809v-63h-469v63z" />
    <glyph glyph-name="questiondown.case" horiz-adv-x="1138" 
d="M582 967q-97 0 -162.5 64t-65.5 153q0 91 65 153t163 62q97 0 161 -62t64 -153q0 -89 -64 -153t-161 -64zM680 469l414 -84q-19 -85 -62 -156t-110.5 -127t-168.5 -87t-225 -31q-219 0 -356 125.5t-137 312.5q0 143 88.5 242t247.5 141v90h407v-344h-176q-69 0 -110 -29
t-41 -76t29.5 -76.5t76.5 -29.5q51 0 84 35t39 94z" />
    <glyph glyph-name="semicolon.case" horiz-adv-x="604" 
d="M338 1176q97 0 162 -67t65 -159q0 -96 -64 -160.5t-163 -64.5q-98 0 -161.5 64.5t-63.5 160.5q0 91 64.5 158.5t160.5 67.5zM301 -270h-315l118 651h439v-10z" />
    <glyph glyph-name="slash.case" horiz-adv-x="995" 
d="M403 0h-331l520 1372h332z" />
    <glyph glyph-name="braceleft.case" horiz-adv-x="851" 
d="M580 999v-108q0 -159 -111 -213q55 -27 83 -83.5t28 -131.5v-92q0 -23 12 -36t33 -13h161v-322h-305q-122 0 -196 74.5t-74 197.5v134q0 74 -92 98l-78 20v307l78 21q44 12 68 33t24 61v154q0 122 74.5 197t195.5 75h305v-321h-161q-20 0 -32.5 -14.5t-12.5 -37.5z" />
    <glyph glyph-name="braceright.case" horiz-adv-x="851" 
d="M811 831v-307l-78 -20q-92 -24 -92 -98v-134q0 -123 -74 -197.5t-196 -74.5h-305v322h161q43 0 43 49v92q0 75 28 131.5t83 83.5q-111 54 -111 213v108q0 24 -11.5 38t-31.5 14h-161v321h305q121 0 195.5 -75t74.5 -197v-154q0 -40 24 -61t68 -33z" />
    <glyph glyph-name="bracketleft.case" horiz-adv-x="856" 
d="M453 1051v-729h338v-322h-707v1372h707v-321h-338z" />
    <glyph glyph-name="bracketright.case" horiz-adv-x="856" 
d="M772 1372v-1372h-706v322h335v729h-335v321h706z" />
    <glyph glyph-name="parenleft.case" horiz-adv-x="757" 
d="M483 688q0 -67 13 -127.5t28 -100t51.5 -92.5t56.5 -77.5t70 -83.5l-270 -242q-83 79 -142.5 147.5t-116.5 158.5t-86.5 195t-29.5 222q0 116 29.5 221t86.5 194.5t116.5 158t142.5 147.5l256 -244q-5 -6 -33.5 -43.5t-35 -46.5t-30 -42.5t-30.5 -48.5t-24 -47t-22.5 -55
t-14.5 -56t-12 -67t-3 -71z" />
    <glyph glyph-name="parenright.case" horiz-adv-x="757" 
d="M70 1165l256 244q84 -78 143.5 -147t116.5 -158.5t86.5 -194t29.5 -221.5q0 -95 -21 -183.5t-54 -158.5t-84.5 -141.5t-101 -124.5t-115.5 -115l-269 242q39 47 50 59.5t43 54.5t42.5 62t31.5 61t28.5 73.5t14.5 77.5t7 93q0 37 -2.5 70.5t-12 67.5t-14.5 56t-23 55.5
t-23 46.5t-30.5 48.5t-30 42t-35.5 47t-33 43.5z" />
    <glyph glyph-name="emdash.case" horiz-adv-x="2129" 
d="M2007 506h-1884v323h1884v-323z" />
    <glyph glyph-name="endash.case" horiz-adv-x="1269" 
d="M1147 506h-1024v323h1024v-323z" />
    <glyph glyph-name="hyphen.case" horiz-adv-x="933" 
d="M811 498h-688v340h688v-340z" />
    <glyph glyph-name="guillemotleft.case" horiz-adv-x="1136" 
d="M51 659l195 365h368l-194 -365l194 -364h-368zM522 659l195 365h368l-194 -365l194 -364h-368z" />
    <glyph glyph-name="guillemotright.case" horiz-adv-x="1136" 
d="M51 295l195 364l-195 365h369l194 -365l-194 -364h-369zM522 295l195 364l-195 365h369l194 -365l-194 -364h-369z" />
    <glyph glyph-name="guilsinglleft.case" horiz-adv-x="665" 
d="M51 659l195 365h368l-194 -365l194 -364h-368z" />
    <glyph glyph-name="guilsinglright.case" horiz-adv-x="665" 
d="M51 295l195 364l-195 365h369l194 -365l-194 -364h-369z" />
    <glyph glyph-name="cent.tf" 
d="M635 313q63 0 108 40t60 114l375 -68q-23 -151 -123.5 -258t-249.5 -149v-258h-340v258q-183 48 -297.5 189.5t-114.5 336.5q0 197 114.5 339t297.5 190v243h340v-243q148 -42 248.5 -148t124.5 -254l-377 -74q-13 72 -58 113t-108 41q-83 0 -134.5 -60t-51.5 -147
t51.5 -146t134.5 -59z" />
    <glyph glyph-name="dollar.tf" 
d="M1196 449q0 -91 -32.5 -165t-89 -123.5t-125.5 -81.5t-150 -48v-236h-338v240q-166 42 -280 148t-140 247l389 74q45 -172 211 -172q56 0 94.5 22t38.5 58q0 28 -16 47t-58 30l-264 66q-178 46 -269 136.5t-91 238.5q0 168 105 273.5t280 139.5v234h338v-238
q161 -37 263 -136t122 -245l-373 -63q-37 162 -190 162q-54 0 -86.5 -23t-32.5 -65q0 -56 61 -72l256 -63q189 -47 283 -139t94 -246z" />
    <glyph glyph-name="Euro.tf" 
d="M803 588l411 -76q-19 -156 -90.5 -278.5t-192.5 -193.5t-272 -71q-206 0 -349.5 128.5t-194.5 355.5h-92v196h67v37v37h-67v195h92q50 227 194 356t350 129q229 0 380.5 -153.5t172.5 -393.5l-403 -72q-30 269 -150 269q-94 0 -131 -135h203l-33 -195h-192v-37v-37h188
l-35 -196h-131q37 -134 131 -134q57 0 93.5 62t50.5 207z" />
    <glyph glyph-name="florin.tf" 
d="M1001 1061q-50 0 -84 -29t-43 -80l-22 -125h229v-317h-286l-82 -455q-34 -181 -154.5 -287t-296.5 -106q-23 0 -43.5 1.5t-39.5 5.5t-34 7.5t-31.5 10t-26.5 10.5t-24 12.5t-19.5 11.5t-18.5 11.5t-15 9.5l111 293q73 -25 102 -25q32 0 54 21t30 57l76 422h-170v317h227
l29 158q35 190 172 304t328 114q152 0 276 -70l-123 -307q-66 35 -121 35z" />
    <glyph glyph-name="sterling.tf" 
d="M1178 352v-352h-1098v270l117 39v152h-117v325h117v168q0 203 133.5 326t353.5 123q205 0 338 -118t145 -304l-389 -74q-8 79 -31.5 106t-62.5 27q-36 0 -58 -23t-22 -63v-168h322v-325h-322v-109h574z" />
    <glyph glyph-name="yen.tf" 
d="M911 657h189v-221h-275v-67h275v-224h-275v-145h-422v145h-253v224h253v67h-253v221h169l-301 715h437l159 -518l158 518h457z" />
    <glyph glyph-name="approxequal.tf" 
d="M1126 954v-284q-99 -47 -227 -47q-76 0 -147 17t-117.5 37t-114 37t-139.5 17q-69 0 -141.5 -15.5t-116.5 -43.5v276q43 32 114.5 50t143.5 18t142.5 -17t118.5 -37.5t118.5 -37.5t142.5 -17q134 0 223 47zM1126 598v-285q-103 -49 -227 -49q-76 0 -147 17.5t-117.5 38
t-114 38t-139.5 17.5q-67 0 -140.5 -16.5t-117.5 -43.5v275q43 32 114.5 50.5t143.5 18.5t142.5 -17t118.5 -37t118.5 -37t142.5 -17q134 0 223 47z" />
    <glyph glyph-name="divide.tf" 
d="M623 1174q73 0 121.5 -50.5t48.5 -119.5q0 -72 -47.5 -120t-122.5 -48q-73 0 -120.5 48t-47.5 120q0 69 48 119.5t120 50.5zM1130 461h-1011v311h1011v-311zM623 397q73 0 121.5 -50t48.5 -118q0 -73 -47.5 -120.5t-122.5 -47.5q-73 0 -120.5 48t-47.5 120q0 68 48 118
t120 50z" />
    <glyph glyph-name="equal.tf" 
d="M1130 684h-1011v295h1011v-295zM1130 279h-1011v294h1011v-294z" />
    <glyph glyph-name="greater.tf" 
d="M690 668l-475 114v359l870 -293v-365l-870 -290v356z" />
    <glyph glyph-name="greaterequal.tf" 
d="M711 856l-521 80v319l879 -213v-374l-879 -209v311zM1071 104h-881v314h881v-314z" />
    <glyph glyph-name="less.tf" 
d="M1034 193l-870 290v365l870 293v-359l-475 -114l475 -119v-356z" />
    <glyph glyph-name="lessequal.tf" 
d="M1059 459l-879 209v374l879 213v-319l-520 -80l520 -86v-311zM1059 418v-314h-881v314h881z" />
    <glyph glyph-name="minus.tf" 
d="M1130 461h-1011v311h1011v-311z" />
    <glyph glyph-name="multiply.tf" 
d="M844 616l262 -262l-217 -219l-264 262l-265 -262l-219 219l265 262l-265 263l219 219l265 -262l264 262l217 -219z" />
    <glyph glyph-name="notequal.tf" 
d="M801 684l-62 -111h391v-294h-550l-101 -187h-272l100 187h-188v294h348l61 111h-409v295h569l84 156h272l-83 -156h169v-295h-329z" />
    <glyph glyph-name="plus.tf" 
d="M1130 461h-350v-350h-311v350h-350v311h350v350h311v-350h350v-311z" />
    <glyph glyph-name="plusminus.tf" 
d="M1130 1006v-312h-350v-272h-311v272h-350v312h350v313h311v-313h350zM119 313h1011v-313h-1011v313z" />
    <glyph glyph-name="bar.case" horiz-adv-x="536" 
d="M453 -84h-369v1540h369v-1540z" />
    <glyph glyph-name="at.case" horiz-adv-x="1894" 
d="M1397 1032v-557q0 -37 22.5 -55.5t59.5 -18.5q65 0 103 93.5t38 220.5q0 178 -87.5 315t-234 209t-325.5 72q-195 0 -354.5 -86t-251 -241t-91.5 -347q0 -191 89 -341t247 -233t357 -83q136 0 250 42t231 132l94 -152q-235 -199 -573 -199q-193 0 -358 62t-280.5 171
t-181 262t-65.5 331q0 183 68.5 342.5t187 272t282.5 177t349 64.5q172 0 325.5 -56.5t266 -155.5t178 -243.5t65.5 -312.5q0 -69 -11.5 -134t-41 -132t-75 -116.5t-120.5 -80.5t-171 -31q-198 0 -263 127q-91 -123 -268 -123q-166 0 -276.5 112t-110.5 302q0 189 111 300.5
t278 111.5q146 0 234 -88v67h303zM954 496q58 0 99 41t41 106q0 66 -40.5 105.5t-99.5 39.5q-58 0 -98.5 -40t-40.5 -105q0 -64 41 -105.5t98 -41.5z" />
    <glyph glyph-name="caron.alt" horiz-adv-x="1228" 
d="M717 922h-271v409h361z" />
    </font>
</defs>
</svg>
