<?xml version="1.0" standalone="no"?>
<!DOCTYPE svg PUBLIC "-//W3C//DTD SVG 1.1//EN" "http://www.w3.org/Graphics/SVG/1.1/DTD/svg11.dtd" >
<svg xmlns="http://www.w3.org/2000/svg" xmlns:xlink="http://www.w3.org/1999/xlink" version="1.1">
<metadata>
Created by FontForge 20170731 at Tue Nov 16 11:11:57 2021
 By Aleksey,,,
Copyright (c) 2014 by Rene' Bieder. All rights reserved.
</metadata>
<defs>
<font id="GalanoGrotesque-Black" horiz-adv-x="1249" >
  <font-face 
    font-family="Galano Grotesque Black"
    font-weight="900"
    font-stretch="normal"
    units-per-em="2048"
    panose-1="0 0 10 0 0 0 0 0 0 0"
    ascent="1638"
    descent="-410"
    x-height="1040"
    cap-height="1372"
    bbox="-328 -469 2679 2001"
    underline-thickness="102"
    underline-position="-307"
    unicode-range="U+0020-FB02"
  />
<missing-glyph horiz-adv-x="1591" 
d="M797 1401q192 0 355 -91.5t260 -257t97 -368.5q0 -153 -57 -287.5t-153.5 -227.5t-227 -146.5t-274.5 -53.5q-193 0 -356.5 91t-261 256t-97.5 368q0 202 97.5 367.5t261 257.5t356.5 92zM797 1288q-120 0 -229 -45.5t-189 -124.5t-127 -192.5t-47 -241.5t47 -240.5
t127 -191.5t189 -124.5t229 -45.5q119 0 227.5 45.5t188 124.5t126.5 191.5t47 240.5t-47 241.5t-126.5 192.5t-188 124.5t-227.5 45.5zM1094 823q0 -78 -50.5 -133t-140.5 -80v-47h-244v195h101q37 0 59.5 13t22.5 36q0 22 -14.5 34.5t-39.5 12.5t-41.5 -15.5t-19.5 -41.5
l-248 49q25 99 106.5 161t223.5 62q125 0 205 -72t80 -174zM776 535q57 0 95 -38t38 -89q0 -55 -37.5 -92t-95.5 -37q-56 0 -93.5 37.5t-37.5 91.5q0 51 37.5 89t93.5 38z" />
    <glyph glyph-name="fi" unicode="fi" horiz-adv-x="1388" 
d="M1075 1108q-105 0 -172 66t-67 167q0 96 68 165t171 69q104 0 173 -69t69 -165q0 -100 -68.5 -166.5t-173.5 -66.5zM1296 1040v-1040h-440v702h-276v-702h-441v702h-129v338h129v54q0 186 119.5 298.5t314.5 112.5q98 0 197 -30l-57 -336q-28 4 -37 4q-43 0 -69.5 -24
t-26.5 -64v-15h716z" />
    <glyph glyph-name="fl" unicode="fl" horiz-adv-x="1388" 
d="M676 1143q-43 0 -69.5 -24t-26.5 -64v-15h225v-338h-225v-702h-441v702h-129v338h129v54q0 186 119.5 298.5t314.5 112.5q126 0 244 -47l-84 -323q-27 8 -57 8zM1317 1475v-1475h-440v1475h440z" />
    <glyph glyph-name=".notdef" horiz-adv-x="1591" 
d="M797 1401q192 0 355 -91.5t260 -257t97 -368.5q0 -153 -57 -287.5t-153.5 -227.5t-227 -146.5t-274.5 -53.5q-193 0 -356.5 91t-261 256t-97.5 368q0 202 97.5 367.5t261 257.5t356.5 92zM797 1288q-120 0 -229 -45.5t-189 -124.5t-127 -192.5t-47 -241.5t47 -240.5
t127 -191.5t189 -124.5t229 -45.5q119 0 227.5 45.5t188 124.5t126.5 191.5t47 240.5t-47 241.5t-126.5 192.5t-188 124.5t-227.5 45.5zM1094 823q0 -78 -50.5 -133t-140.5 -80v-47h-244v195h101q37 0 59.5 13t22.5 36q0 22 -14.5 34.5t-39.5 12.5t-41.5 -15.5t-19.5 -41.5
l-248 49q25 99 106.5 161t223.5 62q125 0 205 -72t80 -174zM776 535q57 0 95 -38t38 -89q0 -55 -37.5 -92t-95.5 -37q-56 0 -93.5 37.5t-37.5 91.5q0 51 37.5 89t93.5 38z" />
    <glyph glyph-name=".null" horiz-adv-x="0" 
 />
    <glyph glyph-name="nonmarkingreturn" horiz-adv-x="682" 
 />
    <glyph glyph-name="space" unicode=" " horiz-adv-x="430" 
 />
    <glyph glyph-name="exclam" unicode="!" horiz-adv-x="645" 
d="M573 1372v-63l-41 -799h-419l-41 799v63h501zM336 442q102 0 170.5 -67t68.5 -160q0 -97 -67.5 -162t-171.5 -65t-171 65t-67 162q0 93 68 160t170 67z" />
    <glyph glyph-name="quotedbl" unicode="&#x22;" horiz-adv-x="1013" 
d="M82 659v713h379v-713h-379zM553 659v713h379v-713h-379z" />
    <glyph glyph-name="numbersign" unicode="#" horiz-adv-x="1531" 
d="M1223 776l-49 -201h194l-82 -303h-188l-68 -272h-336l68 272h-191l-67 -272h-336l68 272h-195l82 303h188l49 201h-194l80 303h190l72 293h336l-72 -293h191l71 293h336l-72 -293h193l-80 -303h-188zM887 776h-191l-49 -201h191z" />
    <glyph glyph-name="dollar" unicode="$" horiz-adv-x="1263" 
d="M1223 455q0 -92 -33 -167.5t-90.5 -125t-126 -81.5t-148.5 -48v-238h-360v242q-164 43 -277.5 148.5t-142.5 242.5l412 78q27 -83 75 -120.5t121 -37.5q47 0 81 17.5t34 46.5q0 24 -12 39.5t-45 25.5l-267 70q-184 48 -273 139t-89 238q0 170 104.5 275.5t278.5 141.5
v236h360v-240q159 -37 260.5 -134t124.5 -240l-393 -68q-41 145 -180 145q-45 0 -72.5 -18t-27.5 -55q0 -48 49 -60l254 -65q195 -51 289 -141.5t94 -245.5z" />
    <glyph glyph-name="percent" unicode="%" horiz-adv-x="1900" 
d="M463 1403q157 0 267 -102t110 -265q0 -161 -110 -262.5t-267 -101.5q-158 0 -269.5 101.5t-111.5 262.5q0 163 111 265t270 102zM356 0l965 1372h219l-965 -1372h-219zM463 1165q-50 0 -87.5 -35t-37.5 -94q0 -56 37.5 -91.5t87.5 -35.5q47 0 84 35.5t37 91.5
q0 58 -36.5 93.5t-84.5 35.5zM1442 700q157 0 267 -101.5t110 -264.5q0 -107 -52 -191.5t-137.5 -129t-187.5 -44.5q-158 0 -269.5 101.5t-111.5 263.5q0 163 111 264.5t270 101.5zM1442 463q-50 0 -87.5 -35t-37.5 -94q0 -56 37.5 -91.5t87.5 -35.5q47 0 84 35.5t37 91.5
q0 58 -36.5 93.5t-84.5 35.5z" />
    <glyph glyph-name="ampersand" unicode="&#x26;" horiz-adv-x="1421" 
d="M1171 -53l-159 135q-186 -113 -424 -113q-239 0 -393 116t-154 306q0 232 231 361q-94 125 -94 258q0 176 135.5 284.5t352.5 108.5q116 0 206.5 -30t148 -84t91.5 -121t47 -148l-397 -74q-7 69 -29.5 97t-64.5 28q-31 0 -49.5 -20t-18.5 -50q0 -38 25 -78t84 -96
l217 -186q4 46 4 70v63h409v-63q0 -203 -77 -357l159 -137zM625 309q42 0 96 23l-205 176q-37 -37 -37 -80q0 -52 37.5 -85.5t108.5 -33.5z" />
    <glyph glyph-name="quotesingle" unicode="'" horiz-adv-x="542" 
d="M82 659v713h379v-713h-379z" />
    <glyph glyph-name="parenleft" unicode="(" horiz-adv-x="833" 
d="M506 690q0 -58 9 -113t20 -96.5t36 -89t42 -76t53.5 -74.5t54.5 -66.5t61 -68.5l-309 -274q-74 72 -128.5 133.5t-113 146t-95.5 167.5t-61 189.5t-24 221.5t24 221t61 189t95.5 167t113 145t128.5 134l293 -276q-8 -9 -23 -28q-108 -132 -151 -209q-86 -156 -86 -343z
" />
    <glyph glyph-name="parenright" unicode=")" horiz-adv-x="833" 
d="M68 1270l292 276q74 -73 128.5 -134t113 -145t95.5 -167t61 -189t24 -221t-24 -221.5t-61 -189.5t-95.5 -167.5t-113 -146t-128.5 -133.5l-309 274q44 49 61 68.5t54.5 66.5t54 74.5t42 76t36.5 89.5t20 96t9 113q0 76 -14.5 145.5t-34 119.5t-55.5 107t-62 91t-71 89
q-15 19 -23 28z" />
    <glyph glyph-name="asterisk" unicode="*" horiz-adv-x="915" 
d="M672 1100l182 -105l-106 -184l-177 100v-188h-227v190l-176 -100l-107 182l183 105l-183 102l107 184l176 -100v189h227v-189l177 100l106 -182z" />
    <glyph glyph-name="plus" unicode="+" horiz-adv-x="1146" 
d="M1085 451h-348v-349h-327v349h-349v327h349v348h327v-348h348v-327z" />
    <glyph glyph-name="comma" unicode="," horiz-adv-x="591" 
d="M317 -270h-337l116 671h465v-10z" />
    <glyph glyph-name="hyphen" unicode="-" horiz-adv-x="937" 
d="M815 389h-692v361h692v-361z" />
    <glyph glyph-name="period" unicode="." horiz-adv-x="538" 
d="M268 465q102 0 171 -71.5t69 -168.5q0 -102 -68 -169.5t-172 -67.5t-170.5 67.5t-66.5 169.5q0 98 67.5 169t169.5 71z" />
    <glyph glyph-name="slash" unicode="/" horiz-adv-x="958" 
d="M907 1518l-590 -1665h-266l590 1665h266z" />
    <glyph glyph-name="zero" unicode="0" horiz-adv-x="1353" 
d="M678 1403q189 0 333 -89t223 -252t79 -376t-79 -376t-223 -252t-333 -89q-287 0 -462 197t-175 520t175 520t462 197zM678 346q84 0 132 87t48 253q0 165 -48 251.5t-132 86.5q-85 0 -133.5 -86.5t-48.5 -251.5q0 -167 48.5 -253.5t133.5 -86.5z" />
    <glyph glyph-name="one" unicode="1" horiz-adv-x="874" 
d="M772 1372v-1372h-444v854l-308 -156v418l457 256h295z" />
    <glyph glyph-name="two" unicode="2" horiz-adv-x="1224" 
d="M1163 381v-381h-1124l6 12v289l498 420q85 73 122 118t37 93q0 47 -28 75.5t-74 28.5q-57 0 -94 -40t-43 -124l-432 76q12 213 163.5 334t393.5 121q161 0 284 -54t194 -162.5t71 -258.5q0 -56 -14 -106.5t-34 -87.5t-59.5 -80t-70.5 -71t-87 -75l-153 -127h444z" />
    <glyph glyph-name="three" unicode="3" horiz-adv-x="1208" 
d="M1006 705q161 -100 161 -283q0 -193 -159.5 -323t-403.5 -130q-147 0 -268 50t-203.5 150t-105.5 237l438 75q13 -75 52 -115t93 -40q59 0 94 29.5t35 78.5q0 48 -40 73t-109 25h-156v324h148q69 0 109 23.5t40 68.5q0 49 -35 79t-94 30q-58 0 -95 -42t-46 -128l-422 78
q37 213 188.5 325.5t370.5 112.5q238 0 392.5 -125.5t154.5 -314.5q0 -163 -139 -258z" />
    <glyph glyph-name="four" unicode="4" horiz-adv-x="1323" 
d="M1282 201h-158v-201h-413v201h-680v401l577 772h516v-811h158v-362zM711 563v369l-262 -369h262z" />
    <glyph glyph-name="five" unicode="5" horiz-adv-x="1202" 
d="M496 899h153q254 0 383 -118.5t129 -325.5q0 -220 -150.5 -353t-398.5 -133q-152 0 -276 52.5t-204.5 159.5t-92.5 253l424 80q4 -97 48.5 -139.5t104.5 -42.5q57 0 92 32.5t35 86.5q0 52 -39.5 83t-105.5 31h-498l33 809h975v-377h-606z" />
    <glyph glyph-name="six" unicode="6" 
d="M733 893q214 0 344.5 -125.5t130.5 -329.5q0 -207 -154.5 -338t-391.5 -131q-286 0 -453.5 180.5t-167.5 505.5q0 180 51 329.5t152 250.5q168 168 422 168q203 0 341.5 -93t180.5 -263l-420 -84q-13 49 -41.5 67.5t-77.5 18.5q-65 0 -119 -60q-64 -70 -67 -198
q110 102 270 102zM647 305q62 0 109 45t47 107q0 65 -46.5 109t-109.5 44t-109 -44t-46 -109q0 -62 46.5 -107t108.5 -45z" />
    <glyph glyph-name="seven" unicode="7" horiz-adv-x="1091" 
d="M1051 1374v-334l-406 -1040h-473l393 993h-549v381h1035z" />
    <glyph glyph-name="eight" unicode="8" horiz-adv-x="1200" 
d="M954 717q226 -96 226 -334q0 -179 -161.5 -296.5t-420.5 -117.5q-257 0 -417.5 118t-160.5 298q0 235 224 332q-172 92 -172 287q0 167 152 283t376 116t376 -116t152 -283q0 -196 -174 -287zM600 1085q-57 0 -97 -33t-40 -87t40 -88.5t97 -34.5t97 34.5t40 88.5t-40 87
t-97 33zM600 303q58 0 99.5 35.5t41.5 91.5q0 57 -41 92t-100 35t-100 -35t-41 -92q0 -56 41.5 -91.5t99.5 -35.5z" />
    <glyph glyph-name="nine" unicode="9" 
d="M588 1403q286 0 453 -180.5t167 -505.5q0 -181 -50.5 -330t-151.5 -250q-168 -168 -422 -168q-203 0 -342 93.5t-181 263.5l420 84q13 -49 41.5 -67.5t77.5 -18.5q66 0 119 59q64 70 67 199q-111 -103 -270 -103q-214 0 -344.5 125.5t-130.5 329.5q0 207 155 338t392 131
zM602 762q63 0 109.5 44t46.5 109q0 62 -47 107t-109 45t-109 -45t-47 -107q0 -65 46.5 -109t109.5 -44z" />
    <glyph glyph-name="colon" unicode=":" horiz-adv-x="538" 
d="M268 1061q102 0 171 -71.5t69 -168.5q0 -102 -68 -169.5t-172 -67.5t-170.5 67.5t-66.5 169.5q0 98 67.5 169t169.5 71zM268 465q102 0 171 -71.5t69 -168.5q0 -102 -68 -169.5t-172 -67.5t-170.5 67.5t-66.5 169.5q0 98 67.5 169t169.5 71z" />
    <glyph glyph-name="semicolon" unicode=";" horiz-adv-x="614" 
d="M344 1061q102 0 171 -71.5t69 -168.5q0 -102 -68 -169.5t-172 -67.5t-171 67.5t-67 169.5q0 98 68 169t170 71zM317 -270h-337l116 671h465v-10z" />
    <glyph glyph-name="less" unicode="&#x3c;" horiz-adv-x="1032" 
d="M950 182l-889 293v379l889 293v-373l-477 -108l477 -111v-373z" />
    <glyph glyph-name="equal" unicode="=" horiz-adv-x="1146" 
d="M1085 672h-1024v307h1024v-307zM1085 266h-1024v307h1024v-307z" />
    <glyph glyph-name="greater" unicode="&#x3e;" horiz-adv-x="1032" 
d="M559 666l-477 108v373l889 -293v-379l-889 -293v373z" />
    <glyph glyph-name="question" unicode="?" horiz-adv-x="1146" 
d="M618 1403q220 0 359 -126t139 -310q0 -140 -86.5 -239t-241.5 -144v-86h-440l2 350h180q63 0 101.5 24t38.5 64t-24 64t-62 24q-40 0 -67.5 -30t-31.5 -79l-444 91q21 86 64.5 156t112 125t170.5 85.5t230 30.5zM561 442q102 0 171 -67t69 -160q0 -97 -68 -162t-172 -65
q-103 0 -170 65t-67 162q0 93 67.5 160t169.5 67z" />
    <glyph glyph-name="at" unicode="@" horiz-adv-x="1886" 
d="M1405 946v-553q0 -65 74 -65q41 0 72 44.5t46 113t15 149.5q0 176 -86 312t-231.5 207t-323.5 71q-146 0 -274.5 -50.5t-221 -138.5t-146 -213.5t-53.5 -269.5q0 -190 88.5 -338.5t247 -230.5t359.5 -82q138 0 247.5 41.5t229.5 134.5l96 -154q-118 -100 -255 -150
t-316 -50q-196 0 -363 61.5t-282.5 170t-180.5 260.5t-65 329q0 183 69 343.5t187.5 273t283 177t349.5 64.5q172 0 325 -56t265 -155t177.5 -243.5t65.5 -313.5q0 -69 -11 -133t-41.5 -131t-77 -115.5t-123.5 -79.5t-175 -31q-199 0 -268 129q-86 -124 -262 -124
q-164 0 -272.5 110t-108.5 299t109 299.5t274 110.5q143 0 227 -84v61h330zM956 436q50 0 84.5 35.5t34.5 91.5t-34 90.5t-85 34.5t-85.5 -34.5t-34.5 -90.5t34.5 -91.5t85.5 -35.5z" />
    <glyph glyph-name="A" unicode="A" horiz-adv-x="1585" 
d="M1585 0h-483l-55 166h-506l-58 -166h-483l532 1372h521zM922 535l-127 372l-127 -372h254z" />
    <glyph glyph-name="B" unicode="B" horiz-adv-x="1368" 
d="M1012 709v-9q63 0 116.5 -15.5t99.5 -49.5t72.5 -96.5t26.5 -147.5q0 -177 -130.5 -284t-344.5 -107h-780v1372h780q195 0 314.5 -98.5t119.5 -261.5q0 -78 -26.5 -139t-68.5 -95.5t-88 -51.5t-91 -17zM524 1032v-213h191q58 0 93.5 29.5t35.5 77.5q0 49 -35 77.5
t-94 28.5h-191zM524 340h211q59 0 94 33t35 88q0 47 -35 75.5t-94 28.5h-211v-225z" />
    <glyph glyph-name="C" unicode="C" horiz-adv-x="1570" 
d="M1065 590l455 -86q-42 -246 -234 -390.5t-487 -144.5q-155 0 -293.5 56t-238 151.5t-158 228.5t-58.5 281t58.5 281t158 228.5t238 151.5t293.5 56q176 0 328.5 -63.5t257 -183.5t133.5 -275l-455 -82q-24 95 -91.5 148.5t-172.5 53.5q-123 0 -208 -91t-85 -224t85 -224
t208 -91q103 0 171 58t95 161z" />
    <glyph glyph-name="D" unicode="D" horiz-adv-x="1484" 
d="M72 1372h616q335 0 540.5 -190t205.5 -496t-205.5 -496t-540.5 -190h-616v1372zM524 373h123q148 0 239 87.5t91 225.5t-91 225.5t-239 87.5h-123v-626z" />
    <glyph glyph-name="E" unicode="E" horiz-adv-x="1245" 
d="M1190 371v-371h-1118v1372h1108v-371h-656v-151h600v-328h-600v-151h666z" />
    <glyph glyph-name="F" unicode="F" horiz-adv-x="1234" 
d="M524 987v-194h600v-385h-600v-408h-452v1372h1132v-385h-680z" />
    <glyph glyph-name="G" unicode="G" horiz-adv-x="1601" 
d="M772 827h768q10 -95 10 -141q0 -212 -94.5 -375.5t-263 -252.5t-383.5 -89q-157 0 -297.5 56t-241.5 151.5t-160 228.5t-59 281t59 281t160 228.5t241.5 151.5t297.5 56q253 0 437.5 -110t252.5 -300l-475 -106q-58 114 -215 114q-133 0 -218 -90t-85 -225t85 -225
t218 -90q159 0 240 100h-277v356z" />
    <glyph glyph-name="H" unicode="H" horiz-adv-x="1472" 
d="M1401 1372v-1372h-453v502h-424v-502h-452v1372h452v-489h424v489h453z" />
    <glyph glyph-name="I" unicode="I" horiz-adv-x="595" 
d="M524 0h-452v1372h452v-1372z" />
    <glyph glyph-name="J" unicode="J" horiz-adv-x="1294" 
d="M1212 1372v-862q0 -244 -163.5 -392.5t-432.5 -148.5q-252 0 -406.5 131t-184.5 357l452 88q7 -94 41 -134t98 -40t103 37t39 102v862h454z" />
    <glyph glyph-name="K" unicode="K" horiz-adv-x="1460" 
d="M1481 0h-576l-319 451h-62v-451h-452v1372h452v-491h43l351 491h526l-488 -690z" />
    <glyph glyph-name="L" unicode="L" horiz-adv-x="1179" 
d="M1139 381v-381h-1067v1372h452v-991h615z" />
    <glyph glyph-name="M" unicode="M" horiz-adv-x="1835" 
d="M1763 1372v-1372h-442v616l-295 -616h-217l-295 616v-616h-442v1372h503l343 -713l342 713h503z" />
    <glyph glyph-name="N" unicode="N" horiz-adv-x="1531" 
d="M1460 1372v-1372h-370l-566 618v-618h-452v1372h370l566 -647v647h452z" />
    <glyph glyph-name="O" unicode="O" horiz-adv-x="1597" 
d="M799 1403q155 0 293.5 -56t238 -151.5t157.5 -228.5t58 -281t-58 -281t-157.5 -228.5t-238 -151.5t-293.5 -56t-293.5 56t-238 151.5t-158 228.5t-58.5 281t58.5 281t158 228.5t238 151.5t293.5 56zM799 371q129 0 211 90t82 225t-82 225t-211 90t-211 -90t-82 -225
t82 -225t211 -90z" />
    <glyph glyph-name="P" unicode="P" horiz-adv-x="1357" 
d="M72 1372h747q224 0 361 -136.5t137 -358.5q0 -232 -149 -373.5t-392 -141.5h-252v-362h-452v1372zM524 705h181q70 0 119.5 43.5t49.5 113.5q0 63 -50 105.5t-119 42.5h-181v-305z" />
    <glyph glyph-name="Q" unicode="Q" horiz-adv-x="1597" 
d="M1546 686q0 -155 -62 -291t-173 -235l192 -240l-332 -280l-270 335q-49 -6 -102 -6q-155 0 -293.5 56t-238 151.5t-158 228.5t-58.5 281t58.5 281t158 228.5t238 151.5t293.5 56t293.5 -56t238 -151.5t157.5 -228.5t58 -281zM506 686q0 -135 82 -225t211 -90t211 90
t82 225t-82 225t-211 90t-211 -90t-82 -225z" />
    <glyph glyph-name="R" unicode="R" horiz-adv-x="1409" 
d="M1409 0h-541l-338 406h-6v-406h-452v1372h768q223 0 359 -130.5t136 -344.5q0 -160 -80.5 -278.5t-222.5 -172.5zM524 1010v-262h205q76 0 120 36.5t44 98.5q0 58 -44 92.5t-120 34.5h-205z" />
    <glyph glyph-name="S" unicode="S" horiz-adv-x="1343" 
d="M678 1403q259 0 420 -103.5t196 -298.5l-438 -88q-11 46 -32.5 78.5t-48.5 47t-49.5 20.5t-45.5 6q-46 0 -76.5 -21t-30.5 -59q0 -49 54 -63l268 -70q206 -54 307 -152t101 -262q0 -100 -38 -182t-99 -134t-141.5 -87.5t-162 -50.5t-164.5 -15q-265 0 -443.5 119.5
t-209.5 312.5l457 84q43 -161 196 -161q51 0 86 18.5t35 58.5q0 47 -61 64l-281 74q-196 47 -290.5 145.5t-94.5 255.5q0 113 46 202.5t126.5 145.5t186 85.5t227.5 29.5z" />
    <glyph glyph-name="T" unicode="T" horiz-adv-x="1370" 
d="M1329 991h-418v-991h-452v991h-418v381h1288v-381z" />
    <glyph glyph-name="U" unicode="U" horiz-adv-x="1468" 
d="M1386 1372v-747q0 -303 -176 -479.5t-467 -176.5q-300 0 -480.5 176.5t-180.5 479.5v747h455v-747q0 -122 55 -188t151 -66q87 0 138 66t51 188v747h454z" />
    <glyph glyph-name="V" unicode="V" horiz-adv-x="1579" 
d="M1579 1372l-567 -1372h-445l-567 1372h504l287 -729l284 729h504z" />
    <glyph glyph-name="W" unicode="W" horiz-adv-x="2039" 
d="M2040 1372l-375 -1372h-487l-158 692l-158 -692h-487l-375 1372h459l192 -700l156 700h426l156 -700l192 700h459z" />
    <glyph glyph-name="X" unicode="X" horiz-adv-x="1484" 
d="M967 0l-226 389l-223 -389h-518l401 686l-385 686h519l206 -379l209 379h518l-385 -686l402 -686h-518z" />
    <glyph glyph-name="Y" unicode="Y" horiz-adv-x="1507" 
d="M1507 1372l-526 -960v-412h-475v412l-506 960h494l262 -512l258 512h493z" />
    <glyph glyph-name="Z" unicode="Z" horiz-adv-x="1339" 
d="M1282 379v-379h-1221v293l609 700h-592v379h1179v-352l-538 -641h563z" />
    <glyph glyph-name="bracketleft" unicode="[" horiz-adv-x="860" 
d="M463 1176v-1004h336v-340h-727v1686h727v-342h-336z" />
    <glyph glyph-name="backslash" unicode="\" horiz-adv-x="958" 
d="M907 -147h-266l-590 1665h266z" />
    <glyph glyph-name="bracketright" unicode="]" horiz-adv-x="860" 
d="M788 1518v-1686h-727v340h336v1004h-336v342h727z" />
    <glyph glyph-name="asciicircum" unicode="^" horiz-adv-x="1032" 
d="M389 821h-369l328 551h336l328 -551h-369l-127 232z" />
    <glyph glyph-name="underscore" unicode="_" horiz-adv-x="1105" 
d="M1065 -399h-1024v284h1024v-284z" />
    <glyph glyph-name="grave" unicode="`" horiz-adv-x="1228" 
d="M743 1505l164 -344h-415l-281 344h532z" />
    <glyph glyph-name="a" unicode="a" horiz-adv-x="1327" 
d="M1255 1040v-1040h-440v86q-111 -117 -285 -117q-223 0 -361 152t-138 399t138 399t361 152q174 0 285 -117v86h440zM643 332q76 0 124 55.5t48 132.5q0 78 -48 133.5t-124 55.5q-77 0 -123.5 -55.5t-46.5 -133.5t46.5 -133t123.5 -55z" />
    <glyph glyph-name="b" unicode="b" horiz-adv-x="1327" 
d="M797 1071q223 0 361 -152t138 -399t-138 -399t-361 -152q-174 0 -285 117v-86h-440v1475h440v-521q111 117 285 117zM684 332q77 0 123.5 55t46.5 133t-46.5 133.5t-123.5 55.5q-76 0 -124 -55.5t-48 -133.5q0 -77 48 -132.5t124 -55.5z" />
    <glyph glyph-name="c" unicode="c" horiz-adv-x="1200" 
d="M768 477l401 -69q-18 -130 -96 -231t-196.5 -154.5t-258.5 -53.5q-161 0 -294.5 68t-213 195t-79.5 288t79.5 288t213 195t294.5 68q139 0 257 -52.5t196 -151.5t96 -228l-399 -74q-10 67 -51 105.5t-99 38.5q-73 0 -119 -55.5t-46 -133.5t46 -133t119 -55q58 0 99 38.5
t51 106.5z" />
    <glyph glyph-name="d" unicode="d" horiz-adv-x="1327" 
d="M1255 1475v-1475h-440v86q-111 -117 -285 -117q-223 0 -361 152t-138 399t138 399t361 152q174 0 285 -117v521h440zM643 332q76 0 124 55.5t48 132.5q0 78 -48 133.5t-124 55.5q-77 0 -123.5 -55.5t-46.5 -133.5t46.5 -133t123.5 -55z" />
    <glyph glyph-name="e" unicode="e" horiz-adv-x="1191" 
d="M1161 416h-702q38 -121 153 -121q51 0 92 23t56 61l391 -76q-62 -165 -202.5 -249.5t-336.5 -84.5q-158 0 -290.5 68t-211.5 195t-79 288t79 288t211 195t289 68q252 0 401.5 -153t149.5 -439v-63zM610 741q-108 0 -149 -104h282q-15 50 -51 77t-82 27z" />
    <glyph glyph-name="f" unicode="f" horiz-adv-x="804" 
d="M580 1040h225v-338h-225v-702h-441v702h-129v338h129v54q0 186 119.5 298.5t314.5 112.5q126 0 244 -47l-84 -323q-27 8 -57 8q-43 0 -69.5 -24t-26.5 -64v-15z" />
    <glyph glyph-name="g" unicode="g" horiz-adv-x="1325" 
d="M1253 1040v-931q0 -156 -89 -271t-231.5 -171t-316.5 -56q-379 0 -548 295l376 108q49 -53 85.5 -68.5t82.5 -15.5q85 0 143 43.5t58 135.5v59q-105 -111 -285 -111q-223 0 -360 140.5t-137 371.5q0 226 137 364t360 138q180 0 285 -108v77h440zM641 397q75 0 122.5 51
t47.5 121q0 71 -47 121.5t-123 50.5q-77 0 -123.5 -50t-46.5 -122q0 -71 46.5 -121.5t123.5 -50.5z" />
    <glyph glyph-name="h" unicode="h" horiz-adv-x="1273" 
d="M819 1071q171 0 274 -112.5t103 -309.5v-649h-440v555q0 57 -32 92t-85 35q-57 0 -92 -43t-35 -113v-526h-440v1475h440v-547q124 143 307 143z" />
    <glyph glyph-name="i" unicode="i" horiz-adv-x="624" 
d="M311 1575q104 0 173 -69t69 -165q0 -100 -68.5 -166.5t-173.5 -66.5t-172 66t-67 167q0 96 68 165t171 69zM532 0h-440v1040h440v-1040z" />
    <glyph glyph-name="j" unicode="j" horiz-adv-x="647" 
d="M334 1575q104 0 172.5 -69t68.5 -165q0 -100 -68 -166.5t-173 -66.5t-172.5 66.5t-67.5 166.5q0 96 68 165t172 69zM-61 -315l53 299q51 -7 59 -7q29 0 46.5 23t17.5 61v979h440v-1013q0 -178 -106 -287t-279 -109q-121 0 -231 54z" />
    <glyph glyph-name="k" unicode="k" horiz-adv-x="1312" 
d="M1333 0h-536l-224 315h-61v-315h-440v1475h440v-770h39l242 335h507l-368 -493z" />
    <glyph glyph-name="l" unicode="l" horiz-adv-x="583" 
d="M512 0h-440v1475h440v-1475z" />
    <glyph glyph-name="m" unicode="m" horiz-adv-x="1957" 
d="M1497 1071q172 0 277.5 -116t105.5 -306v-649h-440v555q0 56 -32.5 91.5t-82.5 35.5q-56 0 -92.5 -44.5t-36.5 -111.5v-526h-440v555q0 57 -33 92t-86 35q-55 0 -90 -44.5t-35 -111.5v-526h-440v1040h440v-114q106 145 301 145q114 0 200.5 -48.5t133.5 -137.5
q123 186 350 186z" />
    <glyph glyph-name="n" unicode="n" horiz-adv-x="1273" 
d="M817 1071q172 0 275.5 -112.5t103.5 -309.5v-649h-440v555q0 57 -32 92t-83 35q-58 0 -93.5 -42.5t-35.5 -113.5v-526h-440v1040h440v-112q124 143 305 143z" />
    <glyph glyph-name="o" unicode="o" horiz-adv-x="1245" 
d="M623 1071q161 0 295.5 -68t215 -195t80.5 -288t-80.5 -288t-215 -195t-295.5 -68t-295.5 68t-215.5 195t-81 288t81 288t215.5 195t295.5 68zM623 332q73 0 121.5 55.5t48.5 132.5t-48.5 133t-121.5 56t-121.5 -56t-48.5 -133t48.5 -132.5t121.5 -55.5z" />
    <glyph glyph-name="p" unicode="p" horiz-adv-x="1327" 
d="M797 1071q223 0 361 -152t138 -399t-138 -399t-361 -152q-174 0 -285 117v-434h-440v1388h440v-86q111 117 285 117zM684 332q77 0 123.5 55t46.5 133t-46.5 133.5t-123.5 55.5q-76 0 -124 -55.5t-48 -133.5q0 -77 48 -132.5t124 -55.5z" />
    <glyph glyph-name="q" unicode="q" horiz-adv-x="1327" 
d="M1255 1040v-1388h-440v434q-111 -117 -285 -117q-223 0 -361 152t-138 399t138 399t361 152q174 0 285 -117v86h440zM643 332q76 0 124 55.5t48 132.5q0 78 -48 133.5t-124 55.5q-77 0 -123.5 -55.5t-46.5 -133.5t46.5 -133t123.5 -55z" />
    <glyph glyph-name="r" unicode="r" horiz-adv-x="925" 
d="M844 1053q35 0 76 -6l-15 -463h-61q-76 0 -132 -12t-103.5 -41.5t-72 -86t-24.5 -139.5v-305h-440v1040h440v-215q99 228 332 228z" />
    <glyph glyph-name="s" unicode="s" horiz-adv-x="1101" 
d="M31 266l413 82q13 -38 49 -60t76 -22t61 12t21 29q0 23 -19 31.5t-65 13.5l-207 33q-156 24 -236.5 100t-80.5 215q0 117 68 202.5t176.5 127t242.5 41.5q214 0 345 -71.5t172 -208.5l-385 -76q-8 28 -41 55t-84 27q-35 0 -54.5 -12.5t-19.5 -28.5q0 -31 53 -41l234 -43
q163 -30 242 -119.5t79 -228.5q0 -112 -68.5 -193.5t-181 -121.5t-254.5 -40q-214 0 -356 73.5t-180 223.5z" />
    <glyph glyph-name="t" unicode="t" horiz-adv-x="880" 
d="M797 367l73 -322q-147 -76 -309 -76q-209 0 -317.5 111.5t-108.5 304.5v317h-125v338h125v291h440v-291h244v-338h-244v-262q0 -54 27 -76t84 -22q66 0 111 25z" />
    <glyph glyph-name="u" unicode="u" horiz-adv-x="1273" 
d="M1202 1040v-1040h-440v113q-125 -144 -305 -144q-172 0 -275.5 112.5t-103.5 309.5v649h440v-555q0 -57 32 -92t83 -35q58 0 93.5 42.5t35.5 113.5v526h440z" />
    <glyph glyph-name="v" unicode="v" horiz-adv-x="1284" 
d="M1284 1040l-426 -1040h-432l-426 1040h457l184 -505l186 505h457z" />
    <glyph glyph-name="w" unicode="w" horiz-adv-x="1660" 
d="M1661 1040l-313 -1040h-367l-150 465l-151 -465h-367l-313 1040h430l109 -401l155 401h273l155 -401l109 401h430z" />
    <glyph glyph-name="x" unicode="x" horiz-adv-x="1288" 
d="M948 498l330 -498h-485l-148 236l-149 -236h-486l330 498l-330 542h486l149 -258l148 258h485z" />
    <glyph glyph-name="y" unicode="y" horiz-adv-x="1318" 
d="M1319 1040l-598 -1388h-457l168 387l-432 1001h457l194 -491l211 491h457z" />
    <glyph glyph-name="z" unicode="z" horiz-adv-x="1163" 
d="M1102 338v-338h-1041v281l435 421h-424v338h1022v-286l-430 -416h438z" />
    <glyph glyph-name="braceleft" unicode="{" horiz-adv-x="847" 
d="M594 1128v-243q0 -158 -109 -211q109 -53 109 -211v-244q0 -22 11 -34.5t30 -12.5h151v-340h-317q-120 0 -193 74.5t-73 197.5v297q0 67 -82 88l-80 21v328l80 20q82 21 82 88v297q0 123 73 199t193 76h317v-342h-151q-19 0 -30 -13t-11 -35z" />
    <glyph glyph-name="bar" unicode="|" horiz-adv-x="534" 
d="M463 -147h-391v1665h391v-1665z" />
    <glyph glyph-name="braceright" unicode="}" horiz-adv-x="847" 
d="M807 838v-328l-80 -21q-82 -21 -82 -88v-297q0 -123 -73 -197.5t-193 -74.5h-318v340h152q19 0 30 12.5t11 34.5v244q0 158 108 211q-108 53 -108 211v243q0 22 -11 35t-30 13h-152v342h318q120 0 193 -76t73 -199v-297q0 -67 82 -88z" />
    <glyph glyph-name="asciitilde" unicode="~" horiz-adv-x="1064" 
d="M367 459h-310q0 105 27.5 186.5t71.5 126.5t92.5 67.5t97.5 22.5t97 -13.5t78 -29.5t60.5 -29.5t49.5 -13.5q31 0 49 18t18 48h310q0 -85 -19 -155.5t-49 -115.5t-69 -76t-78 -44t-78 -13q-62 0 -118.5 19t-97.5 38t-65 19q-22 0 -40 -15t-27 -40z" />
    <glyph glyph-name="exclamdown" unicode="&#xa1;" horiz-adv-x="645" 
d="M336 616q-102 0 -170 67.5t-68 160.5q0 97 67 162t171 65t171.5 -65t67.5 -162q0 -93 -68.5 -160.5t-170.5 -67.5zM72 -250l41 799h419l41 -799v-63h-501v63z" />
    <glyph glyph-name="cent" unicode="&#xa2;" horiz-adv-x="1200" 
d="M768 477l401 -69q-21 -151 -120 -260t-248 -152v-262h-361v260q-182 51 -295.5 191.5t-113.5 334.5q0 195 113.5 335.5t295.5 191.5v243h361v-243q148 -44 246.5 -151t119.5 -257l-399 -74q-10 67 -51 105.5t-99 38.5q-73 0 -119 -55.5t-46 -133.5t46 -133t119 -55
q58 0 99 38.5t51 106.5z" />
    <glyph glyph-name="sterling" unicode="&#xa3;" horiz-adv-x="1183" 
d="M1157 373v-373h-1096v291l107 37v127h-107v340h107v163q0 201 135 323t356 122q204 0 340.5 -117.5t153.5 -300.5l-424 -72q-7 64 -24.5 86.5t-45.5 22.5q-27 0 -42 -17t-15 -47v-163h322v-340h-322v-82h555z" />
    <glyph glyph-name="yen" unicode="&#xa5;" horiz-adv-x="1456" 
d="M1053 651h233v-225h-342v-61h342v-226h-342v-139h-452v139h-320v226h320v61h-320v225h217l-369 721h463l236 -502l233 502h484z" />
    <glyph glyph-name="section" unicode="&#xa7;" horiz-adv-x="1177" 
d="M1137 555q0 -194 -164 -303q49 -80 49 -184q0 -92 -34.5 -163t-96 -113.5t-139.5 -63.5t-170 -21q-216 0 -335.5 99t-137.5 268l358 67q5 -74 30.5 -98.5t63.5 -24.5q26 0 45 16t19 44q0 22 -16.5 39.5t-63.5 34.5l-234 81q-270 95 -270 324q0 194 164 303
q-49 80 -49 184q0 92 34.5 162.5t96 112.5t139 63t170.5 21q208 0 327.5 -97t133.5 -257l-361 -64q-7 109 -80 109q-26 0 -44.5 -16t-18.5 -44q0 -21 16.5 -38.5t63.5 -34.5l233 -82q271 -95 271 -324zM721 438l14 -6q31 28 31 64q0 27 -15 44.5t-51 32.5l-243 101l-15 6
q-30 -27 -30 -64q0 -27 14.5 -44.5t50.5 -32.5z" />
    <glyph glyph-name="dieresis" unicode="&#xa8;" horiz-adv-x="1228" 
d="M358 1548q97 0 161.5 -64t64.5 -153q0 -95 -64 -157t-162 -62t-160.5 61.5t-62.5 157.5q0 90 63.5 153.5t159.5 63.5zM870 1548q97 0 161.5 -64t64.5 -153q0 -95 -64 -157t-162 -62t-160.5 61.5t-62.5 157.5q0 90 63.5 153.5t159.5 63.5z" />
    <glyph glyph-name="copyright" unicode="&#xa9;" horiz-adv-x="1550" 
d="M776 1403q194 0 358 -91.5t261.5 -257.5t97.5 -370q0 -154 -57.5 -288.5t-154.5 -227.5t-228.5 -146t-276.5 -53q-146 0 -278 53.5t-229 146.5t-154.5 227.5t-57.5 287.5q0 203 97.5 369t262 258t359.5 92zM776 1288q-120 0 -229 -45.5t-189 -124.5t-127 -192.5
t-47 -241.5t47 -240t127 -190t189 -123t229 -45t228 45t188 123t127 190t47 240t-47 241.5t-127 192.5t-188.5 124.5t-227.5 45.5zM791 1069q151 0 253 -87.5t105 -213.5l-234 -41q-9 49 -45 75.5t-88 26.5q-57 0 -98 -41t-41 -104t41 -104t98 -41q53 0 88.5 28.5t44.5 83.5
l238 -41q-6 -133 -108.5 -222t-253.5 -89q-165 0 -281.5 108t-116.5 277t116.5 277t281.5 108z" />
    <glyph glyph-name="ordfeminine" unicode="&#xaa;" horiz-adv-x="800" 
d="M414 1384q163 0 262.5 -76t99.5 -229v-417h-305v40q-82 -61 -188 -61q-116 0 -187 63.5t-71 167.5q0 107 86 167.5t245 60.5h115v20q1 23 -14 37t-41 14q-43 0 -60 -38l-284 45q59 206 342 206zM397 834q34 0 54 20.5t20 60.5v31h-65q-33 0 -51.5 -15t-18.5 -40
q0 -26 16.5 -41.5t44.5 -15.5z" />
    <glyph glyph-name="guillemotleft" unicode="&#xab;" horiz-adv-x="1171" 
d="M51 537l189 364h389l-189 -364l189 -365h-389zM543 537l188 364h389l-188 -364l188 -365h-389z" />
    <glyph glyph-name="registered" unicode="&#xae;" horiz-adv-x="942" 
d="M471 1403q171 0 290.5 -117t119.5 -295q0 -176 -119.5 -292.5t-290.5 -116.5t-290.5 116.5t-119.5 292.5q0 178 119.5 295t290.5 117zM471 680q129 0 219 89.5t90 221.5q0 135 -90 225.5t-219 90.5q-128 0 -217.5 -90.5t-89.5 -225.5q0 -132 90 -221.5t217 -89.5z
M651 1059q0 -80 -69 -117l88 -119h-138l-71 101h-29v-101h-117v363h193q69 0 106 -35.5t37 -91.5zM432 1016h66q22 0 34.5 11.5t12.5 29.5q0 16 -12.5 26.5t-34.5 10.5h-66v-78z" />
    <glyph glyph-name="macron" unicode="&#xaf;" horiz-adv-x="1228" 
d="M981 1161h-733v320h733v-320z" />
    <glyph glyph-name="degree" unicode="&#xb0;" horiz-adv-x="923" 
d="M463 1403q143 0 243.5 -93t100.5 -241q0 -147 -101 -239.5t-243 -92.5q-144 0 -245 92.5t-101 239.5q0 148 101 241t245 93zM463 954q44 0 77 31.5t33 83.5q0 53 -33 85t-77 32q-45 0 -79 -32t-34 -85q0 -52 34 -83.5t79 -31.5z" />
    <glyph glyph-name="plusminus" unicode="&#xb1;" horiz-adv-x="1146" 
d="M1085 1024v-328h-348v-266h-327v266h-349v328h349v307h327v-307h348zM61 328h1024v-328h-1024v328z" />
    <glyph glyph-name="acute" unicode="&#xb4;" horiz-adv-x="1228" 
d="M717 1161h-416l164 344h532z" />
    <glyph glyph-name="paragraph" unicode="&#xb6;" horiz-adv-x="1280" 
d="M842 0h-271v612h-102q-186 0 -307 105.5t-121 281.5q0 181 107.5 277t291.5 96h402v-1372zM1208 0h-270v1372h270v-1372z" />
    <glyph glyph-name="periodcentered" unicode="&#xb7;" horiz-adv-x="538" 
d="M268 784q102 0 171 -71t69 -168q0 -102 -68 -170t-172 -68q-103 0 -170 68t-67 170q0 98 67.5 168.5t169.5 70.5z" />
    <glyph glyph-name="cedilla" unicode="&#xb8;" horiz-adv-x="1228" 
d="M516 0h309l-80 -328h-448z" />
    <glyph glyph-name="ordmasculine" unicode="&#xba;" horiz-adv-x="849" 
d="M424 1384q168 0 284.5 -104t116.5 -268q0 -163 -116.5 -267t-284.5 -104q-166 0 -282.5 104.5t-116.5 266.5q0 164 116 268t283 104zM424 903q45 0 73.5 32t28.5 77q0 47 -28.5 78.5t-73.5 31.5t-72.5 -31.5t-27.5 -78.5q0 -46 27.5 -77.5t72.5 -31.5z" />
    <glyph glyph-name="guillemotright" unicode="&#xbb;" horiz-adv-x="1171" 
d="M51 172l189 365l-189 364h389l189 -364l-189 -365h-389zM543 172l188 365l-188 364h389l188 -364l-188 -365h-389z" />
    <glyph glyph-name="onequarter" unicode="&#xbc;" horiz-adv-x="1581" 
d="M203 1040l-183 -90v262l275 160h184v-799h-276v467zM1370 1372l-964 -1372h-220l965 1372h219zM1563 109h-93v-109h-258v109h-405v249l340 441h323v-465h93v-225zM1212 334v194l-145 -194h145z" />
    <glyph glyph-name="onehalf" unicode="&#xbd;" horiz-adv-x="1632" 
d="M203 1040l-183 -90v262l275 160h184v-799h-276v467zM1350 1372l-965 -1372h-219l964 1372h220zM1350 229h221v-229h-627v164l279 262q5 5 16 15t15.5 14.5l12.5 12.5t11.5 12.5t9 11t8 11t5 11t3.5 12t1 11.5q0 22 -13 34.5t-35 12.5q-24 0 -41.5 -20t-17.5 -68l-260 47
q0 121 87 197.5t232 76.5q142 0 230 -74t88 -206q0 -76 -35.5 -127t-112.5 -115z" />
    <glyph glyph-name="threequarters" unicode="&#xbe;" horiz-adv-x="1705" 
d="M694 823q0 -113 -94.5 -189.5t-239.5 -76.5q-136 0 -226 70.5t-105 187.5l256 45q24 -80 80 -80q29 0 46 14t17 37t-21 38.5t-55 15.5h-94v188h88q35 0 55.5 14t20.5 37t-17.5 37.5t-46.5 14.5q-28 0 -47.5 -20.5t-23.5 -57.5l-254 45q13 101 103.5 175.5t219.5 74.5
q142 0 234 -74.5t92 -185.5q0 -94 -92 -148q104 -59 104 -162zM1495 1372l-965 -1372h-219l965 1372h219zM1688 109h-93v-109h-258v109h-405v249l340 441h323v-465h93v-225zM1337 334v194l-145 -194h145z" />
    <glyph glyph-name="questiondown" unicode="&#xbf;" horiz-adv-x="1146" 
d="M586 618q-102 0 -171 67.5t-69 160.5q0 97 68 162t172 65q103 0 170 -65t67 -162q0 -93 -67.5 -160.5t-169.5 -67.5zM662 145l444 -90q-21 -86 -64.5 -156t-112 -125t-171 -85.5t-230.5 -30.5q-220 0 -358.5 126t-138.5 310q0 140 86 239t241 144v86h441l-2 -350h-181
q-63 0 -101 -24t-38 -64t24 -64t62 -24q40 0 67.5 29.5t31.5 78.5z" />
    <glyph glyph-name="Agrave" unicode="&#xc0;" horiz-adv-x="1585" 
d="M606 1493l-280 344h532l164 -344h-416zM1585 0h-483l-55 166h-506l-58 -166h-483l532 1372h521zM922 535l-127 372l-127 -372h254z" />
    <glyph glyph-name="Aacute" unicode="&#xc1;" horiz-adv-x="1585" 
d="M995 1493h-415l163 344h533zM1585 0h-483l-55 166h-506l-58 -166h-483l532 1372h521zM922 535l-127 372l-127 -372h254z" />
    <glyph glyph-name="Acircumflex" unicode="&#xc2;" horiz-adv-x="1585" 
d="M731 1493h-412l244 344h461l244 -344h-412l-61 90zM1585 0h-483l-55 166h-506l-58 -166h-483l532 1372h521zM922 535l-127 372l-127 -372h254z" />
    <glyph glyph-name="Atilde" unicode="&#xc3;" horiz-adv-x="1585" 
d="M711 1548q-32 0 -46.5 -10.5t-29.5 -44.5h-236q0 179 75 289t194 110q53 0 98 -18t80.5 -35.5t64.5 -17.5q32 0 46.5 12t29.5 49h236q0 -179 -75 -289t-196 -110q-66 0 -136.5 32.5t-104.5 32.5zM1585 0h-483l-55 166h-506l-58 -166h-483l532 1372h521zM922 535l-127 372
l-127 -372h254z" />
    <glyph glyph-name="Adieresis" unicode="&#xc4;" horiz-adv-x="1585" 
d="M539 1444q-98 0 -161 62t-63 157q0 89 63.5 153t160.5 64t161 -64t64 -153q0 -95 -63.5 -157t-161.5 -62zM1051 1444q-98 0 -161 62t-63 157q0 89 63.5 153t160.5 64t161 -64t64 -153q0 -95 -63.5 -157t-161.5 -62zM1585 0h-483l-55 166h-506l-58 -166h-483l532 1372h521
zM922 535l-127 372l-127 -372h254z" />
    <glyph glyph-name="Aring" unicode="&#xc5;" horiz-adv-x="1585" 
d="M795 1442q-122 0 -205.5 80.5t-83.5 197.5q0 118 83.5 199.5t205.5 81.5q121 0 204.5 -81t83.5 -200q0 -117 -83.5 -197.5t-204.5 -80.5zM795 1800q-34 0 -58 -24t-24 -56q0 -31 24.5 -54.5t57.5 -23.5t57.5 23.5t24.5 54.5q0 32 -24 56t-58 24zM1585 0h-483l-55 166
h-506l-58 -166h-483l532 1372h521zM922 535l-127 372l-127 -372h254z" />
    <glyph glyph-name="AE" unicode="&#xc6;" horiz-adv-x="2162" 
d="M2107 371v-371h-1118v166h-373l-81 -166h-535l795 1372h1302v-371h-655v-151h600v-328h-600v-151h665zM989 532v383l-190 -383h190z" />
    <glyph glyph-name="Ccedilla" unicode="&#xc7;" horiz-adv-x="1570" 
d="M1065 590l455 -86q-37 -216 -190.5 -355.5t-395.5 -171.5l-74 -305h-448l211 316q-251 56 -411.5 249t-160.5 449q0 148 58.5 281t158 228.5t238 151.5t293.5 56q176 0 328.5 -63.5t257 -183.5t133.5 -275l-455 -82q-24 95 -91.5 148.5t-172.5 53.5q-123 0 -208 -91
t-85 -224t85 -224t208 -91q103 0 171 58t95 161z" />
    <glyph glyph-name="Egrave" unicode="&#xc8;" horiz-adv-x="1245" 
d="M434 1493l-280 344h532l164 -344h-416zM1190 371v-371h-1118v1372h1108v-371h-656v-151h600v-328h-600v-151h666z" />
    <glyph glyph-name="Eacute" unicode="&#xc9;" horiz-adv-x="1245" 
d="M823 1493h-415l163 344h533zM1190 371v-371h-1118v1372h1108v-371h-656v-151h600v-328h-600v-151h666z" />
    <glyph glyph-name="Ecircumflex" unicode="&#xca;" horiz-adv-x="1245" 
d="M559 1493h-412l244 344h461l244 -344h-412l-61 90zM1190 371v-371h-1118v1372h1108v-371h-656v-151h600v-328h-600v-151h666z" />
    <glyph glyph-name="Edieresis" unicode="&#xcb;" horiz-adv-x="1245" 
d="M367 1444q-98 0 -161 62t-63 157q0 89 63.5 153t160.5 64t161 -64t64 -153q0 -95 -63.5 -157t-161.5 -62zM879 1444q-98 0 -161 62t-63 157q0 89 63.5 153t160.5 64t161 -64t64 -153q0 -95 -63.5 -157t-161.5 -62zM1190 371v-371h-1118v1372h1108v-371h-656v-151h600
v-328h-600v-151h666z" />
    <glyph glyph-name="Igrave" unicode="&#xcc;" horiz-adv-x="595" 
d="M362 1837l164 -344h-415l-281 344h532zM524 0h-452v1372h452v-1372z" />
    <glyph glyph-name="Iacute" unicode="&#xcd;" horiz-adv-x="595" 
d="M500 1493h-416l164 344h532zM524 0h-452v1372h452v-1372z" />
    <glyph glyph-name="Icircumflex" unicode="&#xce;" horiz-adv-x="595" 
d="M236 1493h-412l244 344h460l244 -344h-412l-61 90zM72 1372h452v-1372h-452v1372z" />
    <glyph glyph-name="Idieresis" unicode="&#xcf;" horiz-adv-x="595" 
d="M43 1880q97 0 161 -64t64 -153q0 -95 -63.5 -157t-161.5 -62t-160.5 61.5t-62.5 157.5q0 90 63.5 153.5t159.5 63.5zM555 1880q97 0 161 -64t64 -153q0 -95 -63.5 -157t-161.5 -62t-160.5 61.5t-62.5 157.5q0 90 63.5 153.5t159.5 63.5zM524 0h-452v1372h452v-1372z" />
    <glyph glyph-name="Eth" unicode="&#xd0;" horiz-adv-x="1495" 
d="M102 1372h617q335 0 540 -190t205 -496t-205 -496t-540 -190h-617v492h-82v380h82v500zM555 373h123q148 0 239 87.5t91 225.5t-91 225.5t-239 87.5h-123v-127h152v-380h-152v-119z" />
    <glyph glyph-name="Ntilde" unicode="&#xd1;" horiz-adv-x="1531" 
d="M682 1548q-32 0 -46.5 -10.5t-29.5 -44.5h-235q0 179 74.5 289t193.5 110q53 0 98 -18t81 -35.5t65 -17.5q32 0 46 12t29 49h236q0 -179 -75 -289t-195 -110q-66 0 -137 32.5t-105 32.5zM1460 1372v-1372h-370l-566 618v-618h-452v1372h370l566 -647v647h452z" />
    <glyph glyph-name="Ograve" unicode="&#xd2;" horiz-adv-x="1597" 
d="M610 1493l-280 344h532l164 -344h-416zM799 1403q155 0 293.5 -56t238 -151.5t157.5 -228.5t58 -281t-58 -281t-157.5 -228.5t-238 -151.5t-293.5 -56t-293.5 56t-238 151.5t-158 228.5t-58.5 281t58.5 281t158 228.5t238 151.5t293.5 56zM799 371q129 0 211 90t82 225
t-82 225t-211 90t-211 -90t-82 -225t82 -225t211 -90z" />
    <glyph glyph-name="Oacute" unicode="&#xd3;" horiz-adv-x="1597" 
d="M999 1493h-415l164 344h532zM799 1403q155 0 293.5 -56t238 -151.5t157.5 -228.5t58 -281t-58 -281t-157.5 -228.5t-238 -151.5t-293.5 -56t-293.5 56t-238 151.5t-158 228.5t-58.5 281t58.5 281t158 228.5t238 151.5t293.5 56zM799 371q129 0 211 90t82 225t-82 225
t-211 90t-211 -90t-82 -225t82 -225t211 -90z" />
    <glyph glyph-name="Ocircumflex" unicode="&#xd4;" horiz-adv-x="1597" 
d="M735 1493h-411l243 344h461l244 -344h-412l-61 90zM799 1403q155 0 293.5 -56t238 -151.5t157.5 -228.5t58 -281t-58 -281t-157.5 -228.5t-238 -151.5t-293.5 -56t-293.5 56t-238 151.5t-158 228.5t-58.5 281t58.5 281t158 228.5t238 151.5t293.5 56zM799 371
q129 0 211 90t82 225t-82 225t-211 90t-211 -90t-82 -225t82 -225t211 -90z" />
    <glyph glyph-name="Otilde" unicode="&#xd5;" horiz-adv-x="1597" 
d="M715 1548q-32 0 -46.5 -10.5t-29.5 -44.5h-236q0 179 75 289t194 110q53 0 98 -18t80.5 -35.5t64.5 -17.5q32 0 46.5 12t29.5 49h236q0 -179 -75 -289t-196 -110q-66 0 -136.5 32.5t-104.5 32.5zM799 1403q155 0 293.5 -56t238 -151.5t157.5 -228.5t58 -281t-58 -281
t-157.5 -228.5t-238 -151.5t-293.5 -56t-293.5 56t-238 151.5t-158 228.5t-58.5 281t58.5 281t158 228.5t238 151.5t293.5 56zM799 371q129 0 211 90t82 225t-82 225t-211 90t-211 -90t-82 -225t82 -225t211 -90z" />
    <glyph glyph-name="Odieresis" unicode="&#xd6;" horiz-adv-x="1597" 
d="M543 1444q-98 0 -161 62t-63 157q0 89 63.5 153t160.5 64t161 -64t64 -153q0 -95 -63.5 -157t-161.5 -62zM1055 1444q-98 0 -161 62t-63 157q0 89 63.5 153t160.5 64t161 -64t64 -153q0 -95 -63.5 -157t-161.5 -62zM799 1403q155 0 293.5 -56t238 -151.5t157.5 -228.5
t58 -281t-58 -281t-157.5 -228.5t-238 -151.5t-293.5 -56t-293.5 56t-238 151.5t-158 228.5t-58.5 281t58.5 281t158 228.5t238 151.5t293.5 56zM799 371q129 0 211 90t82 225t-82 225t-211 90t-211 -90t-82 -225t82 -225t211 -90z" />
    <glyph glyph-name="multiply" unicode="&#xd7;" horiz-adv-x="1101" 
d="M778 614l262 -260l-227 -227l-262 260l-262 -260l-228 227l263 260l-263 260l228 228l262 -260l262 260l227 -228z" />
    <glyph glyph-name="Oslash" unicode="&#xd8;" horiz-adv-x="1597" 
d="M1518 1210l-107 -106q135 -184 135 -418q0 -148 -58 -281t-157.5 -228.5t-238 -151.5t-293.5 -56q-226 0 -410 113l-135 -135l-174 174l125 125q-154 194 -154 440q0 148 58.5 281t158 228.5t238 151.5t293.5 56q244 0 434 -129l110 110zM506 686q0 -69 20 -119l404 404
q-58 30 -131 30q-129 0 -211 -90t-82 -225zM799 371q129 0 211 90t82 225q0 48 -11 88l-385 -385q47 -18 103 -18z" />
    <glyph glyph-name="Ugrave" unicode="&#xd9;" horiz-adv-x="1468" 
d="M545 1493l-281 344h533l164 -344h-416zM1386 1372v-747q0 -303 -176 -479.5t-467 -176.5q-300 0 -480.5 176.5t-180.5 479.5v747h455v-747q0 -122 55 -188t151 -66q87 0 138 66t51 188v747h454z" />
    <glyph glyph-name="Uacute" unicode="&#xda;" horiz-adv-x="1468" 
d="M934 1493h-416l164 344h532zM1386 1372v-747q0 -303 -176 -479.5t-467 -176.5q-300 0 -480.5 176.5t-180.5 479.5v747h455v-747q0 -122 55 -188t151 -66q87 0 138 66t51 188v747h454z" />
    <glyph glyph-name="Ucircumflex" unicode="&#xdb;" horiz-adv-x="1468" 
d="M670 1493h-412l244 344h461l243 -344h-411l-62 90zM1386 1372v-747q0 -303 -176 -479.5t-467 -176.5q-300 0 -480.5 176.5t-180.5 479.5v747h455v-747q0 -122 55 -188t151 -66q87 0 138 66t51 188v747h454z" />
    <glyph glyph-name="Udieresis" unicode="&#xdc;" horiz-adv-x="1468" 
d="M477 1444q-98 0 -160.5 61.5t-62.5 157.5q0 90 63.5 153.5t159.5 63.5q97 0 161 -64t64 -153q0 -95 -63.5 -157t-161.5 -62zM989 1444q-98 0 -160.5 61.5t-62.5 157.5q0 90 63.5 153.5t159.5 63.5q97 0 161 -64t64 -153q0 -95 -63.5 -157t-161.5 -62zM1386 1372v-747
q0 -303 -176 -479.5t-467 -176.5q-300 0 -480.5 176.5t-180.5 479.5v747h455v-747q0 -122 55 -188t151 -66q87 0 138 66t51 188v747h454z" />
    <glyph glyph-name="Yacute" unicode="&#xdd;" horiz-adv-x="1507" 
d="M954 1493h-415l163 344h533zM1507 1372l-526 -960v-412h-475v412l-506 960h494l262 -512l258 512h493z" />
    <glyph glyph-name="Thorn" unicode="&#xde;" horiz-adv-x="1337" 
d="M524 1171h254q233 0 375.5 -131.5t142.5 -345.5q0 -223 -153.5 -358t-405.5 -135h-213v-201h-452v1372h452v-201zM524 543h183q67 0 107 37.5t40 99.5q0 58 -40 93.5t-107 35.5h-183v-266z" />
    <glyph glyph-name="germandbls" unicode="&#xdf;" horiz-adv-x="1380" 
d="M1040 778q136 -31 223 -127t87 -241q0 -192 -130 -316.5t-341 -124.5q-148 0 -283 23l41 358q11 -1 30 -4.5t30.5 -5t30.5 -3t40 -1.5q57 0 95 33.5t38 85.5t-41.5 87.5t-107.5 35.5h-101v348h58q52 0 84 33t32 83q0 53 -37 84t-98 31q-80 0 -129 -52t-49 -138v-967h-440
v934q0 259 170 417t448 158q252 0 415 -115.5t163 -303.5q0 -120 -64.5 -205t-163.5 -107z" />
    <glyph glyph-name="agrave" unicode="&#xe0;" horiz-adv-x="1327" 
d="M512 1161l-281 344h533l164 -344h-416zM1255 1040v-1040h-440v86q-111 -117 -285 -117q-223 0 -361 152t-138 399t138 399t361 152q174 0 285 -117v86h440zM643 332q76 0 124 55.5t48 132.5q0 78 -48 133.5t-124 55.5q-77 0 -123.5 -55.5t-46.5 -133.5t46.5 -133
t123.5 -55z" />
    <glyph glyph-name="aacute" unicode="&#xe1;" horiz-adv-x="1327" 
d="M901 1161h-416l164 344h533zM1255 1040v-1040h-440v86q-111 -117 -285 -117q-223 0 -361 152t-138 399t138 399t361 152q174 0 285 -117v86h440zM643 332q76 0 124 55.5t48 132.5q0 78 -48 133.5t-124 55.5q-77 0 -123.5 -55.5t-46.5 -133.5t46.5 -133t123.5 -55z" />
    <glyph glyph-name="acircumflex" unicode="&#xe2;" horiz-adv-x="1327" 
d="M637 1161h-412l244 344h461l244 -344h-412l-62 90zM1255 1040v-1040h-440v86q-111 -117 -285 -117q-223 0 -361 152t-138 399t138 399t361 152q174 0 285 -117v86h440zM643 332q76 0 124 55.5t48 132.5q0 78 -48 133.5t-124 55.5q-77 0 -123.5 -55.5t-46.5 -133.5
t46.5 -133t123.5 -55z" />
    <glyph glyph-name="atilde" unicode="&#xe3;" horiz-adv-x="1327" 
d="M616 1217q-32 0 -46 -11t-29 -45h-236q0 179 74.5 289.5t193.5 110.5q53 0 98 -18t81 -36t65 -18q32 0 46.5 12t29.5 49h235q0 -179 -75 -289t-195 -110q-66 0 -137 33t-105 33zM1255 1040v-1040h-440v86q-111 -117 -285 -117q-223 0 -361 152t-138 399t138 399t361 152
q174 0 285 -117v86h440zM643 332q76 0 124 55.5t48 132.5q0 78 -48 133.5t-124 55.5q-77 0 -123.5 -55.5t-46.5 -133.5t46.5 -133t123.5 -55z" />
    <glyph glyph-name="adieresis" unicode="&#xe4;" horiz-adv-x="1327" 
d="M444 1112q-98 0 -160.5 61.5t-62.5 157.5q0 90 63.5 153.5t159.5 63.5q97 0 161.5 -64t64.5 -153q0 -95 -64 -157t-162 -62zM956 1112q-98 0 -160.5 61.5t-62.5 157.5q0 90 63.5 153.5t159.5 63.5q97 0 161.5 -64t64.5 -153q0 -95 -64 -157t-162 -62zM1255 1040v-1040
h-440v86q-111 -117 -285 -117q-223 0 -361 152t-138 399t138 399t361 152q174 0 285 -117v86h440zM643 332q76 0 124 55.5t48 132.5q0 78 -48 133.5t-124 55.5q-77 0 -123.5 -55.5t-46.5 -133.5t46.5 -133t123.5 -55z" />
    <glyph glyph-name="aring" unicode="&#xe5;" horiz-adv-x="1327" 
d="M700 1110q-121 0 -204.5 81t-83.5 198q0 118 83 199t205 81t205.5 -81t83.5 -199q0 -117 -84 -198t-205 -81zM700 1468q-34 0 -58 -23.5t-24 -55.5q0 -31 24.5 -54.5t57.5 -23.5t57.5 23.5t24.5 54.5q0 32 -24 55.5t-58 23.5zM1255 1040v-1040h-440v86
q-111 -117 -285 -117q-223 0 -361 152t-138 399t138 399t361 152q174 0 285 -117v86h440zM643 332q76 0 124 55.5t48 132.5q0 78 -48 133.5t-124 55.5q-77 0 -123.5 -55.5t-46.5 -133.5t46.5 -133t123.5 -55z" />
    <glyph glyph-name="ae" unicode="&#xe6;" horiz-adv-x="1812" 
d="M1782 416h-703q38 -121 154 -121q52 0 85 17.5t56 70.5l377 -78q-38 -149 -182 -242.5t-336 -93.5q-194 0 -350 105q-153 -105 -398 -105q-223 0 -344 85.5t-121 248.5q0 313 459 313h209v62q0 38 -24.5 62t-61.5 24q-79 0 -94 -86l-410 84q30 136 158 222.5t346 86.5
q198 0 326 -78q135 78 305 78q250 0 399.5 -153t149.5 -439v-63zM1079 616h283q-26 123 -135 123q-59 0 -95 -29.5t-53 -93.5zM686 408h-100q-113 0 -113 -72q0 -35 26.5 -55.5t69.5 -20.5q48 0 82.5 27.5t34.5 77.5v43z" />
    <glyph glyph-name="ccedilla" unicode="&#xe7;" horiz-adv-x="1200" 
d="M768 477l401 -69q-23 -163 -135 -275.5t-278 -148.5l-76 -312h-449l213 320q-183 49 -298 190.5t-115 337.5q0 161 79.5 288t213 195t294.5 68q139 0 257 -52.5t196 -151.5t96 -228l-399 -74q-10 67 -51 105.5t-99 38.5q-73 0 -119 -55.5t-46 -133.5t46 -133t119 -55
q58 0 99 38.5t51 106.5z" />
    <glyph glyph-name="egrave" unicode="&#xe8;" horiz-adv-x="1191" 
d="M424 1161l-281 344h533l164 -344h-416zM1161 416h-702q38 -121 153 -121q51 0 92 23t56 61l391 -76q-62 -165 -202.5 -249.5t-336.5 -84.5q-158 0 -290.5 68t-211.5 195t-79 288t79 288t211 195t289 68q252 0 401.5 -153t149.5 -439v-63zM610 741q-108 0 -149 -104h282
q-15 50 -51 77t-82 27z" />
    <glyph glyph-name="eacute" unicode="&#xe9;" horiz-adv-x="1191" 
d="M813 1161h-416l164 344h533zM1161 416h-702q38 -121 153 -121q51 0 92 23t56 61l391 -76q-62 -165 -202.5 -249.5t-336.5 -84.5q-158 0 -290.5 68t-211.5 195t-79 288t79 288t211 195t289 68q252 0 401.5 -153t149.5 -439v-63zM610 741q-108 0 -149 -104h282
q-15 50 -51 77t-82 27z" />
    <glyph glyph-name="ecircumflex" unicode="&#xea;" horiz-adv-x="1191" 
d="M549 1161h-412l244 344h461l243 -344h-411l-62 90zM1161 416h-702q38 -121 153 -121q51 0 92 23t56 61l391 -76q-62 -165 -202.5 -249.5t-336.5 -84.5q-158 0 -290.5 68t-211.5 195t-79 288t79 288t211 195t289 68q252 0 401.5 -153t149.5 -439v-63zM610 741
q-108 0 -149 -104h282q-15 50 -51 77t-82 27z" />
    <glyph glyph-name="edieresis" unicode="&#xeb;" horiz-adv-x="1191" 
d="M356 1112q-98 0 -160.5 61.5t-62.5 157.5q0 90 63.5 153.5t159.5 63.5q97 0 161.5 -64t64.5 -153q0 -95 -64 -157t-162 -62zM868 1112q-98 0 -160.5 61.5t-62.5 157.5q0 90 63.5 153.5t159.5 63.5q97 0 161.5 -64t64.5 -153q0 -95 -64 -157t-162 -62zM1161 416h-702
q38 -121 153 -121q51 0 92 23t56 61l391 -76q-62 -165 -202.5 -249.5t-336.5 -84.5q-158 0 -290.5 68t-211.5 195t-79 288t79 288t211 195t289 68q252 0 401.5 -153t149.5 -439v-63zM610 741q-108 0 -149 -104h282q-15 50 -51 77t-82 27z" />
    <glyph glyph-name="igrave" unicode="&#xec;" horiz-adv-x="612" 
d="M371 1505l164 -344h-416l-281 344h533zM526 0h-440v1040h440v-1040z" />
    <glyph glyph-name="iacute" unicode="&#xed;" horiz-adv-x="612" 
d="M508 1161h-416l164 344h532zM526 0h-440v1040h440v-1040z" />
    <glyph glyph-name="icircumflex" unicode="&#xee;" horiz-adv-x="612" 
d="M244 1161h-412l244 344h461l243 -344h-411l-62 90zM86 1040h440v-1040h-440v1040z" />
    <glyph glyph-name="idieresis" unicode="&#xef;" horiz-adv-x="612" 
d="M51 1548q97 0 161 -64t64 -153q0 -95 -63.5 -157t-161.5 -62t-160.5 61.5t-62.5 157.5q0 90 63.5 153.5t159.5 63.5zM563 1548q97 0 161 -64t64 -153q0 -95 -63.5 -157t-161.5 -62t-160.5 61.5t-62.5 157.5q0 90 63.5 153.5t159.5 63.5zM526 0h-440v1040h440v-1040z" />
    <glyph glyph-name="eth" unicode="&#xf0;" horiz-adv-x="1243" 
d="M1020 1333l-131 -49q323 -378 323 -760q0 -118 -35.5 -214t-93 -158t-135 -104.5t-157.5 -60.5t-164 -18q-162 0 -297.5 67t-217 194.5t-81.5 289.5q0 161 68.5 287.5t187.5 195.5t266 68q51 0 86 -12q-28 28 -107 90l-262 -100l-71 163l139 54q-22 11 -281 127v82h641
q4 -4 22.5 -20.5t33.5 -29.5l194 74zM623 332q73 0 121.5 56.5t48.5 133.5t-48.5 132t-121.5 55t-121.5 -56t-48.5 -133t48.5 -132.5t121.5 -55.5z" />
    <glyph glyph-name="ntilde" unicode="&#xf1;" horiz-adv-x="1273" 
d="M553 1217q-32 0 -46.5 -11t-29.5 -45h-235q0 179 74.5 289.5t193.5 110.5q53 0 98 -18t81 -36t65 -18q32 0 46 12t29 49h236q0 -179 -75 -289t-195 -110q-66 0 -137 33t-105 33zM817 1071q172 0 275.5 -112.5t103.5 -309.5v-649h-440v555q0 57 -32 92t-83 35
q-58 0 -93.5 -42.5t-35.5 -113.5v-526h-440v1040h440v-112q124 143 305 143z" />
    <glyph glyph-name="ograve" unicode="&#xf2;" horiz-adv-x="1245" 
d="M434 1161l-280 344h532l164 -344h-416zM623 1071q161 0 295.5 -68t215 -195t80.5 -288t-80.5 -288t-215 -195t-295.5 -68t-295.5 68t-215.5 195t-81 288t81 288t215.5 195t295.5 68zM623 332q73 0 121.5 55.5t48.5 132.5t-48.5 133t-121.5 56t-121.5 -56t-48.5 -133
t48.5 -132.5t121.5 -55.5z" />
    <glyph glyph-name="oacute" unicode="&#xf3;" horiz-adv-x="1245" 
d="M823 1161h-415l163 344h533zM623 1071q161 0 295.5 -68t215 -195t80.5 -288t-80.5 -288t-215 -195t-295.5 -68t-295.5 68t-215.5 195t-81 288t81 288t215.5 195t295.5 68zM623 332q73 0 121.5 55.5t48.5 132.5t-48.5 133t-121.5 56t-121.5 -56t-48.5 -133t48.5 -132.5
t121.5 -55.5z" />
    <glyph glyph-name="ocircumflex" unicode="&#xf4;" horiz-adv-x="1245" 
d="M559 1161h-412l244 344h461l244 -344h-412l-61 90zM623 1071q161 0 295.5 -68t215 -195t80.5 -288t-80.5 -288t-215 -195t-295.5 -68t-295.5 68t-215.5 195t-81 288t81 288t215.5 195t295.5 68zM623 332q73 0 121.5 55.5t48.5 132.5t-48.5 133t-121.5 56t-121.5 -56
t-48.5 -133t48.5 -132.5t121.5 -55.5z" />
    <glyph glyph-name="otilde" unicode="&#xf5;" horiz-adv-x="1245" 
d="M539 1217q-32 0 -46.5 -11t-29.5 -45h-236q0 179 75 289.5t194 110.5q53 0 98 -18t80.5 -36t64.5 -18q32 0 46.5 12t29.5 49h236q0 -179 -75 -289t-196 -110q-66 0 -136.5 33t-104.5 33zM623 1071q161 0 295.5 -68t215 -195t80.5 -288t-80.5 -288t-215 -195t-295.5 -68
t-295.5 68t-215.5 195t-81 288t81 288t215.5 195t295.5 68zM623 332q73 0 121.5 55.5t48.5 132.5t-48.5 133t-121.5 56t-121.5 -56t-48.5 -133t48.5 -132.5t121.5 -55.5z" />
    <glyph glyph-name="odieresis" unicode="&#xf6;" horiz-adv-x="1245" 
d="M367 1112q-98 0 -161 62t-63 157q0 89 63.5 153t160.5 64t161 -64t64 -153q0 -95 -63.5 -157t-161.5 -62zM879 1112q-98 0 -161 62t-63 157q0 89 63.5 153t160.5 64t161 -64t64 -153q0 -95 -63.5 -157t-161.5 -62zM623 1071q161 0 295.5 -68t215 -195t80.5 -288
t-80.5 -288t-215 -195t-295.5 -68t-295.5 68t-215.5 195t-81 288t81 288t215.5 195t295.5 68zM623 332q73 0 121.5 55.5t48.5 132.5t-48.5 133t-121.5 56t-121.5 -56t-48.5 -133t48.5 -132.5t121.5 -55.5z" />
    <glyph glyph-name="divide" unicode="&#xf7;" horiz-adv-x="1146" 
d="M573 1280q83 0 138 -57.5t55 -135.5q0 -82 -54.5 -137t-138.5 -55t-138 55t-54 137q0 79 54.5 136t137.5 57zM1085 512h-1024v328h1024v-328zM573 453q83 0 138 -57.5t55 -135.5q0 -82 -54.5 -137t-138.5 -55t-138 55t-54 137q0 79 54.5 136t137.5 57z" />
    <glyph glyph-name="oslash" unicode="&#xf8;" horiz-adv-x="1245" 
d="M1192 956l-96 -96q118 -144 118 -340q0 -161 -80.5 -288t-215 -195t-295.5 -68q-185 0 -330 88l-121 -120l-131 131l111 110q-121 143 -121 342q0 161 81 288t215.5 195t295.5 68q183 0 331 -90l107 106zM453 520q0 -13 4 -37l217 217q-24 9 -51 9q-73 0 -121.5 -56
t-48.5 -133zM623 332q73 0 121.5 55.5t48.5 132.5q0 23 -2 35l-216 -215q19 -8 48 -8z" />
    <glyph glyph-name="ugrave" unicode="&#xf9;" horiz-adv-x="1273" 
d="M451 1161l-281 344h532l164 -344h-415zM1202 1040v-1040h-440v113q-125 -144 -305 -144q-172 0 -275.5 112.5t-103.5 309.5v649h440v-555q0 -57 32 -92t83 -35q58 0 93.5 42.5t35.5 113.5v526h440z" />
    <glyph glyph-name="uacute" unicode="&#xfa;" horiz-adv-x="1273" 
d="M840 1161h-416l164 344h532zM1202 1040v-1040h-440v113q-125 -144 -305 -144q-172 0 -275.5 112.5t-103.5 309.5v649h440v-555q0 -57 32 -92t83 -35q58 0 93.5 42.5t35.5 113.5v526h440z" />
    <glyph glyph-name="ucircumflex" unicode="&#xfb;" horiz-adv-x="1273" 
d="M575 1161h-411l244 344h460l244 -344h-412l-61 90zM1202 1040v-1040h-440v113q-125 -144 -305 -144q-172 0 -275.5 112.5t-103.5 309.5v649h440v-555q0 -57 32 -92t83 -35q58 0 93.5 42.5t35.5 113.5v526h440z" />
    <glyph glyph-name="udieresis" unicode="&#xfc;" horiz-adv-x="1273" 
d="M383 1112q-98 0 -160.5 61.5t-62.5 157.5q0 90 63.5 153.5t159.5 63.5q97 0 161 -64t64 -153q0 -95 -63.5 -157t-161.5 -62zM895 1112q-98 0 -160.5 61.5t-62.5 157.5q0 90 63.5 153.5t159.5 63.5q97 0 161 -64t64 -153q0 -95 -63.5 -157t-161.5 -62zM1202 1040v-1040
h-440v113q-125 -144 -305 -144q-172 0 -275.5 112.5t-103.5 309.5v649h440v-555q0 -57 32 -92t83 -35q58 0 93.5 42.5t35.5 113.5v526h440z" />
    <glyph glyph-name="yacute" unicode="&#xfd;" horiz-adv-x="1318" 
d="M864 1161h-415l163 344h533zM1319 1040l-598 -1388h-457l168 387l-432 1001h457l194 -491l211 491h457z" />
    <glyph glyph-name="thorn" unicode="&#xfe;" horiz-adv-x="1327" 
d="M797 1071q223 0 361 -152t138 -399t-138 -399t-361 -152q-174 0 -285 117v-434h-440v1823h440v-521q111 117 285 117zM684 332q77 0 123.5 55t46.5 133t-46.5 133.5t-123.5 55.5q-76 0 -124 -55.5t-48 -133.5q0 -77 48 -132.5t124 -55.5z" />
    <glyph glyph-name="ydieresis" unicode="&#xff;" horiz-adv-x="1318" 
d="M408 1112q-98 0 -161 62t-63 157q0 89 64 153t160 64q97 0 161 -64t64 -153q0 -95 -63.5 -157t-161.5 -62zM920 1112q-98 0 -161 62t-63 157q0 89 64 153t160 64q97 0 161 -64t64 -153q0 -95 -63.5 -157t-161.5 -62zM1319 1040l-598 -1388h-457l168 387l-432 1001h457
l194 -491l211 491h457z" />
    <glyph glyph-name="Amacron" unicode="&#x100;" horiz-adv-x="1585" 
d="M1161 1493h-733v319h733v-319zM1585 0h-483l-55 166h-506l-58 -166h-483l532 1372h521zM922 535l-127 372l-127 -372h254z" />
    <glyph glyph-name="amacron" unicode="&#x101;" horiz-adv-x="1327" 
d="M1067 1161h-733v320h733v-320zM1255 1040v-1040h-440v86q-111 -117 -285 -117q-223 0 -361 152t-138 399t138 399t361 152q174 0 285 -117v86h440zM643 332q76 0 124 55.5t48 132.5q0 78 -48 133.5t-124 55.5q-77 0 -123.5 -55.5t-46.5 -133.5t46.5 -133t123.5 -55z" />
    <glyph glyph-name="Abreve" unicode="&#x102;" horiz-adv-x="1585" 
d="M795 1462q-181 0 -294.5 100t-113.5 261h326q0 -28 22 -50t60 -22q40 0 62 22t22 50h323q0 -161 -113.5 -261t-293.5 -100zM1585 0h-483l-55 166h-506l-58 -166h-483l532 1372h521zM922 535l-127 372l-127 -372h254z" />
    <glyph glyph-name="abreve" unicode="&#x103;" horiz-adv-x="1327" 
d="M700 1130q-180 0 -293.5 100t-113.5 261h325q0 -28 22 -50t60 -22q40 0 62 22t22 50h324q0 -161 -113.5 -261t-294.5 -100zM1255 1040v-1040h-440v86q-111 -117 -285 -117q-223 0 -361 152t-138 399t138 399t361 152q174 0 285 -117v86h440zM643 332q76 0 124 55.5
t48 132.5q0 78 -48 133.5t-124 55.5q-77 0 -123.5 -55.5t-46.5 -133.5t46.5 -133t123.5 -55z" />
    <glyph glyph-name="Aogonek" unicode="&#x104;" horiz-adv-x="1585" 
d="M1645 -166l14 -231q-104 -52 -223 -52q-109 0 -177.5 56.5t-68.5 148.5q0 62 33.5 128t89.5 116h-211l-55 166h-506l-58 -166h-483l532 1372h521l532 -1372l-12 -12q-57 -57 -75.5 -80t-18.5 -45q0 -47 57 -47q43 0 109 18zM922 535l-127 372l-127 -372h254z" />
    <glyph glyph-name="aogonek" unicode="&#x105;" horiz-adv-x="1327" 
d="M1315 -166l14 -231q-104 -52 -223 -52q-109 0 -177.5 56.5t-68.5 148.5q0 62 33.5 128t89.5 116h-168v86q-111 -117 -285 -117q-223 0 -361 152t-138 399t138 399t361 152q174 0 285 -117v86h440v-1040l-12 -12q-57 -57 -75.5 -80t-18.5 -45q0 -47 57 -47q43 0 109 18z
M643 332q76 0 124 55.5t48 132.5q0 78 -48 133.5t-124 55.5q-77 0 -123.5 -55.5t-46.5 -133.5t46.5 -133t123.5 -55z" />
    <glyph glyph-name="Cacute" unicode="&#x106;" horiz-adv-x="1570" 
d="M999 1493h-415l164 344h532zM1065 590l455 -86q-42 -246 -234 -390.5t-487 -144.5q-155 0 -293.5 56t-238 151.5t-158 228.5t-58.5 281t58.5 281t158 228.5t238 151.5t293.5 56q176 0 328.5 -63.5t257 -183.5t133.5 -275l-455 -82q-24 95 -91.5 148.5t-172.5 53.5
q-123 0 -208 -91t-85 -224t85 -224t208 -91q103 0 171 58t95 161z" />
    <glyph glyph-name="cacute" unicode="&#x107;" horiz-adv-x="1200" 
d="M819 1161h-416l164 344h533zM768 477l401 -69q-18 -130 -96 -231t-196.5 -154.5t-258.5 -53.5q-161 0 -294.5 68t-213 195t-79.5 288t79.5 288t213 195t294.5 68q139 0 257 -52.5t196 -151.5t96 -228l-399 -74q-10 67 -51 105.5t-99 38.5q-73 0 -119 -55.5t-46 -133.5
t46 -133t119 -55q58 0 99 38.5t51 106.5z" />
    <glyph glyph-name="Cdotaccent" unicode="&#x10a;" horiz-adv-x="1570" 
d="M797 1454q-103 0 -168.5 64.5t-65.5 164.5q0 94 66.5 162t167.5 68t168 -68t67 -162q0 -100 -66 -164.5t-169 -64.5zM1065 590l455 -86q-42 -246 -234 -390.5t-487 -144.5q-155 0 -293.5 56t-238 151.5t-158 228.5t-58.5 281t58.5 281t158 228.5t238 151.5t293.5 56
q176 0 328.5 -63.5t257 -183.5t133.5 -275l-455 -82q-24 95 -91.5 148.5t-172.5 53.5q-123 0 -208 -91t-85 -224t85 -224t208 -91q103 0 171 58t95 161z" />
    <glyph glyph-name="cdotaccent" unicode="&#x10b;" horiz-adv-x="1200" 
d="M616 1122q-102 0 -167.5 65t-65.5 165q0 94 66 161.5t167 67.5t168.5 -67.5t67.5 -161.5q0 -100 -66.5 -165t-169.5 -65zM768 477l401 -69q-18 -130 -96 -231t-196.5 -154.5t-258.5 -53.5q-161 0 -294.5 68t-213 195t-79.5 288t79.5 288t213 195t294.5 68
q139 0 257 -52.5t196 -151.5t96 -228l-399 -74q-10 67 -51 105.5t-99 38.5q-73 0 -119 -55.5t-46 -133.5t46 -133t119 -55q58 0 99 38.5t51 106.5z" />
    <glyph glyph-name="Ccaron" unicode="&#x10c;" horiz-adv-x="1570" 
d="M567 1493l-243 344h411l64 -90l61 90h412l-244 -344h-461zM1065 590l455 -86q-42 -246 -234 -390.5t-487 -144.5q-155 0 -293.5 56t-238 151.5t-158 228.5t-58.5 281t58.5 281t158 228.5t238 151.5t293.5 56q176 0 328.5 -63.5t257 -183.5t133.5 -275l-455 -82
q-24 95 -91.5 148.5t-172.5 53.5q-123 0 -208 -91t-85 -224t85 -224t208 -91q103 0 171 58t95 161z" />
    <glyph glyph-name="ccaron" unicode="&#x10d;" horiz-adv-x="1200" 
d="M387 1161l-244 344h412l63 -90l62 90h412l-244 -344h-461zM768 477l401 -69q-18 -130 -96 -231t-196.5 -154.5t-258.5 -53.5q-161 0 -294.5 68t-213 195t-79.5 288t79.5 288t213 195t294.5 68q139 0 257 -52.5t196 -151.5t96 -228l-399 -74q-10 67 -51 105.5t-99 38.5
q-73 0 -119 -55.5t-46 -133.5t46 -133t119 -55q58 0 99 38.5t51 106.5z" />
    <glyph glyph-name="Dcaron" unicode="&#x10e;" horiz-adv-x="1484" 
d="M489 1493l-243 344h411l64 -90l61 90h412l-244 -344h-461zM72 1372h616q335 0 540.5 -190t205.5 -496t-205.5 -496t-540.5 -190h-616v1372zM524 373h123q148 0 239 87.5t91 225.5t-91 225.5t-239 87.5h-123v-626z" />
    <glyph glyph-name="dcaron" unicode="&#x10f;" horiz-adv-x="1327" 
d="M815 1475h440v-1475h-440v86q-111 -117 -285 -117q-223 0 -361 152t-138 399t138 399t361 152q174 0 285 -117v521zM1724 1475l-96 -410h-282v410h378zM643 332q76 0 124 55.5t48 132.5q0 78 -48 133.5t-124 55.5q-77 0 -123.5 -55.5t-46.5 -133.5t46.5 -133t123.5 -55z
" />
    <glyph glyph-name="Dcroat" unicode="&#x110;" horiz-adv-x="1495" 
d="M102 1372h617q335 0 540 -190t205 -496t-205 -496t-540 -190h-617v492h-82v380h82v500zM555 373h123q148 0 239 87.5t91 225.5t-91 225.5t-239 87.5h-123v-127h152v-380h-152v-119z" />
    <glyph glyph-name="dcroat" unicode="&#x111;" horiz-adv-x="1337" 
d="M1317 1092h-62v-1092h-440v86q-111 -117 -285 -117q-223 0 -361 152t-138 399t138 399t361 152q174 0 285 -117v138h-231v299h231v84h440v-84h62v-299zM643 332q76 0 124 55.5t48 132.5q0 78 -48 133.5t-124 55.5q-77 0 -123.5 -55.5t-46.5 -133.5t46.5 -133t123.5 -55z
" />
    <glyph glyph-name="Emacron" unicode="&#x112;" horiz-adv-x="1245" 
d="M989 1493h-733v319h733v-319zM1190 371v-371h-1118v1372h1108v-371h-656v-151h600v-328h-600v-151h666z" />
    <glyph glyph-name="emacron" unicode="&#x113;" horiz-adv-x="1191" 
d="M979 1161h-733v320h733v-320zM1161 416h-702q38 -121 153 -121q51 0 92 23t56 61l391 -76q-62 -165 -202.5 -249.5t-336.5 -84.5q-158 0 -290.5 68t-211.5 195t-79 288t79 288t211 195t289 68q252 0 401.5 -153t149.5 -439v-63zM610 741q-108 0 -149 -104h282
q-15 50 -51 77t-82 27z" />
    <glyph glyph-name="Edotaccent" unicode="&#x116;" horiz-adv-x="1245" 
d="M621 1454q-103 0 -168.5 64.5t-65.5 164.5q0 94 66.5 162t167.5 68t168 -68t67 -162q0 -100 -66 -164.5t-169 -64.5zM1190 371v-371h-1118v1372h1108v-371h-656v-151h600v-328h-600v-151h666z" />
    <glyph glyph-name="edotaccent" unicode="&#x117;" horiz-adv-x="1191" 
d="M610 1122q-102 0 -167.5 65t-65.5 165q0 94 66 161.5t167 67.5t168.5 -67.5t67.5 -161.5q0 -100 -66.5 -165t-169.5 -65zM1161 416h-702q38 -121 153 -121q51 0 92 23t56 61l391 -76q-62 -165 -202.5 -249.5t-336.5 -84.5q-158 0 -290.5 68t-211.5 195t-79 288t79 288
t211 195t289 68q252 0 401.5 -153t149.5 -439v-63zM610 741q-108 0 -149 -104h282q-15 50 -51 77t-82 27z" />
    <glyph glyph-name="Eogonek" unicode="&#x118;" horiz-adv-x="1245" 
d="M1190 0h-86q-81 -81 -94 -100.5t-13 -36.5q0 -47 58 -47q42 0 108 18l15 -231q-104 -52 -224 -52q-109 0 -177 56.5t-68 148.5q0 63 33 128.5t89 115.5h-759v1372h1108v-371h-656v-151h600v-328h-600v-151h666v-371z" />
    <glyph glyph-name="eogonek" unicode="&#x119;" horiz-adv-x="1191" 
d="M1161 416h-704q32 -121 155 -121q50 0 86 18t62 66l391 -76q-41 -89 -152 -203q-7 -7 -27 -27.5t-28 -29.5t-24 -27.5t-23 -31.5t-16.5 -31t-13 -36t-3.5 -38q0 -63 60 -63q40 0 106 18l14 -231q-104 -52 -223 -52q-112 0 -182 54.5t-70 150.5q0 105 99 215
q-18 -2 -56 -2q-158 0 -290.5 68t-211.5 195t-79 288t79 288t211.5 195t290.5 68q250 0 399.5 -153t149.5 -439v-63zM455 637h286q-15 55 -47.5 79.5t-91.5 24.5q-47 0 -87.5 -29t-59.5 -75z" />
    <glyph glyph-name="Ecaron" unicode="&#x11a;" horiz-adv-x="1245" 
d="M391 1493l-244 344h412l64 -90l61 90h412l-244 -344h-461zM1190 371v-371h-1118v1372h1108v-371h-656v-151h600v-328h-600v-151h666z" />
    <glyph glyph-name="ecaron" unicode="&#x11b;" horiz-adv-x="1191" 
d="M381 1161l-244 344h412l63 -90l62 90h411l-243 -344h-461zM1161 416h-702q38 -121 153 -121q51 0 92 23t56 61l391 -76q-62 -165 -202.5 -249.5t-336.5 -84.5q-158 0 -290.5 68t-211.5 195t-79 288t79 288t211 195t289 68q252 0 401.5 -153t149.5 -439v-63zM610 741
q-108 0 -149 -104h282q-15 50 -51 77t-82 27z" />
    <glyph glyph-name="Gbreve" unicode="&#x11e;" horiz-adv-x="1601" 
d="M809 1462q-181 0 -294.5 100t-113.5 261h326q0 -28 22 -50t60 -22q40 0 62 22t22 50h324q0 -161 -113.5 -261t-294.5 -100zM772 827h768q10 -95 10 -141q0 -212 -94.5 -375.5t-263 -252.5t-383.5 -89q-157 0 -297.5 56t-241.5 151.5t-160 228.5t-59 281t59 281t160 228.5
t241.5 151.5t297.5 56q253 0 437.5 -110t252.5 -300l-475 -106q-58 114 -215 114q-133 0 -218 -90t-85 -225t85 -225t218 -90q159 0 240 100h-277v356z" />
    <glyph glyph-name="gbreve" unicode="&#x11f;" horiz-adv-x="1325" 
d="M686 1130q-180 0 -293.5 100t-113.5 261h325q0 -28 22 -50t60 -22q40 0 62 22t22 50h324q0 -161 -113.5 -261t-294.5 -100zM1253 1040v-931q0 -156 -89 -271t-231.5 -171t-316.5 -56q-379 0 -548 295l376 108q49 -53 85.5 -68.5t82.5 -15.5q85 0 143 43.5t58 135.5v59
q-105 -111 -285 -111q-223 0 -360 140.5t-137 371.5q0 226 137 364t360 138q180 0 285 -108v77h440zM641 397q75 0 122.5 51t47.5 121q0 71 -47 121.5t-123 50.5q-77 0 -123.5 -50t-46.5 -122q0 -71 46.5 -121.5t123.5 -50.5z" />
    <glyph glyph-name="Gdotaccent" unicode="&#x120;" horiz-adv-x="1601" 
d="M807 1454q-103 0 -168.5 64.5t-65.5 164.5q0 94 66.5 162t167.5 68t168 -68t67 -162q0 -100 -66 -164.5t-169 -64.5zM772 827h768q10 -95 10 -141q0 -212 -94.5 -375.5t-263 -252.5t-383.5 -89q-157 0 -297.5 56t-241.5 151.5t-160 228.5t-59 281t59 281t160 228.5
t241.5 151.5t297.5 56q253 0 437.5 -110t252.5 -300l-475 -106q-58 114 -215 114q-133 0 -218 -90t-85 -225t85 -225t218 -90q159 0 240 100h-277v356z" />
    <glyph glyph-name="gdotaccent" unicode="&#x121;" horiz-adv-x="1325" 
d="M684 1122q-102 0 -167.5 65t-65.5 165q0 94 66 161.5t167 67.5t168.5 -67.5t67.5 -161.5q0 -100 -66.5 -165t-169.5 -65zM1253 1040v-931q0 -156 -89 -271t-231.5 -171t-316.5 -56q-379 0 -548 295l376 108q49 -53 85.5 -68.5t82.5 -15.5q85 0 143 43.5t58 135.5v59
q-105 -111 -285 -111q-223 0 -360 140.5t-137 371.5q0 226 137 364t360 138q180 0 285 -108v77h440zM641 397q75 0 122.5 51t47.5 121q0 71 -47 121.5t-123 50.5q-77 0 -123.5 -50t-46.5 -122q0 -71 46.5 -121.5t123.5 -50.5z" />
    <glyph glyph-name="Gcommaaccent" unicode="&#x122;" horiz-adv-x="1601" 
d="M772 827h768q10 -95 10 -141q0 -212 -94.5 -375.5t-263 -252.5t-383.5 -89q-157 0 -297.5 56t-241.5 151.5t-160 228.5t-59 281t59 281t160 228.5t241.5 151.5t297.5 56q253 0 437.5 -110t252.5 -300l-475 -106q-58 114 -215 114q-133 0 -218 -90t-85 -225t85 -225
t218 -90q159 0 240 100h-277v356zM596 -92h412l-211 -348h-297z" />
    <glyph glyph-name="gcommaaccent" unicode="&#x123;" horiz-adv-x="1302" 
d="M870 1155h-411l211 348h297zM1253 1040v-931q0 -156 -89 -271t-231.5 -171t-316.5 -56q-379 0 -548 295l376 108q49 -53 85.5 -68.5t82.5 -15.5q85 0 143 43.5t58 135.5v59q-105 -111 -285 -111q-223 0 -360 140.5t-137 371.5q0 226 137 364t360 138q180 0 285 -108v77
h440zM641 397q75 0 122.5 51t47.5 121q0 71 -47 121.5t-123 50.5q-77 0 -123.5 -50t-46.5 -122q0 -71 46.5 -121.5t123.5 -50.5z" />
    <glyph glyph-name="Hbar" unicode="&#x126;" horiz-adv-x="1533" 
d="M1513 874h-81v-874h-453v393h-424v-393h-453v874h-82v320h82v178h453v-178h424v178h453v-178h81v-320zM979 874h-424v-141h424v141z" />
    <glyph glyph-name="hbar" unicode="&#x127;" horiz-adv-x="1304" 
d="M850 1071q171 0 274 -112.5t103 -309.5v-649h-441v555q0 57 -32 92t-84 35q-57 0 -92 -43t-35 -113v-526h-441v1112h-82v279h82v84h441v-84h211v-279h-211v-184q124 143 307 143z" />
    <glyph glyph-name="Imacron" unicode="&#x12a;" horiz-adv-x="595" 
d="M666 1493h-734v319h734v-319zM524 0h-452v1372h452v-1372z" />
    <glyph glyph-name="imacron" unicode="&#x12b;" horiz-adv-x="612" 
d="M674 1161h-733v320h733v-320zM526 0h-440v1040h440v-1040z" />
    <glyph glyph-name="Iogonek" unicode="&#x12e;" horiz-adv-x="595" 
d="M584 -166l14 -231q-104 -52 -223 -52q-109 0 -177.5 56.5t-68.5 148.5q0 62 33.5 128t89.5 116h-180v1372h452v-1372l-12 -12q-57 -57 -75.5 -80t-18.5 -45q0 -47 57 -47q43 0 109 18z" />
    <glyph glyph-name="iogonek" unicode="&#x12f;" horiz-adv-x="612" 
d="M305 1122q-102 0 -167.5 65t-65.5 165q0 94 66 161.5t167 67.5t168.5 -67.5t67.5 -161.5q0 -100 -66.5 -165t-169.5 -65zM586 -166l14 -231q-104 -52 -223 -52q-109 0 -177.5 56.5t-68.5 148.5q0 62 33.5 128t89.5 116h-168v1040h440v-1040l-12 -12q-57 -57 -75.5 -80
t-18.5 -45q0 -47 57 -47q43 0 109 18z" />
    <glyph glyph-name="Idotaccent" unicode="&#x130;" horiz-adv-x="595" 
d="M297 1913q101 0 168 -68t67 -162q0 -100 -66 -164.5t-169 -64.5t-168.5 64.5t-65.5 164.5q0 94 66.5 162t167.5 68zM524 0h-452v1372h452v-1372z" />
    <glyph glyph-name="dotlessi" unicode="&#x131;" horiz-adv-x="612" 
d="M526 0h-440v1040h440v-1040z" />
    <glyph glyph-name="IJ" unicode="&#x132;" horiz-adv-x="1890" 
d="M72 1372h452v-1372h-452v1372zM1808 1372v-862q0 -244 -163.5 -392.5t-432.5 -148.5q-252 0 -406.5 131t-184.5 357l452 88q7 -94 41 -134t98 -40t103 37t39 102v862h454z" />
    <glyph glyph-name="ij" unicode="&#x133;" horiz-adv-x="1271" 
d="M311 1575q104 0 173 -69t69 -165q0 -100 -68.5 -166.5t-173.5 -66.5t-172 66t-67 167q0 96 68 165t171 69zM958 1575q104 0 173 -69t69 -165q0 -100 -68.5 -166.5t-173.5 -66.5t-172 66t-67 167q0 96 68 165t171 69zM532 0h-440v1040h440v-1040zM563 -315l53 299
q51 -7 60 -7q29 0 46 23t17 61v979h441v-1013q0 -178 -106 -287t-279 -109q-122 0 -232 54z" />
    <glyph glyph-name="Kcommaaccent" unicode="&#x136;" horiz-adv-x="1460" 
d="M1481 0h-576l-319 451h-62v-451h-452v1372h452v-491h43l351 491h526l-488 -690zM506 -92h412l-211 -348h-297z" />
    <glyph glyph-name="kcommaaccent" unicode="&#x137;" horiz-adv-x="1312" 
d="M1333 0h-536l-224 315h-61v-315h-440v1475h440v-770h39l242 335h507l-368 -493zM467 -92h412l-211 -348h-297z" />
    <glyph glyph-name="Lacute" unicode="&#x139;" horiz-adv-x="1179" 
d="M514 1493h-416l164 344h533zM1139 381v-381h-1067v1372h452v-991h615z" />
    <glyph glyph-name="lacute" unicode="&#x13a;" horiz-adv-x="583" 
d="M504 1595h-416l164 344h532zM512 0h-440v1475h440v-1475z" />
    <glyph glyph-name="Lcommaaccent" unicode="&#x13b;" horiz-adv-x="1179" 
d="M1139 381v-381h-1067v1372h452v-991h615zM428 -92h412l-211 -348h-297z" />
    <glyph glyph-name="lcommaaccent" unicode="&#x13c;" horiz-adv-x="583" 
d="M512 0h-440v1475h440v-1475zM-4 -440l96 348h412l-211 -348h-297z" />
    <glyph glyph-name="Lcaron" unicode="&#x13d;" horiz-adv-x="1179" 
d="M1139 381v-381h-1067v1372h452v-991h615zM950 963h-282v409h379z" />
    <glyph glyph-name="lcaron" unicode="&#x13e;" horiz-adv-x="583" 
d="M512 0h-440v1475h440v-1475zM897 1065h-283v410h379z" />
    <glyph glyph-name="Ldot" unicode="&#x13f;" horiz-adv-x="1241" 
d="M1139 381v-381h-1067v1372h452v-991h615zM877 537q-103 0 -168.5 64.5t-65.5 164.5q0 94 66.5 161.5t167.5 67.5t168 -67.5t67 -161.5q0 -100 -66 -164.5t-169 -64.5z" />
    <glyph glyph-name="ldot" unicode="&#x140;" horiz-adv-x="1040" 
d="M512 0h-440v1475h440v-1475zM795 995q101 0 168 -67.5t67 -161.5q0 -100 -66 -164.5t-169 -64.5t-168.5 64.5t-65.5 164.5q0 94 66.5 161.5t167.5 67.5z" />
    <glyph glyph-name="Lslash" unicode="&#x141;" horiz-adv-x="1251" 
d="M1180 381v-381h-1067v463l-93 -41v362l93 41v547h452v-350l162 70v-363l-162 -70v-278h615z" />
    <glyph glyph-name="lslash" unicode="&#x142;" horiz-adv-x="665" 
d="M645 729l-92 -45v-684h-440v467l-93 -45v403l93 45v605h440v-388l92 46v-404z" />
    <glyph glyph-name="Nacute" unicode="&#x143;" horiz-adv-x="1531" 
d="M967 1493h-416l164 344h532zM1460 1372v-1372h-370l-566 618v-618h-452v1372h370l566 -647v647h452z" />
    <glyph glyph-name="nacute" unicode="&#x144;" horiz-adv-x="1273" 
d="M838 1161h-416l164 344h532zM817 1071q172 0 275.5 -112.5t103.5 -309.5v-649h-440v555q0 57 -32 92t-83 35q-58 0 -93.5 -42.5t-35.5 -113.5v-526h-440v1040h440v-112q124 143 305 143z" />
    <glyph glyph-name="Ncommaaccent" unicode="&#x145;" horiz-adv-x="1531" 
d="M1460 1372v-1372h-370l-566 618v-618h-452v1372h370l566 -647v647h452zM594 -92h412l-211 -348h-297z" />
    <glyph glyph-name="ncommaaccent" unicode="&#x146;" horiz-adv-x="1273" 
d="M817 1071q172 0 275.5 -112.5t103.5 -309.5v-649h-440v555q0 57 -32 92t-83 35q-58 0 -93.5 -42.5t-35.5 -113.5v-526h-440v1040h440v-112q124 143 305 143zM422 -92h412l-211 -348h-297z" />
    <glyph glyph-name="Ncaron" unicode="&#x147;" horiz-adv-x="1531" 
d="M535 1493l-244 344h411l64 -90l61 90h412l-244 -344h-460zM1460 1372v-1372h-370l-566 618v-618h-452v1372h370l566 -647v647h452z" />
    <glyph glyph-name="ncaron" unicode="&#x148;" horiz-adv-x="1273" 
d="M406 1161l-244 344h411l64 -90l61 90h412l-244 -344h-460zM817 1071q172 0 275.5 -112.5t103.5 -309.5v-649h-440v555q0 57 -32 92t-83 35q-58 0 -93.5 -42.5t-35.5 -113.5v-526h-440v1040h440v-112q124 143 305 143z" />
    <glyph glyph-name="Eng" unicode="&#x14a;" horiz-adv-x="1531" 
d="M1460 1372v-1413q0 -159 -103.5 -243.5t-281.5 -84.5q-41 0 -76.5 2.5t-67.5 8t-49 9t-48 11.5t-39 10l41 279q101 -14 120 -14q32 0 48 13.5t16 49.5v76l-496 542v-618h-452v1372h370l566 -647v647h452z" />
    <glyph glyph-name="eng" unicode="&#x14b;" horiz-adv-x="1273" 
d="M817 1071q172 0 275.5 -112.5t103.5 -309.5v-690q0 -159 -103.5 -243.5t-281.5 -84.5q-41 0 -76.5 2.5t-68 8t-49 9t-48.5 11.5t-39 10l41 279q101 -14 121 -14q32 0 48 13.5t16 49.5v555q0 57 -32 92t-83 35q-58 0 -93.5 -42.5t-35.5 -113.5v-526h-440v1040h440v-112
q124 143 305 143z" />
    <glyph glyph-name="Omacron" unicode="&#x14c;" horiz-adv-x="1597" 
d="M1165 1493h-733v319h733v-319zM799 1403q155 0 293.5 -56t238 -151.5t157.5 -228.5t58 -281t-58 -281t-157.5 -228.5t-238 -151.5t-293.5 -56t-293.5 56t-238 151.5t-158 228.5t-58.5 281t58.5 281t158 228.5t238 151.5t293.5 56zM799 371q129 0 211 90t82 225t-82 225
t-211 90t-211 -90t-82 -225t82 -225t211 -90z" />
    <glyph glyph-name="omacron" unicode="&#x14d;" horiz-adv-x="1245" 
d="M989 1161h-733v320h733v-320zM623 1071q161 0 295.5 -68t215 -195t80.5 -288t-80.5 -288t-215 -195t-295.5 -68t-295.5 68t-215.5 195t-81 288t81 288t215.5 195t295.5 68zM623 332q73 0 121.5 55.5t48.5 132.5t-48.5 133t-121.5 56t-121.5 -56t-48.5 -133t48.5 -132.5
t121.5 -55.5z" />
    <glyph glyph-name="Ohungarumlaut" unicode="&#x150;" horiz-adv-x="1597" 
d="M727 1493h-354l184 344h438zM844 1493l184 344h459l-289 -344h-354zM799 1403q155 0 293.5 -56t238 -151.5t157.5 -228.5t58 -281t-58 -281t-157.5 -228.5t-238 -151.5t-293.5 -56t-293.5 56t-238 151.5t-158 228.5t-58.5 281t58.5 281t158 228.5t238 151.5t293.5 56z
M799 371q129 0 211 90t82 225t-82 225t-211 90t-211 -90t-82 -225t82 -225t211 -90z" />
    <glyph glyph-name="ohungarumlaut" unicode="&#x151;" horiz-adv-x="1245" 
d="M551 1161h-354l184 344h438zM668 1161l184 344h459l-289 -344h-354zM623 1071q161 0 295.5 -68t215 -195t80.5 -288t-80.5 -288t-215 -195t-295.5 -68t-295.5 68t-215.5 195t-81 288t81 288t215.5 195t295.5 68zM623 332q73 0 121.5 55.5t48.5 132.5t-48.5 133t-121.5 56
t-121.5 -56t-48.5 -133t48.5 -132.5t121.5 -55.5z" />
    <glyph glyph-name="OE" unicode="&#x152;" horiz-adv-x="2105" 
d="M2050 371v-371h-1190q-241 0 -425.5 87.5t-284 243.5t-99.5 355t99.5 355t284 243.5t425.5 87.5h1180v-371h-656v-151h601v-328h-601v-151h666zM932 371v630h-72q-175 0 -264.5 -87t-89.5 -228t89.5 -228t264.5 -87h72z" />
    <glyph glyph-name="oe" unicode="&#x153;" horiz-adv-x="1953" 
d="M1923 416h-702q38 -121 153 -121q51 0 92 23t56 61l391 -76q-62 -165 -202.5 -249.5t-336.5 -84.5q-215 0 -373 121q-161 -121 -378 -121q-161 0 -295.5 68t-215.5 195t-81 288t81 288t215.5 195t295.5 68q217 0 378 -121q155 121 371 121q252 0 401.5 -153t149.5 -439
v-63zM1372 741q-108 0 -149 -104h282q-15 50 -51 77t-82 27zM623 332q73 0 121.5 55.5t48.5 132.5t-48.5 133t-121.5 56t-121.5 -56t-48.5 -133t48.5 -132.5t121.5 -55.5z" />
    <glyph glyph-name="Racute" unicode="&#x154;" horiz-adv-x="1409" 
d="M862 1493h-416l164 344h533zM1409 0h-541l-338 406h-6v-406h-452v1372h768q223 0 359 -130.5t136 -344.5q0 -160 -80.5 -278.5t-222.5 -172.5zM524 1010v-262h205q76 0 120 36.5t44 98.5q0 58 -44 92.5t-120 34.5h-205z" />
    <glyph glyph-name="racute" unicode="&#x155;" horiz-adv-x="925" 
d="M705 1161h-416l164 344h532zM512 1040v-215q99 228 332 228q35 0 76 -6l-15 -463h-61q-76 0 -132 -12t-103.5 -41.5t-72 -86t-24.5 -139.5v-305h-440v1040h440z" />
    <glyph glyph-name="Rcommaaccent" unicode="&#x156;" horiz-adv-x="1409" 
d="M1409 0h-541l-338 406h-6v-406h-452v1372h768q223 0 359 -130.5t136 -344.5q0 -160 -80.5 -278.5t-222.5 -172.5zM524 1010v-262h205q76 0 120 36.5t44 98.5q0 58 -44 92.5t-120 34.5h-205zM498 -92h411l-211 -348h-297z" />
    <glyph glyph-name="rcommaaccent" unicode="&#x157;" horiz-adv-x="925" 
d="M844 1053q35 0 76 -6l-15 -463h-61q-76 0 -132 -12t-103.5 -41.5t-72 -86t-24.5 -139.5v-305h-440v1040h440v-215q99 228 332 228zM92 -92h412l-211 -348h-297z" />
    <glyph glyph-name="Rcaron" unicode="&#x158;" horiz-adv-x="1409" 
d="M430 1493l-244 344h412l64 -90l61 90h412l-244 -344h-461zM1409 0h-541l-338 406h-6v-406h-452v1372h768q223 0 359 -130.5t136 -344.5q0 -160 -80.5 -278.5t-222.5 -172.5zM524 1010v-262h205q76 0 120 36.5t44 98.5q0 58 -44 92.5t-120 34.5h-205z" />
    <glyph glyph-name="rcaron" unicode="&#x159;" horiz-adv-x="925" 
d="M272 1161l-243 344h411l64 -90l61 90h412l-244 -344h-461zM512 1040v-215q99 228 332 228q35 0 76 -6l-15 -463h-61q-76 0 -132 -12t-103.5 -41.5t-72 -86t-24.5 -139.5v-305h-440v1040h440z" />
    <glyph glyph-name="Sacute" unicode="&#x15a;" horiz-adv-x="1343" 
d="M874 1493h-415l164 344h532zM678 1403q259 0 420 -103.5t196 -298.5l-438 -88q-11 46 -32.5 78.5t-48.5 47t-49.5 20.5t-45.5 6q-46 0 -76.5 -21t-30.5 -59q0 -49 54 -63l268 -70q206 -54 307 -152t101 -262q0 -100 -38 -182t-99 -134t-141.5 -87.5t-162 -50.5
t-164.5 -15q-265 0 -443.5 119.5t-209.5 312.5l457 84q43 -161 196 -161q51 0 86 18.5t35 58.5q0 47 -61 64l-281 74q-196 47 -290.5 145.5t-94.5 255.5q0 113 46 202.5t126.5 145.5t186 85.5t227.5 29.5z" />
    <glyph glyph-name="sacute" unicode="&#x15b;" horiz-adv-x="1101" 
d="M756 1161h-416l164 344h532zM31 266l413 82q13 -38 49 -60t76 -22t61 12t21 29q0 23 -19 31.5t-65 13.5l-207 33q-156 24 -236.5 100t-80.5 215q0 117 68 202.5t176.5 127t242.5 41.5q214 0 345 -71.5t172 -208.5l-385 -76q-8 28 -41 55t-84 27q-35 0 -54.5 -12.5
t-19.5 -28.5q0 -31 53 -41l234 -43q163 -30 242 -119.5t79 -228.5q0 -112 -68.5 -193.5t-181 -121.5t-254.5 -40q-214 0 -356 73.5t-180 223.5z" />
    <glyph glyph-name="Scedilla" unicode="&#x15e;" horiz-adv-x="1343" 
d="M1303 438q0 -84 -27 -155.5t-71.5 -121.5t-106 -88t-127 -60t-137.5 -33l-76 -308h-449l209 314q-196 37 -322 147t-151 268l457 84q43 -161 196 -161q51 0 86 18.5t35 58.5q0 47 -61 64l-281 74q-196 47 -290.5 145.5t-94.5 255.5q0 113 46 202.5t126.5 145.5t186 85.5
t227.5 29.5q259 0 420 -103.5t196 -298.5l-438 -88q-11 46 -32.5 78.5t-48.5 47t-49.5 20.5t-45.5 6q-46 0 -76.5 -21t-30.5 -59q0 -49 54 -63l268 -70q206 -54 307 -152t101 -262z" />
    <glyph glyph-name="scedilla" unicode="&#x15f;" horiz-adv-x="1101" 
d="M1071 324q0 -135 -96 -223t-254 -117l-76 -312h-448l206 310q-311 50 -372 284l413 82q13 -38 49 -60t76 -22t61 12t21 29q0 23 -19 31.5t-65 13.5l-207 33q-156 24 -236.5 100t-80.5 215q0 117 68 202.5t176.5 127t242.5 41.5q214 0 345 -71.5t172 -208.5l-385 -76
q-8 28 -41 55t-84 27q-35 0 -54.5 -12.5t-19.5 -28.5q0 -31 53 -41l234 -43q163 -30 242 -119.5t79 -228.5z" />
    <glyph glyph-name="Scaron" unicode="&#x160;" horiz-adv-x="1343" 
d="M442 1493l-243 344h411l64 -90l61 90h412l-244 -344h-461zM627 922l268 -70q206 -54 307 -152t101 -262q0 -100 -38 -182t-99 -134t-141.5 -87.5t-162 -50.5t-164.5 -15q-265 0 -443.5 119.5t-209.5 312.5l457 84q43 -161 196 -161q51 0 86 18.5t35 58.5q0 47 -61 64
l-281 74q-196 47 -290.5 145.5t-94.5 255.5q0 113 46 202.5t126.5 145.5t186 85.5t227.5 29.5q259 0 420 -103.5t196 -298.5l-438 -88q-11 46 -32.5 78.5t-48.5 47t-49.5 20.5t-45.5 6q-46 0 -76.5 -21t-30.5 -59q0 -49 54 -63z" />
    <glyph glyph-name="scaron" unicode="&#x161;" horiz-adv-x="1101" 
d="M324 1161l-244 344h412l63 -90l61 90h412l-244 -344h-460zM516 715l234 -43q163 -30 242 -119.5t79 -228.5q0 -112 -68.5 -193.5t-181 -121.5t-254.5 -40q-214 0 -356 73.5t-180 223.5l413 82q13 -38 49 -60t76 -22t61 12t21 29q0 23 -19 31.5t-65 13.5l-207 33
q-156 24 -236.5 100t-80.5 215q0 117 68 202.5t176.5 127t242.5 41.5q214 0 345 -71.5t172 -208.5l-385 -76q-8 28 -41 55t-84 27q-35 0 -54.5 -12.5t-19.5 -28.5q0 -31 53 -41z" />
    <glyph glyph-name="tcedilla" unicode="&#x163;" horiz-adv-x="880" 
d="M797 367l73 -322q-103 -52 -192 -65l-74 -304h-448l217 324q-118 44 -178 143.5t-60 241.5v317h-125v338h125v291h440v-291h244v-338h-244v-262q0 -54 27 -76t84 -22q66 0 111 25z" />
    <glyph glyph-name="Tcaron" unicode="&#x164;" horiz-adv-x="1370" 
d="M455 1493l-244 344h412l63 -90l62 90h411l-244 -344h-460zM1329 991h-418v-991h-452v991h-418v381h1288v-381z" />
    <glyph glyph-name="tcaron" unicode="&#x165;" horiz-adv-x="880" 
d="M1004 1491l-97 -410h-282v410h379zM686 342q66 0 111 25l73 -322q-147 -76 -309 -76q-209 0 -317.5 111.5t-108.5 304.5v317h-125v338h125v291h440v-291h244v-338h-244v-262q0 -54 27 -76t84 -22z" />
    <glyph glyph-name="Tbar" unicode="&#x166;" horiz-adv-x="1370" 
d="M911 991v-192h203v-340h-203v-459h-452v459h-201v340h201v192h-418v381h1288v-381h-418z" />
    <glyph glyph-name="tbar" unicode="&#x167;" horiz-adv-x="880" 
d="M829 391l41 -346q-147 -76 -309 -76q-209 0 -317.5 111.5t-108.5 304.5v49h-78v256h78v74h-125v276h125v291h440v-291h244v-276h-244v-74h134v-256h-134q1 -51 28 -71.5t83 -20.5q64 0 143 49z" />
    <glyph glyph-name="Umacron" unicode="&#x16a;" horiz-adv-x="1468" 
d="M1100 1493h-733v319h733v-319zM1386 1372v-747q0 -303 -176 -479.5t-467 -176.5q-300 0 -480.5 176.5t-180.5 479.5v747h455v-747q0 -122 55 -188t151 -66q87 0 138 66t51 188v747h454z" />
    <glyph glyph-name="umacron" unicode="&#x16b;" horiz-adv-x="1273" 
d="M1006 1161h-734v320h734v-320zM1202 1040v-1040h-440v113q-125 -144 -305 -144q-172 0 -275.5 112.5t-103.5 309.5v649h440v-555q0 -57 32 -92t83 -35q58 0 93.5 42.5t35.5 113.5v526h440z" />
    <glyph glyph-name="Uring" unicode="&#x16e;" horiz-adv-x="1468" 
d="M733 1442q-122 0 -205.5 80.5t-83.5 197.5q0 118 83.5 199.5t205.5 81.5t205.5 -81.5t83.5 -199.5q0 -117 -83.5 -197.5t-205.5 -80.5zM733 1800q-34 0 -58 -24t-24 -56q0 -31 24.5 -54.5t57.5 -23.5t57.5 23.5t24.5 54.5q0 32 -24 56t-58 24zM1386 1372v-747
q0 -303 -176 -479.5t-467 -176.5q-300 0 -480.5 176.5t-180.5 479.5v747h455v-747q0 -122 55 -188t151 -66q87 0 138 66t51 188v747h454z" />
    <glyph glyph-name="uring" unicode="&#x16f;" horiz-adv-x="1273" 
d="M639 1110q-121 0 -205 81t-84 198q0 118 83.5 199t205.5 81t205.5 -81t83.5 -199q0 -117 -84 -198t-205 -81zM639 1468q-34 0 -58 -23.5t-24 -55.5q0 -31 24.5 -54.5t57.5 -23.5t57.5 23.5t24.5 54.5q0 32 -24 55.5t-58 23.5zM1202 1040v-1040h-440v113
q-125 -144 -305 -144q-172 0 -275.5 112.5t-103.5 309.5v649h440v-555q0 -57 32 -92t83 -35q58 0 93.5 42.5t35.5 113.5v526h440z" />
    <glyph glyph-name="Uhungarumlaut" unicode="&#x170;" horiz-adv-x="1468" 
d="M662 1493h-355l185 344h438zM778 1493l185 344h458l-288 -344h-355zM932 1372h454v-747q0 -303 -176 -479.5t-467 -176.5q-300 0 -480.5 176.5t-180.5 479.5v747h455v-747q0 -122 55 -188t151 -66q87 0 138 66t51 188v747z" />
    <glyph glyph-name="uhungarumlaut" unicode="&#x171;" horiz-adv-x="1273" 
d="M567 1161h-354l184 344h439zM684 1161l184 344h459l-289 -344h-354zM762 1040h440v-1040h-440v113q-125 -144 -305 -144q-172 0 -275.5 112.5t-103.5 309.5v649h440v-555q0 -57 32 -92t83 -35q58 0 93.5 42.5t35.5 113.5v526z" />
    <glyph glyph-name="Uogonek" unicode="&#x172;" horiz-adv-x="1468" 
d="M1180 113q-142 -119 -142 -234q0 -63 60 -63q30 0 106 24l53 -237q-151 -72 -280 -72q-109 0 -180.5 63.5t-71.5 161.5q0 107 94 217q-50 -4 -76 -4q-300 0 -480.5 171.5t-180.5 465.5v766h455v-766q0 -113 55 -174t151 -61q87 0 138 61t51 174v766h454v-766
q0 -321 -206 -493z" />
    <glyph glyph-name="uogonek" unicode="&#x173;" horiz-adv-x="1273" 
d="M1262 -166l14 -231q-104 -52 -223 -52q-109 0 -177.5 56.5t-68.5 148.5q0 62 33.5 128t89.5 116h-168v113q-125 -144 -305 -144q-172 0 -275.5 112.5t-103.5 309.5v649h440v-555q0 -57 32 -92t83 -35q58 0 93.5 42.5t35.5 113.5v526h440v-1040l-12 -12q-57 -57 -75.5 -80
t-18.5 -45q0 -47 57 -47q43 0 109 18z" />
    <glyph glyph-name="Wcircumflex" unicode="&#x174;" horiz-adv-x="2039" 
d="M956 1493h-411l243 344h461l244 -344h-412l-61 90zM2040 1372l-375 -1372h-487l-158 692l-158 -692h-487l-375 1372h459l192 -700l156 700h426l156 -700l192 700h459z" />
    <glyph glyph-name="wcircumflex" unicode="&#x175;" horiz-adv-x="1660" 
d="M768 1161h-412l244 344h461l244 -344h-412l-62 90zM1661 1040l-313 -1040h-367l-150 465l-151 -465h-367l-313 1040h430l109 -401l155 401h273l155 -401l109 401h430z" />
    <glyph glyph-name="Ycircumflex" unicode="&#x176;" horiz-adv-x="1507" 
d="M690 1493h-411l243 344h461l244 -344h-412l-61 90zM1507 1372l-526 -960v-412h-475v412l-506 960h494l262 -512l258 512h493z" />
    <glyph glyph-name="ycircumflex" unicode="&#x177;" horiz-adv-x="1318" 
d="M600 1161h-412l244 344h461l244 -344h-412l-61 90zM1319 1040l-598 -1388h-457l168 387l-432 1001h457l194 -491l211 491h457z" />
    <glyph glyph-name="Ydieresis" unicode="&#x178;" horiz-adv-x="1507" 
d="M498 1444q-98 0 -161 62t-63 157q0 89 64 153t160 64q97 0 161 -64t64 -153q0 -95 -63.5 -157t-161.5 -62zM1010 1444q-98 0 -161 62t-63 157q0 89 64 153t160 64q97 0 161 -64t64 -153q0 -95 -63.5 -157t-161.5 -62zM1507 1372l-526 -960v-412h-475v412l-506 960h494
l262 -512l258 512h493z" />
    <glyph glyph-name="Zacute" unicode="&#x179;" horiz-adv-x="1339" 
d="M870 1493h-415l163 344h533zM1282 379v-379h-1221v293l609 700h-592v379h1179v-352l-538 -641h563z" />
    <glyph glyph-name="zacute" unicode="&#x17a;" horiz-adv-x="1163" 
d="M782 1161h-415l163 344h533zM1102 338v-338h-1041v281l435 421h-424v338h1022v-286l-430 -416h438z" />
    <glyph glyph-name="Zdotaccent" unicode="&#x17b;" horiz-adv-x="1339" 
d="M668 1454q-103 0 -168.5 64.5t-65.5 164.5q0 94 66.5 162t167.5 68t168 -68t67 -162q0 -100 -66 -164.5t-169 -64.5zM1282 379v-379h-1221v293l609 700h-592v379h1179v-352l-538 -641h563z" />
    <glyph glyph-name="zdotaccent" unicode="&#x17c;" horiz-adv-x="1163" 
d="M580 1122q-102 0 -168 65t-66 165q0 94 66.5 161.5t167.5 67.5t168 -67.5t67 -161.5q0 -100 -66 -165t-169 -65zM1102 338v-338h-1041v281l435 421h-424v338h1022v-286l-430 -416h438z" />
    <glyph glyph-name="Zcaron" unicode="&#x17d;" horiz-adv-x="1339" 
d="M438 1493l-243 344h411l64 -90l61 90h412l-244 -344h-461zM1282 379v-379h-1221v293l609 700h-592v379h1179v-352l-538 -641h563z" />
    <glyph glyph-name="zcaron" unicode="&#x17e;" horiz-adv-x="1163" 
d="M350 1161l-244 344h412l64 -90l61 90h412l-244 -344h-461zM1102 338v-338h-1041v281l435 421h-424v338h1022v-286l-430 -416h438z" />
    <glyph glyph-name="florin" unicode="&#x192;" horiz-adv-x="1214" 
d="M954 1040q-44 0 -75.5 -26t-38.5 -70l-21 -108h213v-338h-274l-78 -435q-34 -184 -157.5 -292.5t-303.5 -108.5q-24 0 -46 2t-42 6t-35.5 7.5t-32.5 11t-27 11.5t-24.5 12.5t-19.5 11.5t-18.5 12t-14.5 10l117 309q68 -26 96 -26q29 0 48.5 19.5t25.5 53.5l71 396h-161
v338h223l27 147q35 191 174 305.5t331 114.5q155 0 283 -70l-129 -323q-61 30 -111 30z" />
    <glyph glyph-name="AEacute" unicode="&#x1fc;" horiz-adv-x="2162" 
d="M1556 1493h-415l164 344h532zM2107 371v-371h-1118v166h-373l-81 -166h-535l795 1372h1302v-371h-655v-151h600v-328h-600v-151h665zM989 532v383l-190 -383h190z" />
    <glyph glyph-name="aeacute" unicode="&#x1fd;" horiz-adv-x="1812" 
d="M1108 1161h-416l164 344h533zM1782 416h-703q38 -121 154 -121q52 0 85 17.5t56 70.5l377 -78q-38 -149 -182 -242.5t-336 -93.5q-194 0 -350 105q-153 -105 -398 -105q-223 0 -344 85.5t-121 248.5q0 313 459 313h209v62q0 38 -24.5 62t-61.5 24q-79 0 -94 -86l-410 84
q30 136 158 222.5t346 86.5q198 0 326 -78q135 78 305 78q250 0 399.5 -153t149.5 -439v-63zM1079 616h283q-26 123 -135 123q-59 0 -95 -29.5t-53 -93.5zM686 408h-100q-113 0 -113 -72q0 -35 26.5 -55.5t69.5 -20.5q48 0 82.5 27.5t34.5 77.5v43z" />
    <glyph glyph-name="Scommaaccent" unicode="&#x218;" horiz-adv-x="1343" 
d="M678 1403q259 0 420 -103.5t196 -298.5l-438 -88q-11 46 -32.5 78.5t-48.5 47t-49.5 20.5t-45.5 6q-46 0 -76.5 -21t-30.5 -59q0 -49 54 -63l268 -70q206 -54 307 -152t101 -262q0 -100 -38 -182t-99 -134t-141.5 -87.5t-162 -50.5t-164.5 -15q-265 0 -443.5 119.5
t-209.5 312.5l457 84q43 -161 196 -161q51 0 86 18.5t35 58.5q0 47 -61 64l-281 74q-196 47 -290.5 145.5t-94.5 255.5q0 113 46 202.5t126.5 145.5t186 85.5t227.5 29.5zM385 -440l96 348h412l-211 -348h-297z" />
    <glyph glyph-name="scommaaccent" unicode="&#x219;" horiz-adv-x="1101" 
d="M31 266l413 82q13 -38 49 -60t76 -22t61 12t21 29q0 23 -19 31.5t-65 13.5l-207 33q-156 24 -236.5 100t-80.5 215q0 117 68 202.5t176.5 127t242.5 41.5q214 0 345 -71.5t172 -208.5l-385 -76q-8 28 -41 55t-84 27q-35 0 -54.5 -12.5t-19.5 -28.5q0 -31 53 -41l234 -43
q163 -30 242 -119.5t79 -228.5q0 -112 -68.5 -193.5t-181 -121.5t-254.5 -40q-214 0 -356 73.5t-180 223.5zM272 -440l97 348h411l-211 -348h-297z" />
    <glyph glyph-name="uni021A" unicode="&#x21a;" horiz-adv-x="1370" 
d="M1329 991h-418v-991h-452v991h-418v381h1288v-381zM485 -92h412l-211 -348h-297z" />
    <glyph glyph-name="uni021B" unicode="&#x21b;" horiz-adv-x="880" 
d="M561 -31q-209 0 -317.5 111.5t-108.5 304.5v317h-125v338h125v291h440v-291h244v-338h-244v-262q0 -54 27 -76t84 -22q66 0 111 25l73 -322q-147 -76 -309 -76zM328 -88h411l-211 -348h-297z" />
    <glyph glyph-name="circumflex" unicode="&#x2c6;" horiz-adv-x="1228" 
d="M678 1161l-62 90l-63 -90h-412l244 344h461l244 -344h-412z" />
    <glyph glyph-name="caron" unicode="&#x2c7;" horiz-adv-x="1228" 
d="M1090 1505l-244 -344h-461l-244 344h412l63 -90l62 90h412z" />
    <glyph glyph-name="breve" unicode="&#x2d8;" horiz-adv-x="1228" 
d="M614 1130q-180 0 -293.5 100t-113.5 261h325q0 -28 22 -50t60 -22q40 0 62 22t22 50h324q0 -161 -113.5 -261t-294.5 -100z" />
    <glyph glyph-name="dotaccent" unicode="&#x2d9;" horiz-adv-x="1228" 
d="M614 1581q101 0 168.5 -67.5t67.5 -161.5q0 -100 -66.5 -165t-169.5 -65q-102 0 -167.5 65t-65.5 165q0 94 66 161.5t167 67.5z" />
    <glyph glyph-name="ring" unicode="&#x2da;" horiz-adv-x="1228" 
d="M903 1389q0 -117 -84 -198t-205 -81t-204.5 81t-83.5 198q0 118 83 199t205 81t205.5 -81t83.5 -199zM696 1389q0 32 -24 55.5t-58 23.5t-58 -23.5t-24 -55.5q0 -31 24.5 -54.5t57.5 -23.5t57.5 23.5t24.5 54.5z" />
    <glyph glyph-name="ogonek" unicode="&#x2db;" horiz-adv-x="1228" 
d="M418 20l246 -20q-81 -81 -94 -100.5t-13 -36.5q0 -47 57 -47q43 0 109 18l14 -231q-104 -52 -223 -52q-109 0 -177.5 56.5t-68.5 148.5q0 69 41.5 142t108.5 122z" />
    <glyph glyph-name="tilde" unicode="&#x2dc;" horiz-adv-x="1228" 
d="M455 1161h-236q0 179 74.5 289.5t193.5 110.5q53 0 98 -18t81 -36t65 -18q32 0 46.5 12t29.5 49h235q0 -179 -75 -289t-195 -110q-66 0 -137 33t-105 33q-32 0 -46 -11t-29 -45z" />
    <glyph glyph-name="hungarumlaut" unicode="&#x2dd;" horiz-adv-x="1228" 
d="M399 1161h-354l184 344h439zM870 1161h-354l184 344h459z" />
    <glyph glyph-name="uni0326" unicode="&#x326;" horiz-adv-x="0" 
d="M317 -440l97 348h411l-211 -348h-297z" />
    <glyph glyph-name="Wgrave" unicode="&#x1e80;" horiz-adv-x="2039" 
d="M831 1493l-280 344h532l164 -344h-416zM2040 1372l-375 -1372h-487l-158 692l-158 -692h-487l-375 1372h459l192 -700l156 700h426l156 -700l192 700h459z" />
    <glyph glyph-name="wgrave" unicode="&#x1e81;" horiz-adv-x="1660" 
d="M643 1161l-281 344h533l164 -344h-416zM1661 1040l-313 -1040h-367l-150 465l-151 -465h-367l-313 1040h430l109 -401l155 401h273l155 -401l109 401h430z" />
    <glyph glyph-name="Wacute" unicode="&#x1e82;" horiz-adv-x="2039" 
d="M1221 1493h-416l164 344h532zM2040 1372l-375 -1372h-487l-158 692l-158 -692h-487l-375 1372h459l192 -700l156 700h426l156 -700l192 700h459z" />
    <glyph glyph-name="wacute" unicode="&#x1e83;" horiz-adv-x="1660" 
d="M1032 1161h-416l164 344h533zM1661 1040l-313 -1040h-367l-150 465l-151 -465h-367l-313 1040h430l109 -401l155 401h273l155 -401l109 401h430z" />
    <glyph glyph-name="Wdieresis" unicode="&#x1e84;" horiz-adv-x="2039" 
d="M764 1444q-98 0 -160.5 61.5t-62.5 157.5q0 90 63.5 153.5t159.5 63.5q97 0 161 -64t64 -153q0 -95 -63.5 -157t-161.5 -62zM1276 1444q-98 0 -160.5 61.5t-62.5 157.5q0 90 63.5 153.5t159.5 63.5q97 0 161 -64t64 -153q0 -95 -63.5 -157t-161.5 -62zM2040 1372
l-375 -1372h-487l-158 692l-158 -692h-487l-375 1372h459l192 -700l156 700h426l156 -700l192 700h459z" />
    <glyph glyph-name="wdieresis" unicode="&#x1e85;" horiz-adv-x="1660" 
d="M575 1112q-98 0 -160.5 61.5t-62.5 157.5q0 90 63.5 153.5t159.5 63.5q97 0 161.5 -64t64.5 -153q0 -95 -64 -157t-162 -62zM1087 1112q-98 0 -160.5 61.5t-62.5 157.5q0 90 63.5 153.5t159.5 63.5q97 0 161.5 -64t64.5 -153q0 -95 -64 -157t-162 -62zM1661 1040
l-313 -1040h-367l-150 465l-151 -465h-367l-313 1040h430l109 -401l155 401h273l155 -401l109 401h430z" />
    <glyph glyph-name="Ygrave" unicode="&#x1ef2;" horiz-adv-x="1507" 
d="M565 1493l-280 344h532l164 -344h-416zM1507 1372l-526 -960v-412h-475v412l-506 960h494l262 -512l258 512h493z" />
    <glyph glyph-name="ygrave" unicode="&#x1ef3;" horiz-adv-x="1318" 
d="M475 1161l-280 344h532l164 -344h-416zM1319 1040l-598 -1388h-457l168 387l-432 1001h457l194 -491l211 491h457z" />
    <glyph glyph-name="endash" unicode="&#x2013;" horiz-adv-x="1269" 
d="M1147 395h-1024v348h1024v-348z" />
    <glyph glyph-name="emdash" unicode="&#x2014;" horiz-adv-x="2129" 
d="M2007 395h-1884v348h1884v-348z" />
    <glyph glyph-name="quoteleft" unicode="&#x2018;" horiz-adv-x="684" 
d="M295 1372h338l-117 -672h-465v11z" />
    <glyph glyph-name="quoteright" unicode="&#x2019;" horiz-adv-x="684" 
d="M389 700h-338l117 672h465v-10z" />
    <glyph glyph-name="quotesinglbase" unicode="&#x201a;" horiz-adv-x="684" 
d="M389 -270h-338l117 671h465v-10z" />
    <glyph glyph-name="quotedblleft" unicode="&#x201c;" horiz-adv-x="1216" 
d="M295 1372h338l-117 -672h-465v11zM827 1372h338l-116 -672h-465v11z" />
    <glyph glyph-name="quotedblright" unicode="&#x201d;" horiz-adv-x="1216" 
d="M389 700h-338l117 672h465v-10zM922 700h-338l116 672h465v-10z" />
    <glyph glyph-name="quotedblbase" unicode="&#x201e;" horiz-adv-x="1216" 
d="M389 -270h-338l117 671h465v-10zM922 -270h-338l116 671h465v-10z" />
    <glyph glyph-name="dagger" unicode="&#x2020;" horiz-adv-x="798" 
d="M748 1331v-227h-226v-512h-246v512h-225v227h225v185h246v-185h226z" />
    <glyph glyph-name="daggerdbl" unicode="&#x2021;" horiz-adv-x="798" 
d="M522 1104v-100h226v-228h-226v-184h-246v184h-225v228h225v100h-225v227h225v185h246v-185h226v-227h-226z" />
    <glyph glyph-name="bullet" unicode="&#x2022;" horiz-adv-x="819" 
d="M410 924q161 0 269.5 -113.5t108.5 -267.5q0 -161 -107.5 -269t-270.5 -108q-164 0 -270.5 108t-106.5 269q0 155 107.5 268t269.5 113z" />
    <glyph glyph-name="ellipsis" unicode="&#x2026;" horiz-adv-x="1726" 
d="M268 465q102 0 171 -71.5t69 -168.5q0 -102 -68 -169.5t-172 -67.5t-170.5 67.5t-66.5 169.5q0 98 67.5 169t169.5 71zM862 465q102 0 171 -71.5t69 -168.5q0 -102 -68 -169.5t-172 -67.5t-170.5 67.5t-66.5 169.5q0 98 67.5 169t169.5 71zM1456 465q102 0 171 -71.5
t69 -168.5q0 -102 -68 -169.5t-172 -67.5t-170.5 67.5t-66.5 169.5q0 98 67.5 169t169.5 71z" />
    <glyph glyph-name="perthousand" unicode="&#x2030;" horiz-adv-x="2760" 
d="M463 1403q157 0 267 -102t110 -265q0 -161 -110 -262.5t-267 -101.5q-158 0 -269.5 101.5t-111.5 262.5q0 163 111 265t270 102zM365 0l964 1372h219l-964 -1372h-219zM463 1165q-50 0 -87.5 -35t-37.5 -94q0 -56 37.5 -91.5t87.5 -35.5q47 0 84 35.5t37 91.5
q0 58 -36.5 93.5t-84.5 35.5zM1442 700q157 0 267 -101.5t110 -264.5q0 -107 -52 -191.5t-137.5 -129t-187.5 -44.5q-158 0 -269.5 101.5t-111.5 263.5q0 163 111 264.5t270 101.5zM2302 700q157 0 267 -101.5t110 -264.5q0 -107 -52 -191.5t-137.5 -129t-187.5 -44.5
q-158 0 -269.5 101.5t-111.5 263.5q0 163 111 264.5t270 101.5zM1442 463q-50 0 -87.5 -35t-37.5 -94q0 -56 37.5 -91.5t87.5 -35.5q47 0 84 35.5t37 91.5q0 58 -36.5 93.5t-84.5 35.5zM2302 463q-50 0 -87.5 -35t-37.5 -94q0 -56 37.5 -91.5t87.5 -35.5q47 0 84 35.5
t37 91.5q0 58 -36.5 93.5t-84.5 35.5z" />
    <glyph glyph-name="guilsinglleft" unicode="&#x2039;" horiz-adv-x="679" 
d="M51 537l189 364h389l-189 -364l189 -365h-389z" />
    <glyph glyph-name="guilsinglright" unicode="&#x203a;" horiz-adv-x="679" 
d="M51 172l189 365l-189 364h389l189 -364l-189 -365h-389z" />
    <glyph glyph-name="fraction" unicode="&#x2044;" horiz-adv-x="528" 
d="M-328 0l965 1372h219l-965 -1372h-219z" />
    <glyph glyph-name="Euro" unicode="&#x20ac;" horiz-adv-x="1484" 
d="M999 623l435 -82q-24 -252 -195 -412t-430 -160q-226 0 -385.5 127t-218.5 348h-154v197h123v45v45h-123v195h152q59 222 219 349.5t387 127.5q256 0 423 -156.5t200 -404.5l-428 -80q-42 272 -195 272q-101 0 -150 -108h236l-35 -195h-242l-2 -45q0 -31 2 -45h232
l-35 -197h-156q53 -106 150 -106q155 0 190 285z" />
    <glyph glyph-name="uni2116" unicode="&#x2116;" horiz-adv-x="2447" 
d="M1974 649q-166 0 -282.5 104.5t-116.5 266.5q0 164 116 268.5t283 104.5q168 0 285 -104.5t117 -268.5q0 -108 -55 -193.5t-146.5 -131.5t-200.5 -46zM1008 1372h452v-1372h-370l-566 618v-618h-452v1372h370l566 -647v647zM1974 1130q-45 0 -72.5 -31.5t-27.5 -78.5
q0 -46 27.5 -77.5t72.5 -31.5t74 32t29 77q0 46 -29 78t-74 32zM1583 578h787v-302h-787v302z" />
    <glyph glyph-name="uni2117" unicode="&#x2117;" horiz-adv-x="1550" 
d="M776 1403q194 0 358 -91.5t261.5 -257.5t97.5 -370q0 -154 -57.5 -288.5t-154.5 -227.5t-228.5 -146t-276.5 -53q-146 0 -278 53.5t-229 146.5t-154.5 227.5t-57.5 287.5q0 203 97.5 369t262 258t359.5 92zM776 86q120 0 228 45t188 123t127 190t47 240t-47 241.5
t-127 192.5t-188.5 124.5t-227.5 45.5q-120 0 -229 -45.5t-189 -124.5t-127 -192.5t-47 -241.5t47 -240t127 -190t189 -123t229 -45zM496 1059h370q140 0 215.5 -72.5t75.5 -185.5q0 -125 -86.5 -198t-228.5 -73h-94v-215h-252v744zM748 721h83q41 0 61.5 20.5t20.5 51.5
q0 29 -20.5 47t-61.5 18h-83v-137z" />
    <glyph glyph-name="trademark" unicode="&#x2122;" horiz-adv-x="1499" 
d="M643 1182h-172v-400h-225v400h-172v190h569v-190zM1405 782h-217v250l-94 -244h-88l-95 244v-250h-217v590h234l121 -301l120 301h236v-590z" />
    <glyph glyph-name="oneeighth" unicode="&#x215b;" horiz-adv-x="1687" 
d="M203 573v467l-183 -90v262l275 160h184v-799h-276zM1391 1372l-965 -1372h-219l964 1372h220zM1540 416q129 -58 129 -193q0 -106 -98.5 -174.5t-257.5 -68.5q-157 0 -254.5 69t-97.5 174q0 138 129 193q-99 54 -99 166q0 96 93.5 164.5t230.5 68.5t230 -68.5t93 -164.5
q0 -113 -98 -166zM1315 616q-32 0 -54 -16.5t-22 -44.5t22 -45.5t54 -17.5t55 18t23 45q0 28 -23 44.5t-55 16.5zM1317 188q33 0 55.5 17.5t22.5 46.5t-23.5 46t-56.5 17q-34 0 -57 -16.5t-23 -46.5q0 -29 23 -46.5t59 -17.5z" />
    <glyph glyph-name="threeeighths" unicode="&#x215c;" horiz-adv-x="1751" 
d="M694 823q0 -113 -94.5 -189.5t-239.5 -76.5q-136 0 -226 70.5t-105 187.5l256 45q24 -80 80 -80q29 0 46 14t17 37t-21 38.5t-55 15.5h-94v188h88q35 0 55.5 14t20.5 37t-17.5 37.5t-46.5 14.5q-28 0 -47.5 -20.5t-23.5 -57.5l-254 45q13 101 103.5 175.5t219.5 74.5
q142 0 234 -74.5t92 -185.5q0 -94 -92 -148q104 -59 104 -162zM1454 1372l-965 -1372h-219l965 1372h219zM1583 416q129 -58 129 -193q0 -106 -98.5 -174.5t-257.5 -68.5q-157 0 -254.5 69t-97.5 174q0 138 129 193q-99 54 -99 166q0 96 93.5 164.5t230.5 68.5t230 -68.5
t93 -164.5q0 -113 -98 -166zM1358 616q-32 0 -54 -16.5t-22 -44.5t22 -45.5t54 -17.5t55 18t23 45q0 28 -23 44.5t-55 16.5zM1360 188q33 0 55.5 17.5t22.5 46.5t-23.5 46t-56.5 17q-34 0 -57 -16.5t-23 -46.5q0 -29 23 -46.5t59 -17.5z" />
    <glyph glyph-name="fiveeighths" unicode="&#x215d;" horiz-adv-x="1753" 
d="M713 842q0 -130 -90.5 -208.5t-239.5 -78.5q-147 0 -241.5 75.5t-106.5 194.5l256 41q7 -43 32 -63.5t56 -20.5q33 0 52.5 17t19.5 43q0 24 -18.5 40.5t-55.5 16.5h-318l21 473h590v-235h-355l-2 -37h95q152 0 228.5 -69t76.5 -189zM1477 1372l-965 -1372h-219l964 1372
h220zM1606 416q129 -58 129 -193q0 -106 -99 -174.5t-258 -68.5q-157 0 -254.5 69t-97.5 174q0 138 129 193q-98 53 -98 166q0 96 93 164.5t230 68.5t230.5 -68.5t93.5 -164.5q0 -113 -98 -166zM1380 616q-32 0 -53.5 -16.5t-21.5 -44.5t21.5 -45.5t53.5 -17.5t55 18t23 45
q0 28 -23 44.5t-55 16.5zM1382 188q33 0 55.5 17.5t22.5 46.5t-23.5 46t-56.5 17q-34 0 -57 -16.5t-23 -46.5q0 -29 23 -46.5t59 -17.5z" />
    <glyph glyph-name="seveneighths" unicode="&#x215e;" horiz-adv-x="1626" 
d="M84 573l262 564h-330v235h625v-209l-262 -590h-295zM1329 1372l-964 -1372h-220l965 1372h219zM1479 416q129 -58 129 -193q0 -106 -99 -174.5t-258 -68.5q-157 0 -254.5 69t-97.5 174q0 138 129 193q-98 53 -98 166q0 96 93 164.5t230 68.5t230.5 -68.5t93.5 -164.5
q0 -113 -98 -166zM1253 616q-32 0 -53.5 -16.5t-21.5 -44.5t21.5 -45.5t53.5 -17.5t55 18t23 45q0 28 -23 44.5t-55 16.5zM1255 188q33 0 55.5 17.5t22.5 46.5t-23.5 46t-56.5 17q-34 0 -56.5 -16.5t-22.5 -46.5q0 -29 22.5 -46.5t58.5 -17.5z" />
    <glyph glyph-name="arrowleft" unicode="&#x2190;" horiz-adv-x="1488" 
d="M1407 489h-719l262 -264l-245 -245l-685 684l685 684l245 -246l-262 -264h719v-349z" />
    <glyph glyph-name="arrowup" unicode="&#x2191;" horiz-adv-x="1531" 
d="M1204 457l-264 262v-719h-348v719l-264 -262l-246 245l684 684l684 -684z" />
    <glyph glyph-name="arrowright" unicode="&#x2192;" horiz-adv-x="1488" 
d="M1468 664l-684 -684l-245 245l262 264h-719v349h719l-262 264l245 246z" />
    <glyph glyph-name="arrowdown" unicode="&#x2193;" horiz-adv-x="1531" 
d="M1450 670l-684 -684l-684 684l246 245l264 -262v719h348v-719l264 262z" />
    <glyph glyph-name="uni2196" unicode="&#x2196;" horiz-adv-x="1536" 
d="M1180 -23l-764 766v-378h-355v1007h1008l-2 -352h-381l768 -770z" />
    <glyph glyph-name="uni2197" unicode="&#x2197;" horiz-adv-x="1531" 
d="M1470 1372v-1007h-354v378l-764 -766l-274 273l768 770h-381l-2 352h1007z" />
    <glyph glyph-name="uni2198" unicode="&#x2198;" horiz-adv-x="1538" 
d="M1477 1008v-1008h-1008l2 352h381l-768 770l274 273l764 -766v379h355z" />
    <glyph glyph-name="uni2199" unicode="&#x2199;" horiz-adv-x="1538" 
d="M1067 352l2 -352h-1008v1008h355v-379l764 766l274 -273l-768 -770h381z" />
    <glyph glyph-name="minus" unicode="&#x2212;" horiz-adv-x="1146" 
d="M1085 451h-1024v327h1024v-327z" />
    <glyph glyph-name="approxequal" unicode="&#x2248;" horiz-adv-x="1138" 
d="M1077 958v-296q-106 -50 -231 -50q-77 0 -148.5 17.5t-118.5 39t-116 39t-141 17.5q-68 0 -142.5 -16t-118.5 -43v286q44 32 116.5 51t144.5 19q73 0 144 -17.5t120 -39t120 -39t144 -17.5q57 0 120.5 13t106.5 36zM1077 590v-297q-103 -49 -231 -49q-77 0 -148.5 17.5
t-118.5 38.5t-116 38.5t-141 17.5q-68 0 -142.5 -16t-118.5 -43v287q43 32 116 50.5t145 18.5q73 0 144 -17.5t120 -38.5t120 -38.5t144 -17.5q57 0 120.5 13t106.5 36z" />
    <glyph glyph-name="notequal" unicode="&#x2260;" horiz-adv-x="1146" 
d="M750 672l-54 -99h389v-307h-555l-104 -194h-279l105 194h-191v307h357l53 99h-410v307h576l86 158h278l-86 -158h170v-307h-335z" />
    <glyph glyph-name="lessequal" unicode="&#x2264;" horiz-adv-x="1052" 
d="M971 463l-908 203v397l908 205v-328l-535 -76l535 -80v-321zM971 420v-328h-910v328h910z" />
    <glyph glyph-name="greaterequal" unicode="&#x2265;" horiz-adv-x="1052" 
d="M616 864l-534 76v328l907 -205v-397l-907 -203v321zM991 92h-909v328h909v-328z" />
    <glyph glyph-name="K.ss03" horiz-adv-x="1480" 
d="M1501 0h-540l-277 420l-160 -197v-223h-452v1372h452v-504l424 504h512l-483 -594z" />
    <glyph glyph-name="Kcommaaccent.ss03" horiz-adv-x="1480" 
d="M1501 0h-540l-277 420l-160 -197v-223h-452v1372h452v-504l424 504h512l-483 -594zM537 -92h411l-211 -348h-297z" />
    <glyph glyph-name="Q.ss04" horiz-adv-x="1597" 
d="M1085 -348l-233 319l-53 -2q-155 0 -293.5 56t-238 151.5t-158 228.5t-58.5 281t58.5 281t158 228.5t238 151.5t293.5 56t293.5 -56t238 -151.5t157.5 -228.5t58 -281q0 -166 -70.5 -309.5t-195.5 -243.5l362 -481h-557zM506 686q0 -135 82 -225t211 -90t211 90t82 225
t-82 225t-211 90t-211 -90t-82 -225z" />
    <glyph glyph-name="I.ss05" horiz-adv-x="944" 
d="M698 991v-610h205v-381h-862v381h205v610h-205v381h862v-381h-205z" />
    <glyph glyph-name="IJ.ss05" horiz-adv-x="2238" 
d="M903 1372v-381h-205v-610h205v-381h-862v381h205v610h-205v381h862zM2157 1372v-862q0 -244 -163.5 -392.5t-432.5 -148.5q-252 0 -407 131t-185 357l452 88q7 -94 41.5 -134t98.5 -40t102.5 37t38.5 102v481h-430v381h885z" />
    <glyph glyph-name="Iacute.ss05" horiz-adv-x="944" 
d="M674 1493h-416l164 344h532zM903 1372v-381h-205v-610h205v-381h-862v381h205v610h-205v381h862z" />
    <glyph glyph-name="Icircumflex.ss05" horiz-adv-x="944" 
d="M410 1493h-412l244 344h460l244 -344h-411l-62 90zM903 1372v-381h-205v-610h205v-381h-862v381h205v610h-205v381h862z" />
    <glyph glyph-name="Idieresis.ss05" horiz-adv-x="944" 
d="M217 1444q-98 0 -160.5 61.5t-62.5 157.5q0 90 63.5 153.5t159.5 63.5q97 0 161 -64t64 -153q0 -95 -63.5 -157t-161.5 -62zM729 1444q-98 0 -160.5 61.5t-62.5 157.5q0 90 63.5 153.5t159.5 63.5q97 0 161 -64t64 -153q0 -95 -63.5 -157t-161.5 -62zM903 1372v-381h-205
v-610h205v-381h-862v381h205v610h-205v381h862z" />
    <glyph glyph-name="Idotaccent.ss05" horiz-adv-x="944" 
d="M471 1454q-102 0 -167.5 64.5t-65.5 164.5q0 94 66 162t167 68t168.5 -68t67.5 -162q0 -100 -66.5 -164.5t-169.5 -64.5zM698 991v-610h205v-381h-862v381h205v610h-205v381h862v-381h-205z" />
    <glyph glyph-name="Igrave.ss05" horiz-adv-x="944" 
d="M285 1493l-281 344h533l163 -344h-415zM698 991v-610h205v-381h-862v381h205v610h-205v381h862v-381h-205z" />
    <glyph glyph-name="Imacron.ss05" horiz-adv-x="944" 
d="M840 1493h-734v319h734v-319zM698 991v-610h205v-381h-862v381h205v610h-205v381h862v-381h-205z" />
    <glyph glyph-name="Iogonek.ss05" horiz-adv-x="944" 
d="M698 991v-610h205v-381h-205l-12 -12q-57 -57 -75.5 -80t-18.5 -45q0 -47 57 -47q43 0 109 18l14 -231q-104 -52 -223 -52q-109 0 -177.5 56.5t-68.5 148.5q0 62 33.5 128t89.5 116h-385v381h205v610h-205v381h862v-381h-205z" />
    <glyph glyph-name="J.ss05" horiz-adv-x="1294" 
d="M1212 1372v-862q0 -244 -163.5 -392.5t-432.5 -148.5q-252 0 -406.5 131t-184.5 357l452 88q7 -94 41 -134t98 -40t103 37t39 102v481h-430v381h884z" />
    <glyph glyph-name="i.loclTRK" horiz-adv-x="612" 
d="M305 1581q101 0 168.5 -67.5t67.5 -161.5q0 -100 -66.5 -165t-169.5 -65q-102 0 -167.5 65t-65.5 165q0 94 66 161.5t167 67.5zM526 0h-440v1040h440v-1040z" />
    <glyph glyph-name="germandbls.case" horiz-adv-x="2666" 
d="M678 1403q259 0 420 -103.5t196 -298.5l-438 -88q-11 46 -32.5 78.5t-48.5 47t-49.5 20.5t-45.5 6q-46 0 -76.5 -21t-30.5 -59q0 -49 54 -63l268 -70q206 -54 307 -152t101 -262q0 -100 -38 -182t-99 -134t-141.5 -87.5t-162 -50.5t-164.5 -15q-265 0 -443.5 119.5
t-209.5 312.5l457 84q43 -161 196 -161q51 0 86 18.5t35 58.5q0 47 -61 64l-281 74q-196 47 -290.5 145.5t-94.5 255.5q0 113 46 202.5t126.5 145.5t186 85.5t227.5 29.5zM2001 1403q259 0 420 -103.5t196 -298.5l-438 -88q-11 46 -32.5 78.5t-48.5 47t-49.5 20.5t-45.5 6
q-46 0 -76.5 -21t-30.5 -59q0 -49 54 -63l268 -70q206 -54 307 -152t101 -262q0 -100 -38 -182t-99 -134t-141.5 -87.5t-162 -50.5t-164.5 -15q-265 0 -443.5 119.5t-209.5 312.5l457 84q43 -161 196 -161q51 0 86 18.5t35 58.5q0 47 -61 64l-281 74q-196 47 -290.5 145.5
t-94.5 255.5q0 113 46 202.5t126.5 145.5t186 85.5t227.5 29.5z" />
    <glyph glyph-name="a.ss01" horiz-adv-x="1177" 
d="M602 1071q245 0 379.5 -117t134.5 -333v-621h-428v66q-119 -97 -297 -97q-167 0 -269 93t-102 247q0 160 123 249t351 89h194v31q0 38 -24.5 62t-61.5 24q-78 0 -92 -86l-414 86q43 150 172.5 228.5t333.5 78.5zM578 274q45 0 77.5 28t32.5 85v43h-80q-52 0 -82 -22.5
t-30 -59.5q0 -34 23.5 -54t58.5 -20z" />
    <glyph glyph-name="aacute.ss01" horiz-adv-x="1177" 
d="M801 1161h-416l164 344h532zM602 1071q245 0 379.5 -117t134.5 -333v-621h-428v66q-119 -97 -297 -97q-167 0 -269 93t-102 247q0 160 123 249t351 89h194v31q0 38 -24.5 62t-61.5 24q-78 0 -92 -86l-414 86q43 150 172.5 228.5t333.5 78.5zM578 274q45 0 77.5 28
t32.5 85v43h-80q-52 0 -82 -22.5t-30 -59.5q0 -34 23.5 -54t58.5 -20z" />
    <glyph glyph-name="abreve.ss01" horiz-adv-x="1177" 
d="M600 1130q-180 0 -293.5 100t-113.5 261h325q0 -28 22 -50t60 -22q40 0 62 22t22 50h324q0 -161 -113.5 -261t-294.5 -100zM602 1071q245 0 379.5 -117t134.5 -333v-621h-428v66q-119 -97 -297 -97q-167 0 -269 93t-102 247q0 160 123 249t351 89h194v31q0 38 -24.5 62
t-61.5 24q-78 0 -92 -86l-414 86q43 150 172.5 228.5t333.5 78.5zM578 274q45 0 77.5 28t32.5 85v43h-80q-52 0 -82 -22.5t-30 -59.5q0 -34 23.5 -54t58.5 -20z" />
    <glyph glyph-name="acircumflex.ss01" horiz-adv-x="1177" 
d="M537 1161h-412l244 344h460l244 -344h-411l-62 90zM602 1071q245 0 379.5 -117t134.5 -333v-621h-428v66q-119 -97 -297 -97q-167 0 -269 93t-102 247q0 160 123 249t351 89h194v31q0 38 -24.5 62t-61.5 24q-78 0 -92 -86l-414 86q43 150 172.5 228.5t333.5 78.5z
M578 274q45 0 77.5 28t32.5 85v43h-80q-52 0 -82 -22.5t-30 -59.5q0 -34 23.5 -54t58.5 -20z" />
    <glyph glyph-name="adieresis.ss01" horiz-adv-x="1177" 
d="M344 1112q-98 0 -160.5 61.5t-62.5 157.5q0 90 63.5 153.5t159.5 63.5q97 0 161 -64t64 -153q0 -95 -63.5 -157t-161.5 -62zM856 1112q-98 0 -160.5 61.5t-62.5 157.5q0 90 63.5 153.5t159.5 63.5q97 0 161 -64t64 -153q0 -95 -63.5 -157t-161.5 -62zM602 1071
q245 0 379.5 -117t134.5 -333v-621h-428v66q-119 -97 -297 -97q-167 0 -269 93t-102 247q0 160 123 249t351 89h194v31q0 38 -24.5 62t-61.5 24q-78 0 -92 -86l-414 86q43 150 172.5 228.5t333.5 78.5zM578 274q45 0 77.5 28t32.5 85v43h-80q-52 0 -82 -22.5t-30 -59.5
q0 -34 23.5 -54t58.5 -20z" />
    <glyph glyph-name="agrave.ss01" horiz-adv-x="1177" 
d="M412 1161l-281 344h533l163 -344h-415zM602 1071q245 0 379.5 -117t134.5 -333v-621h-428v66q-119 -97 -297 -97q-167 0 -269 93t-102 247q0 160 123 249t351 89h194v31q0 38 -24.5 62t-61.5 24q-78 0 -92 -86l-414 86q43 150 172.5 228.5t333.5 78.5zM578 274
q45 0 77.5 28t32.5 85v43h-80q-52 0 -82 -22.5t-30 -59.5q0 -34 23.5 -54t58.5 -20z" />
    <glyph glyph-name="amacron.ss01" horiz-adv-x="1177" 
d="M967 1161h-734v320h734v-320zM602 1071q245 0 379.5 -117t134.5 -333v-621h-428v66q-119 -97 -297 -97q-167 0 -269 93t-102 247q0 160 123 249t351 89h194v31q0 38 -24.5 62t-61.5 24q-78 0 -92 -86l-414 86q43 150 172.5 228.5t333.5 78.5zM578 274q45 0 77.5 28
t32.5 85v43h-80q-52 0 -82 -22.5t-30 -59.5q0 -34 23.5 -54t58.5 -20z" />
    <glyph glyph-name="aogonek.ss01" horiz-adv-x="1177" 
d="M1176 -166l14 -231q-104 -52 -223 -52q-109 0 -177.5 56.5t-68.5 148.5q0 62 33.5 128t89.5 116h-156v66q-119 -97 -297 -97q-167 0 -269 93t-102 247q0 160 123 249t351 89h194v31q0 38 -24.5 62t-61.5 24q-78 0 -92 -86l-414 86q43 150 172.5 228.5t333.5 78.5
q245 0 379.5 -117t134.5 -333v-621l-12 -12q-57 -57 -75.5 -80t-18.5 -45q0 -47 57 -47q43 0 109 18zM578 274q45 0 77.5 28t32.5 85v43h-80q-52 0 -82 -22.5t-30 -59.5q0 -34 23.5 -54t58.5 -20z" />
    <glyph glyph-name="aring.ss01" horiz-adv-x="1177" 
d="M600 1110q-121 0 -205 81t-84 198q0 118 83.5 199t205.5 81t205.5 -81t83.5 -199q0 -117 -84 -198t-205 -81zM600 1468q-34 0 -58 -23.5t-24 -55.5q0 -31 24.5 -54.5t57.5 -23.5t57.5 23.5t24.5 54.5q0 32 -24 55.5t-58 23.5zM602 1071q245 0 379.5 -117t134.5 -333v-621
h-428v66q-119 -97 -297 -97q-167 0 -269 93t-102 247q0 160 123 249t351 89h194v31q0 38 -24.5 62t-61.5 24q-78 0 -92 -86l-414 86q43 150 172.5 228.5t333.5 78.5zM578 274q45 0 77.5 28t32.5 85v43h-80q-52 0 -82 -22.5t-30 -59.5q0 -34 23.5 -54t58.5 -20z" />
    <glyph glyph-name="atilde.ss01" horiz-adv-x="1177" 
d="M516 1217q-32 0 -46.5 -11t-29.5 -45h-235q0 179 74.5 289.5t193.5 110.5q53 0 98 -18t81 -36t65 -18q32 0 46.5 12t29.5 49h235q0 -179 -75 -289t-195 -110q-66 0 -137 33t-105 33zM602 1071q245 0 379.5 -117t134.5 -333v-621h-428v66q-119 -97 -297 -97
q-167 0 -269 93t-102 247q0 160 123 249t351 89h194v31q0 38 -24.5 62t-61.5 24q-78 0 -92 -86l-414 86q43 150 172.5 228.5t333.5 78.5zM578 274q45 0 77.5 28t32.5 85v43h-80q-52 0 -82 -22.5t-30 -59.5q0 -34 23.5 -54t58.5 -20z" />
    <glyph glyph-name="l.ss02" horiz-adv-x="733" 
d="M508 1475v-1072q0 -31 17 -49t46 -18q25 0 101 24l61 -309q-83 -46 -126 -60q-69 -22 -154 -22q-173 0 -279 109t-106 287v1110h440z" />
    <glyph glyph-name="lacute.ss02" horiz-adv-x="733" 
d="M506 1595h-416l164 344h532zM508 1475v-1072q0 -31 17 -49t46 -18q25 0 101 24l61 -309q-83 -46 -126 -60q-69 -22 -154 -22q-173 0 -279 109t-106 287v1110h440z" />
    <glyph glyph-name="lcaron.ss02" horiz-adv-x="733" 
d="M508 1475v-1072q0 -31 17 -49t46 -18q25 0 101 24l61 -309q-83 -46 -126 -60q-69 -22 -154 -22q-173 0 -279 109t-106 287v1110h440zM883 1065h-283v410h379z" />
    <glyph glyph-name="lcommaaccent.ss02" horiz-adv-x="733" 
d="M508 1475v-1072q0 -31 17 -49t46 -18q25 0 101 24l61 -309q-83 -46 -126 -60q-69 -22 -154 -22q-173 0 -279 109t-106 287v1110h440zM96 -440l97 348h411l-211 -348h-297z" />
    <glyph glyph-name="ldot.ss02" horiz-adv-x="1030" 
d="M508 1475v-1072q0 -31 17 -49t46 -18q25 0 101 24l61 -309q-83 -46 -126 -60q-69 -22 -154 -22q-173 0 -279 109t-106 287v1110h440zM795 995q101 0 168 -67.5t67 -161.5q0 -100 -66 -164.5t-169 -64.5t-168.5 64.5t-65.5 164.5q0 94 66.5 161.5t167.5 67.5z" />
    <glyph glyph-name="lslash.ss02" horiz-adv-x="768" 
d="M707 360l61 -309q-84 -47 -130 -61q-67 -21 -151 -21q-173 0 -279 109t-106 287v98l-82 -41v403l82 41v609h441v-394l102 52v-404l-102 -51v-275q0 -31 17 -49t46 -18q24 0 101 24z" />
    <glyph glyph-name="k.ss03" horiz-adv-x="1292" 
d="M1313 0h-533l-153 256l-115 -139v-117h-440v1475h440v-734l250 299h518l-350 -419z" />
    <glyph glyph-name="kcommaaccent.ss03" horiz-adv-x="1292" 
d="M1313 0h-533l-153 256l-115 -139v-117h-440v1475h440v-734l250 299h518l-350 -419zM453 -92h411l-211 -348h-297z" />
    <glyph glyph-name="f_j" horiz-adv-x="1431" 
d="M1118 1108q-105 0 -172 66t-67 167q0 96 68 165t171 69q104 0 173 -69t69 -165q0 -100 -68.5 -166.5t-173.5 -66.5zM1339 1040v-1013q0 -178 -106 -287t-279 -109q-121 0 -231 54l53 299q51 -7 60 -7q29 0 46 23t17 61v641h-319v-702h-441v702h-129v338h129v54
q0 186 119.5 298.5t314.5 112.5q98 0 197 -30l-57 -336q-28 4 -37 4q-43 0 -69.5 -24t-26.5 -64v-15h759z" />
    <glyph glyph-name="f_t" horiz-adv-x="1644" 
d="M1561 367l73 -322q-147 -76 -309 -76q-209 0 -317.5 111.5t-108.5 304.5v317h-319v-702h-441v702h-129v338h129v54q0 186 119.5 298.5t314.5 112.5q98 0 197 -30l-57 -336q-28 4 -37 4q-43 0 -69.5 -24t-26.5 -64v-15h319v291h440v-291h244v-338h-244v-262q0 -54 27 -76
t84 -22q66 0 111 25z" />
    <glyph glyph-name="fl.ss02" horiz-adv-x="1538" 
d="M676 1143q-43 0 -69.5 -24t-26.5 -64v-15h225v-338h-225v-702h-441v702h-129v338h129v54q0 186 119.5 298.5t314.5 112.5q126 0 244 -47l-84 -323q-27 8 -57 8zM1477 360l61 -309q-84 -47 -130 -61q-67 -21 -151 -21q-173 0 -279 109t-106 287v1110h441v-1072
q0 -31 17 -49t46 -18q24 0 101 24z" />
    <glyph glyph-name="zero.tf" 
d="M625 1403q267 0 430.5 -197.5t163.5 -519.5t-163.5 -519.5t-430.5 -197.5q-268 0 -432 197t-164 520t164 520t432 197zM625 346q139 0 139 340q0 338 -139 338q-142 0 -142 -338q0 -340 142 -340z" />
    <glyph glyph-name="one.tf" 
d="M1153 393v-393h-1057v393h348v451l-307 -127v418l457 237h295v-979h264z" />
    <glyph glyph-name="two.tf" 
d="M1196 381v-381h-1124l6 12v289l497 420q86 74 123 118.5t37 92.5q0 47 -28 75.5t-74 28.5q-57 0 -94 -40t-43 -124l-433 76q12 213 164 334t394 121q246 0 397 -125t151 -350q0 -56 -14 -106.5t-34 -87.5t-59 -80t-70 -71t-87 -75l-153 -127h444z" />
    <glyph glyph-name="three.tf" 
d="M1020 705q162 -101 162 -283q0 -193 -160 -323t-404 -130q-147 0 -268 50t-203.5 150t-105.5 237l438 75q13 -75 52.5 -115t93.5 -40q59 0 94 29.5t35 78.5q0 48 -40 73t-110 25h-155v324h147q69 0 109 23.5t40 68.5q0 49 -35 79t-94 30q-58 0 -95 -42t-46 -128l-422 78
q37 213 188.5 325.5t370.5 112.5q238 0 392.5 -125.5t154.5 -314.5q0 -163 -139 -258z" />
    <glyph glyph-name="four.tf" 
d="M1231 201h-148v-201h-413v201h-650v401l547 770h516v-809h148v-362zM670 563v361l-236 -361h236z" />
    <glyph glyph-name="five.tf" 
d="M530 899h154q254 0 383 -118.5t129 -325.5q0 -220 -150.5 -353t-398.5 -133q-152 0 -276 52.5t-204.5 159.5t-92.5 253l424 80q4 -97 48.5 -139.5t104.5 -42.5q57 0 92 32.5t35 86.5q0 52 -39.5 83t-105.5 31h-498l33 809h975v-377h-606z" />
    <glyph glyph-name="six.tf" 
d="M743 893q214 0 345 -125.5t131 -329.5q0 -207 -155 -338t-392 -131q-286 0 -453.5 180.5t-167.5 505.5q0 180 51 329.5t152 250.5q168 168 422 168q203 0 341.5 -93t180.5 -263l-420 -84q-13 49 -41.5 67.5t-77.5 18.5q-64 0 -118 -60q-65 -71 -68 -198q110 102 270 102z
M657 305q62 0 109 45t47 107q0 65 -46.5 109t-109.5 44t-109 -44t-46 -109q0 -62 46.5 -107t108.5 -45z" />
    <glyph glyph-name="seven.tf" 
d="M1161 1372v-334l-487 -1038h-473l481 991h-616v381h1095z" />
    <glyph glyph-name="eight.tf" 
d="M969 717q225 -96 225 -334q0 -179 -161.5 -296.5t-420.5 -117.5q-257 0 -417 117.5t-160 298.5q0 236 223 332q-172 92 -172 287q0 167 152 283t376 116t376.5 -116t152.5 -283q0 -196 -174 -287zM614 1085q-57 0 -97 -33t-40 -87t40 -88.5t97 -34.5t97.5 34.5t40.5 88.5
t-40 87t-98 33zM614 303q59 0 100.5 35.5t41.5 91.5q0 57 -41.5 92t-100.5 35t-100 -35t-41 -92q0 -56 41.5 -91.5t99.5 -35.5z" />
    <glyph glyph-name="nine.tf" 
d="M573 1401q286 0 453.5 -180.5t167.5 -505.5q0 -180 -51 -329.5t-152 -250.5q-168 -168 -422 -168q-203 0 -341.5 93.5t-180.5 263.5l420 84q13 -49 41.5 -67.5t77.5 -18.5q66 0 119 59q64 70 67 199q-111 -103 -270 -103q-214 0 -344.5 125.5t-130.5 329.5
q0 207 154.5 338t391.5 131zM588 760q63 0 109 44t46 109q0 62 -46.5 107t-108.5 45t-109 -45t-47 -107q0 -65 46.5 -109t109.5 -44z" />
    <glyph glyph-name="zero.zero.tf" 
d="M625 1403q267 0 430.5 -197.5t163.5 -519.5t-163.5 -519.5t-430.5 -197.5q-268 0 -432 197t-164 520t164 520t432 197zM625 1024q-142 0 -142 -338v-45l234 322q-33 61 -92 61zM625 346q139 0 139 340v37l-232 -320q35 -57 93 -57z" />
    <glyph glyph-name="zero.zero" horiz-adv-x="1351" 
d="M678 1403q189 0 333 -89t223 -252t79 -376t-79 -376t-223 -252t-333 -89q-287 0 -462 197t-175 520t175 520t462 197zM678 1024q-85 0 -133.5 -86.5t-48.5 -251.5q0 -56 6 -106l284 393q-45 51 -108 51zM678 346q84 0 132 87t48 253q0 30 -4 80l-274 -381q39 -39 98 -39z
" />
    <glyph glyph-name="zero.dnom" horiz-adv-x="847" 
d="M428 815q171 0 276 -115t105 -303q0 -187 -105 -302t-276 -115q-175 0 -281 114.5t-106 302.5q0 189 106 303.5t281 114.5zM428 215q44 0 70 45.5t26 136.5q0 90 -26 136.5t-70 46.5q-48 0 -75 -46.5t-27 -136.5q0 -182 102 -182z" />
    <glyph glyph-name="one.dnom" horiz-adv-x="550" 
d="M479 0h-276v467l-183 -90v262l275 160h184v-799z" />
    <glyph glyph-name="two.dnom" horiz-adv-x="753" 
d="M471 229h221v-229h-626v164l278 262q5 5 16 15t15.5 14.5l12.5 12.5t11.5 12.5t9 11t8 11t5 11t3.5 12t1 11.5q0 22 -12.5 34.5t-34.5 12.5q-25 0 -42.5 -20t-17.5 -68l-260 47q0 121 87.5 197.5t232.5 76.5q142 0 229.5 -74t87.5 -206q0 -53 -21 -97.5t-48 -73
t-78 -71.5z" />
    <glyph glyph-name="three.dnom" horiz-adv-x="733" 
d="M590 408q104 -59 104 -162q0 -113 -94.5 -189.5t-239.5 -76.5q-136 0 -226 70.5t-105 187.5l256 45q24 -80 80 -80q29 0 46 14t17 37t-21 38t-55 15h-94v189h88q35 0 55.5 14t20.5 37t-17.5 37t-46.5 14q-28 0 -47.5 -20.5t-23.5 -57.5l-254 45q13 101 103.5 175.5
t219.5 74.5q142 0 234 -74.5t92 -185.5q0 -93 -92 -147z" />
    <glyph glyph-name="four.dnom" horiz-adv-x="804" 
d="M786 109h-92v-109h-258v109h-405v249l340 441h323v-465h92v-225zM436 334v194l-145 -194h145z" />
    <glyph glyph-name="five.dnom" horiz-adv-x="741" 
d="M313 524h95q152 0 228.5 -69t76.5 -189q0 -130 -90 -208t-240 -78q-147 0 -241.5 75.5t-106.5 194.5l256 41q7 -43 32 -63.5t56 -20.5q33 0 52.5 17t19.5 42q0 24 -18.5 41t-55.5 17h-318l21 473h590v-236h-355z" />
    <glyph glyph-name="six.dnom" horiz-adv-x="774" 
d="M455 518q126 0 202 -71.5t76 -190.5q0 -123 -91.5 -199.5t-231.5 -76.5q-170 0 -269.5 105.5t-99.5 295.5q0 217 119 336q98 98 252 98q128 0 208.5 -60t100.5 -167l-254 -41q-7 27 -23 37t-43 10q-33 0 -61 -31q-29 -32 -35 -88q68 43 150 43zM401 188q35 0 57.5 21.5
t22.5 56.5q0 34 -22.5 55t-57.5 21t-57 -21t-22 -55q0 -35 22 -56.5t57 -21.5z" />
    <glyph glyph-name="seven.dnom" horiz-adv-x="655" 
d="M641 797v-209l-262 -590h-295l262 563h-330v236h625z" />
    <glyph glyph-name="eight.dnom" horiz-adv-x="788" 
d="M621 416q129 -58 129 -193q0 -106 -99 -174.5t-258 -68.5q-157 0 -254.5 69t-97.5 174q0 138 129 193q-98 53 -98 166q0 96 93 164.5t230 68.5t230.5 -68.5t93.5 -164.5q0 -113 -98 -166zM395 616q-32 0 -54 -16.5t-22 -44.5t22 -45.5t54 -17.5t55 18t23 45
q0 28 -23 44.5t-55 16.5zM397 188q33 0 55.5 17.5t22.5 46.5t-23.5 46t-56.5 17q-34 0 -57 -16.5t-23 -46.5q0 -29 23 -46.5t59 -17.5z" />
    <glyph glyph-name="nine.dnom" horiz-adv-x="774" 
d="M365 815q169 0 268.5 -105.5t99.5 -295.5q0 -217 -119 -336q-98 -98 -252 -98q-128 0 -208.5 60t-100.5 167l254 41q7 -27 23 -37t43 -10q34 0 61 30q32 41 35 97q-65 -52 -150 -52q-126 0 -202 72t-76 191q0 123 92 199.5t232 76.5zM373 453q35 0 57.5 20.5t22.5 54.5
q0 35 -22.5 56.5t-57.5 21.5t-57.5 -21.5t-22.5 -56.5q0 -34 22.5 -54.5t57.5 -20.5z" />
    <glyph glyph-name="zero.numr" horiz-adv-x="847" 
d="M428 1393q171 0 276 -115t105 -303q0 -187 -105.5 -302.5t-275.5 -115.5q-174 0 -280.5 115t-106.5 303q0 189 106 303.5t281 114.5zM428 793q44 0 70 45.5t26 136.5q0 90 -26 136t-70 46q-48 0 -75 -46t-27 -136q0 -182 102 -182z" />
    <glyph glyph-name="one.numr" horiz-adv-x="550" 
d="M479 573h-276v467l-183 -90v262l275 160h184v-799z" />
    <glyph glyph-name="two.numr" horiz-adv-x="753" 
d="M471 805h221v-230h-626v164l278 262q5 5 16 15t15.5 14.5l12.5 12.5t11.5 12.5t9 11t8 11t5 11t3.5 12t1 11.5q0 22 -12.5 34.5t-34.5 12.5q-25 0 -42.5 -20t-17.5 -68l-260 47q0 121 87.5 198t232.5 77q142 0 229.5 -74.5t87.5 -206.5q0 -53 -21 -97.5t-48 -73
t-78 -71.5z" />
    <glyph glyph-name="three.numr" horiz-adv-x="733" 
d="M590 985q104 -59 104 -162q0 -113 -94.5 -189.5t-239.5 -76.5q-136 0 -226 70.5t-105 187.5l256 45q24 -80 80 -80q29 0 46 14t17 37t-21 38.5t-55 15.5h-94v188h88q35 0 55.5 14t20.5 37t-17.5 37.5t-46.5 14.5q-28 0 -47.5 -20.5t-23.5 -57.5l-254 45
q13 101 103.5 175.5t219.5 74.5q142 0 234 -74.5t92 -185.5q0 -94 -92 -148z" />
    <glyph glyph-name="four.numr" horiz-adv-x="804" 
d="M786 682h-92v-109h-258v109h-405v250l340 440h323v-465h92v-225zM436 907v195l-145 -195h145z" />
    <glyph glyph-name="five.numr" horiz-adv-x="741" 
d="M313 1100h95q152 0 228.5 -69t76.5 -189q0 -130 -90.5 -208.5t-239.5 -78.5q-147 0 -241.5 75.5t-106.5 194.5l256 41q7 -43 32 -63.5t56 -20.5q33 0 52.5 17t19.5 43q0 24 -18.5 40.5t-55.5 16.5h-318l21 473h590v-235h-355z" />
    <glyph glyph-name="six.numr" horiz-adv-x="774" 
d="M455 1096q126 0 202 -71.5t76 -190.5q0 -123 -91.5 -200t-231.5 -77q-170 0 -269.5 105.5t-99.5 295.5q0 217 119 336q99 99 252 99q128 0 208.5 -60.5t100.5 -167.5l-254 -41q-7 27 -23 37t-43 10q-34 0 -61 -30q-29 -32 -35 -88q68 43 150 43zM401 766q35 0 57.5 21.5
t22.5 56.5q0 34 -22.5 55t-57.5 21t-57 -21t-22 -55q0 -35 22 -56.5t57 -21.5z" />
    <glyph glyph-name="seven.numr" horiz-adv-x="655" 
d="M641 1372v-209l-262 -590h-295l262 564h-330v235h625z" />
    <glyph glyph-name="eight.numr" horiz-adv-x="788" 
d="M621 993q129 -58 129 -192q0 -106 -99 -175t-258 -69q-156 0 -254 69t-98 175q0 137 129 192q-98 53 -98 166q0 96 93 165t230 69t230.5 -69t93.5 -165q0 -113 -98 -166zM395 1194q-32 0 -54 -16.5t-22 -44.5t22 -46t54 -18q31 0 54.5 18.5t23.5 45.5q0 28 -23 44.5
t-55 16.5zM397 766q33 0 55.5 17t22.5 46t-23.5 46.5t-56.5 17.5q-34 0 -57 -17t-23 -47q0 -29 23 -46t59 -17z" />
    <glyph glyph-name="nine.numr" horiz-adv-x="774" 
d="M365 1393q169 0 268.5 -106t99.5 -296q0 -217 -119 -336q-98 -98 -252 -98q-128 0 -208.5 60t-100.5 167l254 41q7 -27 23 -37t43 -10q33 0 61 31q32 41 35 96q-64 -51 -150 -51q-126 0 -202 71.5t-76 190.5q0 123 92 200t232 77zM373 1030q35 0 57.5 21t22.5 55
q0 35 -22.5 56.5t-57.5 21.5t-57.5 -21.5t-22.5 -56.5q0 -34 22.5 -55t57.5 -21z" />
    <glyph glyph-name="backslash.case" horiz-adv-x="958" 
d="M918 0h-390l-485 1372h389z" />
    <glyph glyph-name="periodcentered.case" horiz-adv-x="538" 
d="M268 918q102 0 171 -71.5t69 -168.5q0 -102 -68 -170t-172 -68q-103 0 -170 68t-67 170q0 98 67.5 169t169.5 71z" />
    <glyph glyph-name="bullet.case" horiz-adv-x="819" 
d="M410 1036q161 0 269.5 -113.5t108.5 -267.5q0 -161 -107.5 -268.5t-270.5 -107.5q-164 0 -270.5 107.5t-106.5 268.5q0 155 107.5 268t269.5 113z" />
    <glyph glyph-name="colon.case" horiz-adv-x="538" 
d="M268 1184q102 0 171 -71.5t69 -168.5q0 -102 -68 -169.5t-172 -67.5t-170.5 67.5t-66.5 169.5q0 98 67.5 169t169.5 71zM268 588q102 0 171 -71.5t69 -168.5q0 -102 -68 -169.5t-172 -67.5t-170.5 67.5t-66.5 169.5q0 98 67.5 169t169.5 71z" />
    <glyph glyph-name="exclamdown.case" horiz-adv-x="645" 
d="M336 930q-102 0 -170 67t-68 160q0 97 67 162t171 65t171.5 -65t67.5 -162q0 -93 -68.5 -160t-170.5 -67zM72 63l41 799h419l41 -799v-63h-501v63z" />
    <glyph glyph-name="questiondown.case" horiz-adv-x="1146" 
d="M586 946q-102 0 -171 67.5t-69 160.5q0 97 68 162t172 65q103 0 170 -65t67 -162q0 -93 -67.5 -160.5t-169.5 -67.5zM662 473l444 -90q-21 -86 -64.5 -156t-112 -125t-171 -85.5t-230.5 -30.5q-220 0 -358.5 126t-138.5 310q0 140 86 239t241 144v86h441l-2 -350h-181
q-63 0 -101 -24t-38 -64t24 -64t62 -24q40 0 67.5 29.5t31.5 78.5z" />
    <glyph glyph-name="semicolon.case" horiz-adv-x="614" 
d="M344 1184q102 0 171 -71.5t69 -168.5q0 -102 -68 -169.5t-172 -67.5t-171 67.5t-67 169.5q0 98 68 169t170 71zM317 -270h-337l116 671h465v-10z" />
    <glyph glyph-name="slash.case" horiz-adv-x="999" 
d="M414 0h-351l523 1372h350z" />
    <glyph glyph-name="braceleft.case" horiz-adv-x="847" 
d="M594 983v-96q0 -72 -27 -128t-80 -83q107 -54 107 -213v-76q0 -22 11 -34.5t30 -12.5h151v-340h-317q-120 0 -193 75t-73 199v127q0 70 -82 91l-80 20v328l80 20q82 21 82 88v150q0 123 73 198.5t193 75.5h317v-340h-151q-19 0 -30 -13.5t-11 -35.5z" />
    <glyph glyph-name="braceright.case" horiz-adv-x="847" 
d="M807 840v-328l-80 -20q-82 -21 -82 -91v-127q0 -124 -73 -199t-193 -75h-318v340h152q19 0 30 12.5t11 34.5v76q0 160 106 213q-53 27 -79.5 82.5t-26.5 128.5v96q0 22 -11 35.5t-30 13.5h-152v340h318q120 0 193 -75.5t73 -198.5v-150q0 -67 82 -88z" />
    <glyph glyph-name="bracketleft.case" horiz-adv-x="860" 
d="M463 1032v-692h336v-340h-727v1372h727v-340h-336z" />
    <glyph glyph-name="bracketright.case" horiz-adv-x="860" 
d="M788 1372v-1372h-727v340h336v692h-336v340h727z" />
    <glyph glyph-name="parenleft.case" horiz-adv-x="772" 
d="M506 688q0 -34 3.5 -66.5t7.5 -58t15 -54.5t17.5 -47t23 -45t24.5 -40t29.5 -40.5t29 -37t33 -38.5t32.5 -38l-289 -258q-67 64 -112.5 112t-101 121.5t-88.5 142t-56 159.5t-23 188t23 188t56 159t89 141t101 121t112 112l273 -260q-12 -16 -40 -52t-41.5 -55t-36 -53.5
t-33.5 -62.5t-24 -66t-18.5 -81t-5.5 -91z" />
    <glyph glyph-name="parenright.case" horiz-adv-x="772" 
d="M68 1149l272 260q67 -64 112 -112t101 -121t89 -141t56 -159t23 -188t-23 -188t-56 -159.5t-88.5 -142t-101 -121.5t-112.5 -112l-289 258q7 9 32.5 38t33 38.5t29 37t29.5 40.5t24.5 40t23 45t17.5 47t15 54.5t7.5 58t3.5 66.5q0 56 -9.5 108t-19.5 85t-36.5 79t-38 63
t-48.5 65.5t-46 60.5z" />
    <glyph glyph-name="emdash.case" horiz-adv-x="2129" 
d="M2007 492h-1884v348h1884v-348z" />
    <glyph glyph-name="endash.case" horiz-adv-x="1269" 
d="M1147 492h-1024v348h1024v-348z" />
    <glyph glyph-name="hyphen.case" horiz-adv-x="937" 
d="M815 485h-692v361h692v-361z" />
    <glyph glyph-name="guillemotleft.case" horiz-adv-x="1171" 
d="M51 659l189 365h389l-189 -365l189 -364h-389zM543 659l188 365h389l-188 -365l188 -364h-389z" />
    <glyph glyph-name="guillemotright.case" horiz-adv-x="1171" 
d="M51 295l189 364l-189 365h389l189 -365l-189 -364h-389zM543 295l188 364l-188 365h389l188 -365l-188 -364h-389z" />
    <glyph glyph-name="guilsinglleft.case" horiz-adv-x="679" 
d="M51 659l189 365h389l-189 -365l189 -364h-389z" />
    <glyph glyph-name="guilsinglright.case" horiz-adv-x="679" 
d="M51 295l189 364l-189 365h389l189 -365l-189 -364h-389z" />
    <glyph glyph-name="cent.tf" 
d="M788 477l402 -69q-21 -151 -120.5 -259.5t-248.5 -152.5v-262h-360v260q-182 51 -296 191.5t-114 334.5t114 335t296 192v243h360v-243q148 -44 247 -151.5t120 -256.5l-400 -74q-10 67 -50.5 105.5t-98.5 38.5q-73 0 -119.5 -56t-46.5 -133t46.5 -132.5t119.5 -55.5
q58 0 98.5 38.5t50.5 106.5z" />
    <glyph glyph-name="dollar.tf" 
d="M1208 455q0 -92 -33 -167.5t-90 -125t-125.5 -81.5t-148.5 -48v-238h-360v242q-164 43 -277.5 148.5t-142.5 242.5l411 78q27 -83 75 -120.5t122 -37.5q47 0 81 17.5t34 46.5q0 48 -58 65l-266 70q-184 48 -273 139t-89 238q0 170 104.5 275.5t278.5 141.5v236h360v-240
q159 -37 260.5 -134t124.5 -240l-393 -68q-41 145 -180 145q-45 0 -73 -18t-28 -55q0 -48 49 -60l254 -65q195 -51 289 -141.5t94 -245.5z" />
    <glyph glyph-name="Euro.tf" 
d="M780 606l437 -80q-22 -243 -174.5 -400t-385.5 -157q-207 0 -350.5 129.5t-195.5 356.5h-91v196h66v35v35h-66v194h91q50 226 194.5 357t351.5 131q155 0 280 -73t196.5 -200t80.5 -286l-428 -78q-13 147 -45.5 207.5t-83.5 60.5q-38 0 -64.5 -27.5t-43.5 -91.5h168
l-31 -194h-158v-35v-35h156l-33 -196h-102q31 -117 108 -117q51 0 83 61t40 207z" />
    <glyph glyph-name="florin.tf" 
d="M1006 1040q-45 0 -76.5 -26t-38.5 -70l-21 -108h213v-338h-274l-78 -435q-34 -184 -157.5 -292.5t-303.5 -108.5q-24 0 -46 2t-42 6t-35.5 7.5t-32.5 11t-27 11.5t-24.5 12.5t-19.5 11.5t-18.5 12t-14.5 10l117 309q68 -26 96 -26q29 0 48.5 19.5t25.5 53.5l72 396h-162
v338h223l27 147q35 191 174.5 305.5t331.5 114.5q154 0 282 -70l-129 -323q-61 30 -110 30z" />
    <glyph glyph-name="sterling.tf" 
d="M1178 373v-373h-1096v291l106 37v127h-106v340h106v163q0 201 135.5 323t356.5 122q204 0 339 -117t146 -297l-415 -80q-7 68 -24.5 90.5t-45.5 22.5q-27 0 -42 -17t-15 -47v-163h321v-340h-321v-82h555z" />
    <glyph glyph-name="yen.tf" 
d="M926 651h178v-225h-264v-61h264v-226h-264v-139h-453v139h-242v226h242v61h-242v225h160l-287 721h463l133 -502l131 502h484z" />
    <glyph glyph-name="approxequal.tf" 
d="M1133 958v-296q-106 -50 -232 -50q-77 0 -148.5 17.5t-118.5 39t-116 39t-141 17.5q-67 0 -141.5 -16t-118.5 -43v286q44 32 116 51t144 19q73 0 144 -17.5t120 -39t120 -39t144 -17.5q58 0 121.5 13t106.5 36zM1133 590v-297q-103 -49 -232 -49q-77 0 -148.5 17.5
t-118.5 38.5t-116 38.5t-141 17.5q-67 0 -141.5 -16t-118.5 -43v287q43 32 115.5 50.5t144.5 18.5q73 0 144 -17.5t120 -38.5t120 -38.5t144 -17.5q58 0 121.5 13t106.5 36z" />
    <glyph glyph-name="divide.tf" 
d="M625 1176q71 0 119.5 -50.5t48.5 -117.5q0 -71 -48 -118.5t-120 -47.5q-73 0 -120.5 47.5t-47.5 118.5q0 68 48 118t120 50zM1137 451h-1024v327h1024v-327zM625 389q71 0 119.5 -50.5t48.5 -117.5q0 -71 -48 -118.5t-120 -47.5q-73 0 -120.5 47.5t-47.5 118.5
q0 68 48 118t120 50z" />
    <glyph glyph-name="equal.tf" 
d="M1137 672h-1024v307h1024v-307zM1137 266h-1024v307h1024v-307z" />
    <glyph glyph-name="greater.tf" 
d="M682 666l-477 108v373l889 -293v-379l-889 -293v373z" />
    <glyph glyph-name="greaterequal.tf" 
d="M711 864l-535 76v328l907 -205v-397l-907 -203v321zM1085 92h-909v328h909v-328z" />
    <glyph glyph-name="less.tf" 
d="M1044 182l-888 293v379l888 293v-373l-477 -108l477 -111v-373z" />
    <glyph glyph-name="lessequal.tf" 
d="M1073 463l-907 203v397l907 205v-328l-534 -76l534 -80v-321zM1073 420v-328h-909v328h909z" />
    <glyph glyph-name="minus.tf" 
d="M1137 451h-1024v327h1024v-327z" />
    <glyph glyph-name="multiply.tf" 
d="M852 614l262 -260l-227 -227l-262 260l-263 -260l-227 227l262 260l-262 260l227 228l263 -260l262 260l227 -228z" />
    <glyph glyph-name="notequal.tf" 
d="M801 672l-53 -99h389v-307h-555l-105 -194h-278l104 194h-190v307h356l53 99h-409v307h575l86 158h279l-86 -158h170v-307h-336z" />
    <glyph glyph-name="plus.tf" 
d="M1137 451h-349v-349h-327v349h-348v327h348v348h327v-348h349v-327z" />
    <glyph glyph-name="plusminus.tf" 
d="M1137 1024v-328h-349v-266h-327v266h-348v328h348v307h327v-307h349zM113 328h1024v-328h-1024v328z" />
    <glyph glyph-name="bar.case" horiz-adv-x="534" 
d="M463 -84h-391v1540h391v-1540z" />
    <glyph glyph-name="at.case" horiz-adv-x="1886" 
d="M1405 1028v-553q0 -65 74 -65q41 0 72 44.5t46 113t15 149.5q0 176 -86 312t-231.5 207t-323.5 71q-146 0 -274.5 -50.5t-221 -138.5t-146 -213.5t-53.5 -269.5q0 -190 88.5 -338.5t247 -230.5t359.5 -82q138 0 247.5 41.5t229.5 134.5l96 -154q-118 -101 -255 -151
t-316 -50q-196 0 -363 61.5t-282.5 170t-180.5 261t-65 329.5q0 183 69 343.5t187.5 273t283 177t349.5 64.5q172 0 325 -56t265 -155t177.5 -243.5t65.5 -313.5q0 -69 -11 -133t-41.5 -131t-77 -115.5t-123.5 -79.5t-175 -31q-199 0 -268 129q-87 -125 -262 -125
q-164 0 -272.5 110.5t-108.5 299.5t109 299.5t274 110.5q143 0 227 -84v61h330zM956 518q50 0 84.5 35.5t34.5 91.5t-34 90.5t-85 34.5t-85.5 -34.5t-34.5 -90.5t34.5 -91.5t85.5 -35.5z" />
    <glyph glyph-name="caron.alt" horiz-adv-x="1228" 
d="M715 922h-283v409h379z" />
    </font>
</defs>
</svg>
