<?xml version="1.0" standalone="no"?>
<!DOCTYPE svg PUBLIC "-//W3C//DTD SVG 1.1//EN" "http://www.w3.org/Graphics/SVG/1.1/DTD/svg11.dtd" >
<svg xmlns="http://www.w3.org/2000/svg" xmlns:xlink="http://www.w3.org/1999/xlink" version="1.1">
<metadata>
Created by FontForge 20170731 at Thu Oct 21 03:07:35 2004
 By Aleksey,,,
  1991 Bigelow &#38; Holmes. All Rights Reserved.   1990-1991 Type Solutions, Inc. All Rights Reserved.
</metadata>
<defs>
<font id="LucidaCalligraphyEF" horiz-adv-x="464" >
  <font-face 
    font-family="LucidaCalligraphyEF"
    font-weight="500"
    font-stretch="normal"
    units-per-em="1000"
    panose-1="2 0 6 3 3 0 0 2 0 3"
    ascent="800"
    descent="-200"
    x-height="398"
    cap-height="531"
    bbox="-213 -239 945 704"
    underline-thickness="36"
    underline-position="-108"
    unicode-range="U+0020-FB02"
  />
<missing-glyph horiz-adv-x="280" 
 />
    <glyph glyph-name=".notdef" horiz-adv-x="280" 
 />
    <glyph glyph-name=".null" horiz-adv-x="0" 
 />
    <glyph glyph-name="nonmarkingreturn" horiz-adv-x="250" 
 />
    <glyph glyph-name="space" unicode=" " horiz-adv-x="250" 
 />
    <glyph glyph-name="exclam" unicode="!" horiz-adv-x="186" 
d="M114 89l42 -58l-55 -40l-43 55zM146 424l21 107l73 13l-24 -120l-81 -279l-21 -7z" />
    <glyph glyph-name="quotedbl" unicode="&#x22;" horiz-adv-x="274" 
d="M142 566h70l-24 -176h-22zM265 566h71l-24 -176h-22z" />
    <glyph glyph-name="numbersign" unicode="#" 
d="M147 164h-87l5 35h99l62 133h-132l4 35h145l77 164h40l-77 -164h100l77 164h40l-77 -164h87l-5 -35h-99l-62 -133h132l-4 -35h-145l-77 -164h-40l77 164h-100l-77 -164h-40zM304 199l63 133h-101l-62 -133h100z" />
    <glyph glyph-name="dollar" unicode="$" horiz-adv-x="374" 
d="M184 1q-5 -1 -9 -1h-6q-69 0 -125 19l44 46q49 -33 102 -38l28 141l-24 15q-33 20 -49 43.5t-16 47.5q0 41 35 72t97 41l11 56h22l-11 -53q46 0 100 -20l-20 -78h-22q3 12 3 20q0 45 -65 51l-28 -139l20 -15q20 -15 33.5 -26t19.5 -19q12 -16 12 -41q0 -42 -35 -74
q-36 -32 -94 -45l-12 -57h-22zM256 363q-73 -9 -73 -62q0 -23 37 -53l12 -10zM212 29q70 12 70 65q0 26 -33 50l-12 9l-25 -124v0z" />
    <glyph glyph-name="percent" unicode="%" horiz-adv-x="557" 
d="M192 265q-41 0 -65 26q-25 25 -25 69q-1 69 41 121q40 49 98 50q43 0 66 -26q25 -24 25 -68q0 -73 -40 -122q-42 -50 -100 -50zM155 357q0 -69 43 -69q33 0 60 46q26 47 26 105q0 70 -43 70q-34 0 -60 -47t-26 -105zM423 0q-39 0 -65 26q-24 26 -24 68q0 71 40 121t98 50
q42 0 67 -25q25 -27 25 -69q1 -36 -10 -66t-31 -56q-40 -49 -100 -49zM386 90q-2 -68 44 -68q33 0 59 47t26 105q0 70 -43 70q-33 0 -60 -47q-26 -47 -26 -107zM554 544h47l-489 -557h-47z" />
    <glyph glyph-name="ampersand" unicode="&#x26;" horiz-adv-x="602" 
d="M367 49q-77 -62 -151 -62q-63 0 -104 40q-41 41 -41 102q0 114 169 183q-19 53 -19 85q0 56 47 102q48 45 108 45q44 0 69 -24q26 -24 26 -64q0 -98 -159 -148q46 -121 102 -200q56 59 65 131h-74l34 53h95q73 0 109 23l-28 -44q-41 -32 -79 -32h-12q-28 -86 -97 -149
q51 -63 84 -63q28 0 75 31q2 1 4.5 3t6.5 4l-5 -26q-62 -52 -119 -52q-32 0 -52 12q-11 5 -24 17.5t-30 32.5zM305 329q107 42 107 130q0 63 -52 63q-32 0 -53 -27q-20 -26 -20 -70q0 -39 18 -96zM355 67q-32 48 -59 103.5t-50 121.5q-100 -45 -100 -142q0 -51 31 -85
t78 -34q43 0 100 36z" />
    <glyph glyph-name="quotesingle" unicode="'" horiz-adv-x="168" 
d="M128 566h89l-33 -194h-22z" />
    <glyph glyph-name="parenleft" unicode="(" horiz-adv-x="259" 
d="M190 -106q-107 81 -107 259q0 138 72 271q72 134 180 195l-6 -28q-65 -53 -105 -140q-33 -74 -57 -178q-24 -103 -24 -182q-1 -109 51 -177z" />
    <glyph glyph-name="parenright" unicode=")" horiz-adv-x="259" 
d="M173 619q106 -81 106 -259q0 -137 -72 -271q-72 -133 -179 -195l5 29q64 50 105 139q35 74 57 178q24 105 24 182q1 109 -51 178z" />
    <glyph glyph-name="asterisk" unicode="*" horiz-adv-x="374" 
d="M240 362l-86 -74h-35l108 93h-107l12 30h108l-75 89h31l58 -69l19 100l42 13l-21 -108l80 64h36l-109 -89h110l-13 -30h-104l74 -93h-30l-58 74l-20 -101l-43 -13z" />
    <glyph glyph-name="plus" unicode="+" 
d="M251 193h-175l8 39h175l34 175h40l-35 -175h175l-7 -39h-175l-35 -175h-40z" />
    <glyph glyph-name="comma" unicode="," horiz-adv-x="208" 
d="M123 115l53 -70q-5 -73 -45 -112t-113 -39l20 22q57 6 67 75l-53 72z" />
    <glyph glyph-name="hyphen" unicode="-" horiz-adv-x="230" 
d="M85 248h164l-15 -53h-164z" />
    <glyph glyph-name="hyphen" unicode="&#xad;" horiz-adv-x="230" 
d="M85 248h164l-15 -53h-164z" />
    <glyph glyph-name="period" unicode="." horiz-adv-x="208" 
d="M123 115l54 -70l-72 -54l-53 73z" />
    <glyph glyph-name="slash" unicode="/" horiz-adv-x="391" 
d="M436 619h47l-456 -725h-48z" />
    <glyph glyph-name="zero" unicode="0" horiz-adv-x="488" 
d="M245 -9q-71 0 -115 42q-42 42 -42 113q0 105 67 179q68 73 164 73q75 0 117 -41q42 -40 42 -112q0 -107 -67 -180q-68 -74 -166 -74zM250 13q62 0 96 45q24 32 42 94q19 61 19 116q0 108 -92 108q-68 0 -111 -73q-42 -70 -44 -186q0 -102 90 -104z" />
    <glyph glyph-name="one" unicode="1" horiz-adv-x="319" 
d="M63 22h25q32 0 41 10q4 5 9.5 23t11.5 48l35 179q4 20 6 32.5t2 20.5t-7.5 13t-24.5 6l-32 2l-1 22l156 20l-28 -115l-35 -177q-5 -28 -7.5 -43.5t-2.5 -17.5q0 -23 30 -23h32l1 -22h-221z" />
    <glyph glyph-name="two" unicode="2" horiz-adv-x="418" 
d="M63 57q270 146 270 244q0 31 -23 53q-24 22 -56 22q-85 0 -109 -79h-22l12 82q73 19 129 19q68 0 106 -25q39 -25 39 -68q0 -46 -37 -80q-18 -17 -61.5 -46t-114.5 -71l-87 -51h271l-23 -57h-313z" />
    <glyph glyph-name="three" unicode="3" horiz-adv-x="393" 
d="M61 -39q55 -50 111 -50q47 0 81 33q33 33 33 78q0 49 -41 80q-40 31 -106 31h-13q-7 0 -17 -2l26 56q32 0 62 -3q51 12 85 46q32 32 34 71q0 33 -23 54q-22 21 -58 21q-82 0 -103 -79h-22l12 80q78 21 133 21q60 0 95 -22q36 -23 36 -60q2 -78 -147 -139
q111 -34 111 -126q0 -67 -61 -116q-62 -50 -144 -50q-69 0 -131 28z" />
    <glyph glyph-name="four" unicode="4" horiz-adv-x="480" 
d="M23 25l6 30l362 335l37 8l-67 -338l107 -5l-16 -48l-100 5q-4 -28 -6 -46.5t-2 -29.5q0 -20 28 -20h31l2 -22h-216l10 22h32q25 0 34 13q7 12 25 85zM350 316l-271 -244l221 -10z" />
    <glyph glyph-name="five" unicode="5" horiz-adv-x="398" 
d="M62 -40q40 -44 104 -44q57 0 94 40t37 103q1 100 -138 100q-14 0 -28 -1.5t-30 -3.5l47 236h278l-24 -63h-234l-31 -110q14 2 25 3.5t22 1.5q41 1 73.5 -9t58.5 -29q51 -37 51 -100q0 -75 -72 -137q-71 -62 -159 -62q-29 0 -58.5 7t-59.5 22z" />
    <glyph glyph-name="six" unicode="6" horiz-adv-x="456" 
d="M439 407q3 12 3 18q0 22 -22 38q-21 15 -56 15q-66 1 -126 -73q-59 -74 -69 -172q72 94 158 94q50 0 83 -33q34 -33 34 -85q0 -84 -62 -152q-61 -66 -142 -66q-70 0 -111 48q-41 49 -41 130q0 134 90 234q90 101 208 101q44 0 96 -21l-20 -76h-23zM260 13q49 0 83 49
t34 119q0 111 -83 111q-54 0 -93 -45t-39 -107q0 -56 28 -91q27 -36 70 -36z" />
    <glyph glyph-name="seven" unicode="7" horiz-adv-x="408" 
d="M48 -115q7 39 28 80.5t60 83.5l221 235l39 43h-295l25 63h337l-16 -41q-294 -313 -315 -455l-84 -9v0z" />
    <glyph glyph-name="eight" unicode="8" horiz-adv-x="438" 
d="M202 268q-50 35 -50 92t56 101q55 43 129 43q53 0 84 -24q33 -25 33 -64q1 -72 -129 -145q89 -56 89 -122q0 -61 -63 -109q-64 -49 -142 -49q-58 0 -99 32q-40 33 -40 81q0 84 139 159zM303 284q90 55 91 118q0 33 -24 54q-25 22 -60 22q-38 1 -68 -27q-28 -27 -28 -67
q0 -21 16 -43t49 -42l24 -15v0zM227 248q-86 -46 -87 -134q0 -45 28 -70q29 -26 74 -26q42 0 73 30q31 31 31 72q0 53 -89 109l-30 19v0z" />
    <glyph glyph-name="nine" unicode="9" horiz-adv-x="456" 
d="M91 -22l-1 -15q-2 -28 18.5 -42t58.5 -14q68 0 126 73q59 74 69 173q-69 -94 -159 -96q-48 0 -84 34q-34 34 -34 87q0 87 62 153q61 67 142 67q69 0 111 -48q41 -49 41 -130q0 -132 -90 -234q-90 -101 -208 -101q-35 0 -95 17l21 76h22zM270 372q-48 0 -84 -48
q-34 -47 -34 -116q0 -111 85 -111q55 0 94 44q38 43 40 105q0 53 -29 90q-27 36 -72 36z" />
    <glyph glyph-name="colon" unicode=":" horiz-adv-x="202" 
d="M119 115l54 -70l-72 -54l-53 73zM175 398l55 -70l-73 -54l-52 73z" />
    <glyph glyph-name="semicolon" unicode=";" horiz-adv-x="200" 
d="M118 115l53 -70q-3 -71 -45 -112q-40 -39 -113 -39l20 22q57 6 67 75l-53 72zM174 398l54 -70l-72 -54l-52 73z" />
    <glyph glyph-name="semicolon" unicode="&#x37e;" horiz-adv-x="200" 
d="M118 115l53 -70q-3 -71 -45 -112q-40 -39 -113 -39l20 22q57 6 67 75l-53 72zM174 398l54 -70l-72 -54l-52 73z" />
    <glyph glyph-name="less" unicode="&#x3c;" 
d="M497 359l-328 -151l270 -148l-8 -42l-351 194l428 195z" />
    <glyph glyph-name="equal" unicode="=" 
d="M71 170h390l-8 -39h-390zM96 294h390l-9 -40h-389z" />
    <glyph glyph-name="greater" unicode="&#x3e;" 
d="M91 66l329 151l-271 148l8 42l351 -195l-428 -194z" />
    <glyph glyph-name="question" unicode="?" horiz-adv-x="367" 
d="M164 89l43 -60l-56 -38l-44 52zM141 139q3 30 24.5 61t59.5 65l15 13q85 74 85 157q0 40 -22 63q-21 24 -56 24q-80 0 -104 -88h-22l17 85q72 25 132 25t96 -26q36 -27 36 -71q0 -30 -19 -60t-56 -62l-37 -32q-63 -54 -76 -123l-2 -10l-71 -21v0z" />
    <glyph glyph-name="at" unicode="@" horiz-adv-x="633" 
d="M448 16q-61 -29 -123 -29q-106 0 -172 62q-68 62 -68 158q-1 60 21.5 115t67.5 106q99 116 250 116q102 0 170 -64q66 -64 68 -161q0 -86 -54 -149q-54 -64 -126 -64q-62 0 -62 49q0 4 3.5 18t8.5 40l3 15h-7q-72 -122 -139 -122q-66 0 -66 83q0 87 59 159t129 72
q9 0 23.5 -2.5t36.5 -8.5q2 0 9 -3h34l-41 -205q-4 -19 -4 -35q0 -33 36 -33q51 0 92 59q43 61 43 131q1 83 -64 142q-63 57 -155 57q-119 0 -217 -96q-96 -94 -96 -214q0 -89 61 -146q60 -57 155 -57q56 0 116 27l8 -20v0zM453 369q-30 16 -65 16q-48 0 -81 -51
q-32 -52 -32 -127q0 -57 34 -57q50 -1 129 144z" />
    <glyph glyph-name="A" unicode="A" horiz-adv-x="716" 
d="M81 79q34 -52 89 -52t99 43q23 23 51.5 61t60.5 95l154 267q-20 2 -36.5 3.5t-30.5 1.5q-38 1 -66.5 -9t-49.5 -29q-40 -37 -40 -107l-71 -34q8 68 38 111q34 49 80 70q47 21 135 27q8 1 21.5 1.5t31.5 2.5l73 13l4 -119l21 -248q8 -89 20 -114q14 -27 48 -27h13
q11 0 29 2l-5 -24l-165 -27l-14 177h-196q-55 -98 -107 -138q-51 -39 -121 -39q-67 0 -114 43zM568 190l-23 269l-154 -269h177z" />
    <glyph glyph-name="B" unicode="B" horiz-adv-x="577" 
d="M128 53h8q55 0 74 24q20 25 37 111l63 315q-75 0 -119 -40q-46 -40 -46 -103v-8l-69 -34q7 109 85 161q76 52 230 52q109 0 155 -23t46 -78q0 -109 -165 -153q137 -43 139 -122q0 -68 -76 -117q-38 -23 -84 -36t-102 -11l-85 3l-144 6zM361 286q68 0 110 39q43 40 43 99
q0 85 -118 85h-9l-45 -223h19zM246 38q28 -7 56.5 -9t59.5 -2q123 0 123 115q0 55 -37 88q-36 33 -100 33h-10l-8 -40q-24 -118 -121 -176z" />
    <glyph glyph-name="C" unicode="C" horiz-adv-x="502" 
d="M478 33q-113 -46 -200 -46q-93 0 -144 52q-51 51 -51 146q-1 148 98 254q98 105 237 105q42 0 80 -5t73 -16l-30 -98h-23q2 8 3 15t1 12q0 32 -34 51t-89 19q-81 0 -144 -73q-40 -48 -66 -120q-14 -36 -20 -70t-6 -66q0 -79 40 -122q41 -44 112 -44q81 0 170 40l-7 -34v0
z" />
    <glyph glyph-name="D" unicode="D" horiz-adv-x="714" 
d="M128 53l6 1q4 0 9 -1h8q38 0 59 24q20 25 32 85l68 341q-74 0 -120 -40q-45 -39 -45 -103v-8l-70 -34q20 213 307 213h103q119 0 173 -45q53 -44 53 -146q0 -164 -113 -256q-112 -93 -312 -93h-13t-21 1l-176 8zM269 34q51 -9 106 -9q37 -1 65.5 4.5t49.5 16.5
q41 20 76 74q62 93 62 210q0 179 -197 179h-45l-55 -275q-15 -77 -40 -113q-25 -38 -86 -76z" />
    <glyph glyph-name="E" unicode="E" horiz-adv-x="540" 
d="M128 53h7q53 0 74 23t36 99l66 328q-74 0 -120 -40q-45 -39 -45 -103v-8l-70 -34q9 109 85 161q78 52 227 52h211l-32 -102h-23q3 15 3 25q0 28 -33 40q-30 10 -118 10h-11l-41 -212h160l-37 -37q-41 5 -68.5 7.5t-42.5 2.5h-18l-7 -38q-12 -65 -39 -104q-25 -37 -82 -76
l172 -6l38 -2q29 -2 56 9.5t53 31.5l-5 -29q-64 -64 -120 -64h-16l-313 13z" />
    <glyph glyph-name="F" unicode="F" horiz-adv-x="563" 
d="M286 274h38l45 229q-73 0 -119 -40q-44 -39 -46 -103l1 -8l-70 -34q9 110 85 162q77 51 231 51h206l-32 -102h-23q2 8 3.5 14.5t1.5 14.5q0 46 -147 46h-15l-46 -230h157l-36 -36q-29 4 -56 6t-53 2h-18l-20 -105q-25 -132 -102 -212q-74 -78 -175 -80q-52 0 -96 41
l53 54q29 -59 91 -59q57 0 90 52q32 49 59 183l26 126h-58z" />
    <glyph glyph-name="G" unicode="G" horiz-adv-x="557" 
d="M188 -81q43 -39 110 -40q47 0 73 28q24 27 41 97q2 5 3 14q-63 -18 -133 -18q-93 0 -146 53t-53 144q-1 142 100 245q99 102 240 102q40 0 79 -4.5t77 -15.5l-28 -95h-22q0 7 0.5 12t0.5 10q0 33 -34 52t-91 19q-96 0 -169 -97q-73 -95 -73 -224q0 -77 46 -123
q45 -43 127 -45q47 0 85 11l35 179h-63q-63 0 -115 -40l5 25q65 62 129 62h128l-28 -111l-17 -84q-12 -59 -32 -101.5t-50 -69.5q-58 -54 -162 -54q-79 0 -124 35z" />
    <glyph glyph-name="H" unicode="H" horiz-adv-x="756" 
d="M284 292h44l41 206q-9 2 -16 2q-6 0 -10 1q-59 0 -98 -42q-40 -41 -40 -100v-5l-69 -34q15 211 295 211h20l-48 -239h221l22 107q11 54 31 95t51 73q61 61 145 61q17 0 31.5 -2t27.5 -7l-31 -53q-37 32 -67 32q-37 1 -61 -32q-12 -17 -21 -44t-17 -65l-58 -268
q-10 -44 -14 -72.5t-4 -42.5q0 -36 40 -37q9 0 21 1t29 3l-4 -22l-182 -32l56 276h-222l-8 -42q-19 -100 -90 -166q-70 -64 -159 -64q-65 0 -111 41l50 52q35 -60 100 -60q96 0 126 153l17 86h-62z" />
    <glyph glyph-name="I" unicode="I" horiz-adv-x="332" 
d="M58 53h24q41 0 60 27q10 14 19 40t17 65l58 293h-97l52 53h233l-54 -53h-59l-50 -254q-22 -115 -121 -176l140 -4l-52 -53l-224 9z" />
    <glyph glyph-name="J" unicode="J" horiz-adv-x="390" 
d="M7 -17q33 -69 100 -69q45 0 70 34q25 33 42 116l82 414h-95l50 53h231l-55 -53h-55l-70 -352q-22 -115 -82 -178t-145 -63q-66 0 -122 48z" />
    <glyph glyph-name="K" unicode="K" horiz-adv-x="727" 
d="M80 85q34 -58 100 -58q95 0 125 152l63 319q-9 2 -15 2t-10 1q-57 0 -98 -42q-40 -41 -40 -100v-5l-70 -34q8 102 81 156q73 55 202 55h32l-51 -257l188 178q98 92 159 92q25 0 47 -13l-49 -53q-14 13 -30 13q-42 0 -117 -60t-130 -137q14 -22 69 -120q80 -138 138 -138
q20 0 66 30l-5 -28q-61 -51 -104 -51q-49 0 -98 59q-49 61 -135 223l-9 -46q-19 -101 -90 -166q-68 -62 -159 -64q-67 0 -111 40z" />
    <glyph glyph-name="L" unicode="L" horiz-adv-x="492" 
d="M57 53h21q42 0 63 25q21 26 34 96l36 183q16 80 75 134q58 53 132 53q34 0 76 -23l-18 -90h-23q1 5 1 9v7q0 67 -69 67q-68 0 -91 -116l-33 -165q-15 -74 -41 -114q-27 -41 -82 -71l201 -3q84 -1 152 40l-5 -27q-52 -44 -76 -57q-13 -6 -29.5 -9.5t-37.5 -2.5l-337 11z
" />
    <glyph glyph-name="M" unicode="M" horiz-adv-x="851" 
d="M80 86q35 -59 101 -60q42 0 75 36q32 37 44 95l68 341q-9 2 -15 2t-10 1q-60 0 -99 -43q-39 -41 -40 -104l-69 -34q8 100 80 155q73 56 195 56h29q33 -93 57 -187.5t40 -192.5l235 380l77 9l-28 -115l-58 -293q-4 -20 -6 -35.5t-2 -27.5q0 -31 39 -31q9 0 21.5 1t29.5 3
l-5 -23l-177 -35l93 467l-246 -394l-37 -5v10q0 70 -16.5 156.5t-51.5 191.5l-30 -146q-55 -270 -234 -271q-64 0 -111 40z" />
    <glyph glyph-name="N" unicode="N" horiz-adv-x="756" 
d="M80 86q36 -59 100 -59q44 0 76 35q32 37 44 95l68 341q-9 2 -16 2q-6 0 -10 1q-59 0 -98 -43q-39 -41 -40 -104l-69 -34q8 96 78 153q72 58 179 58h34q19 -48 42.5 -98t54.5 -104l46 -81q24 -42 41.5 -75.5t28.5 -59.5l41 207q22 109 74 166q52 58 127 58q28 0 52 -10
l-26 -48q-31 25 -61 25q-77 0 -104 -135l-54 -270l-17 -106l-45 -16q-13 40 -76 152l-88 155q-18 32 -32 59.5t-26 52.5l-27 -138q-26 -132 -88 -202q-60 -68 -148 -70q-64 0 -112 41z" />
    <glyph glyph-name="O" unicode="O" horiz-adv-x="575" 
d="M274 -13q-87 0 -139 55t-52 148q-1 140 97 248q97 106 226 106q88 0 138 -54q51 -54 51 -146q0 -148 -94 -252q-94 -105 -227 -105zM288 11q93 0 160 99t67 236q0 175 -122 176q-92 0 -160 -98q-67 -99 -67 -234q0 -179 122 -179z" />
    <glyph glyph-name="P" unicode="P" horiz-adv-x="562" 
d="M129 53h7h15q41 0 62 28q20 27 36 114l61 308q-73 0 -119 -40q-44 -39 -46 -103l1 -8l-70 -34q9 111 86 162t235 51q114 0 163 -25q48 -24 48 -81q0 -46 -33 -94q-32 -47 -84 -73q-58 -30 -133 -30h-10l14 22h6q69 0 116 46q46 46 46 112q0 101 -143 101l-58 -291
q-21 -108 -119 -171l138 -3l-49 -53l-224 9z" />
    <glyph glyph-name="Q" unicode="Q" horiz-adv-x="545" 
d="M88 69l57 -23q132 11 209 74q52 43 84 113q33 71 33 141q0 63 -32 106q-31 42 -81 42q-75 0 -131 -75q-29 -38 -42 -82t-13 -95q0 -97 66 -97q40 0 82 29l-6 -31q-56 -41 -112 -43q-46 0 -75 36q-28 36 -28 93q0 110 86 199q86 88 191 88q74 0 125 -51t51 -125
q0 -119 -91 -209q-91 -88 -260 -135l223 -90q29 -12 54 -18.5t46 -6.5q44 -1 100 34l-5 -28q-64 -55 -118 -57q-14 0 -35 5.5t-48 16.5l-372 148z" />
    <glyph glyph-name="R" unicode="R" horiz-adv-x="644" 
d="M128 53h5q4 0 8 -1t13 -1q36 0 57 26q11 14 18.5 37t14.5 55l67 334q-74 0 -120 -40q-45 -39 -45 -103v-8l-70 -34q9 109 86 162q38 26 95.5 38t135.5 13q120 0 169 -23q49 -24 49 -81q0 -96 -140 -163l86 -145q44 -75 69 -77q24 0 87 64l-7 -34q-78 -81 -116 -81
q-47 0 -106 108l-81 149h-68l-6 -32q-19 -105 -120 -169l141 -3l-50 -53l-225 9zM434 270q98 48 98 148q0 91 -131 91h-14l-48 -239h95z" />
    <glyph glyph-name="S" unicode="S" horiz-adv-x="426" 
d="M91 71q67 -53 137 -53q49 0 80 27q32 29 32 72q0 42 -59 95l-51 45q-54 48 -70 69q-13 23 -13 54q0 67 57 116q56 48 135 48q52 0 117 -29l-18 -90h-23q1 5 1 9v6q0 34 -27 55t-72 21q-45 1 -78 -28q-31 -26 -32 -68q0 -27 16 -49q8 -12 24.5 -27.5t42.5 -38.5l42 -37
q71 -63 71 -113q1 -67 -67 -119q-65 -49 -158 -49q-70 0 -136 33z" />
    <glyph glyph-name="T" unicode="T" horiz-adv-x="525" 
d="M192 53l5 -1q3 -1 21 -1q40 0 59 28q20 29 36 111l57 288h-91q-138 0 -138 -109q0 -12 3 -32l-74 -35q15 106 91 167q77 62 192 62h152q104 0 137 13t45 61l54 22q-25 -66 -97 -108q-73 -41 -163 -41h-36l-50 -250q-7 -34 -16 -60.5t-23 -46.5q-25 -38 -82 -74l139 -3
l-50 -53l-224 9z" />
    <glyph glyph-name="U" unicode="U" horiz-adv-x="717" 
d="M544 97q-80 -110 -170 -110q-63 0 -101 44t-38 119q0 23 5 60.5t16 90.5q11 52 24 101t27 96q-9 2 -15 2t-10 1q-60 0 -99 -43q-39 -41 -40 -104l-69 -34q15 211 291 211h26q-17 -51 -30.5 -104.5t-25.5 -110.5q-23 -113 -23 -165q0 -59 23 -91q23 -33 64 -33
q42 -1 86 38q40 35 73 103l72 363l82 9l-28 -115l-51 -257q-14 -73 -14 -92q0 -38 48 -38q16 0 43 3l-5 -23l-183 -31z" />
    <glyph glyph-name="V" unicode="V" horiz-adv-x="655" 
d="M368 85q3 140 -10.5 235.5t-39.5 150.5q-54 113 -131 113q-71 0 -124 -89l-18 10q80 123 174 123q225 0 225 -516l115 179q104 162 104 204q0 14 -32 14h-29l5 22h154l-5 -22h-30l-322 -509l-38 -9z" />
    <glyph glyph-name="W" unicode="W" horiz-adv-x="851" 
d="M338 204q3 94 -8.5 165t-32.5 119q-40 96 -119 96q-64 0 -123 -78l-16 9q89 113 170 113q103 0 155 -117q22 -50 32.5 -131t12.5 -194l1 -44l184 373l34 10q6 -55 15 -111l7 -46q7 -45 13.5 -107t14.5 -143l77 151q89 174 89 222q0 18 -41 18h-12l4 22h150l-4 -22h-33
l-263 -509l-37 -9l1 44q2 103 -8 196t-28 178l-204 -409l-37 -9z" />
    <glyph glyph-name="X" unicode="X" horiz-adv-x="563" 
d="M249 402q-29 88 -57 90q-25 0 -81 -71l8 46q54 77 104 77q64 0 106 -125l31 -93l87 106q92 112 159 112q24 0 44 -14l-61 -61q-13 7 -23 7q-35 0 -146 -123l-51 -57l57 -167q32 -93 62 -93t75 60l-7 -40q-51 -69 -103 -69q-63 0 -99 105l-45 131l-112 -138
q-80 -98 -131 -98q-32 0 -62 31l57 57q12 -19 29 -19q38 0 152 131l57 66z" />
    <glyph glyph-name="Y" unicode="Y" horiz-adv-x="601" 
d="M193 -71q44 -51 102 -51q91 0 135 176l30 121q-96 -155 -158 -155q-48 0 -57 105l-21 267q-9 108 -47 108q-28 0 -75 -43l6 30q59 57 99 57q44 0 66 -43q23 -44 30 -145l15 -197q6 -70 28 -70q18 0 55 41q19 20 37.5 45t35.5 54l76 302l83 7l-33 -113l-70 -282
q-72 -293 -269 -293q-63 0 -117 32z" />
    <glyph glyph-name="Z" unicode="Z" horiz-adv-x="491" 
d="M39 38l399 421q-20 -4 -37.5 -6t-33.5 -2q-17 0 -35.5 3t-41.5 8l-40 9q-6 2 -11 3l-10 2q-14 4 -24.5 5.5l-17.5 2.5q-27 0 -66 -22l6 29q55 47 111 49q7 0 18.5 -2t26.5 -5l42 -9q24 -5 47.5 -8t47.5 -3q28 -1 52 4t45 14l-10 -49l-391 -417q41 10 79 10q11 0 26 -1
t35 -5l65 -12q6 0 33 -6q13 -2 22 -3t16 -2q55 0 98 57l-7 -36q-60 -80 -120 -80q-26 0 -82 12l-47 10q-40 9 -71 9q-41 0 -133 -27z" />
    <glyph glyph-name="bracketleft" unicode="[" horiz-adv-x="259" 
d="M200 619h177l-4 -21h-115l-136 -682h115l-5 -22h-176z" />
    <glyph glyph-name="backslash" unicode="\" horiz-adv-x="373" 
d="M131 619h37l175 -725h-37z" />
    <glyph glyph-name="bracketright" unicode="]" horiz-adv-x="259" 
d="M161 -106h-177l5 22h115l135 682h-115l4 21h178z" />
    <glyph glyph-name="asciicircum" unicode="^" 
d="M338 531l118 -389h-43l-89 299l-210 -299h-48z" />
    <glyph glyph-name="underscore" unicode="_" horiz-adv-x="367" 
d="M36 0h296l-9 -47h-297z" />
    <glyph glyph-name="grave" unicode="`" horiz-adv-x="429" 
d="M360 460q-13 26 -31.5 49.5t-43.5 46.5l43 33q22 -23 41 -47.5t36 -52.5z" />
    <glyph glyph-name="a" unicode="a" horiz-adv-x="491" 
d="M346 195q-38 -88 -97 -147q-57 -57 -107 -57q-76 0 -76 95q-1 102 84 204t210 104q26 0 52 -1t55 -3l-26 -107l-35 -177q-8 -43 -8 -54q0 -22 21 -22q35 0 107 79l-6 -34q-79 -84 -141 -84q-52 0 -52 54q0 9 1.5 24t6.5 37l18 89h-7zM382 338q-43 20 -90 20
q-65 0 -104 -82q-46 -96 -46 -176q0 -56 33 -56q30 0 89 65q29 32 54 69t47 79l17 81v0z" />
    <glyph glyph-name="b" unicode="b" horiz-adv-x="452" 
d="M92 106l50 248q26 131 97 202q72 72 174 72q37 0 65 -7l-50 -51q-43 19 -71 19q-56 1 -86 -42q-28 -40 -51 -157l-39 -195h6q41 90 98 146q57 57 107 57q76 0 76 -95q1 -52 -20 -102.5t-63 -101.5q-85 -103 -209 -103h-21q-11 0 -25 1l-63 3zM152 51q45 -20 90 -20
q64 0 104 82q46 96 46 176q0 56 -33 56q-31 0 -89 -65t-102 -148l-16 -81v0z" />
    <glyph glyph-name="c" unicode="c" horiz-adv-x="401" 
d="M380 71q-118 -80 -193 -80q-51 0 -83 35t-32 93q0 106 79 192q78 87 174 87q42 0 82 -18l-24 -92h-22l1 5q2 8 2.5 14t1.5 11q0 49 -67 49q-63 0 -105 -67t-42 -169q0 -96 72 -98q69 0 162 66z" />
    <glyph glyph-name="d" unicode="d" horiz-adv-x="491" 
d="M346 195q-41 -91 -97 -147q-57 -57 -107 -57q-74 0 -76 95q0 63 37 135q38 71 96 119q20 16 39.5 27t39.5 16q20 6 48.5 8t66.5 3q11 35 21.5 62t22.5 46q11 19 27 36.5t37 33.5q71 56 157 56q37 0 65 -7l-49 -51q-22 9 -40 14t-33 5q-56 1 -86 -42q-29 -41 -52 -157
l-57 -284q-8 -43 -8 -53q0 -23 21 -23q35 0 107 79l-7 -34q-78 -84 -140 -84q-52 0 -52 54q0 9 1.5 24t6.5 37l18 89h-7zM382 338q-43 20 -90 20q-65 0 -104 -82q-46 -96 -46 -176q0 -56 33 -56q30 0 89 65q29 32 54 69t47 79l17 81v0z" />
    <glyph glyph-name="e" unicode="e" horiz-adv-x="398" 
d="M381 70q-115 -79 -194 -79q-51 0 -83 36q-32 35 -32 92q0 100 78 190q77 89 165 89q34 0 52 -21q19 -20 19 -56q0 -69 -70 -118q-71 -50 -168 -50v-16q0 -104 77 -105q65 0 161 66zM149 175q80 8 125 42q46 36 46 90q0 55 -40 55q-44 0 -83 -57q-41 -57 -48 -130z" />
    <glyph glyph-name="f" unicode="f" horiz-adv-x="300" 
d="M-102 -181q36 -14 71 -14q50 0 79 35q28 35 41 115l69 408h-80l25 27h61l1 4q13 51 34.5 93.5t59.5 75.5q74 65 171 65q16 0 30 -1t28 -5l-51 -54q-17 10 -34 15.5t-35 5.5q-27 1 -46.5 -7.5t-33.5 -24.5q-27 -33 -43 -117l-10 -50h134l-29 -32q-23 2 -45.5 3.5
t-45.5 1.5h-19l-52 -308q-24 -142 -95 -217q-71 -77 -177 -77q-14 0 -28.5 1.5t-30.5 3.5z" />
    <glyph glyph-name="g" unicode="g" horiz-adv-x="451" 
d="M112 6q-43 21 -43 86q0 104 86 205q84 96 207 97q12 0 37 -1t63 -3l-25 -107l-17 -83q-14 -67 -18 -97q-20 -127 -39 -176q-19 -48 -71 -97q-73 -69 -171 -69q-61 0 -102 25q-40 25 -40 64q-1 77 133 156zM377 337q-43 21 -86 21q-48 0 -81 -42q-26 -35 -48 -100
q-21 -66 -21 -112q-1 -51 32 -51q71 0 188 204l16 80v0zM343 195q-39 -85 -92 -136q-52 -51 -111 -60q-94 -64 -94 -121q0 -35 35 -61q36 -25 85 -25q64 0 101 50q38 50 53 158l28 195h-5z" />
    <glyph glyph-name="h" unicode="h" horiz-adv-x="488" 
d="M89 106l49 248q26 131 97 202q72 72 174 72q37 0 65 -7l-49 -51q-44 19 -72 19q-55 1 -86 -42q-28 -40 -51 -157l-39 -195h6q43 91 101 147q56 56 105 56q59 0 59 -65q0 -22 -6 -52l-35 -175q-8 -43 -8 -54q0 -22 21 -22q35 0 107 79l-7 -34q-78 -84 -141 -84
q-51 0 -51 54q0 9 1.5 24t6.5 37l35 176q4 19 4 34q0 29 -21 29q-69 0 -190 -217l-26 -128l-76 -4z" />
    <glyph glyph-name="i" unicode="i" horiz-adv-x="277" 
d="M311 75q-78 -84 -141 -84q-51 0 -51 54q0 9 1.5 24t6.5 36l25 125q5 26 7.5 44t2.5 27q2 30 -24 30q-15 0 -57 -12l4 22l175 57l-27 -115l-35 -177q-8 -43 -8 -53q0 -23 21 -23q35 0 107 79zM210 509l101 66l-31 -66l-94 -48z" />
    <glyph glyph-name="j" unicode="j" horiz-adv-x="243" 
d="M-108 -180q37 -19 75 -19q93 0 123 149l56 280q5 26 7.5 44t2.5 27q0 30 -23 30q-16 0 -58 -12l4 22l176 57l-28 -115l-44 -222q-10 -48 -20 -83.5t-21 -59.5q-22 -49 -65 -89q-74 -68 -172 -68q-31 0 -61 8zM202 509l102 66l-32 -66l-94 -48z" />
    <glyph glyph-name="k" unicode="k" 
d="M91 106l49 248q25 129 97 202q72 72 175 72q37 0 64 -7l-49 -51q-21 9 -38.5 14t-33.5 5q-45 1 -78 -33q-18 -20 -28 -48q-5 -14 -13 -43.5t-18 -74.5l-35 -157h4q33 73 88 119t111 46q60 0 60 -58q0 -61 -49 -103q-48 -39 -141 -56q102 -141 151 -141q31 0 78 43l-5 -25
q-71 -67 -115 -67q-34 0 -69 34q-33 31 -121 150l-34 -175l-76 -4zM179 190h12q74 0 130 41q55 40 55 96q0 36 -28 36q-59 1 -169 -168v-5z" />
    <glyph glyph-name="l" unicode="l" horiz-adv-x="249" 
d="M282 77q-84 -86 -146 -86q-50 0 -51 55q0 11 2 26t6 35l49 247q25 129 97 202q72 72 175 72q37 0 64 -7l-49 -51q-21 9 -38.5 14t-33.5 5q-56 1 -85 -42q-30 -44 -52 -157l-56 -284q-7 -40 -9 -54q0 -22 21 -22q12 0 34.5 16.5t58.5 47.5q6 5 19 16z" />
    <glyph glyph-name="m" unicode="m" horiz-adv-x="752" 
d="M123 106l35 177q5 21 6.5 34.5t1.5 19.5q0 22 -21 22q-35 0 -107 -78l7 33q78 84 141 84q51 0 51 -54q0 -9 -1.5 -24t-6.5 -37l-17 -88h5q45 93 100 148t100 55q24 0 40 -19q15 -17 17 -47q0 -20 -6 -50l-17 -87h5q39 89 93 146t100 57q63 0 63 -67q0 -11 -1 -23t-4 -27
l-35 -175q-8 -43 -8 -54q0 -22 21 -22q35 0 107 79l-7 -34q-78 -84 -141 -84q-50 0 -52 54q0 18 9 61l35 175q2 12 3 20.5t2 14.5q0 29 -23 29q-64 0 -180 -215l-27 -130l-71 -4l57 284q2 12 3 21t1 14q0 30 -21 30q-29 0 -80 -63q-26 -32 -51.5 -70t-50.5 -85l-26 -127
l-76 -4z" />
    <glyph glyph-name="n" unicode="n" horiz-adv-x="522" 
d="M123 106l35 177q5 21 6.5 34.5t1.5 19.5q0 22 -21 22q-35 0 -107 -78l7 33q78 84 141 84q51 0 51 -54q0 -9 -1.5 -24t-6.5 -37l-17 -88h5q46 93 101 147q58 56 106 56q58 0 58 -65q0 -20 -6 -52l-34 -175q-7 -40 -9 -54q0 -22 21 -22q36 0 108 79l-7 -34
q-78 -84 -141 -84q-52 0 -52 54q0 18 9 61l35 176q4 19 4 34q0 29 -22 29q-67 0 -190 -217l-26 -128l-76 -4z" />
    <glyph glyph-name="o" unicode="o" horiz-adv-x="428" 
d="M182 -9q-48 0 -79 37q-31 35 -31 91q0 104 78 191q78 88 171 88q49 0 82 -36q32 -35 32 -91q0 -107 -78 -194q-78 -86 -175 -86zM223 22q52 0 93 68q41 70 41 159q1 60 -18 89.5t-55 29.5q-51 0 -92 -71q-41 -70 -41 -158q0 -115 72 -117z" />
    <glyph glyph-name="p" unicode="p" horiz-adv-x="488" 
d="M-104 -181q36 -18 76 -18q92 0 122 151l55 278q5 26 7.5 44t2.5 27q0 30 -23 30q-17 0 -59 -12l5 22l175 57l-27 -116l-18 -87h6q21 45 45 81.5t53 64.5q57 57 107 57q76 0 76 -95q0 -110 -87 -209t-185 -99q-5 0 -15 1t-26 3q-7 0 -12 1q-28 -116 -99 -177
q-70 -62 -173 -62q-27 0 -54 7zM184 51q45 -20 89 -20q65 0 104 82q47 99 47 176q0 56 -34 56q-30 0 -88 -65t-102 -148l-16 -81v0z" />
    <glyph glyph-name="q" unicode="q" horiz-adv-x="456" 
d="M344 195q-41 -91 -97 -147q-57 -57 -106 -57q-75 0 -75 95q-1 52 20 102.5t63 101.5q85 103 209 104q22 0 47.5 -1t57.5 -3l-26 -107l-64 -322q-15 -74 -15 -102q-1 -30 25 -32q21 0 59 13l-5 -25l-179 -54l27 115l64 319h-5zM377 338q-37 20 -87 20q-63 0 -102 -82
q-46 -96 -46 -176q0 -56 32 -56q40 0 101 82q35 47 56.5 79.5t29.5 51.5l16 81v0z" />
    <glyph glyph-name="r" unicode="r" horiz-adv-x="414" 
d="M128 106l34 176q2 13 4 24t2 21q0 31 -22 31q-37 0 -108 -81l6 32q82 89 144 89q52 0 52 -59q0 -13 -2 -27t-5 -31l-17 -86h5q43 90 100 146q59 57 107 57q26 0 45 -11l-48 -65q-20 14 -35 14q-70 0 -187 -205l-26 -131l-76 -4z" />
    <glyph glyph-name="s" unicode="s" horiz-adv-x="331" 
d="M72 61q46 -34 95 -34q29 0 50 15q20 14 20 39q0 26 -40 69l-33 36q-47 50 -47 88q0 49 46 86q47 38 106 38q34 0 73 -13l-16 -80h-23l2 6v8q0 48 -62 48q-70 0 -70 -56q0 -14 10 -33t31 -42l30 -33q48 -52 48 -89q0 -47 -51 -85q-52 -38 -116 -38q-44 0 -100 21z" />
    <glyph glyph-name="t" unicode="t" horiz-adv-x="335" 
d="M81 363l25 27h62l21 101l74 18l-24 -119h135l-29 -32q-23 2 -43.5 3.5t-38.5 1.5h-29l-49 -246q-7 -35 -7 -53q0 -28 25 -28q39 0 105 57l-6 -33q-69 -69 -134 -69q-60 0 -61 67q0 12 2 28t6 36l48 241h-82z" />
    <glyph glyph-name="u" unicode="u" horiz-adv-x="512" 
d="M373 195q-100 -204 -198 -204q-56 0 -58 68q0 20 6 48l35 176q5 21 6.5 34.5t1.5 19.5q0 22 -21 22q-35 0 -107 -78l6 33q78 84 141 84q52 0 52 -54q0 -9 -1.5 -24t-6.5 -37l-35 -176q-2 -12 -3.5 -20.5t-1.5 -13.5q0 -29 21 -29q26 0 82 65q27 32 52 70t48 82l26 129
l76 4l-26 -111l-35 -177q-7 -40 -9 -54q0 -22 21 -22q37 0 107 79l-6 -34q-78 -84 -141 -84q-52 0 -52 54q0 18 9 61l17 89h-6z" />
    <glyph glyph-name="v" unicode="v" horiz-adv-x="518" 
d="M224 40q3 71 -4.5 126t-21.5 97q-25 82 -70 82t-94 -86l10 53q65 86 121 86q124 0 124 -314v-19l30 35q67 78 98.5 136t32.5 94q0 33 -24 60l77 8q17 -26 17 -48q0 -29 -24 -67q-12 -19 -39 -52t-68 -81l-128 -150l-39 -9z" />
    <glyph glyph-name="w" unicode="w" horiz-adv-x="694" 
d="M212 -9q1 18 1.5 35.5t0.5 35.5q0 81 -4 136t-13 87q-17 62 -62 62q-42 0 -98 -87l9 48q65 90 123 90q110 0 110 -289v-37q121 173 139 314l33 8q49 -156 49 -313q26 34 48 69t41 73q37 77 37 114q0 22 -16 53l80 4q6 -16 6 -31q0 -27 -33 -86q-33 -57 -108 -159l-19 -26
l-67 -92l-36 -9l1 43q2 74 -3.5 133t-15.5 107q-43 -91 -84 -158.5t-80 -115.5l-39 -9v0z" />
    <glyph glyph-name="x" unicode="x" horiz-adv-x="522" 
d="M81 66q14 -8 31 -8q56 0 136 98l22 27l-49 114q-18 44 -36 44q-20 1 -65 -59l9 47q53 69 90 69q35 0 65 -69l41 -94l23 30q102 133 172 133q18 0 37 -12l-37 -65q-15 9 -28 9q-61 0 -140 -98l-17 -21l53 -125q20 -45 38 -45q25 0 71 53l-9 -43q-54 -60 -97 -60
q-42 0 -66 59l-46 110l-29 -37q-103 -132 -162 -132q-14 0 -38 9z" />
    <glyph glyph-name="y" unicode="y" horiz-adv-x="509" 
d="M138 -178q35 -21 76 -21q50 0 77 35q29 36 51 130l55 229h-4q-21 -43 -43 -78t-43 -62q-43 -55 -68 -55q-27 0 -40 28t-22 105l-17 139q-9 78 -33 78q-22 0 -72 -63l7 37q56 74 107 74q28 0 40 -26q13 -27 23 -108l15 -120q7 -64 28 -64q22 0 63 62q3 5 23 38t57 95
l27 115l76 4l-32 -112l-63 -255q-32 -130 -101 -198q-71 -68 -171 -68q-40 0 -66 11z" />
    <glyph glyph-name="z" unicode="z" horiz-adv-x="447" 
d="M70 49l306 281q-8 -1 -14 -1h-11q-8 0 -22 1.5t-34 3.5l-45 5q-11 2 -20 2h-16q-50 0 -102 -43l6 32q74 64 133 64q15 0 37 -3l31 -4q12 -2 22 -2h19q51 0 89 13l-19 -59l-290 -275q11 2 19 2h16q14 0 24 -0.5t18 -1.5l24 -3q12 -2 24 -3t24 -1q81 0 140 53l-7 -34
q-77 -80 -143 -80q-8 0 -20 0.5t-29 2.5l-26 3q-12 2 -26 2h-30q-57 0 -97 -13z" />
    <glyph glyph-name="braceleft" unicode="{" horiz-adv-x="259" 
d="M343 598q-44 -3 -62 -27q-17 -23 -20 -79l-2 -49q-2 -42 -9.5 -73.5t-18.5 -52.5q-24 -43 -80 -66q53 -25 53 -84q0 -14 -4 -33t-13 -45l-23 -68q-6 -19 -9.5 -32t-3.5 -21q0 -40 56 -52l-4 -22q-109 13 -109 86q0 28 18 79l25 74q17 51 17 70q0 41 -57 41h-18l4 21h16
q55 0 71 24q17 23 23 106l5 71q6 79 40 114q35 36 109 39z" />
    <glyph glyph-name="bar" unicode="|" horiz-adv-x="177" 
d="M177 566h49l-134 -672h-49z" />
    <glyph glyph-name="braceright" unicode="}" horiz-adv-x="259" 
d="M18 -84q43 3 62 26q17 23 20 80l3 48q2 42 8.5 73.5t18.5 52.5q24 42 81 66q-54 27 -54 84q0 29 17 79l23 67q7 20 9.5 33t3.5 21q0 38 -56 52l4 21q109 -12 109 -86q0 -29 -17 -79l-25 -73q-8 -25 -13 -42.5t-5 -28.5q0 -40 57 -40h18l-4 -22h-16q-54 0 -72 -24
q-16 -23 -22 -106l-5 -70q-6 -78 -40 -114q-36 -36 -109 -40z" />
    <glyph glyph-name="asciitilde" unicode="~" 
d="M69 157q32 122 117 122q28 0 86 -34l40 -23q49 -28 75 -28q40 0 70 69h23q-36 -117 -118 -117q-33 0 -85 29l-40 23q-28 16 -46.5 24.5t-28.5 8.5q-40 1 -71 -74h-22v0z" />
    <glyph glyph-name="nonbreakingspace" unicode="&#xa0;" horiz-adv-x="250" 
 />
    <glyph glyph-name="exclamdown" unicode="&#xa1;" horiz-adv-x="186" 
d="M162 301l-42 58l56 39l42 -54zM131 -34l-22 -108l-73 -13l24 121l82 278l20 7z" />
    <glyph glyph-name="cent" unicode="&#xa2;" horiz-adv-x="345" 
d="M201 88q-130 9 -130 89q0 51 50 89t124 44l18 88h22l-17 -88q25 -2 46.5 -4t41.5 -7l-13 -64h-22v8q1 5 1 9t1 6q0 27 -60 30l-35 -174q56 0 101 26l-5 -26q-51 -26 -101 -26l-19 -97h-22zM241 288q-105 -15 -106 -97q0 -63 72 -75z" />
    <glyph glyph-name="sterling" unicode="&#xa3;" horiz-adv-x="435" 
d="M54 44h7q53 0 75 24q20 23 37 103l5 24h-80l4 22h80l6 31q13 70 59 111q45 39 111 39q20 0 41.5 -4t44.5 -13l-17 -89h-25l2 6q0 2 0.5 5t0.5 6q0 62 -66 63q-33 0 -48 -18q-7 -9 -13.5 -26.5t-11.5 -44.5l-13 -66h120l-5 -22h-119l-4 -16q-6 -23 -13.5 -42t-18.5 -33
q-23 -29 -76 -60h102q71 0 99 7q33 8 70 32l-6 -26q-37 -40 -71 -53q-17 -7 -41 -10t-56 -4l-14 1l-211 9z" />
    <glyph glyph-name="currency" unicode="&#xa4;" 
d="M438 92l-19 -16l-55 69q-56 -38 -113 -38q-55 0 -96 38l-83 -69l-12 16l82 69q-21 36 -21 73q0 72 63 136l-55 69l19 16l55 -69q57 39 113 39t96 -39l83 69l13 -16l-83 -69q21 -37 21 -73q0 -70 -63 -136zM407 288q0 43 -28 71t-70 28q-59 0 -104 -44q-45 -43 -45 -101
q0 -43 28 -71q27 -27 71 -27q56 0 103 44q45 44 45 100z" />
    <glyph glyph-name="yen" unicode="&#xa5;" horiz-adv-x="481" 
d="M123 49q5 0 9 -0.5t7 -0.5q67 0 99 80h-103l5 22h104q1 11 2 24t2 30h-98l4 22h94q0 6 1 8q0 49 -18 80q-17 32 -44 32t-62 -28q-37 -30 -56 -64l-16 12q32 57 81 95q47 37 91 37q80 0 80 -140v-23q61 163 179 163q37 0 64 -17l-42 -55q-24 15 -50 15q-85 0 -132 -115h92
l-4 -22h-92l-4 -20q-3 -19 -13 -34h98l-5 -22h-105q-32 -59 -97 -83l117 -7l-45 -47l-189 9z" />
    <glyph glyph-name="brokenbar" unicode="&#xa6;" horiz-adv-x="509" 
d="M88 -228l50 50q35 -21 76 -21q50 0 77 35q29 36 51 130l55 229h-4q-21 -43 -43 -78t-43 -62q-43 -55 -68 -55q-27 0 -40 28t-22 105l-17 139q-9 78 -33 78q-22 0 -72 -63l7 37q56 74 107 74q28 0 40 -26q13 -27 23 -108l15 -120q7 -64 28 -64q22 0 63 62q3 5 23 38t57 95
l27 115l76 4l-32 -112l-63 -255q-32 -130 -101 -198q-71 -68 -171 -68q-40 0 -66 11zM307 460l12 32q48 41 140 97l-24 -58q-45 -23 -76.5 -40t-51.5 -31z" />
    <glyph glyph-name="section" unicode="&#xa7;" 
d="M116 -40q56 -47 124 -49q41 0 70 26q28 25 28 61q0 25 -17 42q-8 8 -23.5 18.5t-41.5 21.5l-37 16q-49 21 -72.5 48.5t-23.5 59.5q0 58 81 121q-40 31 -40 81q0 62 55 99q56 39 143 39q45 0 103 -16l-18 -90h-22q1 6 1 10q0 5 1 9q0 61 -102 61q-45 0 -76 -26
q-29 -26 -29 -67q0 -27 12 -39q6 -6 24 -17.5t49 -27.5l31 -16q89 -46 89 -104q0 -61 -75 -121q49 -31 49 -80q0 -57 -58 -96t-143 -39q-76 0 -145 39zM332 114q40 44 40 83q0 37 -59 66l-35 17q-31 15 -56 31q-46 -40 -46 -84q0 -36 60 -65l48 -23q9 -5 21 -10.5t27 -14.5z
" />
    <glyph glyph-name="dieresis" unicode="&#xa8;" horiz-adv-x="429" 
d="M203 515l56 42l43 -57l-55 -40zM375 516l56 41l43 -57l-55 -40z" />
    <glyph glyph-name="copyright" unicode="&#xa9;" horiz-adv-x="619" 
d="M362 -13q-115 0 -197 82t-82 196q0 115 82 197t197 82t197 -82t82 -197q0 -114 -82 -196t-197 -82zM362 9q106 0 181 75t75 181t-75 182q-75 75 -181 75q-105 0 -182 -75q-75 -75 -75 -182q0 -106 75 -181t182 -75zM443 122q-26 -8 -49 -12t-44 -4q-61 0 -97 33t-36 91
q0 80 53 136q53 54 131 54q45 0 99 -15l-18 -69l-26 5l4 41q-37 16 -65 16q-52 0 -88 -49t-36 -119q0 -95 89 -95q50 0 89 18l-6 -31v0z" />
    <glyph glyph-name="ordfeminine" unicode="&#xaa;" horiz-adv-x="354" 
d="M418 323q-61 -66 -108 -66q-41 0 -41 45q0 20 8 55l10 41h-15q-27 -61 -65 -102q-38 -40 -69 -40q-47 0 -47 73q0 80 57 149q54 66 146 66q17 0 37 -1t46 -3l-24 -99l-15 -74q-9 -45 -9 -54q0 -17 15 -17q25 0 82 63zM303 500q-30 14 -57 14q-42 0 -70 -47
q-27 -45 -27 -116q0 -39 21 -39q35 0 126 154z" />
    <glyph glyph-name="guillemotleft" unicode="&#xab;" horiz-adv-x="420" 
d="M185 36q-37 83 -104 159q48 29 81.5 61.5t53.5 69.5l74 28q-24 -59 -135 -134q26 -33 49 -70.5t42 -80.5l-61 -33v0zM330 36q-41 95 -103 159q99 68 135 133l74 26q-13 -29 -46.5 -62.5t-89.5 -69.5q52 -63 92 -151l-62 -35v0z" />
    <glyph glyph-name="logicalnot" unicode="&#xac;" 
d="M96 294h390l-34 -170h-47l26 130h-343z" />
    <glyph glyph-name="registered" unicode="&#xae;" horiz-adv-x="447" 
d="M289 221q-66 0 -113 47q-46 46 -46 113q0 66 46 112q45 45 113 47q65 1 113 -47q46 -46 46 -112q0 -67 -46 -113q-45 -45 -113 -47zM289 241q57 0 98 41t42 99q0 56 -42 98q-41 41 -98 41t-98 -41t-41 -98q0 -56 41 -99q41 -41 98 -41zM250 297h-53l4 22h26l28 137h-27
l4 22h66q76 0 76 -42q0 -38 -50 -63l17 -54h31l-4 -22h-49l-25 70h-30zM286 390q59 0 61 41q0 25 -45 25h-21l-13 -66h18z" />
    <glyph glyph-name="macron" unicode="&#xaf;" horiz-adv-x="429" 
d="M244 504h204l-26 -44h-206z" />
    <glyph glyph-name="macron" unicode="&#x2c9;" horiz-adv-x="429" 
d="M244 504h204l-26 -44h-206z" />
    <glyph glyph-name="degree" unicode="&#xb0;" horiz-adv-x="203" 
d="M197 420q-26 0 -44 18q-18 20 -18 44q0 26 18 44t44 18q25 0 44 -18q16 -16 18 -44q0 -24 -18 -44q-16 -16 -44 -18zM197 443q14 0 28 11q11 13 11 28t-11 28q-12 12 -28 12t-28 -12t-12 -28t12 -28q13 -11 28 -11z" />
    <glyph glyph-name="plusminus" unicode="&#xb1;" 
d="M46 40h389l-8 -40h-389zM261 246h-175l8 40h175l28 139h40l-28 -139h175l-8 -40h-175l-28 -140h-39z" />
    <glyph glyph-name="twosuperior" unicode="&#xb2;" horiz-adv-x="230" 
d="M85 248h164l-15 -53h-164z" />
    <glyph glyph-name="acute" unicode="&#xb4;" horiz-adv-x="429" 
d="M288 492q48 41 140 97l-24 -58q-45 -23 -76.5 -40t-51.5 -31z" />
    <glyph glyph-name="mu" unicode="&#xb5;" horiz-adv-x="494" 
d="M77 -38l58 287q3 15 4 28.5t1 27.5q0 41 -37 85l80 4q28 -24 30 -84q0 -11 -2.5 -28.5t-7.5 -41.5l-27 -134q-3 -18 -3 -26q0 -27 22 -27q27 0 81 61q55 62 99 145l26 131l76 4l-26 -111l-35 -177q-7 -38 -9 -53q0 -26 22 -26q35 0 107 82l-7 -34q-78 -84 -141 -84
q-52 0 -52 54q0 18 9 61l17 89h-5q-99 -195 -201 -195l-29 -142l-77 -8z" />
    <glyph glyph-name="mu" unicode="&#x3bc;" horiz-adv-x="494" 
d="M77 -38l58 287q3 15 4 28.5t1 27.5q0 41 -37 85l80 4q28 -24 30 -84q0 -11 -2.5 -28.5t-7.5 -41.5l-27 -134q-3 -18 -3 -26q0 -27 22 -27q27 0 81 61q55 62 99 145l26 131l76 4l-26 -111l-35 -177q-7 -38 -9 -53q0 -26 22 -26q35 0 107 82l-7 -34q-78 -84 -141 -84
q-52 0 -52 54q0 18 9 61l17 89h-5q-99 -195 -201 -195l-29 -142l-77 -8z" />
    <glyph glyph-name="paragraph" unicode="&#xb6;" 
d="M255 247q-135 23 -135 125q0 64 53 110q51 45 140 59l16 78h22l-16 -78h15q20 0 47 -3l15 81h23l-17 -86q13 -3 26.5 -7.5t27.5 -9.5l-5 -24q-10 5 -23 9t-31 9l-43 -218q13 5 28.5 11.5t34.5 16.5l-5 -28q-17 -9 -32.5 -16t-31.5 -12l-76 -383h-22l75 375q-43 -9 -64 -9
l-73 -366h-22zM392 514q-12 2 -22.5 3t-18.5 1h-9q-4 0 -11 -1l-48 -242q26 0 63 8z" />
    <glyph glyph-name="periodcentered" unicode="&#xb7;" 
d="M245 250h75l-15 -75h-75z" />
    <glyph glyph-name="periodcentered" unicode="&#x2219;" 
d="M245 250h75l-15 -75h-75z" />
    <glyph glyph-name="cedilla" unicode="&#xb8;" horiz-adv-x="429" 
d="M206 -32q36 -11 36 -41q0 -24 -29 -47q-26 -22 -62 -22q-17 0 -33 4l27 38q19 -11 30 -11q32 0 32 26q0 29 -49 29l38 56h31z" />
    <glyph glyph-name="onesuperior" unicode="&#xb9;" horiz-adv-x="628" 
d="M123 309q40 -32 80 -32q20 0 36 15q15 17 15 37q0 57 -88 58q-5 0 -10.5 -0.5t-11.5 -1.5l15 43q5 0 9 0.5t8 0.5q23 0 51 -6q40 18 40 56q2 42 -47 42q-43 0 -55 -52h-27l12 58q43 17 85 17q89 0 89 -54q0 -46 -71 -77q52 -19 53 -68q0 -38 -36 -65q-33 -24 -87 -26
q-44 0 -97 18zM597 544h49l-509 -557h-48zM364 90l8 40l177 158h34l-34 -170l55 -4l-22 -39l-41 3q-2 -14 -3 -24t-2 -17q0 -11 27 -13l29 -2l-4 -22h-179l4 22l28 2q25 1 33 8q7 5 11 26q0 5 1 10.5t3 13.5zM517 222l-107 -95l87 -5z" />
    <glyph glyph-name="ordmasculine" unicode="&#xba;" horiz-adv-x="354" 
d="M210 256q-42 0 -68 25q-26 24 -26 66q0 75 57 136t126 61q44 0 70 -25q27 -24 27 -66q1 -73 -58 -136q-57 -60 -128 -61zM235 283q36 0 64 49q29 48 29 110q0 76 -52 76q-35 0 -64 -48q-28 -47 -28 -109q0 -78 51 -78z" />
    <glyph glyph-name="guillemotright" unicode="&#xbb;" horiz-adv-x="420" 
d="M313 354q36 -84 103 -159q-93 -57 -134 -131l-74 -28q24 59 135 134q-54 66 -92 151l62 33v0zM168 354q41 -97 103 -159q-99 -69 -135 -133l-74 -26q26 59 136 132q-52 63 -92 151l62 35v0z" />
    <glyph glyph-name="questiondown" unicode="&#xbf;" horiz-adv-x="367" 
d="M270 301l-43 59l56 38l44 -52zM293 250q-3 -30 -24.5 -61t-59.5 -65l-15 -13q-85 -73 -85 -157q0 -38 22 -63q22 -24 56 -24q80 -1 103 89h22l-16 -85q-76 -26 -132 -26q-58 0 -96 27q-36 27 -36 70q0 30 19 60.5t56 62.5l37 32q30 26 49 56.5t27 66.5l2 10l71 20v0z" />
    <glyph glyph-name="Agrave" unicode="&#xc0;" horiz-adv-x="716" 
d="M33 30l48 49q34 -52 89 -52t99 43q23 23 51.5 61t60.5 95l154 267q-20 2 -36.5 3.5t-30.5 1.5q-38 1 -66.5 -9t-49.5 -29q-40 -37 -40 -107l-71 -34q8 68 38 111q34 49 80 70q47 21 135 27q8 1 21.5 1.5t31.5 2.5l73 13l4 -119l21 -248q8 -89 20 -114q14 -27 48 -27h13
q11 0 29 2l-5 -24l-165 -27l-14 177h-196q-55 -98 -107 -138q-51 -39 -121 -39q-67 0 -114 43zM391 190h177l-23 269zM627 604l-45 -29q-13 26 -31.5 49.5t-43.5 46.5l43 33q22 -23 41 -47.5t36 -52.5z" />
    <glyph glyph-name="Aacute" unicode="&#xc1;" horiz-adv-x="716" 
d="M33 30l48 49q34 -52 89 -52t99 43q23 23 51.5 61t60.5 95l154 267q-20 2 -36.5 3.5t-30.5 1.5q-38 1 -66.5 -9t-49.5 -29q-40 -37 -40 -107l-71 -34q8 68 38 111q34 49 80 70q47 21 135 27q8 1 21.5 1.5t31.5 2.5l73 13l4 -119l21 -248q8 -89 20 -114q14 -27 48 -27h13
q11 0 29 2l-5 -24l-165 -27l-14 177h-196q-55 -98 -107 -138q-51 -39 -121 -39q-67 0 -114 43zM391 190h177l-23 269zM540 575l12 32q48 41 140 97l-24 -58q-45 -23 -76.5 -40t-51.5 -31z" />
    <glyph glyph-name="Acircumflex" unicode="&#xc2;" horiz-adv-x="716" 
d="M33 30l48 49q34 -52 89 -52t99 43q23 23 51.5 61t60.5 95l154 267q-20 2 -36.5 3.5t-30.5 1.5q-38 1 -66.5 -9t-49.5 -29q-40 -37 -40 -107l-71 -34q8 68 38 111q34 49 80 70q47 21 135 27q8 1 21.5 1.5t31.5 2.5l73 13l4 -119l21 -248q8 -89 20 -114q14 -27 48 -27h13
q11 0 29 2l-5 -24l-165 -27l-14 177h-196q-55 -98 -107 -138q-51 -39 -121 -39q-67 0 -114 43zM391 190h177l-23 269zM667 601l-44 -26q-27 30 -45 79q-10 -12 -24.5 -28t-34.5 -36q-1 -1 -3 -3.5t-7 -7.5l-51 -4q75 55 111 98l49 31q15 -57 49 -103z" />
    <glyph glyph-name="Atilde" unicode="&#xc3;" horiz-adv-x="716" 
d="M33 30l48 49q34 -52 89 -52t99 43q23 23 51.5 61t60.5 95l154 267q-20 2 -36.5 3.5t-30.5 1.5q-38 1 -66.5 -9t-49.5 -29q-40 -37 -40 -107l-71 -34q8 68 38 111q34 49 80 70q47 21 135 27q8 1 21.5 1.5t31.5 2.5l73 13l4 -119l21 -248q8 -89 20 -114q14 -27 48 -27h13
q11 0 29 2l-5 -24l-165 -27l-14 177h-196q-55 -98 -107 -138q-51 -39 -121 -39q-67 0 -114 43zM391 190h177l-23 269zM473 580l-25 -5q4 37 27 61q23 23 52 23q18 0 46 -16l12 -7q14 -8 23.5 -11t17.5 -4q21 0 37 36l23 7q-12 -87 -77 -89q-21 0 -49 14l-16 10
q-24 12 -37 12q-21 0 -34 -31z" />
    <glyph glyph-name="Adieresis" unicode="&#xc4;" horiz-adv-x="716" 
d="M33 30l48 49q34 -52 89 -52t99 43q23 23 51.5 61t60.5 95l154 267q-20 2 -36.5 3.5t-30.5 1.5q-38 1 -66.5 -9t-49.5 -29q-40 -37 -40 -107l-71 -34q8 68 38 111q34 49 80 70q47 21 135 27q8 1 21.5 1.5t31.5 2.5l73 13l4 -119l21 -248q8 -89 20 -114q14 -27 48 -27h13
q11 0 29 2l-5 -24l-165 -27l-14 177h-196q-55 -98 -107 -138q-51 -39 -121 -39q-67 0 -114 43zM391 190h177l-23 269zM475 575l-44 55l56 42l43 -57zM647 575l-44 56l56 41l43 -57z" />
    <glyph glyph-name="Aring" unicode="&#xc5;" horiz-adv-x="716" 
d="M81 79q34 -52 89 -52t99 43q23 23 51.5 61t60.5 95l154 267q-20 2 -36.5 3.5t-30.5 1.5q-38 1 -66.5 -9t-49.5 -29q-40 -37 -40 -107l-71 -34q8 68 38 111q34 49 80 70q47 21 135 27q8 1 21.5 1.5t31.5 2.5l10 3q-29 15 -31 48q0 21 16 39q16 16 39 16t39 -16t17 -39
q0 -21 -15 -39l2 -118l21 -248q8 -89 20 -114q14 -27 48 -27h13q11 0 29 2l-5 -24l-165 -27l-14 177h-196q-55 -98 -107 -138q-51 -39 -121 -39q-67 0 -114 43zM568 190l-23 269l-154 -269h177zM551 582q0 -31 30 -31q31 0 31 31t-31 31q-30 0 -30 -31z" />
    <glyph glyph-name="AE" unicode="&#xc6;" horiz-adv-x="848" 
d="M79 80q35 -53 89 -53q42 0 81 30q40 30 100 109l247 321q-58 13 -119 13q-68 0 -110 -40q-41 -39 -42 -106l-69 -35q12 149 147 191q69 21 256 21h247l-31 -102h-23q3 15 3 25q0 28 -33 40q-30 10 -118 10h-11l-41 -212h160l-37 -37q-41 5 -68.5 7.5t-42.5 2.5h-18
l-31 -156q-2 -10 -2.5 -17.5t-1.5 -13.5q0 -22 26 -30q13 -5 36 -6.5t57 -2.5q52 0 107 41l-6 -29q-60 -62 -110 -62h-10t-13 1l-180 10l33 166h-169l-50 -65q-48 -63 -90 -89q-38 -25 -94 -25q-69 0 -118 43zM556 188l54 273l-208 -273h154z" />
    <glyph glyph-name="Ccedilla" unicode="&#xc7;" horiz-adv-x="502" 
d="M478 33q-47 -19 -90 -30.5t-84 -15.5l-13 -20q35 -9 35 -40q0 -26 -28 -47q-28 -22 -62 -22q-17 0 -34 3l28 38q17 -11 30 -11q31 0 32 26q0 27 -49 30l28 42q-97 8 -143 55q-45 45 -45 137q0 154 97 260q96 106 238 106q42 0 80 -5t73 -16l-30 -98h-23q2 8 3 15t1 12
q0 32 -34 51t-89 19q-81 0 -144 -73q-40 -48 -66 -120q-14 -36 -20 -70t-6 -66q0 -79 40 -122q41 -44 112 -44q81 0 170 40l-7 -34v0z" />
    <glyph glyph-name="Egrave" unicode="&#xc8;" horiz-adv-x="540" 
d="M75 0l53 53h7q53 0 74 23t36 99l66 328q-74 0 -120 -40q-45 -39 -45 -103v-8l-70 -34q9 109 85 161q78 52 227 52h211l-32 -102h-23q3 15 3 25q0 28 -33 40q-30 10 -118 10h-11l-41 -212h160l-37 -37q-41 5 -68.5 7.5t-42.5 2.5h-18l-7 -38q-12 -65 -39 -104
q-25 -37 -82 -76l172 -6l38 -2q29 -2 56 9.5t53 31.5l-5 -29q-64 -64 -120 -64h-16zM508 604l-45 -29q-13 26 -31.5 49.5t-43.5 46.5l43 33q22 -23 41 -47.5t36 -52.5z" />
    <glyph glyph-name="Eacute" unicode="&#xc9;" horiz-adv-x="540" 
d="M75 0l53 53h7q53 0 74 23t36 99l66 328q-74 0 -120 -40q-45 -39 -45 -103v-8l-70 -34q9 109 85 161q78 52 227 52h211l-32 -102h-23q3 15 3 25q0 28 -33 40q-30 10 -118 10h-11l-41 -212h160l-37 -37q-41 5 -68.5 7.5t-42.5 2.5h-18l-7 -38q-12 -65 -39 -104
q-25 -37 -82 -76l172 -6l38 -2q29 -2 56 9.5t53 31.5l-5 -29q-64 -64 -120 -64h-16zM408 575l12 32q48 41 140 97l-24 -58q-45 -23 -76.5 -40t-51.5 -31z" />
    <glyph glyph-name="Ecircumflex" unicode="&#xca;" horiz-adv-x="540" 
d="M75 0l53 53h7q53 0 74 23t36 99l66 328q-74 0 -120 -40q-45 -39 -45 -103v-8l-70 -34q9 109 85 161q78 52 227 52h211l-32 -102h-23q3 15 3 25q0 28 -33 40q-30 10 -118 10h-11l-41 -212h160l-37 -37q-41 5 -68.5 7.5t-42.5 2.5h-18l-7 -38q-12 -65 -39 -104
q-25 -37 -82 -76l172 -6l38 -2q29 -2 56 9.5t53 31.5l-5 -29q-64 -64 -120 -64h-16zM553 601l-44 -26q-27 30 -45 79q-10 -12 -24.5 -28t-34.5 -36q-1 -1 -3 -3.5t-7 -7.5l-51 -4q75 55 111 98l49 31q15 -57 49 -103z" />
    <glyph glyph-name="Edieresis" unicode="&#xcb;" horiz-adv-x="540" 
d="M75 0l53 53h7q53 0 74 23t36 99l66 328q-74 0 -120 -40q-45 -39 -45 -103v-8l-70 -34q9 109 85 161q78 52 227 52h211l-32 -102h-23q3 15 3 25q0 28 -33 40q-30 10 -118 10h-11l-41 -212h160l-37 -37q-41 5 -68.5 7.5t-42.5 2.5h-18l-7 -38q-12 -65 -39 -104
q-25 -37 -82 -76l172 -6l38 -2q29 -2 56 9.5t53 31.5l-5 -29q-64 -64 -120 -64h-16zM357 575l-44 55l56 42l43 -57zM529 575l-44 56l56 41l43 -57z" />
    <glyph glyph-name="Igrave" unicode="&#xcc;" horiz-adv-x="332" 
d="M4 0l54 53h24q41 0 60 27q10 14 19 40t17 65l58 293h-97l52 53h233l-54 -53h-59l-50 -254q-22 -115 -121 -176l140 -4l-52 -53zM377 604l-45 -29q-13 26 -31.5 49.5t-43.5 46.5l43 33q22 -23 41 -47.5t36 -52.5z" />
    <glyph glyph-name="Iacute" unicode="&#xcd;" horiz-adv-x="332" 
d="M4 0l54 53h24q41 0 60 27q10 14 19 40t17 65l58 293h-97l52 53h233l-54 -53h-59l-50 -254q-22 -115 -121 -176l140 -4l-52 -53zM254 575l12 32q48 41 140 97l-24 -58q-45 -23 -76.5 -40t-51.5 -31z" />
    <glyph glyph-name="Icircumflex" unicode="&#xce;" horiz-adv-x="332" 
d="M4 0l54 53h24q41 0 60 27q10 14 19 40t17 65l58 293h-97l52 53h233l-54 -53h-59l-50 -254q-22 -115 -121 -176l140 -4l-52 -53zM404 601l-44 -26q-27 30 -45 79q-10 -12 -24.5 -28t-34.5 -36q-1 -1 -3 -3.5t-7 -7.5l-51 -4q75 55 111 98l49 31q15 -57 49 -103z" />
    <glyph glyph-name="Idieresis" unicode="&#xcf;" horiz-adv-x="332" 
d="M4 0l54 53h24q41 0 60 27q10 14 19 40t17 65l58 293h-97l52 53h233l-54 -53h-59l-50 -254q-22 -115 -121 -176l140 -4l-52 -53zM212 575l-44 55l56 42l43 -57zM384 575l-44 56l56 41l43 -57z" />
    <glyph glyph-name="Eth" unicode="&#xd0;" horiz-adv-x="490" 
d="M58 53h7h15q41 0 63 30q22 31 38 112l57 278h-97l52 58h235l-56 -58h-59l-7 -35q121 0 168 -22q48 -22 48 -78q0 -51 -38 -101q-38 -48 -95 -67q-43 -15 -122 -15l13 22q65 0 114 46q50 47 50 106q0 87 -132 87h-10l-41 -198q-23 -110 -118 -171l138 -3l-49 -53l-228 9z
" />
    <glyph glyph-name="Ntilde" unicode="&#xd1;" horiz-adv-x="756" 
d="M29 34l51 52q36 -59 100 -59q44 0 76 35q32 37 44 95l68 341q-9 2 -16 2q-6 0 -10 1q-59 0 -98 -43q-39 -41 -40 -104l-69 -34q8 96 78 153q72 58 179 58h34q19 -48 42.5 -98t54.5 -104l46 -81q24 -42 41.5 -75.5t28.5 -59.5l41 207q22 109 74 166q52 58 127 58
q28 0 52 -10l-26 -48q-31 25 -61 25q-77 0 -104 -135l-54 -270l-17 -106l-45 -16q-13 40 -76 152l-88 155q-18 32 -32 59.5t-26 52.5l-27 -138q-26 -132 -88 -202q-60 -68 -148 -70q-64 0 -112 41zM516 580l-25 -5q4 37 27 61q23 23 52 23q18 0 46 -16l12 -7q14 -8 23.5 -11
t17.5 -4q21 0 37 36l23 7q-12 -87 -77 -89q-21 0 -49 14l-16 10q-24 12 -37 12q-21 0 -34 -31z" />
    <glyph glyph-name="Ograve" unicode="&#xd2;" horiz-adv-x="575" 
d="M274 -13q-87 0 -139 55t-52 148q-1 140 97 248q97 106 226 106q88 0 138 -54q51 -54 51 -146q0 -148 -94 -252q-94 -105 -227 -105zM288 11q93 0 160 99t67 236q0 175 -122 176q-92 0 -160 -98q-67 -99 -67 -234q0 -179 122 -179zM490 604l-45 -29q-13 26 -31.5 49.5
t-43.5 46.5l43 33q22 -23 41 -47.5t36 -52.5z" />
    <glyph glyph-name="Oacute" unicode="&#xd3;" horiz-adv-x="575" 
d="M274 -13q-87 0 -139 55t-52 148q-1 140 97 248q97 106 226 106q88 0 138 -54q51 -54 51 -146q0 -148 -94 -252q-94 -105 -227 -105zM288 11q93 0 160 99t67 236q0 175 -122 176q-92 0 -160 -98q-67 -99 -67 -234q0 -179 122 -179zM362 575l12 32q48 41 140 97l-24 -58
q-45 -23 -76.5 -40t-51.5 -31z" />
    <glyph glyph-name="Ocircumflex" unicode="&#xd4;" horiz-adv-x="575" 
d="M274 -13q-87 0 -139 55t-52 148q-1 140 97 248q97 106 226 106q88 0 138 -54q51 -54 51 -146q0 -148 -94 -252q-94 -105 -227 -105zM288 11q93 0 160 99t67 236q0 175 -122 176q-92 0 -160 -98q-67 -99 -67 -234q0 -179 122 -179zM512 601l-44 -26q-27 30 -45 79
q-10 -12 -24.5 -28t-34.5 -36q-1 -1 -3 -3.5t-7 -7.5l-51 -4q75 55 111 98l49 31q15 -57 49 -103z" />
    <glyph glyph-name="Otilde" unicode="&#xd5;" horiz-adv-x="575" 
d="M274 -13q-87 0 -139 55t-52 148q-1 140 97 248q97 106 226 106q88 0 138 -54q51 -54 51 -146q0 -148 -94 -252q-94 -105 -227 -105zM288 11q93 0 160 99t67 236q0 175 -122 176q-92 0 -160 -98q-67 -99 -67 -234q0 -179 122 -179zM336 580l-25 -5q4 37 27 61q23 23 52 23
q18 0 46 -16l12 -7q14 -8 23.5 -11t17.5 -4q21 0 37 36l23 7q-12 -87 -77 -89q-21 0 -49 14l-16 10q-24 12 -37 12q-21 0 -34 -31z" />
    <glyph glyph-name="Odieresis" unicode="&#xd6;" horiz-adv-x="575" 
d="M274 -13q-87 0 -139 55t-52 148q-1 140 97 248q97 106 226 106q88 0 138 -54q51 -54 51 -146q0 -148 -94 -252q-94 -105 -227 -105zM288 11q93 0 160 99t67 236q0 175 -122 176q-92 0 -160 -98q-67 -99 -67 -234q0 -179 122 -179zM334 575l-44 55l56 42l43 -57zM506 575
l-44 56l56 41l43 -57z" />
    <glyph glyph-name="multiply" unicode="&#xd7;" horiz-adv-x="628" 
d="M229 327q-2 -13 -3 -21t-2 -13q0 -11 28 -12l30 -2l-5 -22h-186l4 22l31 2q25 2 29 7q2 3 5.5 12.5t6.5 26.5l28 140q2 6 2 10v10q0 12 -33 18l-23 4l5 22l126 13zM597 544h49l-509 -557h-48zM364 90l8 40l177 158h34l-34 -170l55 -4l-22 -39l-41 3q-2 -14 -3 -24t-2 -17
q0 -11 27 -13l29 -2l-4 -22h-179l4 22l28 2q25 1 33 8q7 5 11 26q0 5 1 10.5t3 13.5zM517 222l-107 -95l87 -5z" />
    <glyph glyph-name="Oslash" unicode="&#xd8;" horiz-adv-x="575" 
d="M165 16q-81 57 -81 174q0 144 97 248q97 106 228 106q48 0 83 -19l37 59h33l-45 -72q79 -55 79 -165q0 -146 -93 -253t-220 -107q-55 0 -94 18l-37 -58h-31zM469 490q-38 32 -89 32q-44 0 -91 -38t-78 -100q-45 -88 -45 -214q0 -62 27 -110zM211 39q39 -28 74 -28
q96 0 164 98q67 98 67 242q0 69 -28 116z" />
    <glyph glyph-name="Ugrave" unicode="&#xd9;" horiz-adv-x="717" 
d="M522 -13l22 110q-80 -110 -170 -110q-63 0 -101 44t-38 119q0 23 5 60.5t16 90.5q11 52 24 101t27 96q-9 2 -15 2t-10 1q-60 0 -99 -43q-39 -41 -40 -104l-69 -34q15 211 291 211h26q-17 -51 -30.5 -104.5t-25.5 -110.5q-23 -113 -23 -165q0 -59 23 -91q23 -33 64 -33
q42 -1 86 38q40 35 73 103l72 363l82 9l-28 -115l-51 -257q-14 -73 -14 -92q0 -38 48 -38q16 0 43 3l-5 -23zM565 604l-45 -29q-13 26 -31.5 49.5t-43.5 46.5l43 33q22 -23 41 -47.5t36 -52.5z" />
    <glyph glyph-name="Uacute" unicode="&#xda;" horiz-adv-x="717" 
d="M522 -13l22 110q-80 -110 -170 -110q-63 0 -101 44t-38 119q0 23 5 60.5t16 90.5q11 52 24 101t27 96q-9 2 -15 2t-10 1q-60 0 -99 -43q-39 -41 -40 -104l-69 -34q15 211 291 211h26q-17 -51 -30.5 -104.5t-25.5 -110.5q-23 -113 -23 -165q0 -59 23 -91q23 -33 64 -33
q42 -1 86 38q40 35 73 103l72 363l82 9l-28 -115l-51 -257q-14 -73 -14 -92q0 -38 48 -38q16 0 43 3l-5 -23zM460 575l12 32q48 41 140 97l-24 -58q-45 -23 -76.5 -40t-51.5 -31z" />
    <glyph glyph-name="Ucircumflex" unicode="&#xdb;" horiz-adv-x="717" 
d="M522 -13l22 110q-80 -110 -170 -110q-63 0 -101 44t-38 119q0 23 5 60.5t16 90.5q11 52 24 101t27 96q-9 2 -15 2t-10 1q-60 0 -99 -43q-39 -41 -40 -104l-69 -34q15 211 291 211h26q-17 -51 -30.5 -104.5t-25.5 -110.5q-23 -113 -23 -165q0 -59 23 -91q23 -33 64 -33
q42 -1 86 38q40 35 73 103l72 363l82 9l-28 -115l-51 -257q-14 -73 -14 -92q0 -38 48 -38q16 0 43 3l-5 -23zM618 601l-44 -26q-27 30 -45 79q-10 -12 -24.5 -28t-34.5 -36q-1 -1 -3 -3.5t-7 -7.5l-51 -4q75 55 111 98l49 31q15 -57 49 -103z" />
    <glyph glyph-name="Udieresis" unicode="&#xdc;" horiz-adv-x="717" 
d="M522 -13l22 110q-80 -110 -170 -110q-63 0 -101 44t-38 119q0 23 5 60.5t16 90.5q11 52 24 101t27 96q-9 2 -15 2t-10 1q-60 0 -99 -43q-39 -41 -40 -104l-69 -34q15 211 291 211h26q-17 -51 -30.5 -104.5t-25.5 -110.5q-23 -113 -23 -165q0 -59 23 -91q23 -33 64 -33
q42 -1 86 38q40 35 73 103l72 363l82 9l-28 -115l-51 -257q-14 -73 -14 -92q0 -38 48 -38q16 0 43 3l-5 -23zM422 575l-44 55l56 42l43 -57zM594 575l-44 56l56 41l43 -57z" />
    <glyph glyph-name="Yacute" unicode="&#xdd;" 
d="M246 213l-133 166l29 28l134 -168l200 168l25 -33l-199 -166l133 -165l-30 -25l-134 164l-197 -164l-27 30z" />
    <glyph glyph-name="Thorn" unicode="&#xde;" horiz-adv-x="297" 
d="M103 308q77 46 123 92q47 45 47 74q0 47 -42 47q-55 1 -66 -59h-27l14 66q23 8 45.5 12t43.5 4q94 0 95 -66q0 -35 -25 -58q-12 -11 -52.5 -39t-110.5 -74h154l-10 -50h-199z" />
    <glyph glyph-name="germandbls" unicode="&#xdf;" horiz-adv-x="443" 
d="M-122 -180q36 -15 69 -15q52 0 78 32q25 31 43 119l80 402q27 139 90 202q68 68 138 68q31 0 51 -20q21 -19 21 -49q0 -52 -72 -115l-18 -16q-42 -36 -42 -73q0 -29 45 -82l41 -48q45 -54 45 -100q0 -57 -53 -95q-54 -39 -130 -39q-37 0 -65 17l43 49q36 -30 82 -30
q30 0 51 20q22 20 22 47q1 17 -12 38.5t-36 47.5l-27 30q-72 80 -72 122q0 44 49 79l28 20l11 9q41 33 41 88q0 56 -51 56q-32 0 -55 -32.5t-36 -99.5l-78 -398q-30 -154 -101 -222q-76 -71 -170 -71q-29 0 -62 10z" />
    <glyph glyph-name="agrave" unicode="&#xe0;" horiz-adv-x="491" 
d="M353 195h-7q-38 -88 -97 -147q-57 -57 -107 -57q-76 0 -76 95q-1 102 84 204t210 104q26 0 52 -1t55 -3l-26 -107l-35 -177q-8 -43 -8 -54q0 -22 21 -22q35 0 107 79l-6 -34q-79 -84 -141 -84q-52 0 -52 54q0 9 1.5 24t6.5 37zM382 338q-43 20 -90 20q-65 0 -104 -82
q-46 -96 -46 -176q0 -56 33 -56q30 0 89 65q29 32 54 69t47 79zM447 489l-45 -29q-13 26 -31.5 49.5t-43.5 46.5l43 33q22 -23 41 -47.5t36 -52.5z" />
    <glyph glyph-name="aacute" unicode="&#xe1;" horiz-adv-x="491" 
d="M353 195h-7q-38 -88 -97 -147q-57 -57 -107 -57q-76 0 -76 95q-1 102 84 204t210 104q26 0 52 -1t55 -3l-26 -107l-35 -177q-8 -43 -8 -54q0 -22 21 -22q35 0 107 79l-6 -34q-79 -84 -141 -84q-52 0 -52 54q0 9 1.5 24t6.5 37zM382 338q-43 20 -90 20q-65 0 -104 -82
q-46 -96 -46 -176q0 -56 33 -56q30 0 89 65q29 32 54 69t47 79zM337 460l12 32q48 41 140 97l-24 -58q-45 -23 -76.5 -40t-51.5 -31z" />
    <glyph glyph-name="acircumflex" unicode="&#xe2;" horiz-adv-x="491" 
d="M353 195h-7q-38 -88 -97 -147q-57 -57 -107 -57q-76 0 -76 95q-1 102 84 204t210 104q26 0 52 -1t55 -3l-26 -107l-35 -177q-8 -43 -8 -54q0 -22 21 -22q35 0 107 79l-6 -34q-79 -84 -141 -84q-52 0 -52 54q0 9 1.5 24t6.5 37zM382 338q-43 20 -90 20q-65 0 -104 -82
q-46 -96 -46 -176q0 -56 33 -56q30 0 89 65q29 32 54 69t47 79zM478 486l-44 -26q-27 30 -45 79q-10 -12 -24.5 -28t-34.5 -36q-1 -1 -3 -3.5t-7 -7.5l-51 -4q75 55 111 98l49 31q15 -57 49 -103z" />
    <glyph glyph-name="atilde" unicode="&#xe3;" horiz-adv-x="491" 
d="M353 195h-7q-38 -88 -97 -147q-57 -57 -107 -57q-76 0 -76 95q-1 102 84 204t210 104q26 0 52 -1t55 -3l-26 -107l-35 -177q-8 -43 -8 -54q0 -22 21 -22q35 0 107 79l-6 -34q-79 -84 -141 -84q-52 0 -52 54q0 9 1.5 24t6.5 37zM382 338q-43 20 -90 20q-65 0 -104 -82
q-46 -96 -46 -176q0 -56 33 -56q30 0 89 65q29 32 54 69t47 79zM293 465l-25 -5q4 37 27 61q23 23 52 23q18 0 46 -16l12 -7q14 -8 23.5 -11t17.5 -4q21 0 37 36l23 7q-12 -87 -77 -89q-21 0 -49 14l-16 10q-24 12 -37 12q-21 0 -34 -31z" />
    <glyph glyph-name="adieresis" unicode="&#xe4;" horiz-adv-x="491" 
d="M353 195h-7q-38 -88 -97 -147q-57 -57 -107 -57q-76 0 -76 95q-1 102 84 204t210 104q26 0 52 -1t55 -3l-26 -107l-35 -177q-8 -43 -8 -54q0 -22 21 -22q35 0 107 79l-6 -34q-79 -84 -141 -84q-52 0 -52 54q0 9 1.5 24t6.5 37zM382 338q-43 20 -90 20q-65 0 -104 -82
q-46 -96 -46 -176q0 -56 33 -56q30 0 89 65q29 32 54 69t47 79zM287 460l-44 55l56 42l43 -57zM459 460l-44 56l56 41l43 -57z" />
    <glyph glyph-name="aring" unicode="&#xe5;" horiz-adv-x="491" 
d="M353 195h-7q-38 -88 -97 -147q-57 -57 -107 -57q-76 0 -76 95q-1 102 84 204t210 104q26 0 52 -1t55 -3l-26 -107l-35 -177q-8 -43 -8 -54q0 -22 21 -22q35 0 107 79l-6 -34q-79 -84 -141 -84q-52 0 -52 54q0 9 1.5 24t6.5 37zM382 338q-43 20 -90 20q-65 0 -104 -82
q-46 -96 -46 -176q0 -56 33 -56q30 0 89 65q29 32 54 69t47 79zM394 458q-23 0 -40 17t-17 41q0 23 17 40t40 17q25 0 41 -17q17 -17 17 -40q0 -24 -17 -41q-15 -15 -41 -17zM394 480q13 0 25 10q9 9 11 26q0 15 -11 25q-10 10 -25 10t-25 -10t-10 -25t10 -26q10 -8 25 -10z
" />
    <glyph glyph-name="ae" unicode="&#xe6;" horiz-adv-x="673" 
d="M346 195q-38 -88 -97 -147q-57 -57 -107 -57q-76 0 -76 96q-1 103 84 207q86 104 206 104q11 0 35 -1.5t62 -6.5h14l-13 -50q73 58 135 58q32 0 52 -20t20 -52q0 -72 -67 -118q-65 -46 -175 -52v-16q0 -106 78 -106q57 0 164 67l-5 -27q-117 -83 -201 -83q-48 0 -80 36
t-32 92q0 27 10 76h-7zM381 341q-23 10 -45 15t-45 5q-65 0 -104 -83q-46 -95 -46 -175q0 -56 33 -56q30 0 88 65q59 65 102 147l17 82v0zM419 177q79 6 126 41q46 36 46 91q0 56 -40 56q-42 0 -83 -58q-40 -58 -49 -130z" />
    <glyph glyph-name="ccedilla" unicode="&#xe7;" horiz-adv-x="401" 
d="M381 71q-75 -52 -159 -76l-19 -27q37 -11 37 -41q0 -25 -28 -47q-28 -21 -62 -22q-16 0 -35 4l28 38q19 -11 31 -11q31 0 31 25q0 28 -50 31l32 46q-115 12 -115 122q0 109 78 197t175 88q41 0 83 -18l-24 -92h-22l1 5q3 17 3 25q0 49 -68 49q-61 0 -108 -71
q-46 -72 -46 -165q0 -100 78 -100q61 0 164 68z" />
    <glyph glyph-name="egrave" unicode="&#xe8;" horiz-adv-x="398" 
d="M386 98l-5 -28q-115 -79 -194 -79q-51 0 -83 36q-32 35 -32 92q0 100 78 190q77 89 165 89q34 0 52 -21q19 -20 19 -56q0 -69 -70 -118q-71 -50 -168 -50v-16q0 -104 77 -105q65 0 161 66zM149 175q80 8 125 42q46 36 46 90q0 55 -40 55q-44 0 -83 -57q-41 -57 -48 -130z
M378 489l-45 -29q-13 26 -31.5 49.5t-43.5 46.5l43 33q22 -23 41 -47.5t36 -52.5z" />
    <glyph glyph-name="eacute" unicode="&#xe9;" horiz-adv-x="398" 
d="M386 98l-5 -28q-115 -79 -194 -79q-51 0 -83 36q-32 35 -32 92q0 100 78 190q77 89 165 89q34 0 52 -21q19 -20 19 -56q0 -69 -70 -118q-71 -50 -168 -50v-16q0 -104 77 -105q65 0 161 66zM149 175q80 8 125 42q46 36 46 90q0 55 -40 55q-44 0 -83 -57q-41 -57 -48 -130z
M268 460l12 32q48 41 140 97l-24 -58q-45 -23 -76.5 -40t-51.5 -31z" />
    <glyph glyph-name="ecircumflex" unicode="&#xea;" horiz-adv-x="398" 
d="M386 98l-5 -28q-115 -79 -194 -79q-51 0 -83 36q-32 35 -32 92q0 100 78 190q77 89 165 89q34 0 52 -21q19 -20 19 -56q0 -69 -70 -118q-71 -50 -168 -50v-16q0 -104 77 -105q65 0 161 66zM149 175q80 8 125 42q46 36 46 90q0 55 -40 55q-44 0 -83 -57q-41 -57 -48 -130z
M409 486l-44 -26q-27 30 -45 79q-10 -12 -24.5 -28t-34.5 -36q-1 -1 -3 -3.5t-7 -7.5l-51 -4q75 55 111 98l49 31q15 -57 49 -103z" />
    <glyph glyph-name="edieresis" unicode="&#xeb;" horiz-adv-x="398" 
d="M386 98l-5 -28q-115 -79 -194 -79q-51 0 -83 36q-32 35 -32 92q0 100 78 190q77 89 165 89q34 0 52 -21q19 -20 19 -56q0 -69 -70 -118q-71 -50 -168 -50v-16q0 -104 77 -105q65 0 161 66zM149 175q80 8 125 42q46 36 46 90q0 55 -40 55q-44 0 -83 -57q-41 -57 -48 -130z
M226 460l-44 55l56 42l43 -57zM398 460l-44 56l56 41l43 -57z" />
    <glyph glyph-name="igrave" unicode="&#xec;" horiz-adv-x="277" 
d="M318 109l-7 -34q-78 -84 -141 -84q-51 0 -51 54q0 9 1.5 24t6.5 36l25 125q5 26 7.5 44t2.5 27q2 30 -24 30q-15 0 -57 -12l4 22l175 57l-27 -115l-35 -177q-8 -43 -8 -53q0 -23 21 -23q35 0 107 79zM313 489l-45 -29q-13 26 -31.5 49.5t-43.5 46.5l43 33
q22 -23 41 -47.5t36 -52.5z" />
    <glyph glyph-name="iacute" unicode="&#xed;" horiz-adv-x="277" 
d="M318 109l-7 -34q-78 -84 -141 -84q-51 0 -51 54q0 9 1.5 24t6.5 36l25 125q5 26 7.5 44t2.5 27q2 30 -24 30q-15 0 -57 -12l4 22l175 57l-27 -115l-35 -177q-8 -43 -8 -53q0 -23 21 -23q35 0 107 79zM190 460l12 32q48 41 140 97l-24 -58q-45 -23 -76.5 -40t-51.5 -31z
" />
    <glyph glyph-name="icircumflex" unicode="&#xee;" horiz-adv-x="277" 
d="M318 109l-7 -34q-78 -84 -141 -84q-51 0 -51 54q0 9 1.5 24t6.5 36l25 125q5 26 7.5 44t2.5 27q2 30 -24 30q-15 0 -57 -12l4 22l175 57l-27 -115l-35 -177q-8 -43 -8 -53q0 -23 21 -23q35 0 107 79zM326 486l-44 -26q-27 30 -45 79q-10 -12 -24.5 -28t-34.5 -36
q-1 -1 -3 -3.5t-7 -7.5l-51 -4q75 55 111 98l49 31q15 -57 49 -103z" />
    <glyph glyph-name="idieresis" unicode="&#xef;" horiz-adv-x="277" 
d="M318 109l-7 -34q-78 -84 -141 -84q-51 0 -51 54q0 9 1.5 24t6.5 36l25 125q5 26 7.5 44t2.5 27q2 30 -24 30q-15 0 -57 -12l4 22l175 57l-27 -115l-35 -177q-8 -43 -8 -53q0 -23 21 -23q35 0 107 79zM139 460l-44 55l56 42l43 -57zM311 460l-44 56l56 41l43 -57z" />
    <glyph glyph-name="eth" unicode="&#xf0;" horiz-adv-x="488" 
d="M-104 -181q36 -18 76 -18q92 0 122 151l84 424q5 26 7.5 44t2.5 27q0 30 -23 30q-18 0 -58 -13l4 23l175 57l-27 -116l-47 -233h6q21 45 45 81.5t53 64.5q57 57 107 57q76 0 76 -95q0 -110 -87 -209t-186 -99q-5 0 -14.5 1t-25.5 3q-7 0 -12 1q-28 -116 -99 -177
q-70 -62 -173 -62q-27 0 -54 7zM184 51q45 -20 89 -20q65 0 104 82q47 99 47 176q0 56 -34 56q-30 0 -88 -65t-102 -148l-16 -81v0z" />
    <glyph glyph-name="ntilde" unicode="&#xf1;" horiz-adv-x="522" 
d="M96 -4l27 110l35 177q5 21 6.5 34.5t1.5 19.5q0 22 -21 22q-35 0 -107 -78l7 33q78 84 141 84q51 0 51 -54q0 -9 -1.5 -24t-6.5 -37l-17 -88h5q46 93 101 147q58 56 106 56q58 0 58 -65q0 -20 -6 -52l-34 -175q-7 -40 -9 -54q0 -22 21 -22q36 0 108 79l-7 -34
q-78 -84 -141 -84q-52 0 -52 54q0 18 9 61l35 176q4 19 4 34q0 29 -22 29q-67 0 -190 -217l-26 -128zM283 465l-25 -5q4 37 27 61q23 23 52 23q18 0 46 -16l12 -7q14 -8 23.5 -11t17.5 -4q21 0 37 36l23 7q-12 -87 -77 -89q-21 0 -49 14l-16 10q-24 12 -37 12q-21 0 -34 -31
z" />
    <glyph glyph-name="ograve" unicode="&#xf2;" horiz-adv-x="428" 
d="M182 -9q-48 0 -79 37q-31 35 -31 91q0 104 78 191q78 88 171 88q49 0 82 -36q32 -35 32 -91q0 -107 -78 -194q-78 -86 -175 -86zM223 22q52 0 93 68q41 70 41 159q1 60 -18 89.5t-55 29.5q-51 0 -92 -71q-41 -70 -41 -158q0 -115 72 -117zM402 489l-45 -29
q-13 26 -31.5 49.5t-43.5 46.5l43 33q22 -23 41 -47.5t36 -52.5z" />
    <glyph glyph-name="oacute" unicode="&#xf3;" horiz-adv-x="428" 
d="M182 -9q-48 0 -79 37q-31 35 -31 91q0 104 78 191q78 88 171 88q49 0 82 -36q32 -35 32 -91q0 -107 -78 -194q-78 -86 -175 -86zM223 22q52 0 93 68q41 70 41 159q1 60 -18 89.5t-55 29.5q-51 0 -92 -71q-41 -70 -41 -158q0 -115 72 -117zM279 460l12 32q48 41 140 97
l-24 -58q-45 -23 -76.5 -40t-51.5 -31z" />
    <glyph glyph-name="ocircumflex" unicode="&#xf4;" horiz-adv-x="428" 
d="M182 -9q-48 0 -79 37q-31 35 -31 91q0 104 78 191q78 88 171 88q49 0 82 -36q32 -35 32 -91q0 -107 -78 -194q-78 -86 -175 -86zM223 22q52 0 93 68q41 70 41 159q1 60 -18 89.5t-55 29.5q-51 0 -92 -71q-41 -70 -41 -158q0 -115 72 -117zM429 486l-44 -26q-27 30 -45 79
q-10 -12 -24.5 -28t-34.5 -36q-1 -1 -3 -3.5t-7 -7.5l-51 -4q75 55 111 98l49 31q15 -57 49 -103z" />
    <glyph glyph-name="otilde" unicode="&#xf5;" horiz-adv-x="428" 
d="M182 -9q-48 0 -79 37q-31 35 -31 91q0 104 78 191q78 88 171 88q49 0 82 -36q32 -35 32 -91q0 -107 -78 -194q-78 -86 -175 -86zM223 22q52 0 93 68q41 70 41 159q1 60 -18 89.5t-55 29.5q-51 0 -92 -71q-41 -70 -41 -158q0 -115 72 -117zM244 465l-25 -5q4 37 27 61
q23 23 52 23q18 0 46 -16l12 -7q14 -8 23.5 -11t17.5 -4q21 0 37 36l23 7q-12 -87 -77 -89q-21 0 -49 14l-16 10q-24 12 -37 12q-21 0 -34 -31z" />
    <glyph glyph-name="odieresis" unicode="&#xf6;" horiz-adv-x="428" 
d="M182 -9q-48 0 -79 37q-31 35 -31 91q0 104 78 191q78 88 171 88q49 0 82 -36q32 -35 32 -91q0 -107 -78 -194q-78 -86 -175 -86zM223 22q52 0 93 68q41 70 41 159q1 60 -18 89.5t-55 29.5q-51 0 -92 -71q-41 -70 -41 -158q0 -115 72 -117zM242 460l-44 55l56 42l43 -57z
M414 460l-44 56l56 41l43 -57z" />
    <glyph glyph-name="divide" unicode="&#xf7;" 
d="M219 100h67l-14 -67h-66zM84 232h389l-7 -39h-390zM277 392h67l-14 -67h-66z" />
    <glyph glyph-name="oslash" unicode="&#xf8;" horiz-adv-x="428" 
d="M60 -53l53 71q-40 43 -40 100q0 104 78 192q76 88 168 88q32 0 59 -15l43 60h27l-52 -72q39 -46 39 -99q0 -54 -18.5 -102t-58.5 -93q-78 -86 -175 -86q-22 0 -52 14l-42 -58h-29zM343 336q-18 32 -56 32q-54 0 -97 -73q-22 -36 -32.5 -77t-11.5 -86q0 -19 8 -57zM164 51
q20 -32 55 -32q53 -1 99 72q44 71 44 159q0 24 -8 62z" />
    <glyph glyph-name="ugrave" unicode="&#xf9;" horiz-adv-x="512" 
d="M379 195h-6q-100 -204 -198 -204q-56 0 -58 68q0 20 6 48l35 176q5 21 6.5 34.5t1.5 19.5q0 22 -21 22q-35 0 -107 -78l6 33q78 84 141 84q52 0 52 -54q0 -9 -1.5 -24t-6.5 -37l-35 -176q-2 -12 -3.5 -20.5t-1.5 -13.5q0 -29 21 -29q26 0 82 65q27 32 52 70t48 82l26 129
l76 4l-26 -111l-35 -177q-7 -40 -9 -54q0 -22 21 -22q37 0 107 79l-6 -34q-78 -84 -141 -84q-52 0 -52 54q0 18 9 61zM415 489l-45 -29q-13 26 -31.5 49.5t-43.5 46.5l43 33q22 -23 41 -47.5t36 -52.5z" />
    <glyph glyph-name="uacute" unicode="&#xfa;" horiz-adv-x="512" 
d="M379 195h-6q-100 -204 -198 -204q-56 0 -58 68q0 20 6 48l35 176q5 21 6.5 34.5t1.5 19.5q0 22 -21 22q-35 0 -107 -78l6 33q78 84 141 84q52 0 52 -54q0 -9 -1.5 -24t-6.5 -37l-35 -176q-2 -12 -3.5 -20.5t-1.5 -13.5q0 -29 21 -29q26 0 82 65q27 32 52 70t48 82l26 129
l76 4l-26 -111l-35 -177q-7 -40 -9 -54q0 -22 21 -22q37 0 107 79l-6 -34q-78 -84 -141 -84q-52 0 -52 54q0 18 9 61zM305 460l12 32q48 41 140 97l-24 -58q-45 -23 -76.5 -40t-51.5 -31z" />
    <glyph glyph-name="ucircumflex" unicode="&#xfb;" horiz-adv-x="512" 
d="M379 195h-6q-100 -204 -198 -204q-56 0 -58 68q0 20 6 48l35 176q5 21 6.5 34.5t1.5 19.5q0 22 -21 22q-35 0 -107 -78l6 33q78 84 141 84q52 0 52 -54q0 -9 -1.5 -24t-6.5 -37l-35 -176q-2 -12 -3.5 -20.5t-1.5 -13.5q0 -29 21 -29q26 0 82 65q27 32 52 70t48 82l26 129
l76 4l-26 -111l-35 -177q-7 -40 -9 -54q0 -22 21 -22q37 0 107 79l-6 -34q-78 -84 -141 -84q-52 0 -52 54q0 18 9 61zM447 486l-44 -26q-27 30 -45 79q-10 -12 -24.5 -28t-34.5 -36q-1 -1 -3 -3.5t-7 -7.5l-51 -4q75 55 111 98l49 31q15 -57 49 -103z" />
    <glyph glyph-name="udieresis" unicode="&#xfc;" horiz-adv-x="512" 
d="M379 195h-6q-100 -204 -198 -204q-56 0 -58 68q0 20 6 48l35 176q5 21 6.5 34.5t1.5 19.5q0 22 -21 22q-35 0 -107 -78l6 33q78 84 141 84q52 0 52 -54q0 -9 -1.5 -24t-6.5 -37l-35 -176q-2 -12 -3.5 -20.5t-1.5 -13.5q0 -29 21 -29q26 0 82 65q27 32 52 70t48 82l26 129
l76 4l-26 -111l-35 -177q-7 -40 -9 -54q0 -22 21 -22q37 0 107 79l-6 -34q-78 -84 -141 -84q-52 0 -52 54q0 18 9 61zM263 460l-44 55l56 42l43 -57zM435 460l-44 56l56 41l43 -57z" />
    <glyph glyph-name="yacute" unicode="&#xfd;" horiz-adv-x="297" 
d="M242 327q-2 -12 -3.5 -20.5t-1.5 -13.5q0 -11 28 -12l29 -2l-4 -22h-186l5 22l30 2q25 2 29 7q2 3 5.5 12.5t6.5 26.5l28 140q2 6 2 10q0 5 1 10q0 12 -34 18l-22 4l4 22l127 13z" />
    <glyph glyph-name="thorn" unicode="&#xfe;" horiz-adv-x="297" 
d="M128 309q41 -32 80 -32q21 0 36 15q16 18 16 37q1 56 -88 58q-5 0 -11 -0.5t-11 -1.5l15 43q5 0 9 0.5t8 0.5q23 0 50 -6q41 18 41 56q2 42 -47 42q-44 0 -56 -52h-26l11 58q45 17 86 17q89 0 89 -54q0 -45 -71 -77q52 -19 52 -68q0 -39 -35 -65q-33 -24 -88 -26
q-43 0 -96 18z" />
    <glyph glyph-name="ydieresis" unicode="&#xff;" horiz-adv-x="509" 
d="M88 -228l50 50q35 -21 76 -21q50 0 77 35q29 36 51 130l55 229h-4q-21 -43 -43 -78t-43 -62q-43 -55 -68 -55q-27 0 -40 28t-22 105l-17 139q-9 78 -33 78q-22 0 -72 -63l7 37q56 74 107 74q28 0 40 -26q13 -27 23 -108l15 -120q7 -64 28 -64q22 0 63 62q3 5 23 38t57 95
l27 115l76 4l-32 -112l-63 -255q-32 -130 -101 -198q-71 -68 -171 -68q-40 0 -66 11zM270 460l-44 55l56 42l43 -57zM442 460l-44 56l56 41l43 -57z" />
    <glyph glyph-name="dotlessi" unicode="&#x131;" horiz-adv-x="277" 
d="M311 75q-78 -84 -141 -84q-51 0 -51 54q0 9 1.5 24t6.5 36l25 125q5 26 7.5 44t2.5 27q2 30 -24 30q-15 0 -57 -12l4 22l175 57l-27 -115l-35 -177q-8 -43 -8 -53q0 -23 21 -23q35 0 107 79z" />
    <glyph glyph-name="Lslash" unicode="&#x141;" horiz-adv-x="426" 
d="M42 20l49 51q67 -53 137 -53q49 0 80 27q32 29 32 72q0 42 -59 95l-51 45q-54 48 -70 69q-13 23 -13 54q0 67 57 116q56 48 135 48q52 0 117 -29l-18 -90h-23q1 5 1 9v6q0 34 -27 55t-72 21q-45 1 -78 -28q-31 -26 -32 -68q0 -27 16 -49q8 -12 24.5 -27.5t42.5 -38.5
l42 -37q71 -63 71 -113q1 -67 -67 -119q-65 -49 -158 -49q-70 0 -136 33zM294 678l44 26q27 -30 45 -79q10 13 24.5 28.5t34.5 35.5q1 1 3 3.5t7 7.5l51 4q-39 -29 -66.5 -53t-44.5 -45l-49 -31q-8 28 -20 53.5t-29 49.5z" />
    <glyph glyph-name="lslash" unicode="&#x142;" horiz-adv-x="331" 
d="M25 12l47 49q46 -34 95 -34q29 0 50 15q20 14 20 39q0 26 -40 69l-33 36q-47 50 -47 88q0 49 46 86q47 38 106 38q34 0 73 -13l-16 -80h-23l2 6v8q0 48 -62 48q-70 0 -70 -56q0 -14 10 -33t31 -42l30 -33q48 -52 48 -89q0 -47 -51 -85q-52 -38 -116 -38q-44 0 -100 21z
M201 563l44 26q27 -30 45 -79q10 13 24.5 28.5t34.5 35.5q1 1 3 3.5t7 7.5l51 4q-39 -29 -66.5 -53t-44.5 -45l-49 -31q-8 28 -20 53.5t-29 49.5z" />
    <glyph glyph-name="OE" unicode="&#x152;" horiz-adv-x="736" 
d="M414 35q-60 -48 -141 -48q-88 0 -139 54q-51 53 -51 147q0 142 95 249q94 107 220 107q66 0 109 -42l6 29h281l-32 -102h-23q3 15 3 25q0 28 -32 40q-31 10 -119 10h-11l-41 -212h160l-37 -37q-41 5 -68.5 7.5t-42.5 2.5h-18l-29 -156q-5 -28 -5 -32q0 -37 113 -37
q60 0 112 40l-6 -29q-62 -62 -119 -62q-5 0 -10 0.5t-10 0.5l-172 10zM479 360q6 32 6 59q0 46 -28 75q-28 28 -74 28q-83 0 -151 -102q-68 -101 -68 -223q0 -89 34 -139q33 -49 94 -49q117 0 151 171z" />
    <glyph glyph-name="oe" unicode="&#x153;" horiz-adv-x="673" 
d="M352 72q-85 -81 -168 -81q-47 0 -80 36q-32 37 -32 91q0 105 79 193q78 87 173 87q71 0 104 -84q83 84 161 84q30 0 52 -20q20 -20 20 -54q0 -70 -67 -118q-33 -23 -77 -35.5t-98 -15.5l-1 -17q-3 -53 18 -79t61 -26q58 0 164 67l-5 -28q-117 -81 -199 -81q-79 0 -105 81
zM215 18q56 0 102 71q44 70 46 160q0 52 -20 86q-19 32 -52 32q-57 0 -101 -71t-44 -160q0 -118 69 -118zM420 177q82 6 127 41q46 34 46 91q0 56 -40 56q-43 0 -84 -58q-21 -29 -32.5 -61.5t-16.5 -68.5z" />
    <glyph glyph-name="Scaron" unicode="&#x160;" horiz-adv-x="177" 
d="M101 186h49l-58 -292h-49zM177 566h49l-58 -292h-49z" />
    <glyph glyph-name="scaron" unicode="&#x161;" horiz-adv-x="714" 
d="M128 53l5 1q5 0 10 -1h8q39 0 58 24q21 24 33 85l20 103h-80l5 27h81l42 211q-74 0 -120 -40q-45 -39 -45 -103v-8l-70 -34q18 213 306 213h104q119 0 173 -45q53 -44 53 -146q0 -163 -113 -256q-114 -93 -313 -93h-12t-21 1l-177 8zM269 34q51 -9 105 -9q38 -1 66.5 4.5
t49.5 16.5q39 19 76 74q62 95 62 210q0 179 -197 179h-45l-43 -217h106l-5 -27h-106l-7 -31q-8 -38 -17.5 -66t-22.5 -47q-27 -39 -86 -76z" />
    <glyph glyph-name="Ydieresis" unicode="&#x178;" horiz-adv-x="601" 
d="M144 -118l49 47q44 -51 102 -51q91 0 135 176l30 121q-96 -155 -158 -155q-48 0 -57 105l-21 267q-9 108 -47 108q-28 0 -75 -43l6 30q59 57 99 57q44 0 66 -43q23 -44 30 -145l15 -197q6 -70 28 -70q18 0 55 41q19 20 37.5 45t35.5 54l76 302l83 7l-33 -113l-70 -282
q-72 -293 -269 -293q-63 0 -117 32zM356 575l-44 55l56 42l43 -57zM528 575l-44 56l56 41l43 -57z" />
    <glyph glyph-name="Zcaron" unicode="&#x17d;" horiz-adv-x="447" 
d="M351 384q-2 5 -2.5 8.5t-1.5 6.5q-5 16 -10.5 32.5t-13.5 34.5l-133 -68l6 32l115 60q-48 85 -77 85q-21 0 -54 -39l-18 13q54 79 103 79q51 0 109 -105l128 66l-7 -34l-109 -56q45 -106 45 -212q0 -119 -74 -208q-73 -88 -173 -88q-48 0 -81 35q-31 34 -31 90
q0 101 77 187q76 85 167 87q20 0 35 -6zM144 135q0 -117 71 -117q54 0 98 68q44 67 44 155q0 117 -74 117q-55 0 -97 -67t-42 -156z" />
    <glyph glyph-name="zcaron" unicode="&#x17e;" horiz-adv-x="601" 
d="M144 -118l49 47q44 -51 102 -51q91 0 135 176l30 121q-96 -155 -158 -155q-48 0 -57 105l-21 267q-9 108 -47 108q-28 0 -75 -43l6 30q59 57 99 57q44 0 66 -43q23 -44 30 -145l15 -197q6 -70 28 -70q18 0 55 41q19 20 37.5 45t35.5 54l76 302l83 7l-33 -113l-70 -282
q-72 -293 -269 -293q-63 0 -117 32zM394 575l12 32q48 41 140 97l-24 -58q-45 -23 -76.5 -40t-51.5 -31z" />
    <glyph glyph-name="florin" unicode="&#x192;" horiz-adv-x="338" 
d="M104 -9l38 190h-88l4 23h89l1 9q17 79 83 132q67 53 148 53q29 0 50 -7l-48 -53q-28 25 -60 25q-70 0 -93 -108l-11 -51h93l-4 -23h-93l-57 -287l-77 -9z" />
    <glyph glyph-name="circumflex" unicode="&#x2c6;" horiz-adv-x="429" 
d="M390 460q-27 30 -45 79q-10 -12 -24.5 -28t-34.5 -36q-1 -1 -3 -3.5t-7 -7.5l-51 -4q75 55 111 98l49 31q15 -57 49 -103z" />
    <glyph glyph-name="caron" unicode="&#x2c7;" horiz-adv-x="429" 
d="M269 589q27 -30 45 -79q10 13 24.5 28.5t34.5 35.5q1 1 3 3.5t7 7.5l51 4q-39 -29 -66.5 -53t-44.5 -45l-49 -31q-8 28 -20 53.5t-29 49.5z" />
    <glyph glyph-name="breve" unicode="&#x2d8;" horiz-adv-x="429" 
d="M318 589q-9 -28 -9 -51q0 -53 39 -53q49 0 58 82l39 22q-5 -31 -16 -54.5t-29 -40.5q-36 -34 -86 -34q-59 -2 -59 68v12t2 15z" />
    <glyph glyph-name="dotaccent" unicode="&#x2d9;" horiz-adv-x="429" 
d="M291 513l58 44l44 -57l-56 -40z" />
    <glyph glyph-name="ring" unicode="&#x2da;" horiz-adv-x="411" 
d="M319 460q-23 0 -40 17t-17 41q0 23 17 40t40 17q25 0 41 -17q17 -17 17 -40q0 -24 -17 -41q-15 -15 -41 -17zM319 482q13 0 25 10q9 9 11 26q0 15 -11 25q-10 10 -25 10t-25 -10t-10 -25t10 -26q10 -8 25 -10z" />
    <glyph glyph-name="ogonek" unicode="&#x2db;" horiz-adv-x="429" 
d="M217 0q-59 -42 -59 -79q0 -28 36 -29q11 0 29 5l-27 -37q-7 -1 -12 -1t-10 -1q-63 0 -63 43t78 99h28v0z" />
    <glyph glyph-name="tilde" unicode="&#x2dc;" horiz-adv-x="429" 
d="M213 460q4 37 27 61q23 23 52 23q18 0 46 -16l12 -7q14 -8 23.5 -11t17.5 -4q21 0 37 36l23 7q-12 -87 -77 -89q-21 0 -49 14l-16 10q-24 12 -37 12q-21 0 -34 -31z" />
    <glyph glyph-name="hungarumlaut" unicode="&#x2dd;" horiz-adv-x="429" 
d="M275 504l81 85l-25 -71l-73 -58zM377 504l80 85l-25 -71l-72 -58z" />
    <glyph glyph-name="Delta" unicode="&#x394;" horiz-adv-x="602" 
d="M67 66q5 -1 9 -1h6q47 0 135 156l175 310l67 13l22 -119l51 -233q9 -42 20 -77.5t24 -66.5l-55 -57l-517 9zM484 57l-91 407l-168 -285q-45 -76 -90 -114z" />
    <glyph glyph-name="Delta" unicode="&#x2206;" horiz-adv-x="602" 
d="M67 66q5 -1 9 -1h6q47 0 135 156l175 310l67 13l22 -119l51 -233q9 -42 20 -77.5t24 -66.5l-55 -57l-517 9zM484 57l-91 407l-168 -285q-45 -76 -90 -114z" />
    <glyph glyph-name="Omega" unicode="&#x3a9;" horiz-adv-x="616" 
d="M-8 6q39 33 65 42q27 9 87 9h53q-71 68 -71 172q-1 116 95 217q95 98 209 98q84 0 136 -50q51 -51 51 -134q0 -192 -201 -303h44h50q62 0 91 22l-6 -28q-60 -60 -110 -60h-21q-9 0 -18 1l-127 8l48 57q36 14 66.5 41.5t55.5 72.5q51 89 51 188q0 70 -35 117
q-34 46 -90 46q-82 0 -145 -88q-63 -87 -63 -204q0 -119 81 -173l-50 -61l-166 4h-19q-24 0 -54 -13z" />
    <glyph glyph-name="Omega" unicode="&#x2126;" horiz-adv-x="616" 
d="M-8 6q39 33 65 42q27 9 87 9h53q-71 68 -71 172q-1 116 95 217q95 98 209 98q84 0 136 -50q51 -51 51 -134q0 -192 -201 -303h44h50q62 0 91 22l-6 -28q-60 -60 -110 -60h-21q-9 0 -18 1l-127 8l48 57q36 14 66.5 41.5t55.5 72.5q51 89 51 188q0 70 -35 117
q-34 46 -90 46q-82 0 -145 -88q-63 -87 -63 -204q0 -119 81 -173l-50 -61l-166 4h-19q-24 0 -54 -13z" />
    <glyph glyph-name="pi" unicode="&#x3c0;" horiz-adv-x="611" 
d="M150 106l46 235h-16q-66 0 -121 -44l13 64q43 29 106 29h448l-9 -49h-111l-39 -198q-8 -40 -12 -62t-4 -28q0 -23 22 -23q44 0 110 77l-6 -32q-75 -84 -146 -84q-52 0 -52 58q0 5 4 30t14 73l38 189h-168l-69 -341l-75 -4z" />
    <glyph glyph-name="endash" unicode="&#x2013;" horiz-adv-x="367" 
d="M85 239h292l-9 -44h-292z" />
    <glyph glyph-name="emdash" unicode="&#x2014;" horiz-adv-x="735" 
d="M81 230h664l-7 -35h-664z" />
    <glyph glyph-name="quoteleft" unicode="&#x2018;" horiz-adv-x="186" 
d="M184 434l-44 58q10 136 130 136l-15 -22q-51 -9 -59 -74l44 -54z" />
    <glyph glyph-name="quoteright" unicode="&#x2019;" horiz-adv-x="186" 
d="M209 628l44 -56q-12 -138 -131 -138l15 22q53 11 60 76l-45 53z" />
    <glyph glyph-name="quotesinglbase" unicode="&#x201a;" horiz-adv-x="208" 
d="M123 115l53 -70q-5 -73 -45 -112t-113 -39l20 22q57 6 67 75l-53 72z" />
    <glyph glyph-name="quotedblleft" unicode="&#x201c;" horiz-adv-x="341" 
d="M338 434l-43 58q10 136 130 136l-15 -22q-51 -9 -59 -74l44 -54zM184 434l-44 58q10 136 130 136l-15 -22q-51 -9 -59 -74l44 -54z" />
    <glyph glyph-name="quotedblright" unicode="&#x201d;" horiz-adv-x="341" 
d="M209 628l44 -56q-10 -138 -130 -138l15 22q52 10 59 76l-44 53zM364 628l43 -56q-9 -138 -129 -138l15 22q52 11 59 76l-45 53z" />
    <glyph glyph-name="quotedblbase" unicode="&#x201e;" horiz-adv-x="341" 
d="M102 89l43 -57q-10 -138 -130 -138l15 22q53 11 59 76l-44 54zM257 89l43 -57q-10 -138 -130 -138l15 22q52 10 59 76l-44 54z" />
    <glyph glyph-name="dagger" unicode="&#x2020;" 
d="M283 310l-159 -15l24 54l139 -17l15 199l74 13l-66 -212l159 17l-24 -54l-140 15l-58 -416l-74 -9z" />
    <glyph glyph-name="daggerdbl" unicode="&#x2021;" 
d="M240 92l-160 -15l25 53l139 -16l38 193l-159 -15l25 53l139 -16l16 202l74 13l-68 -215l159 16l-25 -53l-138 15l-39 -193l160 16l-26 -53l-139 15l-13 -198l-74 -9z" />
    <glyph glyph-name="bullet" unicode="&#x2022;" horiz-adv-x="447" 
d="M263 157q-22 0 -37 16q-14 15 -16 37q0 22 16 37q15 16 37 16t38 -16q15 -15 15 -37t-15 -37q-15 -16 -38 -16z" />
    <glyph glyph-name="ellipsis" unicode="&#x2026;" horiz-adv-x="735" 
d="M103 71h71l-15 -71h-70zM346 71h71l-14 -71h-71zM589 71h71l-14 -71h-71z" />
    <glyph glyph-name="perthousand" unicode="&#x2030;" horiz-adv-x="783" 
d="M192 265q-41 0 -65 26q-25 25 -25 69q-1 69 41 121q40 49 98 50q43 0 66 -26q25 -24 25 -68q0 -73 -40 -122q-42 -50 -100 -50zM155 357q0 -69 43 -69q33 0 60 46q26 47 26 105q0 70 -43 70q-34 0 -60 -47t-26 -105zM423 0q-39 0 -65 26q-24 26 -24 68q0 71 40 121t98 50
q42 0 67 -25q25 -27 25 -69q1 -36 -10 -66t-31 -56q-40 -49 -100 -49zM386 90q-2 -68 44 -68q33 0 59 47t26 105q0 70 -43 70q-33 0 -60 -47q-26 -47 -26 -107zM554 544h47l-489 -557h-47zM685 0q-39 0 -65 26q-25 27 -25 68q0 69 41 121q40 50 98 50q42 0 67 -25
q25 -27 25 -69q1 -36 -10 -66t-31 -56q-40 -49 -100 -49zM648 91q0 -69 44 -69q33 0 59 47t26 104q0 71 -43 71q-33 0 -60 -47q-26 -47 -26 -106z" />
    <glyph glyph-name="guilsinglleft" unicode="&#x2039;" horiz-adv-x="279" 
d="M187 36q-37 82 -103 159q95 57 134 131l74 28q-24 -61 -135 -134q52 -64 92 -151l-62 -33v0z" />
    <glyph glyph-name="guilsinglright" unicode="&#x203a;" horiz-adv-x="279" 
d="M169 354q36 -84 103 -159q-96 -59 -134 -131l-75 -28q26 61 136 134q-53 63 -92 151l62 33v0z" />
    <glyph glyph-name="fraction" unicode="&#x2044;" horiz-adv-x="27" 
d="M296 544h49l-509 -557h-49z" />
    <glyph glyph-name="fraction" unicode="&#x2215;" horiz-adv-x="27" 
d="M296 544h49l-509 -557h-49z" />
    <glyph glyph-name="trademark" unicode="&#x2122;" horiz-adv-x="664" 
d="M153 509l-10 -49h-31l14 71h248l-14 -71h-31l10 49h-67l-45 -226h49l-4 -22h-151l5 22h48l45 226h-66zM470 476l-43 -215h-84l4 22h49l44 226h-48l4 22h120l28 -159l86 159h108l-4 -22h-49l-45 -226h49l-5 -22h-97l46 230l-114 -208h-15z" />
    <glyph glyph-name="partialdiff" unicode="&#x2202;" 
d="M132 464q54 111 150 111q73 0 114 -65t41 -183q0 -145 -61 -240q-61 -96 -153 -96q-49 0 -79 34q-29 35 -29 91q0 91 62 169t134 78q60 0 104 -62q0 212 -157 212q-67 0 -126 -49zM412 270q-37 71 -96 73q-53 0 -94 -59q-39 -57 -41 -136q0 -49 20 -81q18 -30 50 -30
q58 0 104 67q46 66 57 166z" />
    <glyph glyph-name="product" unicode="&#x220f;" horiz-adv-x="659" 
d="M80 53h7h18q42 0 61 30q20 31 38 120l55 275h-25q-138 0 -139 -109q0 -15 4 -32l-75 -35q33 229 334 229h253l64 -1q43 -1 72 6.5t45 21.5l16 -12q-33 -39 -72 -54q-19 -8 -45.5 -11t-61.5 -3h-21l-66 -336q-5 -23 -7.5 -44t-2.5 -38q-1 -36 33 -38q11 0 33 3l-5 -25
l-143 -9q-2 7 -2.5 13.5t-1.5 12.5q0 11 3.5 34t10.5 58l73 369h-199l-50 -250q-7 -34 -16 -60.5t-23 -46.5q-27 -39 -82 -74l139 -3l-50 -53l-225 9z" />
    <glyph glyph-name="summation" unicode="&#x2211;" horiz-adv-x="478" 
d="M70 53q22 0 37 4q48 13 145 142l61 80l-166 185l46 67h307l-30 -108h-24l1 7q2 5 2 9v10q0 33 -31 45q-29 10 -126 10h-82l177 -200l-129 -147q-73 -82 -106 -103l169 -8q8 -1 16 -1.5t16 -0.5q63 0 114 34l-5 -25q-49 -42 -77 -54q-27 -12 -70 -12q-8 0 -23 0.5t-36 1.5
l-239 11z" />
    <glyph glyph-name="minus" unicode="&#x2212;" horiz-adv-x="628" 
d="M220 327q-2 -13 -3 -21t-2 -13q0 -11 28 -12l30 -2l-5 -22h-186l4 22l31 2q25 2 29 7q2 3 5.5 12.5t6.5 26.5l28 140q2 6 2 10v10q0 12 -33 18l-23 4l5 22l126 13zM588 544h49l-509 -557h-48zM397 51q77 46 123 92q47 47 47 74q0 47 -43 47q-55 0 -65 -58h-26l12 65
q49 17 90 17q95 2 95 -67q0 -36 -25 -58q-12 -11 -53 -39t-110 -73h154l-10 -51h-199z" />
    <glyph glyph-name="radical" unicode="&#x221a;" horiz-adv-x="522" 
d="M121 155l107 56l96 -282l357 655h24l-377 -690h-37l-94 276l-68 -34z" />
    <glyph glyph-name="infinity" unicode="&#x221e;" horiz-adv-x="619" 
d="M341 178q-82 -116 -160 -116q-43 0 -70 31q-27 30 -27 79q0 73 51 131q51 60 113 60q40 0 67 -27t55 -93q90 120 158 120q42 0 69 -31t27 -79q0 -75 -50 -132q-50 -59 -113 -59q-41 0 -66 25q-26 24 -54 91zM329 197q-51 111 -102 111q-38 0 -72 -44q-31 -40 -33 -93
q0 -34 19 -54q21 -21 51 -21q64 -1 137 101zM382 225q51 -110 99 -112q37 0 71 43t34 92q0 33 -20 55q-11 11 -22.5 16.5t-28.5 5.5q-61 0 -133 -100z" />
    <glyph glyph-name="integral" unicode="&#x222b;" 
d="M417 516q-7 4 -13 4q-27 0 -40 -34q-6 -17 -14 -53.5t-18 -94.5q-16 -99 -18 -106l-6 -31q-16 -83 -34.5 -141.5t-39.5 -94.5q-41 -71 -103 -71q-47 0 -47 39q0 15 13 28q14 12 30 12q24 0 25 -22q0 -16 -19 -32q6 -3 12 -3q27 0 42 35q15 32 33 148q8 48 12 74t5 31
l7 30q20 84 36.5 144t36.5 95q41 71 103 71q45 0 46 -40q0 -16 -14 -30q-11 -12 -29 -14q-23 0 -23 25q0 17 17 31z" />
    <glyph glyph-name="approxequal" unicode="&#x2248;" 
d="M55 84q30 122 117 122q27 0 86 -34l40 -23q49 -28 74 -28q42 0 71 69h22q-34 -116 -118 -117q-32 0 -85 30l-39 22q-28 16 -46.5 24.5t-28.5 8.5q-42 1 -71 -74h-22v0zM84 235q31 121 118 121q27 0 86 -34l40 -23q50 -28 74 -28q41 -1 71 70h22q-35 -118 -118 -118
q-17 0 -38 8t-47 22l-39 22q-28 16 -46.5 24.5t-28.5 8.5q-43 0 -71 -73h-23v0z" />
    <glyph glyph-name="notequal" unicode="&#x2260;" 
d="M71 170h152l66 84h-201l8 40h224l60 80h44l-60 -80h122l-9 -40h-143l-65 -84h192l-8 -39h-216l-61 -80h-45l60 80h-128z" />
    <glyph glyph-name="lessequal" unicode="&#x2264;" 
d="M46 40h389l-8 -40h-389zM507 407l-329 -150l271 -149l-9 -42l-350 195l428 195z" />
    <glyph glyph-name="greaterequal" unicode="&#x2265;" 
d="M46 40h389l-8 -40h-389zM62 114l328 151l-270 149l8 42l351 -195l-428 -195z" />
    <glyph glyph-name="lozenge" unicode="&#x25ca;" 
d="M76 195l234 195l156 -195l-234 -195zM412 195l-114 136l-165 -136l111 -138z" />
    <glyph glyph-name="fi" unicode="&#xfb01;" horiz-adv-x="507" 
d="M-102 -181q36 -14 71 -14q50 0 79 35q28 35 41 115l69 408h-80l25 27h61q22 108 95 173t171 65q16 0 30 -1t28 -5l-51 -54q-17 10 -34 15.5t-35 5.5q-27 1 -46.5 -7.5t-33.5 -24.5q-27 -33 -43 -117l-10 -50h135l124 8l-28 -115l-35 -177q-8 -43 -8 -54q0 -22 21 -22
q35 0 107 79l-7 -34q-78 -84 -140 -84q-52 0 -52 54q0 9 1.5 24t6.5 37l33 164q7 34 7 55q0 38 -69 38h-101l-52 -308q-24 -142 -95 -217q-71 -77 -177 -77q-14 0 -28.5 1.5t-30.5 3.5zM444 509l101 66l-31 -66l-94 -48z" />
    <glyph glyph-name="fl" unicode="&#xfb02;" horiz-adv-x="514" 
d="M-101 -181q36 -14 71 -14q49 0 78 35t42 115l69 408h-81l26 27h60q24 95 97 156q74 60 166 60q48 0 109 -24q67 46 148 46q16 0 32 -1t33 -5l-49 -49q-42 20 -72 20q-55 0 -87 -45q-30 -42 -53 -154l-58 -288q-4 -20 -5.5 -33.5t-2.5 -20.5q0 -22 21 -22q36 0 108 79
l-7 -34q-78 -84 -141 -84q-50 0 -52 54q0 18 9 61l47 237q27 137 80 194q-53 34 -102 34q-63 1 -96 -33q-30 -31 -48 -119l-6 -29h134l-29 -31q-24 2 -46.5 3t-45.5 1h-18l-52 -307q-24 -140 -95 -217q-72 -78 -176 -78q-27 0 -60 6z" />
  </font>
</defs>
</svg>
